<?xml version="1.0" encoding="UTF-8" standalone="no"?>
<!DOCTYPE svg PUBLIC "-//W3C//DTD SVG 1.1//EN" "http://www.w3.org/Graphics/SVG/1.1/DTD/svg11.dtd">
<svg width="100%" height="100%" viewBox="0 0 1199 731" version="1.1" xmlns="http://www.w3.org/2000/svg" xmlns:xlink="http://www.w3.org/1999/xlink" xml:space="preserve" xmlns:serif="http://www.serif.com/" style="fill-rule:evenodd;clip-rule:evenodd;stroke-linejoin:round;stroke-miterlimit:2;">
    <g id="ArtBoard1" transform="matrix(0.982935,0,0,0.983193,-315.024638,-167.644976)">
        <rect x="320.494" y="170.511" width="1218.98" height="742.621" style="fill:none;"/>
        <g id="Buttons.jpeg" transform="matrix(1.156453,0,0,1.15615,331.61483,188.178876)">
            <path d="M226.501,599.961C224.352,599.929 221.58,600.394 219.796,598.245C219.698,598.126 219.084,596.478 217.339,594.652C217.17,594.476 216.867,594.426 216.421,593.553C215.759,592.258 215.723,592.254 214.43,591.603C212.549,590.655 212.377,588.686 210.342,586.655C208.329,584.645 208.284,584.725 206.314,582.676C205.025,581.336 205.466,581.036 204.318,579.658C203.884,579.137 203.737,579.312 198.315,573.675C197.035,572.344 197.483,572.039 196.321,570.655C195.958,570.222 195.841,570.366 191.321,565.669C190.054,564.352 190.487,564.05 189.318,562.658C189.068,562.36 182.89,556.575 182.406,555.56C181.202,553.032 180.266,552.709 177.774,550.228C175.707,548.171 175.535,547.814 175.412,547.557C174.394,545.442 173.911,545.225 170.768,542.223C170.022,541.51 170.046,541.508 169.202,540.9C168.972,540.734 168.449,540.654 168.155,539.633C167.855,538.589 167.997,538.529 167.304,537.669C167.188,537.525 167.182,537.534 164.775,535.217C163.737,534.217 163.703,534.282 162.416,533.627C160.9,532.856 161.504,531.563 160.721,530.378C159.536,528.584 158.402,527.805 157.644,527.276C156.036,526.153 154.659,526.059 154.138,523.613C153.76,521.836 153.538,521.919 151.781,520.212C150.748,519.207 150.726,519.237 149.429,518.611C147.175,517.524 146.382,513.774 145.298,512.696C144.792,512.192 143.192,511.66 141.757,510.243C138.898,507.42 140.389,506.039 137.443,504.582C136.606,504.168 133.745,501.301 133.391,500.568C132.493,498.709 132.468,498.725 132.397,498.56C131.495,496.467 130.644,496.901 129.772,496.187C129.574,496.024 127.51,493.878 127.315,493.676C126.048,492.359 126.479,492.059 125.311,490.662C125.037,490.333 119.903,485.57 119.402,484.565C119.082,483.923 119.119,483.908 118.615,483.391C118.457,483.229 118.36,483.01 118.186,482.866C117.989,482.702 117.698,482.666 117.52,482.481C117.443,482.402 117.495,482.392 116.724,481.353C114.377,478.191 113.204,478.148 112.408,476.561C111.931,475.608 112.007,475.55 111.187,474.865C110.99,474.701 110.703,474.66 110.526,474.475C110.449,474.396 110.499,474.387 109.728,473.35C107.518,470.377 103.098,467.03 102.394,465.567C101.461,463.628 101.305,463.736 99.779,462.223C95.696,458.176 95.623,458.024 95.401,457.563C94.238,455.14 93.878,455.41 89.32,450.67C88.046,449.345 88.483,449.054 87.318,447.657C86.982,447.254 80.904,441.597 80.409,440.56C80.1,439.915 80.133,439.902 79.625,439.381C79.466,439.219 79.378,438.991 79.204,438.847C79.005,438.683 78.709,438.656 78.528,438.473C78.369,438.311 78.622,438.129 76.78,436.233C72.686,432.02 72.672,432.041 72.319,431.673C71.05,430.352 71.471,430.062 70.304,428.669C69.942,428.236 69.831,428.36 65.323,423.668C65.24,423.582 64.79,423.351 64.407,422.56C63.468,420.618 63.299,420.744 61.781,419.222C57.684,415.113 57.637,415.016 57.413,414.556C56.468,412.611 56.328,412.718 54.775,411.217C53.743,410.22 53.708,410.281 52.417,409.626C51.038,408.925 50.514,406.117 49.302,404.671C48.2,403.357 46.876,402.444 46.64,402.281C45.206,401.292 44.902,401.615 44.377,400.58C42.744,397.363 42.822,396.249 39.429,394.61C37.124,393.496 37.106,390.691 36.287,389.684C35.151,388.285 35.06,388.377 33.438,387.594C32.774,387.274 30.534,384.938 30.298,384.692C29.022,383.361 29.487,383.119 29.014,381.748C28.639,380.662 26.683,379.707 26.441,379.589C25.78,379.266 23.54,376.933 23.303,376.686C22.826,376.188 22.519,376.229 22.162,374.619C22.07,374.204 22.288,374.101 21.625,373.392C20.851,372.565 20.153,372.585 18.767,371.232C15.725,368.261 15.565,367.927 15.393,367.567C14.466,365.629 14.309,365.737 12.775,364.226C8.719,360.23 8.621,360.025 8.4,359.563C7.467,357.615 7.308,357.737 5.779,356.223C1.641,352.126 1.602,352.019 1.422,351.54C1.137,350.782 1.151,350.76 1.104,341.495C1.09,338.795 1.347,338.843 1.743,337.591C2.609,334.854 1.616,330.92 2.393,328.461C3.63,324.551 3.042,324.465 3.131,319.49C3.177,316.916 3.983,317.05 4.103,314.49C4.313,310.004 3.514,309.921 4.759,305.59C5.457,303.163 4.818,297.593 5.431,295.477C7.054,289.878 5.474,288.856 6.433,285.478C6.713,284.493 7.064,284.527 7.165,275.492C7.26,266.989 6.759,265.314 7.368,263.45C8.284,260.645 8.147,260.611 8.115,256.495C8.093,253.545 7.706,253.506 8.372,251.452C9.464,248.084 9.268,248.034 9.116,244.495C9.029,242.499 9.158,242.514 9.752,240.592C10.537,238.053 9.747,232.568 10.401,230.465C11.573,226.703 11.032,226.632 11.141,221.489C11.195,218.923 11.975,219.049 12.095,216.489C12.306,211.995 11.546,211.919 12.76,207.589C13.434,205.184 12.839,199.615 13.441,197.481C14.916,192.251 13.564,189.604 14.441,186.481C15.048,184.322 15.245,184.311 15.115,169.496C15.089,166.586 14.686,166.546 15.368,164.45C16.465,161.08 16.269,161.03 16.114,157.495C16.025,155.488 16.156,155.501 16.75,153.593C16.92,153.05 17.428,151.417 17.121,146.494C16.997,144.498 17.17,144.519 17.754,142.592C18.511,140.096 17.766,134.577 18.411,132.469C19.548,128.749 19.026,128.687 19.15,123.489C19.212,120.926 19.966,121.05 20.088,118.488C20.301,113.991 19.583,113.922 20.76,109.587C21.339,107.458 20.884,101.464 21.441,99.481C21.955,97.653 22.077,97.652 22.168,89.493C22.242,82.899 21.762,79.294 22.365,77.449C23.266,74.69 23.137,74.656 23.111,70.495C23.099,68.386 22.765,68.353 23.377,66.454C24.463,63.086 24.269,63.037 24.119,59.494C24.034,57.493 24.167,57.509 24.753,55.592C24.943,54.972 25.381,53.541 25.129,47.494C25.064,45.945 24.949,45.938 25.403,44.466C27.004,39.274 25.703,39.114 26.198,35.463C26.304,34.679 27.011,33.177 27.09,31.489C27.303,26.986 26.567,26.914 27.76,22.588C28.421,20.191 27.842,14.61 28.441,12.481C30.257,6.019 27.787,1.768 30.413,1.194C30.711,1.129 42.07,1.077 42.546,1.14C43.284,1.238 45.017,2.054 46.507,2.127C46.609,2.132 55.496,2.116 55.504,2.115C57.505,1.991 57.485,2.162 59.408,2.753C62.123,3.588 70.237,2.697 72.533,3.406C76.54,4.642 76.63,3.968 85.509,4.15C88.069,4.202 87.945,4.974 90.509,5.088C96.857,5.37 97.747,4.482 102.413,5.76C104.821,6.419 114.319,5.835 116.518,6.443C119.364,7.231 120.196,7.257 140.503,7.095C142.561,7.079 142.596,6.717 144.553,7.362C147.38,8.293 147.417,8.146 153.504,8.112C156.482,8.095 156.522,7.718 158.546,8.375C161.256,9.256 161.3,9.137 169.504,9.113C171.648,9.107 171.68,8.791 173.542,9.385C176.197,10.233 176.23,10.121 182.504,10.124C183.171,10.124 183.838,10.152 184.504,10.124C186.052,10.059 186.06,9.941 187.535,10.4C191.807,11.73 191.901,10.933 199.509,11.143C202.075,11.214 201.95,11.976 204.509,12.089C206.812,12.191 213.797,11.922 215.525,12.426C220.821,13.973 227.258,12.531 230.519,13.441C235.843,14.927 241.301,13.546 244.519,14.442C246.236,14.92 246.243,15.044 256.506,15.148C267.891,15.262 270.681,14.765 272.547,15.374C275.279,16.265 275.325,16.141 283.504,16.111C285.632,16.103 285.665,15.779 287.543,16.383C290.209,17.24 290.243,17.125 296.504,17.122C297.171,17.121 297.838,17.148 298.504,17.12C300.053,17.055 300.062,16.934 301.537,17.397C305.809,18.738 305.904,17.934 313.509,18.137C316.087,18.206 315.952,18.98 318.509,19.091C320.823,19.191 327.789,18.907 329.529,19.413C332.019,20.136 332.05,19.841 338.506,20.09C342.009,20.225 342.032,19.873 345.441,20.671C347.255,21.095 356.549,20.845 358.534,21.394C362.583,22.515 362.654,21.79 367.496,21.999C372.494,22.214 372.483,22.177 383.503,22.099C385.556,22.084 385.591,21.724 387.55,22.366C390.323,23.276 390.359,23.143 396.504,23.114C397.17,23.111 397.838,23.133 398.504,23.105C400.512,23.019 400.499,23.146 402.408,23.748C403.919,24.225 405.666,24.129 412.504,24.117C414.667,24.113 414.698,23.808 416.539,24.391C420.838,25.752 420.943,24.942 428.509,25.133C431.076,25.198 430.947,25.984 433.509,26.099C435.766,26.201 442.813,25.908 444.528,26.419C448.496,27.603 448.579,26.961 457.509,27.171C459.956,27.229 459.859,27.957 463.507,28.088C469.863,28.316 469.934,27.578 474.415,28.759C475.428,29.027 476.105,29.205 487.504,29.183C498.002,29.163 499.908,28.824 501.551,29.365C504.363,30.289 504.411,30.147 512.503,30.103C514.595,30.092 514.629,29.749 516.547,30.373C519.264,31.257 519.299,31.133 525.504,31.117C526.171,31.116 526.838,31.14 527.504,31.112C529.508,31.027 529.494,31.157 531.408,31.751C532.937,32.225 535.42,32.121 539.505,32.124C540.171,32.124 540.838,32.152 541.504,32.125C543.042,32.06 543.051,31.941 544.535,32.402C548.792,33.725 548.895,32.929 556.509,33.143C559.069,33.214 558.945,33.974 561.509,34.086C563.934,34.192 571.789,33.924 573.524,34.429C579.091,36.047 584.089,34.484 587.519,35.441C592.624,36.866 598.4,35.566 601.52,36.439C603.407,36.967 603.419,37.035 613.506,37.143C625.809,37.273 628.657,36.754 630.548,37.371C633.292,38.267 633.328,38.138 639.504,38.116C642.544,38.106 642.581,37.756 644.542,38.385C647.213,39.242 647.247,39.124 653.504,39.122C656.584,39.121 656.617,38.797 658.536,39.399C662.792,40.732 662.893,39.932 670.509,40.137C673.089,40.207 672.954,40.978 675.509,41.088C677.952,41.194 685.778,40.91 687.525,41.425C693.071,43.057 698.103,41.467 701.521,42.436C704.288,43.22 704.322,42.892 714.509,43.18C717.047,43.252 716.941,43.931 719.489,43.988C721.33,44.029 735.999,44.357 742.503,44.089C744.503,44.006 744.494,44.119 746.41,44.738C749.455,45.721 756.949,44.539 759.545,45.378C762.244,46.25 762.278,46.129 768.504,46.12C771.585,46.115 771.619,45.786 773.539,46.393C777.826,47.748 777.933,46.939 785.509,47.134C788.078,47.2 787.949,47.982 790.509,48.096C792.884,48.202 800.808,47.908 802.527,48.42C808.152,50.092 813.106,48.456 816.522,49.434C821.835,50.954 827.275,49.537 830.519,50.441C832.519,50.998 832.533,51.05 843.506,51.172C849.364,51.237 857.549,50.938 858.548,51.124C859.443,51.292 861.208,52.075 862.506,52.143C863.893,52.215 871.527,51.947 872.546,52.141C873.543,52.331 875.089,53.061 876.507,53.13C878.095,53.207 885.618,52.962 886.55,53.153C888.478,53.547 888.279,53.943 889.671,55.332C891.116,56.774 891.217,56.694 891.584,57.445C891.897,58.087 891.866,58.099 892.373,58.621C892.531,58.784 892.624,59.008 892.798,59.153C892.995,59.317 893.287,59.35 893.466,59.533C893.625,59.695 893.384,59.882 895.217,61.769C896.705,63.3 896.722,63.259 898.232,64.765C899.682,66.21 899.891,67.569 901.664,69.34C903.671,71.345 903.706,71.279 905.682,73.328C906.952,74.645 906.519,74.935 907.689,76.336C908.051,76.77 908.17,76.638 912.685,81.324C913.953,82.64 913.517,82.932 914.688,84.338C914.719,84.375 916.099,85.536 916.573,86.45C917.735,88.689 918.457,87.994 920.242,89.758C922.986,92.469 921.65,93.939 924.562,95.41C925.236,95.751 927.461,98.067 927.697,98.314C928.159,98.794 928.489,98.779 928.84,100.381C928.933,100.81 928.713,100.903 929.374,101.609C930.183,102.473 930.792,102.357 932.236,103.764C934.013,105.495 934.019,105.493 935.247,107.635C936.086,109.098 935.699,109.495 937.557,110.417C938.116,110.694 939.527,112.159 939.686,112.324C940.96,113.647 940.527,113.936 941.695,115.334C941.912,115.593 941.97,115.529 944.67,118.338C944.779,118.45 945.189,118.628 945.588,119.443C946.538,121.38 946.671,121.279 948.227,122.781C948.966,123.494 948.932,123.514 949.787,124.105C950.684,124.726 950.713,124.7 951.261,125.631C951.835,126.606 951.596,126.722 952.267,127.648C953.61,129.503 953.93,129.536 955.228,130.78C955.974,131.494 955.95,131.498 956.795,132.109C957.038,132.284 957.54,132.344 957.84,133.368C958.148,134.424 958.011,134.481 958.697,135.332C958.842,135.511 958.85,135.501 961.225,137.783C962.997,139.487 963.366,139.124 964.259,140.632C964.834,141.605 964.598,141.711 965.266,142.648C967.331,145.546 969.194,146.226 969.487,146.513C969.565,146.591 969.521,146.602 970.288,147.638C970.945,148.527 970.914,148.529 971.68,149.331C972.944,150.653 972.51,150.945 973.681,152.344C974.043,152.777 974.163,152.635 978.681,157.329C979.955,158.652 979.512,158.953 980.679,160.346C981.042,160.779 981.161,160.633 985.683,165.327C986.962,166.655 986.519,166.955 987.682,168.343C987.885,168.586 993.124,173.442 993.602,174.436C994.536,176.379 994.699,176.267 996.224,177.775C998.271,179.8 998.462,180.188 998.588,180.444C999.374,182.041 999.33,182.11 1000.778,183.129C1000.997,183.283 1001.29,183.332 1001.479,183.521C1001.557,183.599 1001.515,183.609 1002.279,184.644C1002.945,185.545 1002.907,185.549 1003.666,186.343C1003.795,186.478 1004.168,186.613 1004.582,187.448C1005.64,189.585 1005.811,189.505 1007.574,190.39C1008.648,190.93 1008.972,192.427 1009.694,193.339C1009.808,193.483 1010.14,193.566 1010.576,194.451C1011.633,196.597 1011.836,196.558 1013.57,197.392C1014.333,197.76 1016.339,199.764 1016.609,200.443C1016.951,201.3 1016.623,201.643 1017.276,202.624C1019.097,205.36 1020.257,204.992 1021.244,205.796C1022.654,206.945 1022.815,208.192 1022.847,208.437C1022.86,208.542 1022.905,214.089 1022.845,214.547C1022.729,215.427 1021.736,217.27 1021.879,219.51C1022.041,222.037 1021.47,221.957 1021.028,224.437C1020.735,226.084 1021.01,227.193 1020.595,228.534C1020.125,230.053 1019.952,230.021 1019.862,232.516C1019.771,235.075 1019.087,234.95 1018.884,237.516C1018.858,237.849 1018.876,238.184 1018.861,238.517C1018.75,241.079 1018.054,240.961 1017.895,243.518C1017.854,244.183 1017.867,244.851 1017.841,245.517C1017.738,248.075 1017.048,247.957 1016.888,250.519C1016.811,251.766 1016.842,256.064 1016.877,256.507C1017.037,258.505 1016.87,258.494 1016.264,260.409C1015.831,261.777 1016.196,263.724 1015.617,265.544C1014.995,267.498 1014.745,267.459 1014.879,269.51C1015.01,271.517 1014.842,271.498 1014.253,273.407C1013.724,275.124 1014.025,277.159 1013.597,278.536C1013.122,280.065 1012.951,280.034 1012.867,282.516C1012.779,285.089 1012.033,284.959 1011.886,287.516C1011.848,288.182 1011.871,288.849 1011.85,289.515C1011.775,291.907 1011.082,292.077 1010.874,294.517C1010.845,294.849 1010.861,295.184 1010.845,295.517C1010.727,298.035 1010.099,297.982 1009.89,300.52C1009.862,300.852 1009.875,301.186 1009.857,301.519C1009.726,304.083 1009.054,303.968 1008.908,306.519C1008.856,307.426 1008.832,312.016 1008.87,312.508C1009.023,314.504 1008.853,314.489 1008.255,316.407C1007.327,319.376 1008.559,319.564 1007.615,322.543C1007.149,324.012 1006.937,323.977 1006.874,326.515C1006.811,329.081 1006.015,328.949 1005.881,331.514C1005.846,332.18 1005.879,332.848 1005.864,333.515C1005.809,336.075 1005.082,335.942 1004.874,338.515C1004.847,338.848 1004.868,339.182 1004.856,339.516C1004.761,342.078 1004.09,341.958 1003.878,344.517C1003.714,346.495 1003.775,346.493 1003.238,348.408C1002.779,350.044 1002.985,352.091 1002.566,353.523C1000.777,359.638 1002.692,363.256 1001.632,366.55C1001.379,367.337 1001.033,367.346 1001.004,369.491C1000.947,373.555 999.681,373.406 999.879,376.51C1000.007,378.505 999.845,378.486 999.253,380.407C998.725,382.123 999.016,384.171 998.595,385.535C998.136,387.023 997.95,386.99 997.861,389.516C997.77,392.079 997.087,391.958 996.881,394.516C996.722,396.49 996.782,396.488 996.239,398.408C995.777,400.04 995.991,402.084 995.569,403.523C993.762,409.682 995.693,413.257 994.633,416.551C994.417,417.223 994.019,417.422 994.004,419.491C993.987,422.001 994.019,422.013 993.264,424.41C992.836,425.769 993.193,427.71 992.614,429.543C992.156,430.991 991.939,430.956 991.872,433.514C991.805,436.079 991.077,435.951 990.879,438.515C990.853,438.847 990.876,439.182 990.865,439.516C990.778,442.075 990.084,441.953 989.884,444.516C989.728,446.51 989.784,446.502 989.24,448.409C988.776,450.035 988.996,452.08 988.571,453.524C987.856,455.958 987.964,455.966 987.853,458.519C987.742,461.071 987.052,460.956 986.905,463.518C986.663,467.73 987.26,471.595 986.632,473.55C986.38,474.334 986.035,474.347 986.004,476.49C985.953,480.062 984.962,479.926 984.874,483.514C984.811,486.08 984.074,485.95 983.88,488.514C983.865,488.704 983.947,490.366 983.589,491.532C983.099,493.125 982.962,493.095 982.866,495.517C982.765,498.084 982.047,497.961 981.896,500.517C981.749,502.996 981.905,503.014 981.236,505.407C980.725,507.234 980.976,510.069 980.56,511.521C979.907,513.802 979.779,513.798 979.869,519.508C979.902,521.62 980.244,521.652 979.633,523.551C979.381,524.336 979.035,524.347 979.005,526.491C978.954,530.072 977.958,529.936 977.876,533.514C977.817,536.083 977.071,535.952 976.88,538.514C976.866,538.705 976.952,540.367 976.592,541.533C975.843,543.955 975.929,543.962 975.858,546.515C975.792,548.898 975.078,549.071 974.878,551.516C974.716,553.499 974.777,553.497 974.238,555.408C973.725,557.222 973.985,560.044 973.56,561.521C973.361,562.214 972.483,565.266 972.884,570.507C973.037,572.516 972.871,572.504 972.267,574.41C971.833,575.777 972.198,577.729 971.619,579.545C971.154,581.004 970.931,580.969 970.877,583.514C970.822,586.084 970.068,585.951 969.88,588.514C969.707,590.865 970.483,592.774 966.508,592.808C960.268,592.861 960.271,592.813 888.502,592.961C886.027,592.966 886.056,593.14 884.518,593.557C883.621,593.8 883.617,593.828 815.501,593.931C804.634,593.947 804.616,593.884 803.417,594.242C801.139,594.923 801.112,594.829 790.501,594.843C721.833,594.935 721.834,594.907 721.529,594.952C720.329,595.132 719.758,595.813 717.505,595.85C716.274,595.87 638.874,595.877 638.528,595.933C637.35,596.121 636.791,596.834 634.506,596.871C633.396,596.889 556.857,596.854 556.527,596.91C555.393,597.105 554.824,597.855 552.506,597.892C551.409,597.909 473.822,597.831 473.525,597.887C472.449,598.085 471.862,598.874 469.506,598.909C463.739,598.997 390.457,598.652 389.601,598.99C389.219,599.141 388.929,599.475 388.552,599.639C387.583,600.059 387.406,599.926 308.501,599.811L226.501,599.961ZM458.156,392.185C458.372,392.077 458.322,391.677 458.538,391.57C458.657,391.51 459.775,390.951 459.924,392.5C459.956,392.841 459.659,393.159 459.691,393.5C460.569,393.996 460.533,395.147 461.084,394.286C461.636,393.424 460.701,386.606 460.971,380.508C461.148,376.525 459.72,375.728 459.394,371.507C459.343,370.846 459.339,370.181 459.29,369.52C459.195,368.254 457.038,361.307 456.72,360.416C455.878,358.057 456.061,358.018 455.116,355.675C453.594,351.904 454.172,351.649 451.993,348.183C451.852,347.958 449.631,343.461 449.623,343.442C448.1,339.824 448.842,339.508 446.638,334.438C445.808,332.529 446.063,331.209 445.325,329.577C443.737,326.064 443.235,326.289 442.129,322.595C441.625,320.911 440.723,320.076 439.88,316.418C439.046,312.801 439.555,312.637 437.841,309.326C436.686,307.093 437.538,306.792 436.349,304.583C432.475,297.385 433.77,296.475 430.294,291.635C429.979,291.197 429.597,290.664 427.317,285.582C425.65,281.862 425.616,278.874 423.837,276.274C423.134,275.246 422.499,273.529 420.309,270.633C418.017,267.601 418.088,265.644 413.429,260.564C412.826,259.906 412.271,259.585 409.828,256.273C407.892,253.65 405.774,252.679 404.584,250.452C402.279,246.142 399.957,246.584 400.701,244.595C400.917,244.017 401.358,244.434 406.448,239.447C407.764,238.158 408.753,237.733 410.233,236.239C413.332,233.108 413.225,232.927 415.327,232.035C418.529,230.675 417.959,229.905 420.616,227.642C421.386,226.987 424.591,224.569 426.143,223.103C429.004,220.4 429.454,220.983 432.35,218.333C432.726,217.988 434.011,216.813 437.653,214.781C438.457,214.332 439.405,214.388 442.27,211.288C447.077,206.088 449.949,205.181 452.212,203.175C453.951,201.632 457.586,198.668 458.003,198.091C459.581,195.911 459.413,195.76 460.71,194.79C465.976,190.85 469.028,186.887 471.665,184.722C472.292,184.207 473.145,183.964 475.256,180.357C478.11,175.48 477.115,175.152 477.634,169.51C477.927,166.32 476.75,164.378 476.913,163.608C476.924,163.555 478.069,162.271 477.716,158.484C477.018,150.998 475.693,150.304 475.173,147.57C474.753,145.358 474.949,145.294 473.874,143.304C472.34,140.465 471.718,136.85 470.963,135.281C470.138,133.569 469.871,130.527 468.823,128.358C467.576,125.777 467.444,122.962 465.82,120.305C463.416,116.373 464.459,116.008 463.184,111.591C463.035,111.074 461.834,108.167 461.756,107.482C461.645,106.505 462.032,105.775 461.099,101.593C460.518,98.985 460.304,99.058 459.631,96.468C459.35,95.386 456.513,86.657 456.101,85.661C455.675,84.628 455.543,84.709 455.133,83.675C454.19,81.295 455.181,80.993 453.129,76.663C452.853,76.081 452.87,76.081 449.065,66.656C448.371,64.936 446.802,63.167 445.439,60.535C444.109,57.966 443.18,57.26 439.812,55.029C437.452,53.466 437.231,53.767 435.237,51.756C434.677,51.191 434.617,51.267 427.593,45.386C424.4,42.713 424.092,43.233 421.733,42.066C420.748,41.579 418.147,40.041 415.678,39.033C412.795,37.856 411.718,36.68 408.477,35.571C405.486,34.547 405.534,34.462 402.474,33.594C400.333,32.987 395.126,30.73 391.571,30.071C387.53,29.321 387.569,29.175 383.478,28.686C380.245,28.299 379.212,27.533 374.466,26.823C373.347,26.656 372.308,26.986 369.596,26.187C363.216,24.309 363.04,25.455 358.457,24.744C353.956,24.045 353.91,24.571 349.445,23.71C345.72,22.992 343.91,23.761 341.504,23.466C334.874,22.653 322.482,23.037 321.44,23.18C318.752,23.548 317.713,25.645 314.688,24.12C311.728,22.627 311.578,23.304 308.549,23.786C305.281,24.307 303.708,23.187 303.696,26.51C303.681,30.479 299.784,28.211 298.88,26.365C298.665,25.927 299.03,23.589 293.524,24.619C291.277,25.039 291.237,24.973 289.295,26.185C287.985,27.003 286.556,27.106 286.546,27.106C286.141,27.088 286.182,26.85 281.552,26.183C278.594,25.756 278.599,26.05 276.513,26.554C272.666,27.483 262.539,25.291 259.337,28.324C258.135,29.462 257.4,30.349 255.63,29.283C254.428,28.56 254.409,28.49 249.505,28.295C242.003,27.996 237.32,30.356 232.473,31.337C228.14,32.215 227.962,32.446 225.706,34.77C223.966,36.562 223.366,34.458 221.518,34.317C221.037,34.28 221.053,34.585 215.503,34.636C212.465,34.665 212.539,35.246 209.497,35.435C205.907,35.658 206.145,36.633 201.537,37.672C195.502,39.033 194.138,40.2 193.624,40.64C193.551,40.702 192.686,41.55 192.605,41.629C190.878,43.322 190.287,41.964 188.494,42.484C187.848,42.671 186.946,43.615 185.581,43.169C184.406,42.785 183.634,41.938 182.593,44.542C181.427,47.459 180.427,46.411 177.274,48.069C175.833,48.827 175.561,48.511 172.442,49.244C169.718,49.884 168.022,48.84 167.492,50.498C167.142,51.593 167.576,51.746 166.441,53.453C165.364,55.074 164.789,54.554 160.6,56.683C156.009,59.017 157.713,54.154 157.396,53.564C156.574,52.031 153.97,53.701 153.722,53.86C148.33,57.319 147.235,56.665 146.921,59.519C146.548,62.914 152.747,65.164 149.643,68.619C145.79,72.908 149.729,72.823 150.402,72.994C153.699,73.832 151.698,76.281 151.511,76.509C150.248,78.055 147.576,78.821 150.218,81.759C153.656,85.581 152.653,86.206 152.537,87.505C152.344,89.661 153.519,90.005 153.944,92.427C154.438,95.242 154.557,95.278 157.091,97.89C160.059,100.95 161.223,99.718 161.811,101.339C162.776,104.002 159.008,106.361 159.732,108.433C159.957,109.077 161.082,110.128 161.243,111.524C161.412,112.983 161.102,113.126 162.696,115.373C165.483,119.305 165.533,120.028 165.565,120.496C165.706,122.562 164.188,123.1 166.157,126.682C167.508,129.142 167.165,130.87 168.832,134.352C170.821,138.507 172.177,139.293 171.836,143.524C171.571,146.82 168.106,148.241 169.863,151.28C171.331,153.819 174.876,152.191 176.463,152.088C178.5,151.957 178.583,152.241 180.388,151.293C182.773,150.04 182.82,150.173 185.271,149.049C185.802,148.805 188.955,146.073 191.384,147.661C193.197,148.846 193.383,148.715 196.534,147.597C197.897,147.114 198.098,147.388 200.218,145.212C202.037,143.345 203.14,144.723 205.352,142.378C205.933,141.762 205.598,141.269 209.522,139.553C213.139,137.971 213.645,139.85 217.663,137.849C219.7,136.834 219.796,137.058 221.712,135.843C225.554,133.405 227.924,133.413 228.501,133.416C229.665,133.42 230.985,133.847 234.449,132.389C236.629,131.472 236.984,130.179 240.508,130.386C243.736,130.575 243.649,129.917 246.477,129.377C250.053,128.694 250.028,128.672 253.539,127.644C255.597,127.042 257.661,127.433 260.336,126.156C262.464,125.14 262.618,125.962 266.488,125.426C274.315,124.342 274.349,124.615 279.491,123.457C282.613,122.753 293.748,122.519 295.43,122.172C297.572,121.729 303.496,120.173 304.509,120.17C305.465,120.168 308.325,120.81 311.414,120.096C316.858,118.837 316.986,120.408 322.51,119.553C323.646,119.377 325.594,118.373 327.404,118.814C329.096,119.226 329.096,119.316 337.499,119.346C343.019,119.366 343.004,118.977 348.514,119.248C354.298,119.532 354.315,118.798 368.475,119.971C372.369,120.294 372.908,117.083 377.756,120.073C381.094,122.131 384.079,120.647 387.331,121.927C389.325,122.712 389.328,122.672 391.442,122.988C391.66,123.021 393.784,123.338 394.044,123.892C394.125,124.065 393.853,124.244 393.855,124.435C393.859,124.711 394.124,124.967 394.062,125.235C393.998,125.511 391.598,126.778 389.806,128.767C389.715,128.868 386.863,132.098 385.42,133.405C384.045,134.65 384.309,134.841 383.369,136.426C381.19,140.104 379.978,139.936 377.509,142.508C373.3,146.891 372.233,145.281 370.612,146.656C369.892,147.267 369.413,148.496 367.517,149.528C362.776,152.109 363.051,153.995 361.29,155.232C359.92,156.195 358.364,154.887 356.819,156.784C356.363,157.343 356.015,157.984 355.59,158.568C354.163,160.531 349.902,160.362 349.544,163.505C349.506,163.835 349.53,164.169 349.511,164.501C349.497,164.734 349.396,166.458 348.285,167.148C346.247,168.414 344.811,166.494 343.003,169.226C342.916,169.358 342.779,169.459 342.714,169.603C341.937,171.328 342.023,171.361 341.336,172.391C339.76,174.755 339.802,174.777 337.81,176.802C336.569,178.064 336.771,178.357 331.663,181.761C330.169,182.757 330.077,182.602 328.701,183.752C326.712,185.413 324.789,183.87 322.835,185.826C321.877,186.786 321.285,189.902 321.061,190.156C320.438,190.863 318.31,189.8 315.933,191.972C313.938,193.795 313.993,193.846 311.448,195.427C310.629,195.935 306.938,199.306 306.66,199.629C305.074,201.464 304.859,204.557 303.549,205.553C299.613,208.547 299.418,208.362 298.719,209.61C296.925,212.818 295.789,210.46 293.382,211.064C290.486,211.791 292.016,216.227 287.534,216.701C285.31,216.936 284.868,216.183 278.29,221.212C270.652,227.05 271.391,227.978 267.427,230.375C264.317,232.255 264.469,232.596 262.413,233.018C261.766,233.151 261.096,233.156 260.451,233.299C259.412,233.529 257.759,235.321 256.291,236.101C251.79,238.494 249.93,237.84 250.695,241.451C250.764,241.775 250.641,241.792 251.379,245.533C252.019,248.775 248.177,247.239 247.632,249.536C247.194,251.384 249.052,256.514 249.047,258.514C249.047,258.86 248.584,260.27 250.493,263.505C251.515,265.237 252.724,264.637 255.08,267.806C255.443,268.295 255.53,268.81 257.526,270.474C260.879,273.267 256.741,275.506 256.398,277.482C256.212,278.555 257.006,281.397 257.637,282.418C257.929,282.89 259.797,284.952 260.1,285.676C260.898,287.58 260.454,288.023 262.323,288.903C264.06,289.72 264.515,289.571 264.685,291.486C264.793,292.712 264.006,293.176 266.59,295.394C270.04,298.354 269.81,298.607 271.298,302.577C272.006,304.466 273.388,307.067 273.59,307.448C274.061,308.336 275.058,309.471 274.669,311.53C274.298,313.495 273.686,313.662 274.845,315.289C276.5,317.613 274.127,318.077 275.27,321.577C275.418,322.033 278.304,328.837 278.571,329.467C280.435,333.865 282.858,330.947 285.421,330.265C290.029,329.039 292.922,329.056 294.403,328.308C297.308,326.842 297.233,326.592 300.448,326.081C301.134,325.971 303.629,325.324 304.468,325.243C308.101,324.893 308.059,324.739 311.575,323.795C313.299,323.332 316.277,323.538 317.424,323.209C320.469,322.337 320.425,321.802 323.546,322.24C327.026,322.727 327.013,322.185 330.525,321.92C336.052,321.503 336.02,321.349 341.419,320.107C344.019,319.509 343.958,318.611 346.48,318.321C346.548,318.313 354.358,317.874 354.473,317.879C358.925,318.071 360.256,320.735 363.424,319.322C365.386,318.448 365.394,318.01 367.48,318.567C369.809,319.189 369.858,319.16 371.542,318.623C375.028,317.511 375.237,320.093 379.566,318.689C379.797,318.614 381.63,318.019 382.569,318.242C384.308,318.653 383.741,320.752 386.455,320.987C390.993,321.38 392.578,319.021 395.24,322.676C397.277,325.473 398.547,325.666 396.765,328.647C396.417,329.228 396.728,329.364 393.014,336.24C392.24,337.671 391.582,340.094 390.033,342.135C386.588,346.675 387.809,347.448 385.257,350.276C383.108,352.658 383.48,352.946 381.263,355.274C379.831,356.778 379.257,357.934 377.127,360.137C373.404,363.987 373.38,363.944 370.07,368.128C369.898,368.345 369.794,368.218 367.74,370.688C365.834,372.981 365.483,372.643 363.923,374.811C360.994,378.881 360.395,378.309 356.906,381.913C354.894,383.992 354.72,383.83 353.095,386.241C350.888,389.516 349.972,388.535 346.637,391.647C344.307,393.822 344.137,393.616 341.944,395.935C339.035,399.012 337.003,399.07 332.631,402.665C331.448,403.639 331.326,403.461 328.641,405.683C326.307,407.615 323.434,408.598 320.676,410.739C318.391,412.512 317.051,412.711 314.647,414.68C311.518,417.243 306.168,419.71 301.684,422.771C299.946,423.957 295.691,425.41 293.613,426.695C287.881,430.242 287.292,428.989 281.363,432.242C280.424,432.757 273.954,435.106 272.661,435.811C269.436,437.57 269.093,436.591 264.488,438.471C263.183,439.004 263.159,438.921 253.473,441.399C249.778,442.345 249.638,441.375 246.436,442.283C244.922,442.712 244.942,442.912 237.498,442.86C236.734,442.855 236.718,442.936 231.44,441.793C228.669,441.193 227.837,440.162 222.571,439.112C218.005,438.201 217.708,437.026 213.43,434.628C211.484,433.538 211.528,433.48 209.436,432.67C208.867,432.45 208.929,432.341 202.549,429.402C201.151,428.758 200.802,428.088 199.545,427.422C194.55,424.778 195.009,424.013 192.316,422.923C190.507,422.19 188.941,423.003 185.865,420.114C183.394,417.794 183.132,416.092 181.254,414.883C178.175,412.901 175.374,412.902 174.985,411.316C174.498,409.335 175.045,408.885 173.26,407.892C172.744,407.605 171.658,407.537 168.596,404.407C164.778,400.505 164.607,400.718 163.737,400.145C158.672,396.81 159.319,390.628 157.441,388.55C155.561,386.471 154.323,387.746 151.63,384.4C149.79,382.115 149.756,382.14 148.49,379.505C147.791,378.049 147.539,378.191 147.04,376.649C146.208,374.074 146.386,373.953 144.767,372.24C143.062,370.436 140.024,364.157 135.974,358.185C134.356,355.798 133.651,356.465 131.932,354.165C130.847,352.712 130.866,352.72 129.579,351.422C128.54,350.375 128.614,349.804 126.447,347.552C124.988,346.035 125.082,345.519 123.227,343.789C122.466,343.078 121.477,342.565 121.044,340.595C120.566,338.419 121.11,338.059 119.337,336.722C119.152,336.583 117.8,335.563 116.571,335.91C115.423,336.234 113.851,338.194 112.537,337.418C112.138,337.183 111.891,336.748 111.524,336.466C110.029,335.316 109.209,335.572 109.163,337.456C109.138,338.478 109.322,338.452 109.283,339.488C109.082,344.805 108.415,345.158 111.467,349.527C112.03,350.333 115.498,353.652 115.569,357.501C115.621,360.267 114.966,360.449 116.313,362.611C116.612,363.092 118.588,367.691 120.66,370.381C124.707,375.636 124.028,378.514 126.624,381.388C128.997,384.016 126.868,385.068 129.065,387.834C130.748,389.953 132.051,388.774 132.973,391.32C132.991,391.37 133.823,394.472 134.788,396.37C136.016,398.785 135.892,398.839 136.172,401.531C136.622,405.847 140.575,407.43 140.196,412.462C139.903,416.361 139.728,416.57 141.783,419.3C144.384,422.753 142.808,423.601 145.252,426.683C149.355,431.856 148.721,432.245 149.99,434.185C150.694,435.262 151.037,435.048 153.69,440.405C154.391,441.82 154.936,443.284 156.722,445.309C158.182,446.963 160.116,450.133 160.383,450.571C162.09,453.368 162.562,453.085 163.883,456.356C166.654,463.222 169.494,463.14 170.554,464.454C171.726,465.908 171.706,465.947 173.356,466.806C174.011,467.148 179.159,470.84 180.039,471.898C180.969,473.015 181.209,473.909 184.863,477.102C188.089,479.92 187.379,480.552 190.409,483.591C192.533,485.721 192.279,485.951 194.767,488.197C197.077,490.282 198.686,493.259 203.451,495.593C207.013,497.339 207.764,496.528 209.411,499.554C210.722,501.963 211.243,502.354 211.474,502.528C215.49,505.544 218.009,504.448 218.89,507.378C219.14,508.211 219.037,511.425 222.45,510.35C224.732,509.632 225.33,506.818 228.79,509.046C231.957,511.086 232.205,510.952 233.429,513.534C235.13,517.122 237.697,515.222 239.608,520.463C240.324,522.429 243.2,525.24 245.5,525.503C246.999,525.674 247.957,524.693 250.407,527.577C252.474,530.01 252.691,529.769 254.93,532.064C258.163,535.377 259.004,532.103 259.617,531.682C261.519,530.375 262.675,532.844 265.325,533.906C268.054,534.999 270.003,534.599 272.499,534.636C273.085,534.645 274.817,534.886 276.44,534.347C277.94,533.85 277.93,533.875 279.517,533.714C282.876,533.375 286.719,531.23 288.467,531.128C290.608,531.003 291.599,531.448 295.334,530.075C296.919,529.492 296.889,529.443 297.475,529.356C299.7,529.025 299.716,529.128 302.363,528.145C308.178,525.983 309.27,525.998 311.629,524.758C313.731,523.653 314.783,523.98 320.642,520.782C324.671,518.584 326.461,519.142 334.298,515.111C337.88,513.268 337.83,513.203 341.606,511.777C343.962,510.887 347.203,508.966 347.544,508.542C348.683,507.127 347.549,504.978 350.52,505.103C351.114,505.128 353.169,505.788 355.612,504.682C355.729,504.629 356.683,504.197 356.808,503.615C356.837,503.478 357.09,502.298 356.286,501.94C356.109,501.861 353.025,501.927 352.144,499.653C350.482,495.364 358.302,495.787 358.62,494.567C358.876,493.587 358.698,493.499 357.776,493.075C356.647,492.557 355.42,493.258 353.771,492.128C348.996,488.854 353.81,487.751 355.477,487.398C358.544,486.75 361.311,489.282 361.508,485.501C361.575,484.226 361.326,484.076 362.258,483.197C363.161,482.346 364.275,482.832 364.616,483.403C365.48,484.854 365.912,488.747 368.605,487.705C369.042,487.536 370.668,485.495 371.731,484.885C372.583,484.395 375.045,483.275 376.636,481.632C378.714,479.486 378.268,477.983 380.463,477.373C382.271,476.87 383.613,477.274 384.086,473.465C384.131,473.106 384.086,471.29 385.259,470.205C386.78,468.797 389.245,471.343 390.397,471.071C392.378,470.603 391.517,468.959 393.557,468.832C395.634,468.704 395.713,468.949 396.422,468.4C396.563,468.29 397.925,467.233 396.844,466.198C395.807,465.206 393.379,466.496 392.61,464.452C391.507,461.516 395.573,461.738 396.319,461.241C398.328,459.903 396.229,457.522 393.592,457.023C390.965,456.525 390.48,458.734 388.541,458.358C387.35,458.127 385.948,455.488 388.524,454.572C393.198,452.908 392.742,451.675 394.495,451.7C395.902,451.72 396.461,454.158 399.416,454.864C400.4,455.099 400.472,455.157 403.529,453.552C407.289,451.578 405.178,449.431 405.247,448.477C405.353,446.989 410.599,443.537 412.5,443.491C412.862,443.483 414.304,443.836 414.427,443.928C414.564,444.03 414.496,444.265 414.555,444.426C414.861,445.265 415.088,445.247 414.816,446.531C414.568,447.703 414.526,447.703 413.641,448.524C412.426,449.651 411.175,449.924 410.872,450.668C410.62,451.288 410.618,451.351 411.071,451.839C411.262,452.045 411.728,452.917 412.818,451.831C413.473,451.18 413.503,450.551 413.533,450.504C413.676,450.276 415.311,448.512 415.495,448.383C415.579,448.324 416.051,448.411 416.661,447.731C418.93,445.199 416.734,442.836 416.45,442.531C415.158,441.14 414.642,441.401 414.374,439.506C414.164,438.019 415.229,436.384 416.668,438.321C418.873,441.29 419.932,440.612 423.429,440.149C425.161,439.92 427.546,441.046 426.793,437.466C426.238,434.824 425.841,432.974 428.514,432.617C431.814,432.177 431.797,432.107 432.533,432.164C433.497,432.238 435.989,433.297 434.967,428.407C434.007,423.809 429.369,426.489 428.445,424.534C427.628,422.803 427.966,418.072 430.359,418.902C431.036,419.137 431.516,421.776 432.472,421.833C432.612,421.841 433.59,421.9 433.672,420.543C433.712,419.871 433.573,419.197 433.6,418.525C433.656,417.092 435.315,415.508 436.67,416.127C437.496,416.504 437.238,418.521 438.484,418.428C439.627,418.342 439.335,416.719 441.465,414.467C443.764,412.036 445.842,412.559 444.579,409.464C443.74,407.409 444.121,407.261 445.065,406.128C446.432,404.487 444.924,401.406 449.464,401.076C451.799,400.906 455.654,402.839 456.331,399.447C456.788,397.162 456.716,397.155 456.966,396.728C457.121,396.463 457.654,396.303 457.795,394.583C457.822,394.246 457.807,393.906 457.819,393.568C457.852,392.671 457.849,392.684 457.867,392.609C457.931,392.346 458.092,392.446 458.156,392.185ZM527.057,372.5C526.852,378.415 527.288,378.424 526.614,384.512C526.187,388.375 525.721,398.663 526.343,403.525C526.608,405.594 526.015,405.823 526.135,408.527C526.179,409.497 526.325,409.491 526.106,410.456C525.767,411.953 525.529,411.972 525.973,413.447C526.275,414.45 526.552,414.444 526.203,415.434C526.024,415.94 525.384,416.213 525.432,419.502C525.515,425.103 525.658,425.085 525.787,426.475C525.89,427.593 525.357,427.582 525.436,440.499C525.438,440.814 525.454,443.425 525.175,444.418C524.61,446.429 524.739,446.436 524.622,448.506C524.592,449.04 524.434,451.832 521.373,454.351C521.029,454.634 520.665,454.894 520.286,455.125C518.688,456.099 518.632,456.014 517.315,457.328C515.41,459.228 512.601,459.634 513.592,464.48C514.151,467.218 514.191,467.93 515.468,468.565C518.036,469.842 517.733,470.222 519.629,472.388C522.761,475.967 521.454,476.759 522.379,479.545C522.685,480.465 523.932,483.227 524.5,483.5C524.724,483.608 526.674,483.658 527.234,483.961C527.365,484.032 527.221,484.23 528.742,485.054C530.529,486.022 530.96,485.811 531.709,488.439C532.644,491.717 535.606,490.177 536.373,491.579C537.129,492.962 533.9,495.5 535.725,497.265C536.802,498.306 539.178,497.431 539.651,500.479C539.802,501.455 539.507,504.005 543.427,504.878C545.889,505.427 545.839,505.616 547.653,507.347C549.397,509.012 551.879,509.726 552.138,513.52C552.282,515.623 551.874,518.745 552.546,519.461C552.584,519.502 554.314,520.428 555.502,520.436C557.445,520.448 561.234,517.711 561.478,521.501C561.573,522.965 561.54,522.961 561.883,524.38C562.564,527.192 560.125,528.379 561.788,530.254C562.537,531.098 564.7,532.428 565.057,532.878C566.187,534.305 566.01,534.495 568.257,535.902C568.742,536.206 569.909,536.937 575.368,535.128C581.575,533.071 580.42,530.671 587.584,525.621C589.633,524.177 589.294,523.7 591.566,522.632C591.989,522.433 591.915,522.321 596.51,519.516C598.838,518.095 599.102,516.032 603.557,513.594C608.039,511.142 608.016,509.751 610.466,508.44C610.78,508.272 610.746,508.227 614.262,506.115C616.31,504.884 617.565,502.636 622.605,499.674C626.993,497.095 626.436,496.31 629.564,494.608C632.223,493.161 632.648,491.674 636.514,489.523C639.672,487.767 639.289,487.22 645.393,483.338C651.071,479.727 650.229,478.083 654.315,476.094C656.946,474.814 656.619,474.326 662.562,470.599C666.24,468.292 665.702,467.649 669.162,465.029C670.252,464.204 670.162,464.098 674.805,460.95C680.21,457.285 679.81,456.758 685.246,453.137C688.758,450.797 687.988,449.844 691.603,447.677C696.413,444.793 698.179,441.369 700.718,439.876C700.78,439.84 701.603,439.515 702.673,438.773C705.095,437.092 705.025,436.974 707.349,436.047C711.726,434.301 709.196,431.583 711.474,430.457C712.297,430.051 715.688,429.763 718.065,427.116C720.409,424.506 721.141,423.876 719.643,422.367C718.433,421.147 718.038,421.16 718.384,419.462C718.809,417.378 722.134,417.866 724.493,417.456C728.043,416.838 728.146,417.413 730.504,416.508C730.988,416.322 734.585,414.943 736.04,413.128C736.514,412.536 736.857,411.026 738.47,410.418C739.102,410.18 739.93,410.311 742.394,408.358C744.885,406.384 744.942,406.462 747.176,404.183C753.011,398.23 759.574,396.204 760.633,393.558C760.775,393.202 761.01,390.878 762.487,390.46C764.94,389.766 765.117,390.075 766.06,389.087C767.201,387.892 766.268,385.575 766.272,385.483C766.338,383.729 769.18,383.928 769.462,383.948C771.584,384.096 772.293,384.507 778.557,378.561C779.867,377.317 779.803,376.838 781.34,376.148C782.516,375.621 786.697,374.57 787.858,371.648C788.521,369.978 788.051,369.609 789.586,368.654C790.774,367.915 793.123,368.043 793.682,364.54C794.131,361.726 796.084,362.984 797.35,361.387C797.42,361.299 797.325,361.249 798.131,360.23C800.258,357.546 801.625,360.383 804.335,358.291C804.645,358.052 804.56,357.969 807.914,354.963C808.15,354.752 809.685,353.969 809.602,352.496C809.584,352.168 809.414,351.866 809.349,351.544C808.59,347.807 812.84,349.247 813.452,349.144C816.528,348.624 817.958,346.673 818.22,346.315C818.431,346.028 818.284,345.953 820.332,342.4C820.895,341.424 820.77,341.377 821.339,340.386C821.873,339.455 822.057,339.598 825.552,338.744C828.007,338.144 828.227,338.535 829.334,337.357C830.544,336.067 830.497,336.039 831.808,334.854C834.104,332.777 833.168,331.008 835.512,330.562C837.092,330.261 837.403,330.699 838.271,329.352C838.404,329.145 838.869,327.701 840.422,327.251C841.67,326.889 842.022,327.433 844.133,325.164C846.551,322.563 848.274,321.954 849.085,321.083C849.706,320.416 850.543,318.844 854.825,315.978C857.849,313.954 857.615,313.698 859.951,310.918C860.471,310.3 863.014,308.304 864.5,306.5C865.424,305.38 870.032,302.192 872.079,299.215C874.944,295.048 875.737,295.734 878.803,291.726C878.848,291.666 880.976,289.269 881.05,289.168C882.74,286.825 882.865,286.954 884.922,284.941C887.125,282.785 886.633,282.402 888.899,279.869C892.296,276.073 891.31,275.23 894.604,272.634C896.643,271.027 896.644,270.968 897.584,268.534C898.686,265.683 899.495,266.122 900.959,262.696C902.775,258.446 903.714,255.738 904.796,253.637C907.455,248.474 906.695,247.223 907.346,244.461C908.341,240.244 908.499,240.254 908.468,235.501C908.421,228.414 908.558,228.403 907.262,221.549C906.958,219.94 907.305,219.411 906.008,215.665C904.932,212.555 903.87,208.287 899.583,201.442C898.676,199.994 897.772,200.099 895.535,194.486C895.375,194.086 895.436,194.073 893.619,189.456C891.997,185.335 889.762,183.464 888.244,179.595C887.938,178.816 883.208,167.355 882.193,165.675C880.323,162.576 880.667,160.698 877.023,154.804C875.479,152.308 875.603,152.259 874.083,149.746C871.287,145.121 871.208,145.19 868.591,140.444C867.951,139.284 867.65,139.488 865.964,136.264C864.082,132.662 863.899,132.786 861.363,129.603C859,126.637 859.594,126.2 856.252,122.743C854.022,120.437 854.235,120.249 851.788,118.153C850.734,117.25 849.375,115.535 846.348,113.761C843.497,112.091 843.355,112.278 841.065,109.918C839.107,107.899 837.661,108.905 834.862,107.04C833.096,105.864 833.19,105.761 831.426,104.612C828.604,102.774 828.609,102.779 825.464,101.598C820.338,99.674 813.526,96.093 812.547,95.432C808.887,92.96 808.913,92.744 804.562,92.033C798.939,91.114 795.129,86.527 789.47,85.735C786.647,85.34 786.371,85.991 781.388,83.756C773.69,80.304 772.265,80.011 771.426,79.838C767.784,79.088 767.683,79.464 764.3,77.943C761.396,76.638 761.079,77.672 751.579,74.304C746.884,72.639 746.605,73.83 741.593,72.203C738.881,71.324 738.761,71.78 736.59,71.184C733.073,70.218 732.994,70.546 729.563,69.344C724.721,67.647 724.544,68.467 719.553,67.302C717.851,66.905 713.589,66.177 712.399,65.837C712.014,65.727 708.847,64.823 707.486,64.875C707.166,64.888 706.854,65.033 706.535,65.008C706.21,64.983 706.246,64.753 702.51,64.413C699.828,64.168 697.525,63.046 695.472,62.847C683.709,61.71 683.697,61.859 681.545,61.33C678.467,60.573 674.578,61.131 672.448,60.783C670.446,60.457 670.469,60.27 667.496,60.404C663.63,60.579 662.228,59.161 657.517,59.07C653.663,58.995 653.12,59.226 650.445,58.83C642.896,57.712 642.576,58.91 639.496,58.535C635.745,58.079 635.743,58.09 630.503,58.54C626.953,58.845 625.404,57.558 622.445,58.306C620.112,58.896 620.126,59.057 617.482,58.919C612.562,58.662 612.076,60.337 608.487,59.559C605.005,58.804 604.419,59.667 601.535,59.863C599.014,60.034 599.027,60.04 596.601,60.793C593.43,61.778 592.397,59.923 588.72,61.909C585.801,63.485 585.808,63.68 582.496,63.728C579.571,63.77 579.724,64.778 575.521,64.953C573.003,65.058 573.017,65.068 570.497,65.095C568.672,65.115 565.743,66.015 566.181,68.572C566.351,69.56 566.668,69.47 566.753,70.475C566.937,72.651 565.709,72.084 562.733,75.686C560.639,78.22 560.455,78.055 557.428,79.328C555.123,80.298 553.504,79.628 552.162,83.375C551.559,85.057 551.651,85.074 550.835,86.665C549.862,88.564 550.414,88.702 550.052,106.483C549.96,111.01 550.193,111.021 549.475,115.496C548.829,119.524 549.364,123.563 548.873,128.541C548.095,136.424 548.081,138.617 548.075,139.496C548.042,144.432 547.815,144.399 547.528,146.505C547.189,148.995 547.909,149.968 547.18,152.418C545.667,157.499 547.617,159.149 546.083,166.415C545.012,171.487 544.945,174.549 544.344,177.469C543.731,180.449 543.895,180.467 543.253,183.446C542.602,186.469 543.668,192.885 541.812,198.607C539.781,204.868 541.191,207.062 539.309,215.453C537.94,221.552 539.099,223.057 537.886,230.55C537.478,233.069 536.74,234.312 536.736,237.499C536.734,239.513 536.813,239.512 536.35,241.463C535.566,244.769 536.325,244.872 535.45,248.488C534.73,251.465 535.422,251.561 534.614,254.534C533.349,259.19 534.572,260.544 533.812,266.55C533.247,271.018 533.221,271.002 533.326,275.5C533.372,277.493 532.678,277.397 532.563,280.505C532.33,286.826 532.897,288.038 532.036,292.402C531.459,295.329 531.871,295.369 531.079,301.448C530.248,307.836 531.554,308.209 530.326,316.479C529.849,319.698 530.267,319.724 529.307,326.474C528.781,330.17 529.699,336.08 528.422,342.485C527.513,347.043 528.608,352.987 527.353,360.475C527.194,361.424 527.101,361.977 527.057,372.5ZM645.982,156.937L646.752,158.5C646.831,158.839 646.619,159.186 646.612,159.534C646.591,160.548 646.685,160.527 646.606,161.548C646.584,161.836 646.357,164.782 646.013,165.103C645.321,165.75 644.927,164.596 644.894,164.5C644.843,164.349 644.896,164.353 644.918,162.5L644.816,161.5L643.03,160.366C643.164,160.047 643.157,159.681 643.291,159.362C643.404,159.095 643.598,158.633 645.982,156.937ZM639.548,202.5C639.615,202.192 639.501,201.863 639.568,201.555C639.601,201.404 639.954,199.773 641.328,200.741C641.967,201.192 641.772,202.712 641.203,203.163C641.002,203.321 640.695,203.299 640.494,203.458L639.548,202.5Z" style="fill:white;fill-opacity:1;"/>
            <path d="M645.982,156.937C646.125,156.739 646.467,156.759 646.61,156.562C647.268,155.655 647.046,155.572 646.931,154.453C646.907,154.219 646.716,152.369 647.569,151.578C648.279,150.921 650.271,151.021 650.509,151.034C654.552,151.238 661.127,150.709 666.494,151.546C672.461,152.475 672.49,151.938 678.518,152.156C690.201,152.578 690.237,152.096 694.431,152.854C701.712,154.168 709.681,154.095 713.452,154.815C718.531,155.784 718.554,155.338 724.505,155.376C727.372,155.394 729.738,156.835 730.628,157.122C734.861,158.483 735.386,157.226 742.401,159.765C746.869,161.382 748.147,160.672 750.53,161.399C751.231,161.612 751.914,161.885 752.617,162.092C753.04,162.216 756.016,162.646 756.448,162.745C758.503,163.217 763.33,164.117 764.485,164.542C767.004,165.468 766.963,165.699 771.518,166.013C775.199,166.267 775.378,167.598 778.261,166.02C783.129,163.356 781.36,167.527 781.412,168.512C781.48,169.811 783.854,169.937 785.484,170.54C789.175,171.907 789.43,171.527 791.436,171.872C794.62,172.419 796.131,174.623 806.523,177.423C807.398,177.659 815.184,179.756 817.308,180.876C819.895,182.24 820.031,181.735 822.566,182.101C825.613,182.542 825.55,184.98 829.504,184.916C833.985,184.842 833.864,184.052 835.519,183.895C836.415,183.81 837.437,184.686 837.622,185.467C838.002,187.077 837.201,187.67 834.786,191.66C832.67,195.155 833.394,195.604 830.67,198.653C826.062,203.81 826.879,205.551 821.951,209.971C816.109,215.21 816.723,217.957 815.52,219.516C815.484,219.564 811.408,222.978 811.217,223.112C808.261,225.186 808.351,225.28 805.553,227.567C803.06,229.605 799.925,232.886 799.473,233.476C796.836,236.915 796.39,236.47 790.26,242.243C785.324,246.891 779.884,251.303 779.533,251.544C775.585,254.254 775.686,254.954 772.189,258.158C769.255,260.847 768.607,260.085 766.054,263.128C764.474,265.01 761.571,266.086 759.29,268.285C756.253,271.212 752.985,273.678 751.776,274.8C749.166,277.221 748.773,276.742 746.259,279.265C743.703,281.831 741.861,282.028 738.419,285.418C736.402,287.405 736.259,287.216 734.164,289.131C731.243,291.799 726.718,294.095 724.413,296.414C724.006,296.823 722.425,298.438 721.287,299.148C716.874,301.904 716.931,303.089 714.29,305.264C712.625,306.636 711.414,306.075 706.159,311.149C703.304,313.905 701.92,314.311 699.809,315.921C697.557,317.638 697.334,317.312 695.254,319.235C689.506,324.551 689.539,324.555 688.469,325.463C688.406,325.517 681.382,330.659 679.482,332.482C676.895,334.963 676.546,334.502 673.29,337.241C669.291,340.606 667.416,341.167 665.221,343.196C663.078,345.176 663.176,345.283 660.727,346.843C659.342,347.726 656.987,350.008 652.827,352.947C651.098,354.169 650.367,355.517 647.619,357.661C644.311,360.243 644.601,360.611 642.611,361.707C639.827,363.241 639.924,363.359 637.28,365.148C633.005,368.04 631.591,369.761 631.187,370.252C629.388,372.442 629.115,372.173 627.301,374.336C625.158,376.891 624.82,376.454 623.336,377.143C622.491,377.535 620.569,379.226 620.426,379.293C619.625,379.664 618.459,378.814 618.849,377.567C619.755,374.666 622.87,374.699 621.442,371.53C619.488,367.193 621.592,367.225 622.431,366.429C622.73,366.145 623.015,365.818 623.164,365.434C623.403,364.819 622.537,362.437 622.142,361.725C621.063,359.784 621.214,359.709 621.364,357.487C621.435,356.427 620.947,356.125 620.869,350.489C620.814,346.476 623.261,346.647 622.169,342.606C621.57,340.39 622.126,340.187 620.804,338.292C620.672,338.102 619.683,336.686 619.905,335.533C620.163,334.196 620.378,334.3 621.268,333.29C622.297,332.123 622.04,331.987 622.408,330.481C622.718,329.211 623.924,327.633 624.029,327.307C626.798,318.713 624.314,318.036 623.898,317.22C623.089,315.637 624.052,315.723 625.182,314.269C625.478,313.888 626.751,310.975 624.557,309.431C624.424,309.338 623.052,308.373 622.948,308.186C622.085,306.643 625.623,301.885 626.051,299.458C626.503,296.899 627.066,297.053 627.377,294.487C627.741,291.475 628.021,291.521 628.166,288.489C628.343,284.774 630.411,285.598 631.43,284.43C632.9,282.745 631.637,278.007 632.39,273.479C633.541,266.565 632.86,266.507 633.846,259.549C634.433,255.413 633.655,255.213 634.519,252.507C637.042,244.611 635.283,242.376 636.435,237.485C637.349,233.599 636.784,233.571 636.553,231.497C636.407,230.195 637.04,229.858 637.222,228.472C637.399,227.122 636.835,226.729 636.722,226.469C636.561,226.097 635.732,223.642 635.649,223.396C635.199,222.063 632.744,220.413 634.169,218.317C637.048,214.081 637.663,212.803 637.564,205.5C637.512,201.633 635.566,200.73 636.262,198.419C636.51,197.596 637.955,196.226 638.13,196.061C640.046,194.246 639.787,191.87 640.867,190.779C641.018,190.626 641.263,190.587 641.41,190.431C642.486,189.288 642.209,189.136 642.798,187.611C643.511,185.767 643.755,185.82 643.771,183.454C643.783,181.719 644.089,181.752 644.035,181.614C643.964,181.433 643.648,181.576 643.457,181.54C643.146,181.481 642.847,181.344 642.531,181.329C641.68,181.29 641.589,181.753 639.376,180.699C639.157,180.595 637.308,179.714 638.78,177.723C640.039,176.021 643.835,174.89 641.029,170.725C639.96,169.139 640.876,168.743 641.86,167.928C643.437,166.621 642.637,166.215 643.03,160.366L644.816,161.5L644.918,162.5C644.896,164.353 644.843,164.349 644.894,164.5C644.927,164.596 645.321,165.75 646.013,165.103C646.357,164.782 646.584,161.836 646.606,161.548C646.685,160.527 646.591,160.548 646.612,159.534C646.619,159.186 646.831,158.839 646.752,158.5C646.752,158.5 646.044,157.062 645.982,156.937ZM639.548,202.5C639.615,202.192 639.501,201.863 639.568,201.555C639.601,201.404 639.954,199.773 641.328,200.741C641.967,201.192 641.772,202.712 641.203,203.163C641.002,203.321 640.695,203.299 640.494,203.458L639.548,202.5Z" style="fill:white;fill-opacity:1;"/>
        </g>
    </g>
</svg>
