<?xml version="1.0" encoding="UTF-8" standalone="no"?>
<!DOCTYPE svg PUBLIC "-//W3C//DTD SVG 1.1//EN" "http://www.w3.org/Graphics/SVG/1.1/DTD/svg11.dtd">
<svg width="100%" height="100%" viewBox="0 0 1774 691" version="1.1" xmlns="http://www.w3.org/2000/svg" xmlns:xlink="http://www.w3.org/1999/xlink" xml:space="preserve" xmlns:serif="http://www.serif.com/" style="fill-rule:evenodd;clip-rule:evenodd;stroke-linejoin:round;stroke-miterlimit:2;">
    <g transform="matrix(1,0,0,1,-1761.337006,-1316.380861)">
        <g id="ArtBoard3" transform="matrix(0.801457,0,0,0.548607,1840.650827,1393.771515)">
            <rect x="-98.962" y="-141.068" width="2213.302" height="1258.504" style="fill:none;"/>
            <g id="Buttons.jpeg" transform="matrix(2.065331,0,0,3.017231,-66.997657,-108.394509)">
                <path d="M1015.5,396.999L1012.5,396.999C1012.301,396.619 1012.548,396.101 1012.349,395.721C1012.07,395.186 1008.745,394.651 1008.475,394.565C1006.962,394.088 1006.994,394.048 1005.448,393.788C1004.372,393.608 1003.878,393.243 1003.762,393.157C1003.6,393.038 1003.515,392.833 1003.355,392.711C1002.109,391.759 1001.984,392.074 1000.445,391.8C998.876,391.522 999.025,391.035 997.443,390.864C997.113,390.828 996.778,390.84 996.45,390.793C994.218,390.468 994.45,389.52 991.423,388.812C989.879,388.451 989.992,388.158 988.425,387.806C988.278,387.773 987.229,387.538 986.637,387.216C984.667,386.146 984.662,386.161 982.447,385.79C980.868,385.525 980.99,385.146 979.426,384.805C977.518,384.388 977.604,384.076 977.316,383.924C975.917,383.187 973.766,382.838 973.448,382.787C971.872,382.531 971.998,382.138 970.427,381.805C968.371,381.369 968.568,380.806 965.422,379.822C962.388,378.875 962.56,378.36 959.442,377.802C958.847,377.696 954.849,376.326 954.64,376.213C952.656,375.148 952.647,375.18 950.443,374.797C948.864,374.522 948.982,374.172 947.425,373.812C945.85,373.448 945.96,373.203 944.455,372.596C941.04,371.22 938.943,370.873 938.448,370.791C936.834,370.523 936.962,370.196 935.456,369.594C931.937,368.185 929.945,367.868 929.449,367.789C927.717,367.513 927.538,366.801 924.419,365.826C922.445,365.21 922.485,365.099 920.45,364.789C918.833,364.543 918.974,364.191 917.457,363.592C912.452,361.613 911.447,361.648 910.636,361.216C908.663,360.165 908.653,360.177 906.446,359.796C904.875,359.524 904.999,359.162 903.424,358.807C903.277,358.774 902.228,358.537 901.637,358.216C899.674,357.149 899.669,357.164 897.447,356.79C895.871,356.525 895.991,356.148 894.426,355.805C892.834,355.457 892.949,355.201 891.455,354.596C887.921,353.167 885.946,352.862 885.45,352.785C885.12,352.734 884.792,352.666 884.474,352.567C883.591,352.293 883.458,351.994 883.318,351.92C882.445,351.457 880.658,350.898 880.421,350.824C877.627,349.95 877.829,349.406 875.434,348.915C873.392,348.495 873.424,348.442 871.423,347.818C868.401,346.875 868.577,346.344 865.443,345.796C863.872,345.522 863.99,345.171 862.425,344.813C861.364,344.57 860.682,344.256 860.605,344.23C857.425,343.143 856.838,344.729 853.512,344.836C850.964,344.918 850.959,344.846 848.521,345.56C845.722,346.379 844.574,345.014 838.396,347.231C834.877,348.493 833.444,347.387 830.406,348.235C828.011,348.904 828.002,348.788 825.515,348.911C821.606,349.105 817.888,350.592 816.535,350.779C814.062,351.121 813.93,350.369 806.529,352.581C805.342,352.936 802.608,352.827 802.518,352.833C801.432,352.899 799.061,353.701 798.536,353.77C795.485,354.175 795.338,353.251 787.528,355.578C786.354,355.928 783.684,355.835 783.515,355.838C780.683,355.876 779.733,356.613 778.537,356.782C776.164,357.117 776.026,356.347 768.527,358.576C767.334,358.931 764.599,358.838 764.518,358.843C763.34,358.914 761.094,359.696 760.537,359.771C757.565,360.173 757.413,359.236 749.526,361.573C748.342,361.924 745.664,361.845 745.515,361.847C742.556,361.895 741.801,362.604 740.539,362.786C738.276,363.113 738.133,362.323 730.525,364.571C729.336,364.923 726.654,364.849 726.515,364.851C723.505,364.903 722.829,365.601 721.539,365.789C719.324,366.111 719.18,365.314 711.524,367.568C710.329,367.92 707.641,367.854 707.515,367.857C704.426,367.913 703.874,368.595 702.54,368.791C700.36,369.111 700.233,368.304 692.523,370.566C691.213,370.951 688.465,370.831 687.523,370.889C685.953,370.986 684.207,371.695 683.541,371.793C681.38,372.113 681.252,371.303 673.522,373.564C672.201,373.95 669.431,373.838 668.522,373.893C666.924,373.99 665.216,374.694 664.542,374.795C662.464,375.106 662.328,374.285 654.521,376.562C651.357,377.485 651.155,376.192 646.524,377.57C643.625,378.432 643.014,376.965 636.399,379.232C633.496,380.227 633.385,379.524 630.435,380.024C628.81,380.299 628.708,381.147 620.485,380.848C617.92,380.755 618.048,379.988 615.483,379.923C611.986,379.835 611.997,379.91 608.491,379.821C605.917,379.755 606.036,379.044 603.475,378.88C601.448,378.75 601.44,378.505 600.582,378.25C598.165,377.533 591.928,378.263 589.479,377.562C585.586,376.446 585.522,376.962 579.491,376.821C576.925,376.761 577.046,376.037 574.476,375.874C572.449,375.745 572.446,375.504 571.583,375.248C569.175,374.536 562.886,375.247 560.48,374.56C556.454,373.41 556.391,373.946 550.491,373.823C547.925,373.77 548.045,373.031 545.477,372.869C543.453,372.741 543.447,372.501 542.584,372.246C539.222,371.254 535.642,372.758 530.589,371.238C528.009,370.462 522.663,371.198 520.477,370.567C518.509,369.999 518.521,369.963 516.481,369.862C514.605,369.769 514.216,369.431 513.585,369.244C510.219,368.252 506.567,369.742 501.59,368.237C498.973,367.445 493.648,368.2 491.477,367.569C489.513,366.999 489.525,366.957 487.482,366.857C485.6,366.764 485.228,366.433 484.585,366.243C481.217,365.249 477.493,366.729 472.591,365.236C469.932,364.426 464.643,365.205 462.476,364.571C460.509,363.996 460.521,363.95 458.482,363.852C456.595,363.761 456.238,363.434 455.586,363.241C452.21,362.244 448.426,363.717 443.592,362.235C440.888,361.406 435.635,362.212 433.474,361.575C431.509,360.995 431.523,360.944 429.483,360.847C427.589,360.757 427.254,360.438 426.587,360.24C423.207,359.239 419.346,360.704 414.593,359.234C410.965,358.112 408.155,359.74 403.594,358.237C402.089,357.741 402.072,357.916 400.484,357.843C398.582,357.755 398.269,357.442 397.588,357.239C394.162,356.221 391.566,357.735 386.589,356.239C382.929,355.139 379.028,356.723 374.594,355.238C373.082,354.731 373.063,354.909 371.485,354.838C369.575,354.753 369.29,354.448 368.588,354.239C365.188,353.222 362.501,354.72 357.59,353.238C353.888,352.121 349.975,353.73 345.595,352.239C344.098,351.729 344.078,351.904 342.486,351.834C340.57,351.75 340.305,351.452 339.589,351.237C336.175,350.212 333.441,351.714 328.591,350.236C326.097,349.477 325.971,350.28 323.479,349.562C319.534,348.425 319.464,349.039 313.487,348.83C310.921,348.741 311.04,347.974 308.483,347.907C305.488,347.828 305.507,347.897 302.491,347.824C299.927,347.762 300.046,347.045 297.476,346.884C295.443,346.757 295.448,346.512 294.582,346.253C291.308,345.275 286.509,346.734 281.591,345.236C279.989,344.748 279.971,344.966 273.491,344.825C270.921,344.769 271.042,344.038 268.477,343.878C266.443,343.752 266.452,343.51 265.583,343.251C262.212,342.247 258.731,343.779 253.588,342.241C251.043,341.48 245.646,342.193 243.477,341.569C241.519,341.005 241.53,340.972 239.48,340.872C237.599,340.779 237.217,340.437 236.583,340.249C233.209,339.246 229.675,340.764 224.589,339.239C222.008,338.465 216.628,339.193 214.477,338.57C212.513,338.002 212.525,337.965 210.481,337.866C208.596,337.775 208.227,337.438 207.584,337.247C204.209,336.246 200.605,337.749 195.59,336.238C192.968,335.448 187.616,336.195 185.476,335.572C183.51,334.999 183.522,334.959 181.482,334.861C179.597,334.771 179.231,334.437 178.585,334.245C175.204,333.243 171.543,334.735 166.591,333.237C163.9,332.422 158.627,333.205 156.475,332.574C154.516,331.999 154.528,331.952 152.483,331.856C150.592,331.767 150.243,331.439 149.585,331.244C146.2,330.24 142.468,331.722 137.592,330.236C134.86,329.403 129.622,330.21 127.474,329.576C125.515,328.998 125.53,328.946 123.484,328.851C121.592,328.764 121.251,328.44 120.586,328.242C117.162,327.225 114.626,328.747 109.587,327.243C105.943,326.155 102.077,327.717 97.593,326.238C96.084,325.74 96.066,325.918 94.484,325.846C92.588,325.76 92.263,325.442 91.587,325.241C88.158,324.22 85.578,325.734 80.588,324.241C76.899,323.137 73.019,324.721 68.594,323.238C67.088,322.734 67.069,322.912 65.485,322.842C63.587,322.757 63.27,322.443 62.588,322.239C59.17,321.219 56.509,322.723 51.589,321.24C49.094,320.487 48.967,321.297 46.477,320.569C44.504,319.993 44.51,320.011 42.475,319.933C39.536,319.821 40.293,318.356 39.755,316.412C38.741,312.748 38.856,312.722 38.765,312.404C38.078,310.011 38.283,309.992 38.131,307.518C38.045,306.107 37.315,304.175 37.225,303.538C36.805,300.57 37.744,300.419 35.436,292.522C34.939,290.821 35.377,287.61 34.762,285.407C34.094,283.01 34.209,283.002 34.089,280.514C33.939,277.4 33.585,277.469 32.977,274.426C32.564,272.357 31.991,271.924 31.844,269.502C31.728,267.594 31.81,267.615 31.798,267.451C31.661,265.57 31.107,265.645 30.986,260.486C30.931,258.15 29.373,253.605 29.227,252.535C28.815,249.505 29.747,249.356 27.421,241.528C27.076,240.364 27.168,237.711 27.165,237.516C27.124,234.718 26.382,233.701 26.22,232.536C25.878,230.092 26.645,229.955 24.419,222.529C24.062,221.335 24.17,218.637 24.169,218.513C24.145,215.737 23.393,214.752 23.225,213.536C22.823,210.646 23.776,210.489 21.426,202.526C20.946,200.9 21.403,197.699 20.76,195.408C20.09,193.017 20.246,192.999 20.1,190.518C20.005,188.899 18.268,182.984 18.212,182.536C17.791,179.224 18.494,179.133 17.441,175.52C16.919,173.73 17.323,170.462 16.757,168.412C15.743,164.745 15.857,164.721 15.765,164.404C15.07,162.011 15.293,161.993 15.14,159.519C14.982,156.958 14.277,157.082 14.162,154.516C14.095,153.012 14.175,153.023 14.091,151.517C13.998,149.867 12.281,144.032 12.217,143.536C11.792,140.257 12.505,140.162 11.438,136.522C10.955,134.876 11.208,131.056 10.754,129.413C9.742,125.749 9.856,125.722 9.764,125.405C9.077,123.01 9.281,122.99 9.13,120.519C9.042,119.093 8.314,117.173 8.224,116.538C7.813,113.65 8.765,113.494 6.437,105.522C5.507,102.338 6.792,102.126 5.437,97.522C4.602,94.687 5.997,93.663 3.769,87.397C2.404,83.556 3.855,83.314 2.765,79.406C2.095,77.001 2.218,76.992 2.093,74.515C1.896,70.596 1.194,70.696 1.114,68.513C1.008,65.608 2.347,66.23 8.477,64.432C9.825,64.036 11.896,64.243 13.595,63.763C15.506,63.223 15.498,63.229 17.482,63.099C23.076,62.733 22.819,61.298 26.486,61.16C29.024,61.064 29.031,61.163 31.473,60.423C33.655,59.762 34.024,60.765 39.606,58.771C43.516,57.375 43.884,58.92 49.603,56.763C52.944,55.503 53.166,56.744 56.599,55.768C58.983,55.091 59.002,55.257 61.478,55.102C64.568,54.908 66.474,53.246 69.488,53.174C69.739,53.168 71.342,53.13 72.602,52.771C74.985,52.092 75.008,52.267 77.481,52.112C79.647,51.975 84.03,50.254 86.485,50.171C89.29,50.076 89.272,49.795 90.479,49.44C92.768,48.765 93.735,49.881 99.602,47.767C102.259,46.81 102.493,47.258 104.475,47.131C107.035,46.967 106.91,46.264 109.481,46.135C114.965,45.86 114.681,44.256 118.488,44.169C121.044,44.111 121.044,44.16 123.479,43.441C125.831,42.746 126.672,43.891 132.603,41.768C136.009,40.549 136.785,41.557 139.594,40.761C141.506,40.22 141.499,40.229 143.483,40.1C149.015,39.743 148.76,38.309 152.485,38.16C155.131,38.054 155.092,37.849 156.478,37.439C158.899,36.722 159.58,37.911 165.604,35.77C168.681,34.676 168.851,35.548 171.599,34.768C173.987,34.09 174.007,34.247 176.48,34.093C176.98,34.062 177.66,34.019 182.597,32.766C183.214,32.609 183.37,32.249 185.485,32.156C185.817,32.142 186.15,32.158 186.481,32.13C189.038,31.91 188.922,31.278 191.477,31.139C195.976,30.894 195.891,30.495 199.479,29.441C201.633,28.809 202.987,29.854 208.602,27.764C212.024,26.49 212.418,27.669 215.598,26.766C217.986,26.088 218.007,26.251 220.477,26.097C223.55,25.905 225.449,24.256 228.487,24.174C231.224,24.101 231.285,23.792 232.479,23.442C234.698,22.79 235.927,23.865 241.603,21.766C244.212,20.801 244.634,21.26 246.477,21.144C249.038,20.985 248.911,20.272 251.482,20.146C254.018,20.022 253.954,19.752 256.454,19.213C257.168,19.059 257.892,18.95 258.599,18.766C259.289,18.587 259.312,18.237 261.487,18.171C264.034,18.094 264.035,18.155 266.475,17.428C267.906,17.001 269.976,17.213 271.591,16.759C273.579,16.201 273.498,16.017 275.474,15.428C277.16,14.926 289.606,15.194 293.496,15.077C300.276,14.873 300.294,15.04 302.483,14.445C304.67,13.85 327.261,14.33 335.502,13.999C341.246,13.768 345.369,14.565 349.483,13.444C351.908,12.784 370.016,13.463 372.585,12.759C373.842,12.415 373.797,12.175 376.499,12.171C379.219,12.166 409.252,12.118 410.496,12.08C417.782,11.859 417.819,12.17 420.483,11.445C422.855,10.799 464.258,11.351 466.58,10.757C468.996,10.139 468.997,10.192 471.497,10.171C488.673,10.024 488.721,10.215 491.478,9.433C493.36,8.9 522.19,9.266 528.496,9.078C535.762,8.861 535.799,9.175 538.483,8.445C540.867,7.795 583.35,8.327 585.58,7.754C587.996,7.132 587.996,7.183 590.496,7.162C606.841,7.02 606.882,7.164 609.48,6.436C611.623,5.836 637.17,6.389 646.502,5.999C651.56,5.788 652.431,6.548 656.482,5.444C658.885,4.789 701.385,5.318 703.579,4.753C705.99,4.133 705.99,4.182 708.496,4.159C724.797,4.013 724.839,4.17 727.481,3.44C729.261,2.947 749.068,3.279 771.508,2.974C773.981,2.94 774.054,2.419 775.472,2.241C777.087,2.039 804.019,1.995 806.501,1.991C819.294,1.971 819.319,2.044 821.486,1.454C823.52,0.901 844.526,1.1 844.576,1.109C846.621,1.478 848.542,4.427 848.559,4.462C850.294,7.916 851.7,7.634 852.569,9.456C852.695,9.72 852.747,10.018 852.893,10.271C852.971,10.406 854.254,11.842 854.56,12.462C855.839,15.053 856.286,14.711 857.168,15.782C857.419,16.087 858.554,18.731 859.377,19.612C860.281,20.58 860.366,20.469 860.442,20.553C860.626,20.755 860.698,21.037 860.859,21.258C861.622,22.303 863.177,23.679 863.561,24.461C863.69,24.723 863.753,25.015 863.9,25.267C864.325,25.997 866.176,27.667 866.561,28.462C866.858,29.076 866.889,29.041 867.222,29.65C868.106,31.268 868.062,31.286 868.372,31.617C869.282,32.587 869.365,32.469 869.443,32.553C869.628,32.754 869.695,33.04 869.856,33.26C869.921,33.349 870.42,34.031 870.682,34.353C870.817,34.518 871.029,34.608 871.162,34.775C871.839,35.63 871.616,35.758 872.258,36.653C872.686,37.25 872.707,37.203 873.16,37.777C873.817,38.609 873.569,38.762 874.371,39.618C875.277,40.584 875.365,40.47 875.441,40.554C875.71,40.849 876.762,42.975 877.367,43.621C878.274,44.588 878.365,44.47 878.443,44.553C878.629,44.753 878.693,45.041 878.854,45.261C878.922,45.354 880.232,46.808 880.56,47.462C881.204,48.749 881.221,48.733 882.201,49.777C883.719,51.393 884.169,52.728 884.69,53.341C886.005,54.887 887.272,55.089 887.537,55.131C889.115,55.383 889.168,55.06 891.404,55.767C895.044,56.918 896.01,55.254 900.404,56.762C901.284,57.065 901.297,56.976 903.537,57.227C904.827,57.371 905.311,58.045 907.517,58.106C909.523,58.161 909.51,58.12 911.511,58.177C913.746,58.241 914.303,58.846 915.555,59.096C916.999,59.386 916.998,59.332 918.415,59.754C921.784,60.756 922.232,59.188 927.411,60.758C930.763,61.774 931.627,60.28 936.408,61.762C938.414,62.384 938.507,61.839 940.523,62.433C945.814,63.992 946.048,62.425 949.522,63.436C952.931,64.429 952.975,64.076 956.51,64.169C959.082,64.237 958.96,64.954 961.527,65.13C963.548,65.269 963.551,65.501 964.414,65.758C966.346,66.333 970.018,66.003 971.537,66.22C973.726,66.533 973.632,67.066 976.514,67.131C978.021,67.164 978.005,67.135 979.51,67.17C982.077,67.231 981.953,67.964 984.525,68.137C986.553,68.274 986.533,68.497 987.412,68.76C990.739,69.753 991.506,68.255 996.407,69.764C999.921,70.846 1000.799,69.27 1005.404,70.765C1006.133,71.002 1006.133,70.936 1008.54,71.22C1008.729,71.243 1008.71,71.251 1010.411,71.761C1013.727,72.755 1014.61,71.275 1019.406,72.765C1020.722,73.174 1021.495,73.155 1021.589,73.18C1023.219,73.606 1022.954,75.539 1022.951,76.502C1022.876,98.629 1023.063,98.664 1022.557,100.518C1022.135,102.062 1021.965,102.033 1021.959,104.502C1021.951,108.262 1021.861,149.06 1021.81,151.506C1021.765,153.699 1021.149,154.339 1020.986,155.534C1020.91,156.092 1020.84,192.304 1020.833,195.501C1020.813,206.095 1020.908,206.12 1020.243,208.418C1019.882,209.664 1019.963,209.681 1019.886,222.504C1019.822,233.148 1019.884,233.169 1019.245,235.42C1018.844,236.834 1018.987,236.864 1018.91,262.502C1018.834,287.887 1018.728,287.884 1018.556,288.518C1017.89,290.963 1017.96,290.966 1017.95,293.503C1017.779,336.748 1017.879,336.745 1017.815,340.505C1017.777,342.723 1017.141,343.333 1016.971,344.534C1016.926,344.847 1016.853,364.908 1016.817,366.507C1016.759,369.056 1016,368.947 1015.964,371.505C1015.962,371.652 1015.915,393.452 1015.916,393.506C1015.965,395.288 1015.846,395.265 1015.5,396.999ZM843.953,75.509C844.174,72.725 844.207,72.746 844.235,71.494C844.393,64.489 845.151,62.747 838.408,60.842C835.811,60.109 835.999,59.619 833.407,58.922C833.019,58.818 830.849,58.235 828.744,57.07C825.895,55.493 825.695,56.183 822.485,55.596C818.441,54.856 819.455,52.68 815.473,51.619C812.508,50.829 813.22,48.999 809.494,48.576C806.9,48.282 807.009,47.907 804.358,46.898C802.276,46.106 802.516,45.62 800.384,44.955C797.292,43.99 797.58,43.379 794.308,41.978C790.099,40.176 789.872,39.029 784.496,39.326C778.839,39.639 781.622,49.273 780.666,53.538C780.219,55.531 780.207,55.513 779.988,57.549C779.669,60.534 779.605,60.506 779.496,63.5C779.38,66.686 778.263,66.722 778.141,69.493C777.921,74.48 777.921,74.47 777.921,74.48C778.145,78.617 778.754,78.88 779.241,79.651C779.431,79.952 781.382,83.04 781.656,83.381C783.424,85.586 783.95,84.518 785.485,84.645C786.613,84.737 787.377,86.107 789.673,87.039C791.53,87.792 791.696,87.583 792.988,89.115C794.343,90.721 794.714,90.279 796.217,91.764C797.562,93.094 797.596,93.047 799.231,93.975C800.81,94.871 800.877,94.684 802.582,95.282C803.408,95.572 803.98,96.328 805.465,96.677C805.778,96.75 806.111,96.737 806.42,96.829C808.311,97.394 807.995,97.974 810.581,99.338C812.986,100.608 812.915,100.803 815.53,101.327C818.318,101.886 819.776,103.616 820.658,104.309C822.818,106.004 823.398,104.714 825.691,106.189C827.257,107.197 828.448,107.288 829.352,107.776C829.7,107.963 832.756,109.611 833.711,110.086C836.004,111.226 840.133,111.233 840.319,111.126C840.931,110.774 840.542,109.624 840.5,109.5C840.367,109.104 840.039,108.795 839.893,108.404C839.606,107.633 839.984,106.533 839.358,103.533C839.101,102.301 838.972,102.292 839.825,96.552C840.291,93.418 840.871,92.489 841.107,91.417C841.661,88.902 841.707,88.933 842.486,86.495C843.142,84.44 842.33,83.509 843.186,80.416C843.853,78.006 843.872,78.01 843.953,75.509ZM822.031,223.491C822.12,221.462 822.083,221.471 822.61,219.532C823.372,216.732 822.852,215.024 823.486,212.496C824.348,209.061 824.14,209.033 824.816,205.566C825.502,202.046 824.628,201.956 825.462,198.491C826.292,195.046 825.837,194.987 826.587,191.519C827.144,188.94 827.056,186.041 827.374,184.474C828.24,180.208 828.199,180.203 828.444,179.478C829.741,175.631 828.494,175.427 829.499,171.5C830.487,167.641 829.132,167.809 826.844,166.063C826.523,165.818 824.541,164.306 822.553,163.394C820.789,162.585 820.481,163.083 816.394,159.628C812.502,156.336 810.778,157.73 807.945,155.039C804.434,151.702 801.631,150.775 800.683,150.194C799.131,149.244 799.093,149.368 797.409,148.73C795.76,148.106 794.334,146.042 793.55,145.442C790.226,142.897 788.753,143.026 788.352,142.899C787.47,142.617 786.583,141.866 785.542,141.406C784.058,140.752 784.164,140.534 782.603,140.133C781.89,139.95 781.156,139.853 780.447,139.656C778.43,139.096 775.548,136.377 773.572,137.621C770.039,139.846 770.528,140.427 769.977,144.55C769.573,147.583 769.131,147.487 768.799,150.533C768.312,155 767.079,154.86 767.352,160.507C767.548,164.565 766.209,165.79 765.754,174.512C765.429,180.752 763.932,182.646 764.258,185.529C764.653,189.031 764.21,189.001 763.146,192.382C762.633,194.012 762.841,199.572 761.488,204.496C761.053,206.079 761.641,206.807 761.156,209.428C760.779,211.463 761.077,211.501 760.55,213.514C758.792,220.222 760.53,221.351 758.988,224.715C757.401,228.178 758.338,228.407 757.58,231.52C756.45,236.155 756.956,238.269 756.436,241.49C755.691,246.101 756.264,247.39 755.558,249.523C754.76,251.935 754.911,251.953 754.829,254.513C754.772,256.311 752.631,264.542 753.14,272.544C753.332,275.565 752.359,275.819 752.222,278.491C751.825,286.195 752.988,287.726 753.133,288.578C753.34,289.791 752.114,291.013 751.877,292.532C751.751,293.34 752.039,299.2 752.113,299.582C752.625,302.241 754.214,301 756.776,303.206C758.929,305.061 760.078,303.008 761.84,305.26C762.473,306.07 762.7,307.245 762.773,307.405C764.259,310.639 766.022,307.742 769.791,310.033C773.119,312.057 773.696,311.405 774.789,313.348C776.515,316.418 777.998,314.106 780.216,315.854C781.605,316.948 781.74,316.705 783.5,316.5C785.11,316.313 785.347,316.658 786.334,315.38C787.133,314.345 787.144,314.293 788.573,313.916C791.124,313.245 791.507,312.716 793.282,314.688C795.341,316.974 796.319,315.76 798.501,315.798C801.592,315.852 801.616,321.068 804.424,319.383C805.947,318.469 805.885,315.618 806.201,314.412C807.06,311.137 809.995,311.51 809.848,307.481C809.715,303.854 806.49,304.676 807.058,301.435C807.414,299.406 808.934,298.829 809.342,298.358C810.455,297.071 810.67,292.178 810.512,291.497C810.439,291.183 810.234,290.907 810.179,290.59C810.111,290.201 810.069,289.793 810.147,289.407C810.292,288.685 811.272,288.464 810.427,286.54C809.777,285.061 809.613,284.871 810.667,283.639C810.873,283.398 812.39,282.315 812.112,281.508C811.984,281.136 811.65,280.865 811.486,280.507C810.797,279.007 811.717,279.019 812.172,276.45C812.928,272.177 815.053,272.825 815.252,268.488C815.573,261.456 817.144,260.924 817.062,257.493C817.021,255.745 816.899,255.773 816.484,253.504C816.044,251.1 817.804,251.475 818.482,247.497C818.592,246.852 818.663,246.2 818.787,245.558C819.29,242.946 819.844,243.091 820.085,240.456C820.268,238.451 820.635,238.515 820.699,236.499C820.795,233.468 821.169,233.515 821.268,230.493C821.384,226.966 821.652,227.007 822.031,223.491ZM481.476,303.466C481.568,302.973 481.41,302.979 481.499,302.499C481.53,302.329 481.557,302.35 482.293,300.481C482.837,299.444 482.773,299.424 483.372,298.422C484.352,296.785 484.059,296.612 485.638,294.605C488.262,291.27 485.564,288.79 486.232,283.472C486.671,279.974 489.604,278.257 489.819,275.526C490.153,271.28 489.387,268.345 490.888,266.89C492.496,265.33 491.539,264.924 491.941,263.589C492.461,261.863 493.39,262.341 494.337,259.455C495.442,256.088 496.744,253.769 494.432,249.543C493.455,247.757 491.441,247.213 493.43,245.43C496.893,242.325 495.905,241.658 497.179,239.337C498.571,236.801 497.896,235.69 498.45,233.487C499.435,229.571 498.735,229.472 499.642,225.535C501.156,218.963 496.693,218.182 499.707,214.686C503,210.867 503.446,211.152 508.479,211.037C512.811,210.939 512.787,210.706 515.587,209.797C517.354,209.223 519.177,209.794 520.693,208.902C525.042,206.342 523.044,213.189 523.011,213.431C522.671,215.966 523.079,216.015 522.422,218.478C521.34,222.529 521.506,238.435 521.998,240.387C522.175,241.09 522.439,241.769 522.624,242.47C523.205,244.682 522.347,247.268 523.688,250.416C525.689,255.112 524.281,256.355 526.746,260.357C527.878,262.195 527.486,262.763 529.754,265.275C534.27,270.279 534.514,270.012 536.199,270.993C536.677,271.271 540.122,273.972 542.426,274.714C542.906,274.869 544.3,275.318 548.311,276.952C549.071,277.261 548.938,277.519 557.513,281.474C558.274,281.825 560.921,283.44 562.368,283.892C565.699,284.933 565.72,284.822 570.439,286.636C572.894,287.579 574.836,287.056 578.508,287.237C580.233,287.322 580.3,287.722 581.276,287.127C582.569,286.34 580.742,283.768 584.555,282.863C586.559,282.386 586.505,282.248 588.144,281.025C588.368,280.858 590.173,279.511 590.673,278.623C591.109,277.847 591.341,276.441 592.474,275.476C593.857,274.3 594.253,274.013 594.279,273.462C594.333,272.334 592.248,272.24 591.656,271.39C590.244,269.365 594.06,266.615 595.431,266.242C595.752,266.155 596.094,266.163 596.415,266.077C598.453,265.534 598.364,264.856 598.861,263.67C600.179,260.528 599.057,258.352 600.682,256.7C601.977,255.383 602.129,255.495 602.546,254.524C603.69,251.859 603.665,251.864 603.757,251.779C603.884,251.662 605.01,250.625 605.882,252.195C606.221,252.806 605.996,252.845 605.719,254.496C605.244,257.319 604.42,257.167 604.613,258.467C604.665,258.814 605.811,260.48 607.068,257.26C607.33,256.59 607.285,256.581 607.898,253.955C608.007,253.488 608.021,253.515 608.665,251.671C608.874,251.504 608.715,251.08 608.923,250.913C609.191,250.698 609.554,250.896 609.602,250.922C610.14,251.216 609.925,251.46 610.464,251.753L611.634,252.625C612.644,250.07 612.258,249.963 613.147,247.372C614.13,244.507 613.654,244.397 614.585,241.533C615.576,238.484 614.463,238.331 615.155,232.451C615.566,228.956 614.398,226.923 614.29,226.576C613.391,223.684 614.733,223.602 614.301,215.508C614.004,209.936 613.791,209.975 613.782,209.492C613.734,206.803 613.205,202.578 616.462,203.695C617.553,204.069 617.822,204.454 618.381,203.453C618.578,203.1 618.191,191.989 618.351,188.495C618.603,183.012 616.68,182.867 617.263,178.471C617.715,175.055 619.58,174.8 617.795,172.295C617.537,171.934 617.586,171.913 616.706,169.42C616.605,169.135 616.448,168.872 616.311,168.603C616.157,168.299 614.376,164.55 613.623,163.402C612.954,162.384 612.696,162.809 611.498,162.696C608.836,162.446 609.623,160.847 607.701,160.056C604.359,158.679 604.058,159.18 601.325,156.689C599.482,155.01 599.109,155.555 597.727,154.276C596.022,152.699 595.79,153.13 593.477,153.163C589.851,153.213 589.094,148.595 586.877,150.977C585.956,151.966 585.725,152.076 584.643,151.278C584.005,150.807 582.968,148.984 581.466,149.416C580.718,149.631 578.005,154.15 575.578,150.442C574.685,149.077 573.382,149.186 572.537,149.111C570.939,148.971 570.988,148.818 568.442,147.617C566.072,146.499 566.064,145.859 563.544,146.626C562.31,147.002 560.094,147.085 559.441,147.174C556.59,147.565 555.111,149.677 553.513,150.524C551.291,151.703 551.452,151.913 549.603,153.614C543.312,159.402 542.562,162.127 540.8,164.693C539.273,166.917 539.186,166.856 538.09,169.325C536.278,173.406 536.03,173.26 535.41,174.45C532.605,179.836 532.288,179.701 530.501,185.5C530.374,185.912 530.286,185.871 528.505,190.502C527.289,193.665 528.288,193.984 526.787,196.653C526.011,198.032 525.735,200.576 524.711,202.627C524.126,203.8 523.821,203.476 522.523,203.321C521.961,203.254 519.448,203.597 518.547,202.458C517.547,201.193 518.72,200.577 517.457,199.567C516.477,198.783 514.833,201.071 509.238,196.845C508.457,196.255 505.962,194.93 505.813,194.387C505.278,192.447 509.98,191.35 510.414,191.249C510.611,191.203 513.467,190.536 511.849,189.171C511.135,188.569 509.9,188.992 508.583,188.349C502.86,185.558 504.243,181.557 504.261,176.5C504.276,171.937 505.238,172.053 505.442,167.498C505.543,165.254 506.11,163.962 506.005,161.508C505.853,157.971 506.025,157.99 506.625,154.52C507.121,151.653 507.179,147.215 507.301,146.47C508.118,141.507 507.821,141.485 508.354,136.485C508.854,131.795 508.513,129.158 509.571,125.523C510.173,123.454 510.125,118.745 510.32,117.473C511.153,112.047 510.316,112.001 510.986,106.554C511.601,101.546 511.541,101.549 511.511,96.5C511.493,93.49 511.887,93.505 511.543,90.495C511.245,87.879 512.197,87.706 511.794,84.451C511.28,80.303 511.524,79.785 509.547,78.438C505.753,75.852 504.908,76.306 503.556,76.1C500.604,75.649 500.675,74.428 498.374,75.187C495.952,75.986 495.441,75.526 494.045,73.86C492.89,72.481 489.467,72.197 484.563,71.229C481.932,70.71 482.058,70.356 479.504,69.487C477.159,68.689 477.79,67.248 474.473,66.83C472.361,66.564 472.399,66.475 470.409,65.749C467.537,64.701 467.323,65.673 464.456,64.617C461.919,63.683 461.896,63.788 459.39,62.754C457.133,61.823 455.159,62.269 451.52,62.119C449.609,62.041 448.497,60.822 447.169,62.136C445.645,63.642 447.056,65.08 447.009,68.465C446.991,69.763 446.657,69.752 446.909,74.46C447.125,78.511 446.329,78.468 446.465,82.502C446.539,84.682 446.006,84.686 446.489,87.502C446.916,89.984 446.605,89.981 446.231,92.462C446.002,93.98 446.372,95.499 445.655,98.542C445.048,101.119 445.401,102.47 445.26,106.486C445.171,109.045 444.449,108.937 444.401,111.501C444.349,114.24 444.08,114.188 443.341,116.446C442.68,118.469 443.708,118.837 443.421,122.494C443.21,125.19 444.124,125.364 442.856,127.685C441.484,130.195 442.579,132.465 441.753,135.563C440.079,141.833 441.437,142.007 440.626,146.521C440.096,149.477 440.159,149.471 440.113,152.487C440.059,156.08 439.126,155.939 438.92,159.518C438.748,162.523 438.777,162.511 438.342,165.481C437.837,168.927 439.144,169.031 438.102,172.355C437.379,174.662 437.34,176.19 436.342,177.355C435.336,178.529 431.722,178.451 430.569,179.594C429.595,180.559 429.994,182.409 427.518,182.271C425.475,182.157 425.09,181.659 422.312,184.304C421.821,184.77 416.64,188.534 418.201,190.67C419.864,192.946 420.647,191.848 427.419,193.785C430.522,194.672 430.367,195.132 431.517,195.444C433.466,195.972 435.955,195.045 435.041,200.409C434.191,205.403 435.1,205.467 434.389,210.485C434.027,213.046 434.48,213.123 433.591,215.536C432.685,217.997 433.391,218.103 432.746,222.54C431.736,229.489 431.826,229.487 431.585,236.502C431.571,236.922 430.69,242.853 430.552,243.51C429.43,248.836 430.321,248.988 429.431,251.472C429.326,251.767 429.18,252.047 429.09,252.347C428.513,254.251 428.824,260.658 428.257,263.441C426.579,271.669 426.94,272.474 426.759,275.516C426.675,276.931 426.027,278.102 426.087,280.524C426.15,283.044 426.014,283.02 425.628,285.522C425.625,285.539 425.209,294.142 424.844,296.554C424.248,300.496 424.302,300.49 424.12,304.47C423.783,311.846 423.578,311.84 423.834,314.463C424.057,316.751 426.008,315.892 428.279,316.972C431.231,318.377 431.516,317.167 434.62,318.149C438.213,319.284 438.267,319.038 441.384,319.947C444.042,320.722 444.805,322.144 447.553,321.76C449.627,321.47 449.64,321.674 450.487,321.447C451.175,321.261 451.816,320.905 452.516,320.769C453.073,320.662 454.14,321.478 455.442,321.778C456.506,322.024 456.455,322.128 457.528,322.407C459.367,322.885 460.667,321.023 460.844,320.853C461.045,320.66 462.834,318.942 464.193,319.892C464.348,320 466.39,324.242 468.593,323.715C469.393,323.524 469.116,321.922 470.446,321.392C470.718,321.283 471.025,321.271 471.288,321.143C472.242,320.68 472.021,320.467 472.194,319.435C472.67,316.586 474.376,316.702 475.104,313.437C475.563,311.381 476.013,311.544 476.488,309.498C476.632,308.874 476.724,308.238 476.904,307.623C477.691,304.927 479.025,305.055 481.476,303.466ZM175.849,79.741L174.883,81.475C175.082,81.892 174.728,81.941 174.924,82.353C174.943,82.393 174.98,82.471 175.418,82.596C177.106,83.079 177.133,82.834 177.272,82.891C177.774,83.099 178.289,84.726 178.057,85.416C177.646,86.637 177.417,86.469 176.312,87.16C175.038,87.957 175.258,88.167 174.808,89.593C173.785,92.835 172.468,92.032 171.557,92.052C171.148,92.075 171.177,91.912 170.752,91.936C170.707,91.939 170.506,91.95 170.22,92.127C170.014,92.255 169.879,92.477 169.674,92.605C169.581,92.861 168.939,93.985 168.856,95.533C168.769,97.153 169.437,98.095 169.53,98.491C169.78,99.545 169.351,101.056 168.711,101.688C167.759,102.627 167.655,102.493 167.575,102.575C166.285,103.883 166.265,106.675 165.235,109.383C164.269,111.92 164.937,112.116 163.73,114.621C162.637,116.889 163.213,117.067 162.279,119.406C160.735,123.275 161.999,123.605 160.462,127.484C158.505,132.42 159.344,133.975 157.71,136.625C156.366,138.805 156.96,138.98 156.761,141.521C156.602,143.54 155.399,143.826 154.712,146.556C152.813,154.11 155.3,156.179 150.363,158.13C147.867,159.117 147.96,159.296 145.377,160.092C143.733,160.599 143.464,160.946 143.285,161.017C140.702,162.034 140.038,160.134 131.705,164.884C129.088,166.376 128.798,165.671 126.692,166.855C126.379,167.031 122.655,169.125 122.218,166.557C121.915,164.774 124.495,155.81 126.659,149.559C127.393,147.441 126.75,147.166 127.713,144.586C128.574,142.281 128.107,142.116 129.157,140.313C130.426,138.134 130.066,138.011 130.189,135.486C130.285,133.517 131.019,132.944 131.382,131.471C131.995,128.979 131.765,128.944 132.56,126.522C133.298,124.275 132.764,123.435 133.457,121.483C134.313,119.069 134.317,119.082 134.842,116.575C135.484,113.504 135.821,113.577 136.103,110.449C136.341,107.812 136.889,107.425 137.285,106.416C138.085,104.378 137.338,102.136 138.149,99.402C138.332,98.785 138.574,98.186 138.738,97.564C138.979,96.658 139.061,94.137 139.417,92.483C140.219,88.756 139.162,88.642 135.628,87.229C133.692,86.455 133.152,86.828 131.506,86.475C131.189,86.407 130.886,86.28 130.568,86.221C129.695,86.058 127.521,86.466 126.978,85.283C126.848,85 126.839,84.672 126.716,84.385C126.166,83.103 125.887,83.325 124.506,83.16C121.01,82.742 121.759,80.971 118.396,79.993C116.836,79.54 116.861,79.52 115.342,78.963C113.505,78.29 113.587,78.147 112.202,76.768C110.939,75.51 110.495,75.655 109.578,75.276C107.285,74.327 107.686,73.368 105.512,73.199C102.977,73.002 102.892,73.231 100.309,71.872C93.82,68.457 88.723,70.664 86.768,69.145C85.955,68.513 86.117,68.368 85.33,67.688C85.028,67.427 83.383,66.006 80.359,67.161C78.971,67.69 79.461,68.452 77.42,69.297C76.684,69.601 76.174,69.574 74.63,72.57C73.759,74.26 73.925,75.804 73.756,76.554C73.612,77.193 73.363,77.806 73.231,78.447C72.821,80.427 73.643,80.448 73.264,82.445C73.156,83.017 72.422,86.88 71.767,89.569C70.443,95.003 70.555,95.009 70.419,95.474C69.39,99.007 70.074,99.158 68.85,102.633C67.675,105.969 69.017,106.295 67.545,109.523C65.411,114.201 66.53,114.688 65.447,117.478C64.124,120.886 64.148,120.888 63.695,124.521C63.454,126.461 63.231,126.397 61.981,129.673C60.073,134.671 61.369,136.232 59.2,140.353C56.995,144.543 58.204,145.625 56.311,150.422C54.419,155.214 54.502,156.806 54.309,157.452C53.716,159.436 53.49,159.337 52.203,163.401C50.899,167.516 51.532,167.706 49.708,171.594C48.252,174.697 49.276,175.044 47.886,177.69C46.887,179.591 47.066,180.725 46.558,182.517C45.519,186.179 46.485,186.434 44.949,189.701C43.614,192.538 44.121,192.697 43.487,194.496C42.275,197.937 42.663,198.037 41.493,201.497C40.717,203.792 41.197,205.472 40.629,207.538C39.441,211.866 39.898,211.945 39.142,215.413C38.912,216.466 38.269,217.179 38.222,219.497C38.161,222.536 38.144,222.52 37.544,225.509C36.652,229.952 37.533,230.079 36.393,234.471C35.178,239.148 36.847,240.934 35.352,248.47C34.565,252.438 34.848,252.453 34.731,256.508C34.677,258.403 34.107,260.047 34.103,262.5C34.1,264.509 34.18,264.492 34.188,266.503C34.194,268.072 33.57,268.665 34.243,269.887C35.035,271.326 35.726,269.941 35.781,269.831C36.384,268.621 36.251,267.99 37.547,268.401C38.646,268.749 38.027,269.743 40.492,270.527C42.059,271.025 42.425,271.73 42.854,272.112C45.535,274.5 50.342,273.107 51.517,273.157C55.145,273.31 55.244,273.663 55.982,275.261C56.855,277.148 57.421,276.404 59.505,276.46C60.153,276.478 61.223,277.434 61.49,277.523C63.243,278.107 65.521,275.58 66.574,277.434C67.28,278.677 67.285,279.104 68.647,278.72C69.56,278.462 68.247,276.962 70.844,274.986C71.486,274.498 71.446,274.473 71.946,273.848C72.851,272.718 73.094,273.157 74.501,273.496C75.46,273.727 75.48,273.485 76.449,273.681C77.55,273.904 77.476,275.174 78.218,275.893C79.092,276.74 79.226,276.085 80.534,275.597C82.095,275.015 82.088,275.574 83.639,276.145C85.472,276.82 88.25,275.726 88.108,278.481C88.091,278.813 87.949,281.577 88.159,282.642C88.377,283.74 88.473,283.966 89.589,283.809C90.008,283.751 90.494,282.65 90.546,282.534C90.867,281.807 90.902,281.851 91.325,281.342C91.395,281.258 91.806,280.763 92.179,280.274C93.934,277.97 94.41,278.58 96.374,277.301C99.128,275.508 99.353,275.591 100.653,272.571C102.374,268.575 101.695,267.3 101.49,266.503C100.743,263.599 101.988,263.5 102.272,261.467C102.972,256.468 102.705,251.368 102.659,250.49C102.529,247.992 103.837,245.623 104.046,244.432C104.557,241.521 103.376,241.395 104.828,235.58C106.042,230.715 105.162,230.304 106.232,227.393C107.873,222.925 106.685,222.489 108.071,215.42C108.777,211.821 111.203,213.778 113.548,214.081C115.525,214.337 115.768,213.775 119.62,216.309C120.188,216.683 120.951,217.185 127.44,219.644C132.062,221.395 135.695,217.875 137.85,220.186C139.689,222.16 137.191,224.583 136.831,228.529C136.677,230.216 136.358,230.928 136.264,231.447C135.516,235.567 136.346,235.739 134.831,239.637C134.37,240.823 133.897,244.903 133.875,245.524C133.769,248.523 133.764,248.503 133.37,251.486C133.1,253.533 133.735,258.085 133.473,259.495C133.104,261.477 133.195,261.472 133.092,263.474C133.033,264.608 132.301,270.586 132.469,272.502C132.743,275.617 132.892,275.685 131.664,278.571C130.543,281.203 131.64,283.058 131.801,286.487C132.053,291.873 132.532,292.138 135.493,293.513C137.14,294.277 136.432,295.91 138.535,296.291C140.16,296.585 140.197,296.49 141.591,297.351C142.459,297.888 144.09,298.188 145.28,298.884C150.139,301.727 152.254,300.395 155.569,299.828C159.012,299.239 158.446,303.126 165.476,302.324C169.115,301.91 169.132,302.177 169.442,302.108C170.972,301.768 171.547,300.32 174.294,301.895C176.013,302.881 178.091,302.053 178.625,301.929C182.531,301.016 182.083,303.852 186.536,304.094C191.119,304.344 191.103,304.518 191.502,304.527C191.624,304.53 192.307,304.545 192.765,303.67C192.983,303.254 193.088,302.783 193.311,302.37C193.936,301.213 195.901,301.742 196.44,299.483C196.634,298.668 196.544,298.668 196.571,296.501C196.589,294.982 196.973,293.812 197.023,291.489C197.099,287.989 197.272,288.005 197.219,284.508C197.149,279.935 197.533,279.988 198.157,277.423C198.418,276.35 197.782,274.654 198.295,272.444C198.634,270.981 198.631,270.999 198.7,269.508C198.733,268.807 200.138,261.923 200.141,261.499C200.155,259.485 200.11,259.507 200.209,257.478C200.338,254.828 200.082,254.732 201.363,252.415C202.361,250.61 201.996,250.508 201.794,248.456C201.564,246.126 203.199,245.655 203.646,242.517C204.334,237.695 203.764,237.257 204.794,235.698C206.469,233.16 205.931,232.958 206.321,229.485C206.726,225.873 208.159,226.127 207.968,222.481C207.784,218.966 208.772,217.383 208.859,215.506C208.978,212.923 209.127,212.924 210.297,211.34C211.763,209.354 209.556,208.061 209.935,206.656C210.268,205.424 212.016,205.899 212.863,202.589C213.253,201.06 213.294,201.089 213.767,199.596C213.892,199.203 214.032,198.76 214.577,194.508C214.703,193.529 214.257,192.086 214.793,190.616C216.495,185.946 216.305,185.886 216.453,185.481C217.328,183.088 216.77,182.945 217.717,180.594C218.504,178.639 218.431,178.627 218.554,176.502C218.693,174.122 219.334,173.469 219.641,172.553C220.952,168.649 219.07,168.113 221.942,162.726C223.131,160.496 222.589,159.497 223.212,156.428C223.535,154.838 224.12,154.99 225.022,149.433C225.433,146.906 225.873,147.014 226.194,144.464C226.274,143.831 227.422,139.398 228.042,137.346C229.382,132.907 228.423,132.68 230.033,128.321C231.073,125.505 230.589,125.373 231.641,122.557C232.694,119.737 232.157,119.316 232.407,117.49C232.588,116.172 235.147,110.588 235.253,108.482C235.409,105.38 235.364,105.367 236.454,102.481C237.353,100.102 236.887,99.993 237.704,97.573C238.372,95.598 238.421,94.401 238.704,93.565C239.561,91.036 239.767,91.093 240.119,88.443C240.292,87.139 240.79,86.321 241.054,84.443C241.743,79.525 242.488,79.555 241.944,76.416C240.939,70.623 238.803,70.675 236.405,69.753C235.344,69.345 235.449,69.174 234.403,68.719C233.1,68.151 231.662,69.053 230.277,67.751C228.688,66.259 228.679,66.06 226.501,66.051C223.019,66.037 222.934,65.994 221.259,67.117C218.665,68.856 219.517,64.648 216.478,63.566C214.735,62.946 214.701,63.013 213.19,61.945C209.005,58.985 208.946,59.089 204.35,56.835C199.407,54.412 197.455,57.223 195.499,57.494C192.632,57.891 190.363,56.714 188.703,57.837C188.557,57.936 188.467,58.111 188.311,58.194C186.568,59.126 186.086,57.131 184.514,57.532C183.763,57.723 183.961,57.976 183.171,59.292C181.976,61.282 181.492,61.019 180.322,64.435C179.284,67.467 181.428,68.656 180.631,70.574C179.804,72.565 176.399,69.558 176.339,73.487C176.3,76.033 177.502,76.349 177.197,77.411C177.061,77.886 175.967,79.561 175.849,79.741ZM277.517,273.553C278.34,272.816 278.361,272.866 279.266,272.224C283.386,270.179 283.543,270.112 284.009,268.403C284.351,267.147 284.093,266.945 285.636,265.677C286.812,264.71 288.385,264.055 288.768,262.564C288.851,262.239 288.831,261.894 288.9,261.566C289.466,258.866 291.845,255.917 291.841,253.483C291.826,245.433 293.651,245.514 293.808,242.507C293.915,240.457 293.742,240.422 294.523,238.511C295.6,235.878 294.682,235.682 295.61,232.536C296.032,231.107 295.854,231.082 296.605,228.534C297.327,226.085 296.886,225.996 297.689,223.568C299.045,219.467 297.906,218.16 300.147,213.344C301.778,209.84 300.289,209.589 301.01,204.426C301.138,203.514 301.049,201.83 301.558,200.523C302.318,198.573 302.26,198.571 302.564,196.509C303.037,193.289 303.844,193.463 304.149,189.468C304.461,185.365 305.899,183.694 306.043,178.495C306.142,174.906 308.228,175.28 308.164,173.49C308.161,173.42 308.154,173.421 307.332,170.542C306.847,168.844 307.038,168.535 305.384,167.896C304.253,167.459 304.222,167.527 303.26,166.805C301.403,165.411 299.953,166.266 297.689,165.107C295.631,164.054 295.153,165.118 293.433,163.572C290.323,160.778 288.193,162.001 286.795,161.063C284.459,159.496 285.317,158.333 281.424,156.67C279.601,155.892 277.459,153.905 274.484,153.815C267.685,153.608 266.507,154.297 263.991,151.13C261.663,148.199 259.884,149.651 254.434,148.919C251.985,148.589 251.999,149.279 249.526,149.1C246.645,148.891 244.039,148.076 242.206,155.44C241.893,156.698 241.108,158.621 240.953,159.576C240.536,162.133 240.624,162.15 239.72,164.589C239.231,165.908 239.706,168.473 238.672,171.565C238.025,173.501 238.015,173.489 237.76,175.529C237.395,178.441 236.75,178.309 236.091,183.453C235.774,185.918 235.186,187.065 234.941,188.579C234.007,194.349 234.188,194.384 233.457,196.483C232.574,199.021 231.934,206.267 230.448,210.479C229.766,212.414 229.358,217.428 228.729,220.55C228.032,224.008 228.316,224.057 227.312,227.437C227.026,228.403 227.114,228.942 226.436,231.482C225.912,233.442 225.062,239.339 224.705,240.56C223.576,244.416 224.298,244.549 223.277,248.433C222.374,251.868 222.837,251.936 222.17,255.417C221.579,258.499 222.079,260.129 222.086,263.486C222.096,267.98 225.889,264.631 229.523,266.462C231.376,267.396 231.118,270.359 234.492,270.684C236.061,270.835 236.019,270.969 237.549,271.285C238.189,271.418 238.847,271.446 239.491,271.559C245.016,272.536 247.927,276.603 251.426,274.357C252.181,273.872 252.148,273.796 252.534,273.766C253.693,273.673 253.401,274.213 253.819,275.31L254.295,275.897C254.646,275.821 254.957,276.34 255.308,276.264C255.415,276.241 255.327,276.169 256.013,275.088C256.296,274.641 256.52,274.158 256.802,273.71C258.253,271.406 259.701,272.815 262.667,274.092C264.59,274.92 269.691,278.839 269.54,274.5C269.528,274.166 269.444,273.838 269.41,273.506C269.383,273.235 269.01,269.588 271.374,270.722C271.554,270.808 272.045,271.74 273.507,272.487C274.111,272.796 274.088,272.804 274.693,273.141C276.673,274.243 277.316,273.551 277.517,273.553ZM287.491,127.955C287.59,127.967 291.952,128.179 293.684,129.131C296.257,130.546 300.841,130.819 301.478,130.857C303.415,130.972 304.304,131.929 306.506,132.109C306.842,132.137 307.181,132.095 307.518,132.12C308.941,132.227 314.548,135.028 313.775,130.456C313.365,128.036 312.507,127.218 314.406,121.469C314.854,120.113 314.816,118.735 316.39,118.179C317.769,117.691 318.618,118.162 319.153,115.449C319.9,111.66 320.32,111.36 318.783,109.288C315.948,105.464 320.379,101.202 318.579,97.452C318.205,96.671 314.35,94.39 312.574,94.077C310.544,93.721 310.515,93.931 308.559,93.331C305.91,92.518 302.329,93.053 296.466,90.572C295.012,89.957 295.021,89.971 293.473,89.671C290.556,89.105 291.069,87.511 288.504,87.557C284.616,87.627 284.89,86.542 280.42,84.695C276.519,83.082 272.276,85.311 267.336,82.857C264.106,81.253 259.396,82.01 257.508,82.022C255.482,82.035 255.213,81.368 253.774,82.779C253.475,83.072 251.677,87.419 251.214,89.424C250.614,92.022 250.43,91.959 249.792,94.564C249.695,94.96 249.545,94.909 248.149,99.391C247.203,102.428 247.21,102.415 246.79,105.546C246.19,110.021 245.134,110.177 246.922,114.341C248.571,118.18 250.541,116.937 252.765,119.257C254.435,120.999 254.995,119.868 256.573,120.241C256.723,120.276 256.648,120.457 258.371,120.936C260.839,121.623 263.631,121.174 266.412,122.659C269.237,124.167 269.354,123.815 272.534,124.158C275.239,124.449 275.056,125.318 280.457,125.961C282.891,126.25 282.969,126.687 283.722,127.126C285.431,128.123 285.52,127.825 287.491,127.955ZM996.029,232.5C996.05,229.484 995.907,229.474 996.624,226.531C997.598,222.536 996.68,222.439 997.543,216.505C997.813,214.653 997.582,211.141 997.869,209.58C998.072,208.472 998.311,208.505 998.351,199.499C998.355,198.687 998.386,191.644 999.091,189.373C999.994,186.464 1000.292,186.46 999.806,183.462C999.59,182.126 999.147,182.132 999.658,179.532C1000.284,176.345 1000.124,169.522 1000.141,168.492C1000.176,166.347 1002.029,160.533 998.547,158.432C995.293,156.468 995.017,157.131 993.439,156.901C990.589,156.485 991.482,154.88 987.416,152.655C983.351,150.43 983.662,149.925 982.524,149.449C980.397,148.557 980.022,149.411 976.786,147.129C975.809,146.44 976.136,145.938 970.566,143.368C968.222,142.286 967.445,141.097 964.201,138.941C961.597,137.208 960.466,137.689 958.145,135.958C953.866,132.767 949.443,132.648 944.412,129.644C942.699,128.621 939.082,127.344 938.685,127.137C935.825,125.648 935.643,125.98 933.1,123.975C931.569,122.767 929.304,123.27 925.324,120.786C924.734,120.418 920.787,118.904 920.437,118.831C919.97,118.732 919.978,118.783 914.468,119.077C913.098,119.15 912.344,119.629 910.416,120.03C907.861,120.562 908.109,121.29 905.545,121.79C902.236,122.436 902.764,123.499 900.557,124.609C900.288,124.744 899.991,124.818 899.729,124.964C898.677,125.551 893.072,130.292 892.559,130.592C891.023,131.491 891.11,131.58 889.889,132.867C888.9,133.909 888.853,133.828 887.856,134.843C882.663,140.131 882.595,140.06 881.928,140.873C879.911,143.333 880.016,143.418 875.752,147.747C873.579,149.953 873.566,150.558 872.27,152.342C868.506,157.523 866.675,161.557 866.2,162.318C864.878,164.436 865.076,164.523 863.885,166.711C861.433,171.214 861.705,171.33 861.241,172.385C859.269,176.872 859.702,177.047 858.299,179.386C858.075,179.76 857.089,181.403 856.161,184.388C854.69,189.121 854.522,189.058 854.404,189.472C853.686,192 854.004,192.072 852.424,196.474C850.861,200.829 851.387,200.959 850.218,205.43C849.566,207.924 849.847,207.957 849.361,210.473C848.766,213.557 849.387,213.657 848.457,216.484C847.424,219.622 849.199,220.634 847.308,226.431C846.515,228.861 847.576,232.105 847.598,234.501C847.615,236.492 847.602,236.479 847.895,238.448C848.533,242.733 847.716,242.803 848.345,245.536C849.327,249.801 849.864,251.198 850.047,251.674C851.444,255.309 850.573,255.581 851.96,258.27C853.621,261.49 853.06,261.816 855.4,264.584C856.295,265.642 857.294,267.539 858.306,268.669C858.722,269.134 862.691,273.566 863.578,274.419C866.654,277.374 867.967,276.451 870.238,277.905C873.104,279.74 873.359,279.182 876.387,280.722C880.382,282.754 880.313,282.859 884.498,284.504C885.428,284.869 890.052,287.75 891.554,288.388C894.616,289.689 895.131,288.594 902.573,293.39C905.388,295.204 905.575,294.82 916.586,300.337C919.165,301.629 921.363,300.901 920.924,304.539C920.846,305.188 920.805,305.161 920.151,307.394C919.605,309.256 920.189,309.35 919.242,313.443C918.55,316.437 918.607,316.425 918.225,319.465C918.038,320.954 917.268,322.629 917.162,324.478C916.701,332.559 916.836,332.992 917.853,334.177C919.73,336.365 921.382,336.271 921.552,336.324C922.898,336.737 923.947,337.855 927.718,341.251C929.578,342.927 929.651,342.819 931.521,344.476C934.761,347.349 936.145,346.727 936.454,346.829C937.698,347.237 937.552,347.463 938.131,348.637C939.151,350.706 939.993,349.649 942.453,350.612C944.866,351.556 944.913,351.285 947.502,351.473C949.455,351.614 950.644,352.847 952.445,353.621C953.758,354.185 953.712,354.247 954.796,355.173C956.164,356.341 957.205,354.958 959.314,355.893C962.703,357.395 963.39,358.041 963.681,358.314C966.341,360.816 967.273,359.509 968.498,359.46C970.293,359.389 971.126,361.571 972.298,361.094C973.138,360.752 974.019,357.714 974.111,357.397C974.82,354.95 974.968,355.021 975.734,352.572C976.574,349.888 975.348,349.663 976.578,346.537C977.481,344.242 976.868,344.132 977.467,339.497C977.729,337.472 978.451,337.061 978.493,334.5C978.548,331.163 979.007,331.255 979.668,329.567C979.957,328.827 980.058,326.279 980.307,325.44C980.513,324.745 980.82,324.081 981.007,323.38C981.055,323.201 981.541,320.024 982.175,318.372C982.435,317.695 982.775,317.049 983.003,316.36C983.357,315.29 982.839,312.816 983.845,310.658C984.753,308.712 984.569,308.665 984.625,306.502C984.673,304.672 985.718,303.138 986.005,301.436C986.255,299.951 986.183,299.956 986.536,298.509C987.169,295.918 985.853,295.634 987.21,293.337C988.206,291.652 987.623,290.492 988.272,288.417C988.888,286.444 988.736,286.415 989.34,284.444C990.598,280.337 990.284,276.012 991.484,272.494C992.641,269.1 991.785,268.995 992.091,265.434C992.493,260.759 992.828,260.841 993.346,259.439C994.79,255.524 992.884,251.461 994.57,246.528C995.614,243.473 994.87,240.522 995.679,236.542C996.004,234.948 995.897,234.946 996.029,232.5ZM712.937,252.459C714.937,250.641 715.274,250.923 716.56,248.534C717.361,247.045 718.533,246.582 719.628,244.572C720.814,242.398 721.452,242.777 722.284,240.448C723.355,237.452 724.506,238.345 726.69,235.633C729.087,232.656 730.769,231.728 731.314,231.273C732.35,230.409 732.729,230.105 731.721,229.204C731.626,229.119 731.589,228.92 731.461,228.922C730.633,228.939 729.342,229.957 729.181,230.083C728.625,230.522 728.67,230.554 728.143,231.017C727.953,231.183 726.915,231.689 724.787,233.81C723.355,235.238 721.583,236.201 720.428,238.444C719.396,240.445 719.243,240.327 718.026,242.214C716.673,244.31 715.168,245.504 714.539,246.525C713.415,248.351 713.419,248.349 713.367,248.423C710.918,251.939 710.13,252.062 709.488,252.482C708.178,253.341 707.841,255.179 707.641,255.601C707.114,256.713 705.816,256.727 705.314,255.63C704.279,253.37 705.061,251.914 705.167,251.425C705.291,250.852 705.559,246.24 705.625,245.508C705.904,242.427 707.618,242.185 708.632,239.545C709.142,238.218 709.182,238.239 710.15,237.182C712.778,234.314 714.136,232.143 715.624,230.614C717.145,229.051 717.547,229.475 718.811,227.709C721.331,224.189 722.644,224.109 725.684,221.742C728.315,219.694 728.756,220.392 731.319,218.274C733.982,216.073 734.034,216.109 740.536,213.581C741.991,213.015 742.112,213.23 742.381,213.134C742.857,212.965 742.969,211.674 742.981,211.538C743.007,211.236 742.849,210.915 742.949,210.629C743.002,210.48 743.281,209.691 744.436,209.32C744.753,209.218 746.855,208.544 748.435,208.184C751.594,207.466 751.258,206.655 753.753,205.81C755.089,205.357 755.835,205.873 755.755,204.454C755.702,203.49 755.291,203.781 754.336,203.789C753.918,203.793 753.494,203.919 753.082,203.844C752.331,203.708 752.713,202.679 752.749,202.581C752.889,202.203 753.215,201.903 753.318,201.513C753.51,200.789 753.217,200.851 752.644,200.358C751.8,199.632 751.859,199.604 751.203,198.704C750.23,197.37 749.786,197.262 748.344,195.632C746.183,193.188 745.876,193.433 744.278,190.601C743.387,189.022 743.216,189.029 739.581,188.118C737.407,187.573 737.694,187.094 736.591,185.425C735.815,184.252 730.712,182.056 729.933,181.141C729.222,180.304 729.33,180.23 728.527,179.471C726.919,177.95 726.197,177.925 724.472,178.023C718.594,178.355 716.476,178.418 716.204,175.523C715.865,171.912 717.475,172.125 717.568,168.501C717.623,166.35 717.704,166.378 718.019,164.426C719.016,158.246 719.076,156.429 719.714,154.576C721.913,148.189 719.417,147.018 721.638,140.55C721.736,140.263 722.532,137.946 721.256,136.768C720.299,135.883 713.587,134.021 713.437,133.993C711.466,133.629 711.526,133.453 709.55,133.121C706.665,132.636 706.708,132.459 704.3,130.799C701.937,129.169 700.74,129.716 697.49,128.526C688.786,125.34 688.086,123.075 684.482,123.111C680.142,123.154 680.828,120.779 676.55,120.103C675.84,119.99 675.116,119.955 674.412,119.807C673.788,119.675 672.574,118.91 671.512,118.472C669.057,117.46 669.118,117.226 666.46,117C662.713,116.68 662.682,115.747 660.539,116.588C655.983,118.376 658.552,123.31 656.555,129.519C655.467,132.898 656.202,133.024 655.424,136.483C654.192,141.952 654.425,141.971 653.353,149.48C652.143,157.957 653.408,158.514 651.914,163.632C650.805,167.432 651.801,167.606 650.848,170.622C649.209,175.81 649.735,179.943 648.711,183.569C648.022,186.008 648.096,186.009 647.906,188.539C647.726,190.925 647.098,190.804 646.782,194.527C646.48,198.082 646.566,198.096 645.466,201.489C644.883,203.29 645.199,206.068 644.537,208.51C642.797,214.935 643.722,215.133 642.588,218.534C641.369,222.189 642.493,222.391 641.557,225.519C640.54,228.916 640.954,228.979 640.464,232.495C640.128,234.91 640.423,235.256 639.551,237.523C638.819,239.426 638.914,239.444 638.859,241.509C638.776,244.639 638.123,244.523 637.709,247.53C637.169,251.453 636.805,251.36 636.249,253.436C635.797,255.124 636.18,258.072 635.492,260.498C634.749,263.117 635.205,263.191 634.529,266.505C633.606,271.031 633.589,271.012 632.744,275.543C632.405,277.365 631.603,278.18 630.896,283.538C630.559,286.091 630.175,285.998 629.849,288.535C629.394,292.071 628.776,291.942 628.382,295.488C628.026,298.686 627.097,301.672 627.256,302.546C627.608,304.494 632.153,305.016 635.282,306.879C639.336,309.292 641.304,308.764 643.477,310.527C645.248,311.964 645.36,311.758 647.538,312.381C647.827,312.463 655.942,315.515 658.567,316.233C660.466,316.753 660.515,316.704 661.943,318.05C662.953,319.003 663.085,318.766 664.464,318.884C667.737,319.165 668.336,320.761 671.404,321.792C673.964,322.653 673.881,322.821 676.444,323.668C680.996,325.173 680.689,326.138 685.447,326.827C687.567,327.135 688.124,327.672 688.973,325.715C690.118,323.076 690.174,322.433 690.119,320.525C689.996,316.297 690.728,316.222 689.783,313.395C688.841,310.576 689.282,310.357 691.405,308.395C692.943,306.974 692.468,306.683 692.009,304.622C691.527,302.453 692.499,302.198 693.006,301.22C694.435,298.468 692.058,297.786 694.276,294.361C696.555,290.844 695.837,288.781 696.913,286.725C698.693,283.321 698.275,283.153 699.833,279.646C701.606,275.655 701.208,275.484 702.808,272.669C705.49,267.951 704.267,267.306 707.313,263.359C709.221,260.888 710.865,256.958 711.811,255.733C712.927,254.289 712.675,254.175 712.937,252.459ZM350.512,329.054C353.567,329.425 353.467,329.761 356.359,330.837C358.964,331.805 359.073,331.129 365.491,331.62C369.325,331.913 369.26,331.332 370.572,330.641C373.014,329.354 373.367,331.975 373.657,332.386C374.321,333.326 377.65,334.599 379.271,333.236C379.797,332.795 380.012,331.953 381.517,331.573C383.063,331.182 383.11,331.076 383.742,329.6C385.019,326.62 385.364,326.746 385.973,323.575C386.65,320.045 387.834,320.36 388.182,316.47C388.601,311.783 390.832,309.986 391.822,304.562C392.151,302.765 392.066,302.704 393.172,301.248C393.409,300.936 396.417,295.787 396.953,293.618C397.673,290.704 396.796,290.478 398.02,288.256C400.346,284.033 400.371,283.911 400.457,283.492C400.784,281.902 400.416,281.702 401.576,280.584C403.095,279.119 403.161,279.17 404.158,277.319C404.532,276.625 405.759,272.921 405.896,271.537C406.116,269.31 406.142,269.299 407.233,267.354C407.458,266.954 408.912,263.728 408.742,262.458C408.679,261.99 408.215,261.508 408.11,259.517C407.998,257.391 407.388,256.771 409.389,256.07C410.922,255.532 410.999,255.595 411.054,255.395C411.066,255.352 410.846,254.34 411.111,252.451C411.544,249.364 413.271,249.857 413.989,244.559C414.619,239.919 415.693,240.142 416.074,235.483C416.323,232.446 417.112,232.479 416.564,229.489C415.796,225.292 415.652,218.39 411.129,212.799C409.334,210.581 408.906,210.374 408.65,210.25C406.452,209.187 405.165,210.445 403.128,207.751C401.534,205.641 400.973,206.477 398.597,205.299C397.995,205 396.604,204.076 394.589,203.28C392.52,202.462 392.498,202.528 390.692,201.219C390.551,201.117 384.693,198.567 383.833,192.452C383.563,190.533 384.212,190.639 385.623,186.546C386.739,183.308 386.969,183.42 389.329,179.4C391.527,175.656 392.122,176.101 394.449,172.464C394.921,171.726 404.806,160.684 408.531,161.36C410.488,161.716 411.369,165.105 413.505,165.194C415.022,165.257 415.284,163.919 415.202,163.54C415.149,163.295 414.998,163.36 414.001,160.657C413.143,158.334 412.674,158.673 410.642,157.284C408.213,155.625 407.827,156.862 403.445,155.694C401.113,155.073 399.633,155.394 398.686,155.021C398.423,154.918 398.444,154.883 395.474,153.558C394.665,153.197 393.973,152.528 393.58,152.356C392.893,152.055 392.171,151.839 391.474,151.564C389.114,150.63 386.897,148.358 383.533,148.14C379.885,147.903 379.865,147.977 376.405,146.766C373.131,145.62 372.082,146.335 370.408,145.782C366.826,144.599 367.105,143.759 364.418,142.761C363.41,142.386 361.733,141.507 359.616,141.952C359.059,142.068 357.214,143.042 354.897,141.051C352.802,139.25 352.534,139.789 349.507,139.857C345.658,139.944 345.729,140.397 342.426,142.38C339.909,143.892 338.791,146.021 337.22,147.088C336.77,147.393 333.695,148.768 332.616,151.545C330.317,157.459 327.563,156.625 325.761,159.632C324.61,161.552 324.609,161.532 323.217,163.287C319.555,167.903 316.753,178.572 316.967,180.461C317.119,181.811 319.284,185.898 322.754,188.063C323.944,188.805 324.104,188.559 326.344,190.661C329.125,193.271 330.177,191.819 334.282,193.942C337.685,195.703 338.248,194.457 341.346,196.72C344.2,198.804 343.713,199.292 346.257,201.765C348.506,203.951 347.821,204.523 349.667,208.411C350.962,211.139 350.063,211.283 350.074,214.5C350.083,216.993 350.29,217.026 349.495,219.498C348.829,221.567 349.234,223.304 348.524,226.505C347.97,229.007 348.015,228.994 347.492,231.498C347.059,233.573 346.397,234.318 346.126,235.399C344.251,242.864 343.665,242.663 342.3,247.433C341.733,249.414 341.809,250.264 340.694,252.602C340.369,253.284 340.461,253.314 337.339,261.429C337.213,261.757 336.736,263.539 336.336,264.423C335.785,265.64 335.669,265.601 335.36,267.48C335.345,267.573 334.351,271.927 331.707,275.65C329.731,278.434 328.013,285.545 326.946,287.717C324.858,291.966 325.286,292.128 323.512,296.505C323.393,296.8 323.276,297.097 323.188,297.402C322.985,298.112 322.87,298.847 322.642,299.549C322.292,300.626 322.059,300.545 321.377,303.473C320.663,306.536 320.097,306.405 319.863,309.534C319.569,313.459 317.087,320.114 319.67,322.294C322.086,324.333 327.3,324.22 327.546,324.262C328.978,324.505 328.99,324.572 330.392,324.18C332.596,323.564 332.26,324.927 334.347,325.866C336.077,326.645 336.071,326.625 336.341,326.785C338.135,327.849 338.422,327.105 340.478,327.587C343.425,328.277 343.449,328.102 346.4,328.83C347.019,328.983 347.006,329.128 350.512,329.054Z" style="fill:white;fill-opacity:1;"/>
                <path d="M934.047,238.481C933.67,242.068 933.351,241.984 932.438,245.484C931.892,247.573 931.338,259.558 929.793,262.634C928.301,265.604 929.579,265.913 928.297,270.436C927.252,274.122 928,275.14 926.736,278.592C926.033,280.514 926.058,280.51 925.842,282.532C925.445,286.242 922.566,287.245 921.47,285.525C920.249,283.611 919.89,281.027 919.446,280.545C919.131,280.202 918.695,279.993 918.332,279.703C916.708,278.41 918.481,276.597 916.669,276.086C916.321,275.988 915.943,276.072 915.588,276.003C913.912,275.678 913.504,274.826 912.631,274.299C909.884,272.639 909.36,272.729 909.02,269.534C908.447,264.154 906.611,262.778 907.303,256.473C907.631,253.487 906.896,253.444 907.59,250.522C908.777,245.52 908.767,243.143 908.764,242.494C908.746,238.397 909.697,238.533 910.107,234.47C910.427,231.303 911.538,228.68 911.834,226.551C912.334,222.952 912.702,223.053 913.731,219.576C914.625,216.557 914.486,216.508 915.165,215.32C916.541,212.911 916.286,209.311 918.814,204.657C919.105,204.12 918.758,203.972 921.879,197.671C925.251,190.865 925.278,189.539 926.81,187.772C927.265,187.247 927.949,186.949 930.476,181.488C931.995,178.206 932.651,178.615 934.393,175.439C934.969,174.387 937.12,172.192 937.658,170.58C938.017,169.505 937.613,169.259 938.564,168.624C939.246,168.169 939.305,168.497 939.767,169.196C940.929,170.953 939.992,171.14 939.911,176.503C939.859,180.006 939.723,179.986 939.768,183.495C939.794,185.617 939.869,186.815 939.531,188.507C938.938,191.478 940.216,191.56 939.445,194.486C937.86,200.501 937.976,200.529 937.916,208.499C937.894,211.441 936.778,212.333 936.681,216.503C936.526,223.209 935.209,225.082 935.077,227.472C934.909,230.495 934.694,230.456 934.273,233.468C934.107,234.653 934.082,237.063 934.047,238.481Z" style="fill:white;fill-opacity:1;"/>
            </g>
        </g>
    </g>
</svg>
