<?xml version="1.0" encoding="UTF-8" standalone="no"?>
<!DOCTYPE svg PUBLIC "-//W3C//DTD SVG 1.1//EN" "http://www.w3.org/Graphics/SVG/1.1/DTD/svg11.dtd">
<svg width="100%" height="100%" viewBox="0 0 1870 825" version="1.1" xmlns="http://www.w3.org/2000/svg" xmlns:xlink="http://www.w3.org/1999/xlink" xml:space="preserve" xmlns:serif="http://www.serif.com/" style="fill-rule:evenodd;clip-rule:evenodd;stroke-linejoin:round;stroke-miterlimit:2;">
    <g id="Buttons.jpeg" transform="matrix(1.826172,0,0,1.826172,0,0)">
        <path d="M212.5,0L230.5,-0C230.93,0.226 231.114,0.79 231.544,1.016C231.933,1.221 242.758,0.943 244.521,1.435C247.927,2.384 247.956,2.118 251.508,2.169C257.129,2.251 257.199,1.764 260.409,2.763C262.548,3.429 264.54,2.873 266.521,3.437C270.678,4.619 270.767,3.87 279.513,4.167C282.069,4.254 281.944,5.015 284.511,5.058C294.229,5.219 294.285,4.839 297.413,5.761C300.011,6.527 308.106,5.769 310.519,6.442C313.926,7.393 313.959,7.094 317.508,7.145C323.604,7.233 323.647,6.939 326.411,7.763C329.219,8.601 337.309,7.803 339.522,8.433C341.97,9.131 341.978,9.078 344.512,9.134C347.722,9.204 347.627,9.754 349.536,10.022C350.554,10.164 359.526,9.865 361.522,10.433C364.923,11.402 364.963,11.056 368.507,11.094C375.136,11.165 375.161,11.099 377.415,11.758C380.025,12.521 389.134,11.779 391.518,12.443C394.935,13.395 394.966,13.106 398.508,13.156C404.552,13.24 404.6,12.912 407.41,13.764C409.555,14.415 411.552,13.878 413.521,14.437C417.688,15.621 417.768,14.871 425.515,15.144C428.064,15.234 427.946,16.009 430.509,16.047C440.103,16.189 440.158,15.806 443.417,16.756C445.968,17.499 455.064,16.755 457.519,17.442C460.938,18.399 460.972,18.086 464.508,18.132C470.766,18.214 470.805,17.986 473.411,18.763C476.147,19.578 484.241,18.801 486.52,19.439C488.966,20.125 488.974,20.07 491.513,20.13C494.733,20.206 494.639,20.756 496.534,21.019C497.455,21.146 507.503,20.879 509.519,21.442C512.929,22.395 512.967,22.055 516.508,22.094C522.279,22.157 522.296,22.139 524.416,22.758C526.987,23.508 536.094,22.767 538.519,23.443C541.93,24.395 541.962,24.096 545.507,24.142C550.731,24.21 550.76,23.981 553.415,24.759C556.184,25.57 565.305,24.808 567.521,25.436C568.379,25.679 568.592,26.038 570.516,26.094C573.022,26.167 573.031,26.054 575.419,26.751C576.501,27.066 576.51,27.069 589.502,27.183C591.699,27.203 602.388,26.996 603.508,26.975C606.054,26.925 605.947,26.245 608.486,26.154C611.531,26.044 611.561,26.264 614.479,25.436C617.474,24.586 625.831,26.003 631.482,24.442C634.625,23.574 642.025,24.961 647.481,23.443C649.495,22.882 651.247,23.39 659.505,23C661.525,22.904 661.529,22.986 663.482,22.443C665.635,21.844 677.513,22.298 679.582,21.756C683.439,20.747 683.491,21.276 687.49,21.081C693.781,20.773 693.806,21.216 695.581,20.757C695.889,20.677 696.175,20.527 696.481,20.442C698.306,19.932 701.497,20.343 703.591,19.764C707.069,18.801 707.122,19.287 716.488,19.113C721.162,19.026 721.082,18.416 722.471,18.24C723.646,18.091 735.587,18.285 737.584,17.757C740.143,17.081 740.159,17.172 746.493,17.109C753.102,17.042 753.091,16.83 754.481,16.441C756.675,15.827 768.599,16.275 770.581,15.753C774.459,14.731 774.506,15.127 778.506,14.996C783.728,14.825 783.8,15.478 787.48,14.438C789.321,13.917 792.498,14.329 794.589,13.763C798.149,12.8 798.208,13.262 807.489,13.102C812.119,13.022 812.036,12.421 813.47,12.236C816.771,11.813 823.585,12.806 828.481,11.443C830.226,10.957 837.374,11.177 839.493,11.08C842.519,10.941 842.552,11.262 845.48,10.437C847.666,9.821 858.644,10.261 860.582,9.757C862.994,9.129 862.998,9.173 865.489,9.122C868.927,9.052 868.817,8.426 870.469,8.221C871.489,8.094 883.198,8.397 885.587,7.761C890.541,6.442 890.896,7.59 900.513,6.989C903.054,6.831 902.961,6.241 905.492,6.178C916.561,5.904 916.597,6.247 919.481,5.44C921.647,4.834 933.489,5.305 935.581,4.752C939.454,3.728 939.508,4.267 943.492,4.079C947.501,3.89 947.485,4.072 951.494,3.976C951.801,3.968 953.975,3.916 955.228,4.846C955.819,5.285 955.763,5.329 956.35,5.745C958.175,7.04 958.775,6.574 961.227,8.801C962.092,9.587 962.019,9.693 963.556,10.397C963.718,10.471 963.696,10.504 965.538,11.438C966.111,11.729 967.468,12.903 967.723,13.005C968.006,13.118 968.321,13.127 968.609,13.225C969.772,13.621 970.158,14.648 970.776,15.046C972.462,16.132 972.635,15.755 974.355,16.778C976.059,17.792 976.095,17.728 976.229,17.836C976.395,17.967 976.477,18.185 976.64,18.318C977.814,19.279 978.04,18.907 979.225,19.841C979.798,20.293 979.751,20.327 980.348,20.75C981.242,21.382 981.356,21.168 982.226,21.843C983.34,22.708 983.279,22.783 984.539,23.436C985.556,23.963 985.354,24.244 986.378,24.731C986.777,24.921 987.202,25.053 987.61,25.224C988.951,25.785 988.697,26.118 989.826,27.095C991.302,28.372 990.885,28.642 991.61,30.451C992.396,32.411 992.616,32.349 992.846,34.455C993.021,36.048 993.602,35.883 993.772,37.461C994.009,39.658 993.916,39.67 994.229,40.604C995.029,42.993 994.715,43.049 994.917,44.446C995.078,45.56 995.712,45.966 995.891,48.469C996.051,50.706 996.512,50.591 996.839,52.44C997.197,54.46 996.991,54.514 997.927,56.318C997.982,56.424 998.306,56.642 998.561,57.477C999.177,59.488 998.557,59.603 999.228,61.604C1000.046,64.043 999.452,64.166 1000.239,66.597C1000.693,67.995 1000.619,67.995 1000.907,69.444C1001.182,70.827 1001.709,71.059 1001.885,73.469C1002.047,75.689 1002.494,75.575 1002.829,77.44C1002.886,77.757 1003.323,80.189 1003.919,81.322C1003.989,81.456 1004.294,81.601 1004.562,82.476C1004.66,82.797 1004.74,83.127 1004.775,83.461C1005.002,85.645 1004.903,85.645 1005.228,86.605C1006.05,89.036 1005.446,89.168 1006.235,91.599C1006.54,92.536 1006.743,92.506 1006.882,94.47C1007.044,96.735 1007.514,96.622 1007.833,98.442C1008.274,100.963 1008.434,100.905 1008.93,103.438C1009.14,104.516 1010.684,108.696 1010.774,109.462C1011.051,111.805 1010.98,111.808 1011.237,112.598C1011.693,113.999 1011.608,114.003 1011.898,115.444C1012.176,116.825 1012.702,117.013 1012.877,119.47C1013.038,121.719 1013.498,121.606 1013.824,123.443C1013.88,123.76 1014.306,126.165 1014.919,127.324C1014.984,127.447 1015.304,127.611 1015.568,128.474C1015.913,129.597 1015.595,130.761 1016.226,132.607C1017.057,135.035 1016.437,135.168 1017.233,137.6C1017.904,139.649 1017.68,139.68 1017.935,141.442C1017.982,141.768 1018.209,141.712 1018.927,145.442C1018.989,145.766 1019.189,145.714 1019.923,149.44C1020.124,150.465 1021.681,154.671 1021.772,155.463C1022.031,157.724 1021.952,157.733 1022.234,158.599C1022.667,159.922 1022.704,159.906 1022.79,160.455C1022.935,161.372 1022.835,161.372 1022.875,161.44C1023.279,162.124 1023.595,161.816 1023.999,162.5L1023.999,169.5C1023.35,169.739 1023.303,169.455 1022.651,169.695C1022.604,169.712 1022.69,169.791 1022.222,170.154C1021.358,170.825 1021.25,170.615 1020.349,171.258C1019.753,171.684 1019.793,171.715 1019.224,172.158C1018.032,173.088 1017.834,172.747 1016.671,173.711C1016.443,173.899 1015.407,175.11 1014.534,175.555C1013.251,176.208 1013.263,176.22 1012.223,177.201C1009.584,179.691 1008.902,178.743 1006.224,181.199C1005.104,182.227 1005.052,182.134 1003.733,182.91C1003.503,183.045 1002.169,184.236 1001.539,184.562C1000.263,185.22 1000.271,185.224 999.222,186.199C997.877,187.449 997.741,187.241 996.346,188.252C995.753,188.681 995.796,188.709 995.225,189.16C994.116,190.037 992.636,190.015 990.232,192.205C989.702,192.688 989.737,192.697 989.213,193.202C986.602,195.716 985.914,194.753 983.227,197.201C981.897,198.414 981.776,198.233 980.347,199.254C979.071,200.164 979.084,200.146 977.746,200.93C977.44,201.11 976.173,202.23 975.542,202.566C973.31,203.755 973.48,203.962 972.214,205.205C970.307,207.078 968.56,207.334 967.344,208.269C965.15,209.955 966.482,210.655 965.228,214.396C964.558,216.396 965.171,216.509 964.556,218.521C964.296,219.371 963.986,219.566 963.925,219.684C962.994,221.486 963.206,221.554 962.849,223.563C962.515,225.445 962.059,225.341 961.906,227.531C961.727,230.089 961.056,229.966 960.877,232.529C960.74,234.485 960.539,234.46 960.233,235.401C959.445,237.831 960.05,237.956 959.227,240.395C958.908,241.342 959.005,241.348 958.773,243.538C958.537,245.776 957.184,245.67 956.889,249.535C956.702,251.985 956.079,252.468 955.923,253.553C955.705,255.06 955.99,255.104 955.231,257.4C954.581,259.369 954.876,259.428 954.232,261.4C953.973,262.193 954.046,262.195 953.775,264.539C953.737,264.872 953.652,265.199 953.557,265.521C953.114,267.02 953.015,266.98 952.774,268.54C952.724,268.871 952.654,269.2 952.559,269.521C951.67,272.553 951.386,272.46 950.839,275.56C950.513,277.411 950.051,277.296 949.894,279.53C949.719,282.03 949.089,282.411 948.924,283.555C948.689,285.187 948.944,285.231 948.231,287.399C947.955,288.239 948.033,288.245 947.773,290.538C947.735,290.871 947.671,291.206 947.556,291.521C947.412,291.918 947.137,292.26 947,292.66C946.903,292.943 946.885,293.25 946.862,293.549C946.812,294.21 946.844,294.878 946.779,295.538C946.562,297.723 945.161,297.728 944.879,301.533C944.689,304.106 944.242,304.009 943.807,306.551C943.674,307.332 942.985,309.1 942.919,309.555C942.699,311.075 942.984,311.118 942.229,313.397C941.942,314.264 942.025,314.272 941.771,316.537C941.64,317.707 941.465,317.644 940.932,318.688C939.836,320.836 939.91,323.407 939.567,324.524C939.106,326.028 939.099,326.013 938.829,327.557C938.51,329.383 938.042,329.27 937.884,331.529C937.705,334.084 937.077,334.428 936.913,335.556C936.706,336.979 937.017,337.032 936.229,339.397C935.926,340.304 936.015,340.315 935.772,342.537C935.524,344.809 934.189,344.667 933.897,348.535C933.704,351.087 933.053,350.96 932.87,353.53C932.732,355.467 932.541,355.458 932.232,356.401C931.589,358.366 931.874,358.429 931.235,360.401C930.445,362.836 931.045,362.96 930.227,365.395C929.91,366.338 930.006,366.345 929.774,368.537C929.758,368.689 929.669,369.528 929.215,370.363C928.15,372.321 928.234,372.352 927.848,374.561C927.524,376.41 927.057,376.293 926.901,378.531C926.728,381.031 926.1,381.386 925.931,382.557C925.677,384.33 925.9,384.36 925.234,386.4C924.436,388.841 925.048,388.97 924.227,391.394C923.671,393.035 923.777,394.526 923.776,394.537C923.644,395.826 922.712,397.549 921.594,397.826C920.175,398.177 861.234,397.503 858.416,398.242C854.784,399.194 854.733,398.883 844.492,399.029C841.948,399.065 842.05,399.77 839.517,399.867C836.969,399.964 836.963,399.876 834.52,400.56C832.353,401.167 824.263,400.465 821.411,401.237C817.009,402.427 816.761,401.612 809.511,401.909C805.807,402.061 805.91,402.752 803.509,402.818C792.218,403.129 792.167,402.815 789.522,403.568C787.403,404.172 778.345,403.738 776.417,404.243C772.548,405.256 772.496,404.817 768.494,405.005C764.427,405.197 764.353,404.474 760.521,405.563C757.385,406.455 757.201,405.263 752.518,406.558C749.445,407.408 742.978,406.039 737.52,407.561C734.37,408.439 728.884,407.057 723.519,408.558C721.377,409.157 711.662,408.65 709.416,409.242C706.516,410.007 706.497,409.87 696.491,410.022C693.945,410.061 694.052,410.731 691.515,410.846C688.476,410.983 688.451,410.734 685.522,411.566C682.329,412.473 677.535,410.885 671.518,412.556C668.409,413.419 662.039,412.018 656.519,413.557C653.355,414.439 646.839,413.065 641.519,414.559C639.394,415.155 629.507,414.693 627.417,415.244C624.041,416.134 624.007,415.886 614.492,416.025C611.953,416.062 612.053,416.756 609.516,416.853C606.968,416.95 606.964,416.869 604.521,417.564C601.355,418.465 595.45,416.909 589.518,418.556C586.393,419.423 579.962,418.037 574.519,419.558C573.591,419.818 573.596,419.749 562.488,420.012C559.952,420.072 560.05,420.755 557.511,420.834C549.339,421.089 547.919,420.598 544.522,421.566C542.575,422.12 532.983,421.954 530.502,422.028C527.364,422.122 527.413,421.761 524.413,420.85C519.909,419.482 519.866,419.682 519.477,419.561C516.456,418.626 516.524,418.462 513.452,417.776C511.351,417.308 511.683,416.489 509.579,416.037C507.458,415.58 507.501,415.486 505.413,414.852C500.903,413.483 500.866,413.682 500.476,413.562C498.239,412.87 496.852,412.656 493.476,411.562C492.516,411.251 492.515,411.021 492.317,410.917C490.567,409.997 484.582,408.584 483.608,408.229C482.788,407.931 478.079,406.443 477.635,406.215C475.205,404.967 475.068,405.393 472.474,404.569C469.463,403.613 469.522,403.462 466.446,402.795C465.305,402.547 460.647,400.884 460.422,400.814C457.94,400.042 458.124,399.554 455.576,399.034C453.441,398.598 453.492,398.481 451.414,397.846C446.912,396.469 446.867,396.68 446.477,396.56C443.455,395.628 443.523,395.46 440.452,394.777C438.346,394.308 438.676,393.487 436.58,393.034C436.201,392.952 435.816,392.902 435.438,392.818C434.148,392.534 431.429,391.402 429.579,391.019C425.443,390.163 425.579,389.692 421.453,388.775C419.829,388.414 419.944,388.162 419.35,387.721C418.017,386.73 417.773,387.351 414.603,386.235C410.367,384.744 404.644,383.794 403.765,383.153C403.602,383.035 403.519,382.83 403.358,382.709C402.149,381.802 401.921,382.401 398.603,381.233C395.113,380.003 393.609,379.96 391.608,379.229C390.735,378.91 386.065,377.436 385.635,377.215C383.213,375.968 383.076,376.393 380.474,375.568C377.468,374.615 377.527,374.46 374.447,373.793C373.447,373.576 362.998,370.013 362.414,369.832C362.098,369.734 359.783,369.018 358.469,368.58C356.061,367.777 355.987,368.095 353.609,367.227C349.965,365.897 347.599,365.758 346.762,365.153C346.6,365.037 346.512,364.837 346.352,364.718C345.074,363.762 344.848,364.375 341.604,363.233C339.174,362.378 332.986,360.921 331.638,360.213C329.645,359.166 329.569,359.39 327.457,358.608C325.505,357.886 325.44,358.199 323.472,357.572C320.465,356.613 320.521,356.461 317.449,355.792C316.058,355.489 315.831,355.285 315.608,355.227C312.074,354.313 312.049,354.364 311.764,354.155C311.602,354.036 311.519,353.83 311.358,353.709C310.46,353.032 308.502,352.889 307.475,352.566C304.473,351.62 304.532,351.458 301.448,350.791C301.123,350.721 301.141,350.708 297.477,349.562C294.54,348.643 294.64,349.83 292.527,350.563C289.546,351.597 289.53,351.517 286.715,352.954C277.188,357.817 277.174,357.769 276.359,358.215C275.876,358.478 273.87,359.062 273.389,359.279C273.375,359.285 270.761,361.135 269.526,361.561C269.052,361.725 265.769,362.859 263.723,363.953C262.678,364.512 262.653,365.28 260.587,365.801C259.516,366.071 259.554,366.121 258.548,366.597C254.826,368.358 254.875,368.451 254.546,368.591C253.479,369.045 248.787,371.483 248.542,371.584C247.903,371.847 247.94,371.874 247.357,372.219C246.568,372.686 246.49,372.476 245.69,372.905C245.556,372.977 245.492,373.143 245.359,373.218C245.15,373.336 241.708,374.441 240.712,374.949C237.049,376.821 237.025,376.764 236.708,376.93C232.55,379.109 232.483,378.94 228.359,381.216C227.902,381.468 225.942,382.02 225.385,382.27C224.349,382.737 224.564,383.056 223.532,383.555C223.259,383.686 222.954,383.748 222.691,383.897C222.557,383.973 222.492,384.142 222.358,384.218C221.022,384.979 220.899,384.62 218.554,385.609C218.323,385.707 216.809,386.345 215.717,386.939C214.717,387.483 214.633,388.31 212.586,388.801C210.332,389.341 210.513,389.756 208.544,390.588C207.499,391.03 207.58,391.155 206.545,391.589C205.915,391.853 205.947,391.891 205.359,392.217C204.903,392.469 202.947,393.017 202.385,393.27C201.345,393.739 201.568,394.059 200.532,394.556C200.26,394.686 199.954,394.744 199.69,394.893C199.555,394.969 199.493,395.142 199.358,395.218C199.132,395.348 199.127,395.324 197.588,395.812C195.151,396.585 188.736,399.997 188.355,400.216C187.565,400.672 187.5,400.487 186.698,400.913C186.101,401.23 186.178,401.319 185.543,401.586C184.504,402.024 184.588,402.152 183.544,402.588C182.904,402.856 182.948,402.89 182.359,403.217C181.494,403.699 179.166,404.031 177.357,405.254C176.752,405.664 176.818,405.716 176.229,406.153C175.844,406.438 172.512,407.523 171.708,407.938C168.056,409.825 168.025,409.756 167.712,409.928C166.765,410.449 166.617,411.338 164.585,411.803C162.622,412.251 162.534,412.526 161.357,413.218C160.307,413.836 155.753,415.532 155.558,415.616C153.445,416.522 153.807,417.235 151.588,417.803C150.505,418.08 150.544,418.13 149.549,418.6C146.621,419.985 139.699,423.519 139.542,423.584C137.632,424.376 137.708,424.517 137.543,424.585C136.914,424.846 136.957,424.882 136.359,425.218C136.134,425.345 132.752,426.426 131.713,426.953C130.108,427.767 130.036,427.564 128.402,428.305C127.37,428.773 127.56,429.057 126.54,429.569C119.177,433.263 119.205,433.312 118.543,433.586C117.506,434.017 117.594,434.151 116.542,434.583C115.902,434.846 115.939,434.873 115.356,435.218C114.296,435.847 108.967,437.82 108.713,437.95C105.048,439.823 105.024,439.765 104.707,439.931C100.549,442.108 100.482,441.941 96.359,444.216C95.899,444.47 93.935,445.024 93.386,445.272C92.35,445.739 92.566,446.057 91.532,446.555C90.08,447.255 90.122,447.328 88.589,447.815C86.469,448.488 85.136,449.344 84.55,449.6C82.809,450.36 82.895,450.729 82.5,450.999L76.5,450.999C76.413,450.518 76.536,450.015 76.448,449.534C76.314,448.795 74.831,447.293 74.438,446.539C73.112,443.993 72.722,444.293 71.837,443.215C71.727,443.081 71.923,442.973 70.749,441.344C69.095,439.05 69.228,438.985 69.083,438.738C68.932,438.482 67.766,437.169 67.434,436.543C67.354,436.393 66.797,435.345 66.19,434.827C66.003,434.667 65.722,434.631 65.554,434.45C65.365,434.248 65.317,433.946 65.157,433.72C64.748,433.142 64.687,433.192 64.414,432.547C63.664,430.783 63.419,430.959 62.841,430.224C62.703,430.048 61.857,428.504 61.774,428.353C60.981,426.906 61.17,426.777 60.155,425.866C59.381,425.173 59.337,425.223 58.784,424.341C58.316,423.596 58.539,423.486 57.731,422.356C55.955,419.873 55.063,419.845 54.442,418.536C52.888,415.256 52.638,415.136 51.799,414.226C49.843,412.104 50.356,411.713 48.351,409.634C48.188,409.465 47.864,409.408 47.442,408.536C45.482,404.486 45.184,404.672 44.839,404.227C44.178,403.374 44.414,403.232 43.628,402.384C43.469,402.212 43.346,402.004 43.17,401.848C42.987,401.687 42.724,401.625 42.561,401.444C42.249,401.098 40.792,398.281 40.297,397.66C38.728,395.697 39.073,395.458 37.348,393.637C36.095,392.314 36.474,392.053 35.304,390.66C35.185,390.519 33.872,389.412 33.441,388.537C32.162,385.947 31.719,386.301 30.825,385.224C30.657,385.022 30.548,384.777 30.437,384.54C28.548,380.51 28.112,380.571 27.841,380.224C27.155,379.348 27.4,379.199 26.636,378.377C26.476,378.204 26.364,377.986 26.185,377.832C25.998,377.672 25.722,377.629 25.556,377.448C25.368,377.245 25.319,376.945 25.159,376.719C24.751,376.14 24.692,376.192 24.415,375.547C23.653,373.772 23.407,373.945 22.842,373.224C22.554,372.857 21.244,369.855 20.151,368.871C19.368,368.168 19.38,368.177 18.752,367.336C17.096,365.12 16.656,364.087 16.307,363.652C16.168,363.479 15.9,363.43 15.439,362.538C14.14,360.028 13.755,360.327 12.838,359.214C11.877,358.047 12.258,357.821 11.312,356.648C11.174,356.477 10.896,356.434 10.44,355.538C9.145,352.998 8.739,353.31 7.834,352.216C7.724,352.083 7.925,351.971 6.748,350.346C4.313,346.983 4.427,346.463 4.036,345.796C3.83,345.443 3.242,344.922 3.165,344.854C2.983,344.692 2.723,344.626 2.561,344.444C2.377,344.239 2.312,343.949 2.153,343.723C2.051,343.578 1.871,343.495 1.784,343.341C1.009,341.959 1.162,341.884 1.067,341.785C0.656,341.362 0.414,341.927 -0,341.5L0,333.5C0.182,333.027 0.904,332.91 1.085,332.437C1.474,331.429 0.561,331.275 1.77,327.602C2.628,324.998 1.752,323.551 2.784,321.635C4.57,318.316 3.779,318.096 4.202,315.452C4.491,313.647 4.963,313.756 5.114,311.473C5.281,308.952 5.925,308.548 6.063,307.446C6.337,305.271 5.923,305.208 6.769,302.6C7.422,300.586 6.854,300.491 7.44,298.479C7.663,297.714 8.079,297.261 8.158,295.476C8.315,291.913 8.717,291.991 9.759,288.59C10.374,286.582 9.811,286.479 10.424,284.473C11.023,282.514 11.028,282.528 11.138,280.478C11.276,277.908 12.033,278.039 12.137,275.481C12.219,273.476 12.141,273.467 12.771,271.603C13.591,269.176 12.909,269.026 13.773,266.607C15.556,261.613 14.928,261.082 15.423,259.472C15.515,259.172 15.661,258.889 15.754,258.588C16.517,256.105 15.692,255.974 16.437,253.478C16.527,253.177 16.67,252.894 16.765,252.595C17.368,250.678 16.954,250.076 17.433,248.476C17.523,248.176 17.668,247.894 17.763,247.595C18.689,244.675 17.81,244.501 18.771,241.602C19.577,239.17 18.922,239.029 19.77,236.603C21.603,231.354 20.908,231.071 21.408,229.467C21.502,229.167 21.652,228.886 21.745,228.587C22.524,226.095 21.68,225.958 22.43,223.475C22.521,223.175 22.667,222.893 22.76,222.593C23.539,220.112 22.705,219.973 23.441,217.479C23.529,217.179 23.672,216.897 23.769,216.6C24.425,214.587 23.851,214.492 24.44,212.479C24.528,212.179 24.672,211.897 24.768,211.6C25.717,208.686 24.718,208.487 25.771,205.606C27.513,200.841 26.974,199.982 27.431,198.475C27.522,198.175 27.667,197.892 27.759,197.591C28.529,195.098 27.704,194.966 28.44,192.479C28.529,192.178 28.672,191.896 28.768,191.598C29.41,189.593 28.843,189.49 29.439,187.478C29.528,187.178 29.671,186.896 29.767,186.598C30.411,184.592 29.851,184.491 30.437,182.479C30.525,182.177 30.668,181.894 30.764,181.595C31.665,178.764 30.708,178.58 31.77,175.604C33.78,169.97 32.844,169.489 33.439,167.478C33.528,167.177 33.671,166.895 33.766,166.595C34.373,164.664 33.955,164.087 34.436,162.477C35.024,160.511 35.068,160.532 35.163,158.483C35.28,155.959 35.975,155.429 36.118,154.452C36.215,153.796 36.158,153.125 36.23,152.466C36.415,150.779 37.869,148.642 38.086,145.469C38.25,143.072 38.908,142.55 39.039,141.452C39.333,138.991 39.024,138.954 39.763,136.594C40.391,134.587 39.822,134.49 40.428,132.475C41.016,130.519 41.057,130.54 41.157,128.483C41.28,125.987 41.96,125.458 42.108,124.446C42.204,123.792 42.155,123.123 42.228,122.465C42.321,121.633 43.947,117.166 44.031,116.455C44.033,116.435 44.037,113.797 44.435,112.477C45.03,110.502 44.872,110.482 45.191,108.452C45.321,107.631 45.944,106.428 46.111,104.477C46.279,102.505 46.226,102.514 46.768,100.599C47.088,99.47 47.182,97.356 47.438,96.479C47.772,95.34 48.073,95.286 48.179,92.486C48.303,89.215 49.662,88.568 50.1,84.47C50.372,81.928 50.887,82.037 51.099,79.477C51.315,76.85 51.207,76.82 52.177,74.377C52.657,73.17 52.909,73.361 55.643,71.784C56.438,71.325 56.504,71.52 57.308,71.093C57.601,70.938 57.506,70.773 58.475,70.441C60.393,69.785 60.471,69.995 62.639,68.778C62.795,68.691 62.819,68.766 64.64,67.785C65.331,67.412 67.494,66.93 68.347,66.286C68.431,66.224 68.675,65.827 69.468,65.444C69.741,65.312 70.047,65.251 70.311,65.102C70.621,64.927 70.521,64.76 71.474,64.44C73.608,63.723 73.654,63.856 75.64,62.785C76.193,62.486 79.782,61.54 81.356,60.3C81.381,60.28 81.74,59.77 82.486,59.473C84.582,58.637 84.661,58.855 86.641,57.785C87.203,57.48 90.761,56.551 92.353,55.296C92.749,54.985 92.632,54.656 94.412,54.197C96.742,53.597 96.563,53.21 98.454,52.408C99.933,51.781 99.866,51.662 101.406,51.168C104.183,50.279 108.407,47.853 109.455,47.41C110.945,46.779 110.878,46.661 112.407,46.17C113.023,45.972 119.033,43.48 119.33,43.262C122.611,40.852 123.073,41.751 126.637,39.774C126.793,39.687 126.821,39.751 128.639,38.784C129.393,38.383 131.461,37.93 132.34,37.277C133.267,36.587 133.299,36.66 134.309,36.097C134.616,35.925 134.524,35.768 135.475,35.442C137.607,34.711 137.651,34.842 139.639,33.783C140.41,33.372 142.445,32.937 143.339,32.273C144.268,31.581 144.304,31.661 145.307,31.102C145.626,30.925 145.531,30.768 146.477,30.446C149.674,29.354 149.679,29.384 152.64,27.786C153.324,27.416 155.498,26.928 156.348,26.287C156.432,26.224 156.675,25.826 157.469,25.446C158.922,24.751 158.879,24.675 160.414,24.189C162.996,23.371 162.829,22.989 165.403,22.158C169.384,20.874 169.375,19.916 170.487,19.473C171.97,18.883 171.991,19.005 173.451,18.4C175.977,17.353 175.805,16.999 178.406,16.169C182.387,14.899 182.39,13.9 183.485,13.469C184.372,13.121 184.426,13.358 185.318,13.013C186.898,12.402 186.728,12.027 189.407,11.169C193.365,9.901 193.413,8.888 194.484,8.468C195.367,8.123 195.421,8.362 196.315,8.016C196.348,8.003 199.383,6.445 199.457,6.414C200.948,5.789 200.877,5.662 202.409,5.177C202.743,5.072 205.115,4.322 206.362,3.31C206.712,3.026 206.624,2.619 208.417,2.203C211.57,1.471 212.281,0.155 212.5,0ZM744.481,97.423L743.827,98.752C743.51,99.042 743.075,99.184 742.757,99.474C743.35,104.083 743.646,104.421 743.656,104.47C744.115,106.732 743.31,107.733 743.561,109.489C743.771,110.961 743.82,110.986 743.245,112.378C742.483,114.222 742.822,114.28 742.738,115.504C742.563,118.068 739.208,118.771 741.89,123.274C743.014,125.162 742.939,125.296 742.222,127.389C741.705,128.901 741.866,128.914 741.693,130.519C741.618,131.215 741.201,133.189 741.171,133.449C740.929,135.52 742.633,139.704 741.478,141.488C740.534,142.945 739.57,143.004 740.614,144.399C740.743,144.572 741.029,144.565 741.176,144.724C741.754,145.351 741.772,146.342 741.775,146.491C741.802,148.012 740.688,148.65 740.654,148.68C738.977,150.168 739.249,150.379 738.891,152.578C738.325,156.054 739.93,156.261 738.489,159.494C737.289,162.185 738.28,162.389 737.695,164.561C737.612,164.87 737.44,165.151 737.364,165.461C737.011,166.909 737.421,166.941 737.167,168.419C736.521,172.172 736.582,172.179 736.501,172.5C735.753,175.459 735.929,175.474 735.832,178.525C735.767,180.599 736.426,180.656 735.712,182.59C734.796,185.073 735.182,187.033 734.215,194.449C733.772,197.844 734.231,197.9 733.524,200.507C732.815,203.122 734.015,204.698 732.568,209.522C731.434,213.303 732.133,214.782 731.783,219.52C731.595,222.073 730.877,221.941 730.803,224.505C730.711,227.703 730.645,227.677 730.161,230.439C729.924,231.789 730.077,231.784 730.193,233.538C730.257,234.512 729.034,238.246 728.903,238.647C727.776,242.088 729.256,243.286 727.74,246.626C726.273,249.859 727.587,250.128 726.686,253.554C725.484,258.12 725.846,258.175 725.725,258.565C725.509,259.264 725.167,259.92 724.954,260.62C724.639,261.658 724.615,265.106 724.612,265.497C724.606,266.39 723.484,271.048 723.349,271.45C723.214,271.85 723.056,272.241 722.928,272.643C721.858,276.016 722.655,276.172 721.681,279.559C719.778,286.177 719.873,289.124 719.838,289.532C719.62,292.085 719.022,291.97 718.834,294.535C718.724,296.027 718.815,296.015 718.713,297.515C718.594,299.239 717.97,299.737 717.762,302.522C717.418,307.118 717.303,307.105 717.319,307.505C717.346,308.172 717.451,308.834 717.475,309.5C717.586,312.644 715.785,314.697 716.026,319.512C716.417,327.343 716.162,327.337 715.775,328.599C715.309,330.119 715.565,330.144 716.045,331.657C716.502,333.099 715.769,335.435 718.575,338.43C720.542,340.528 721.171,339.711 723.616,341.303C726.438,343.141 726.408,343.186 729.547,344.384C731.533,345.142 731.327,345.534 737.588,348.317C739.678,349.247 739.836,348.841 741.789,350.017C748.91,354.308 755.612,355.566 758.668,358.311C760.693,360.13 760.916,359.749 762.58,360.057C764.772,360.463 766.794,362.142 768.075,359.347C770.18,354.753 768.25,350.565 768.144,349.539C767.825,346.433 768.527,344.016 768.661,343.555C769.135,341.923 768.922,341.903 769.016,339.496C769.218,334.37 768.765,329.814 769.473,327.491C770.292,324.802 770.103,324.772 770.153,320.496C770.185,317.809 770.752,316.916 771.084,314.443C771.369,312.322 771.285,312.317 772.024,310.311C772.39,309.319 772.968,303.612 773.223,302.429C773.861,299.472 773.934,299.492 774.069,296.48C774.087,296.062 774.11,295.558 775.009,291.332C775.676,288.2 777.695,291.061 777.799,291.164C779.116,292.47 779.605,291.833 780.82,293.248C781.225,293.72 783.44,299.23 786.202,302.723C787.094,303.852 787.148,303.787 788.09,304.865C789.946,306.986 789.766,308.102 794.418,312.589C796.816,314.903 795.979,315.968 798.863,319.088C800.993,319.326 802.176,319.359 805.116,321.936C808.816,325.178 810.859,325.004 813.202,326.866C813.885,327.408 818.647,331.191 822.439,332.651C824.602,333.483 825.023,332.967 829.622,336.331C832.686,338.572 834.182,337.47 836.211,338.894C838.845,340.743 838.914,340.594 841.628,342.282C843.429,343.402 846.449,344.323 847.354,344.8C850.166,346.281 853.805,346.483 854.619,344.56C855.935,341.454 852.444,338.59 851.392,336.559C850.078,334.022 849.412,334.369 848.955,332.436C848.877,332.105 848.936,331.752 848.858,331.421C848.278,328.965 845.78,330.377 844.699,327.431C844.098,325.791 843.893,325.909 842.759,325.123C839.786,323.061 840.172,322.686 838.601,319.445C836.257,314.608 832.494,313.23 831.452,311.535C830.696,310.304 830.699,310.29 829.49,309.513C827.95,308.525 829.295,307.394 827.818,305.29C827.535,304.887 826.629,303.174 826.245,302.731C825.171,301.495 824.75,301.628 824.639,299.5C824.523,297.268 823.596,297.579 822.987,295.427C822.892,295.09 822.898,294.726 822.783,294.394C822.666,294.058 822.659,294.037 820.047,290.894C819.022,289.661 817.472,289.582 816.886,287.455C816.795,287.124 816.828,286.766 816.735,286.435C816.382,285.183 813.701,282.049 813.311,281.685C811.777,280.251 810.863,281.661 808.747,279.285C807.367,277.736 807.628,277.577 807.553,275.499C807.466,273.074 806.837,273.062 805.152,271.896C802.59,270.125 807.01,268.355 810.636,264.632C813.374,261.822 813.363,261.835 816.319,259.282C820.073,256.041 819.572,255.53 823.393,252.366C825.895,250.293 825.835,250.253 826.979,248.949C827.567,248.278 831.479,244.76 831.619,244.621C839.9,236.436 840.223,236.758 844.963,230.902C845.985,229.638 849.138,226.574 850.652,224.611C853.472,220.957 853.53,221.007 853.767,220.684C853.994,220.374 856.333,217.254 856.12,215.512C855.769,212.657 853.284,213.03 851.595,212.286C847.903,210.66 847.976,210.558 844.427,208.632C842.463,207.566 842.635,207.196 840.46,206.732C838.777,206.374 838.645,206.297 835.717,203.293C833.91,201.438 833.32,202.386 831.267,200.825C827.977,198.325 827.286,199.324 824.475,196.525C823.592,195.647 822.517,194.866 822.336,194.735C819.761,192.866 819.314,193.965 816.407,192.685C813.631,191.462 813.456,192.231 810.509,191.469C810.255,191.403 808.103,190.847 807.364,192.415C806.546,194.147 807.394,194.635 805.783,195.88C805.625,196.002 804.923,196.657 804.836,196.759C802.665,199.295 801.833,198.747 801.11,201.409C799.566,207.093 797.987,206.025 796.518,207.517C795.046,209.011 795.981,209.772 792.605,212.629C790.743,214.204 790.964,215.003 789.297,216.182C787.821,217.227 788.163,217.5 787.691,218.613C787.04,220.15 785.528,219.568 785.31,218.571C785.17,217.931 785.707,215.784 785.767,215.547C786.346,213.231 785.717,209.998 786.286,207.449C786.945,204.499 786.968,204.515 787.091,201.479C787.152,199.948 787.521,198.845 787.529,198.501C787.575,196.433 786.681,196.378 787.722,192.562C789.036,187.743 787.192,187.224 788.809,180.578C789.315,178.497 789.282,177.341 789.354,173.498C789.483,166.514 790.604,166.611 790.392,163.51C790.219,160.992 790.632,161.018 790.642,158.497C790.653,155.743 790.913,155.521 791.026,154.478C791.117,153.643 790.861,150.304 791.314,148.448C792.389,144.048 792.002,144.012 792.103,139.485C792.156,137.128 793.363,134.792 793.118,128.506C793.021,126.025 792.264,126.035 792.842,123.604C792.974,123.05 793.11,122.476 793.271,116.494C793.368,112.885 790.664,112.948 788.585,112.227C786.516,111.51 786.616,111.201 784.45,110.877C782.904,110.646 772.61,106.706 769.778,105.038C767.359,103.613 767.281,103.793 764.56,103.101C762.412,102.555 762.672,101.931 760.546,101.31C757.732,100.488 757.766,100.404 755.256,98.908C752.094,97.023 749.585,98.089 747.472,97.744C746.807,97.635 746.166,97.386 745.496,97.314C745.158,97.277 744.819,97.459 744.481,97.423ZM263.582,301.508L263.43,303.92C263.771,303.925 264.107,303.815 264.448,303.82C265.647,303.837 265.513,304.195 265.967,305.287C266.032,305.444 266.141,305.581 266.252,305.709C267.371,306.996 269.915,305.257 271.474,305.581C273.995,306.104 271.997,309.174 274.57,308.96C275.382,308.892 276.334,307.03 277.566,306.673C278.964,306.268 283.912,306.76 284.462,306.815C288.077,307.175 287.992,307.569 291.591,308.084C293.061,308.294 295.108,307.26 298.609,308.118C300.504,308.582 300.537,308.762 302.412,308.231C304.439,307.656 304.466,307.944 306.542,308.299C308.174,308.579 309.171,308.475 310.497,308.555C314.073,308.772 314.06,308.616 317.577,307.992C319.583,307.637 319.523,307.301 320.253,305.41C321.28,302.748 322.014,302.535 322.182,300.474C322.394,297.888 322.669,297.954 323.433,295.481C323.867,294.073 324.349,293.275 324.568,292.519C325.635,288.824 325.8,288.873 325.828,288.54C325.966,286.928 324.135,286.318 326.363,284.348C328.743,282.243 327.993,281.663 328.731,279.586C329.267,278.075 329.243,278.088 329.665,276.544C330.086,275.004 330.37,275.122 330.808,273.575C331.813,270.024 334.227,266.116 332.59,264.438C332.531,264.377 331.581,263.888 330.265,262.63C329.803,262.189 329.773,262.177 329.78,261.551C329.787,260.863 329.872,260.738 330.552,260.783C331.857,260.87 334.32,263.862 334.793,258.514C335.09,255.152 336.845,255.021 336.87,251.491C336.872,251.25 336.889,248.895 336.842,248.472C336.651,246.751 335.07,246.121 336.209,244.332C337.2,242.776 337.007,241.914 337.08,241.435C337.358,239.609 337.573,239.661 337.574,239.501C337.584,237.864 335.581,238.612 335.471,235.501C335.381,232.941 335.121,232.719 336.896,230.853C338.437,229.233 337.132,228.766 337.051,226.496C337.039,226.16 337.104,225.823 337.085,225.487C337.002,224.018 336.221,222.725 336.19,222.619C335.466,220.083 338.337,217.83 335.512,215.488C333.462,213.79 333.417,213.221 330.316,211.954C327.492,210.8 327.576,210.536 324.544,210.124C321.476,209.707 321.594,208.986 318.505,209.057C315.755,209.121 314.475,208.404 312.56,208.146C310.031,207.805 310.079,207.632 307.568,207.173C304.469,206.606 304.536,206.375 301.459,205.704C300.773,205.554 299.13,205.677 297.583,205.228C294.541,204.344 294.524,204.468 291.423,203.832C284.377,202.388 282.989,203.194 280.513,202.461C278.496,201.864 278.503,201.886 276.483,201.649C272.874,201.226 271.292,200.79 269.436,201.301C267.503,201.833 267.523,201.85 265.516,201.981C263.162,202.135 261.793,202.733 260.543,202.872C257.224,203.239 257.397,203.948 255.474,204.233C255.262,204.264 249.991,204.147 249.514,204.137C247.736,204.097 246.145,202.648 238.725,209.739C230.269,217.819 226.72,223.56 226.673,223.622C221.834,230.03 221.126,231.088 218.67,235.593C213.724,244.665 213.956,244.777 210.564,254.521C210.098,255.86 210.301,256.584 209.674,258.557C209.578,258.859 209.447,259.15 209.359,259.455C208.82,261.325 208.203,277.609 209.353,280.566C209.926,282.04 210.013,281.989 210.465,283.51C211.086,285.597 212.05,286.351 212.442,287.521C212.638,288.105 212.734,288.724 212.971,289.293C213.374,290.258 215.305,292.302 215.473,292.524C218.764,296.871 220.119,297.367 222.3,298.81C225.585,300.984 225.888,300.421 228.141,301.998C230.075,303.351 230.341,302.556 232.616,303.184C233.231,303.354 233.819,303.611 234.435,303.775C235.691,304.111 240.423,303.843 242.413,304.723C243.093,305.023 243.714,305.45 244.4,305.735C246.187,306.476 246.984,305.247 249.518,305.273C252.032,305.299 252.033,304.952 254.513,305.308C254.702,305.335 256.76,305.63 256.783,304.547C256.803,303.653 256.523,303.77 255.811,303.255C254.983,302.654 254.721,302.695 254.854,301.684C254.96,300.884 257.282,300.831 257.505,300.826C259.603,300.778 260.432,300.27 261.49,300.19C263.949,300.005 263.36,301.207 263.582,301.508ZM241.021,253.428L243.533,255.048C243.366,255.364 242.89,255.22 242.675,256.675C242.61,257.118 242.58,257.093 242.516,257.533L241.591,258.168C240.955,257.562 240.726,257.615 240.746,256.48C240.781,254.515 240.996,253.716 241.021,253.428ZM583.105,223.215L584.113,225.743C584.113,226.155 584.337,226.091 584.337,226.496C584.337,226.562 584.337,226.834 584.112,227.298C583.59,228.374 580.872,228.841 580.566,228.894C577.921,229.349 577.765,229.857 575.761,234.615C574.846,236.785 575.473,237.283 573.497,238.495C573.055,238.766 572.222,238.9 569.313,245.416C566.687,251.298 566.772,251.86 566.862,252.45C567.036,253.6 567.34,253.716 566.598,254.601C566.29,254.969 565.631,254.624 564.913,256.612C563.884,259.459 563.968,259.48 563.793,262.515C563.657,264.879 561.467,266.439 561.335,277.498C561.196,289.161 561.604,289.132 561.808,290.446C562.05,292.005 561.474,297.559 563.153,302.631C564.294,306.076 564.201,306.09 565.07,309.614C565.564,311.617 569.453,316.491 570.451,317.548C573.292,320.557 573.55,320.297 577.549,321.308C577.738,321.356 582.795,323.076 584.318,323.867C588.79,326.193 588.995,325.724 590.434,326.605C592.366,327.787 592.286,327.918 594.448,328.658C598.686,330.109 598.665,330.118 602.72,332.047C606.001,333.608 606.274,332.776 608.365,333.784C610.399,334.765 610.329,334.886 612.437,335.667C614.084,336.277 613.938,336.57 615.615,337.125C617.593,337.78 617.632,337.58 619.597,338.224C622.472,339.167 621.766,344.136 621.696,346.504C621.635,348.557 622.246,353.049 622.209,354.485C622.144,357.001 622.173,356.994 622.708,359.451C623.626,363.665 622.103,364.162 624.204,366.742C625.815,368.72 625.378,369.072 627.333,370.71C629.408,372.449 629.322,372.648 631.572,373.202C633.57,373.695 633.495,373.973 635.531,374.22C637.992,374.518 638.491,375.361 639.679,376.27C642.42,378.368 643.361,377.612 646.426,378.688C648.539,379.43 648.591,379.216 650.687,380.018C656.319,382.173 656.718,381.038 658.632,382.277C661.229,383.957 661.99,383.359 662.472,383.328C664.979,383.169 668.034,386.252 671.428,386.824C673.636,387.197 676.467,385.731 676.661,384.529C677.002,382.425 675.212,382.457 676.009,378.378C676.361,376.577 676.018,375.744 675.975,375.419C675.804,374.125 676.188,369.298 675.965,365.483C675.388,355.631 676.009,355.452 675.651,351.487C675.313,347.752 675.693,347.768 676.002,345.463C676.269,343.461 675.593,343.298 676.612,339.533C677.634,335.759 676.283,333.685 677.619,328.533C678.248,326.111 677.863,322.45 678.403,320.472C678.947,318.48 678.961,318.496 679.257,316.465C679.54,314.519 679.941,314.622 680.403,311.489C680.865,308.349 681.794,307.582 681.778,305.486C681.776,305.156 681.724,304.828 681.724,304.498C681.723,302.655 682.758,300.034 682.865,299.597C684.465,293.068 684.171,293.012 684.321,292.448C685.525,287.934 685.455,287.917 685.602,287.539C686.926,284.109 686.197,283.928 687.359,280.446C688.193,277.947 687.655,277.833 688.454,275.482C688.585,275.096 688.866,274.268 689.801,270.57C690.02,269.702 690.137,267.984 690.271,267.444C691.818,261.212 691.644,261.17 691.864,260.658C692.569,259.013 692.443,258.988 693.101,257.323C694.801,253.018 693.6,252.7 695.265,248.403C696.007,246.49 695.986,246.494 696.314,244.472C696.738,241.854 698.273,239.229 698.828,236.567C699.573,232.999 701.625,228.989 696.563,227.309C688.353,224.583 688.113,224.211 687.371,223.686C686.042,222.743 685.791,223.245 678.279,218.901C674.378,216.645 674.125,217.159 670.335,214.766C668.576,213.656 666.785,213.669 664.257,211.853C662.044,210.262 661.816,210.744 659.407,209.676C657.289,208.737 657.001,209.29 655.264,207.757C653.954,206.602 650.044,205.959 647.838,207.861C644.655,210.605 643.424,208.39 637.433,206.75C633.387,205.642 632.695,203.745 629.612,202.273C625.127,200.131 625.133,200.062 623.473,199.941C619.93,199.685 620.527,197.535 617.513,197.64C617.174,197.652 616.841,197.762 616.503,197.752C614.854,197.701 614.775,196.649 612.411,197.179C610.995,197.497 610.99,197.481 609.577,197.215C605.129,196.377 604.307,201.128 600.595,202.733C598.031,203.841 597.638,203.901 595.188,207.284C593.305,209.884 588.859,214.454 587.32,216.361C585.216,218.968 586.445,219.733 584.123,222.16L583.105,223.215ZM487.548,350.099C488.93,350.561 490.069,350.989 492.543,351.161C499.536,351.647 501.106,353.263 504.467,353.765C507.025,354.147 506.911,354.636 509.482,354.881C509.729,354.905 511.527,355.076 512.548,355.31C512.864,355.382 513.17,355.493 513.488,355.556C515.781,356.015 516.305,354.828 518.292,355.896C521.289,357.507 523.238,356.369 524.461,356.623C525.489,356.837 525.179,357.883 529.538,358.244C533.168,358.544 531.799,355.707 534.438,354.37C536.668,353.241 536.247,352.522 536.348,348.496C536.575,339.481 536.38,339.149 537.238,337.377C538.092,335.612 537.667,333.175 537.859,331.555C538.28,328.009 537.547,327.928 538.521,324.507C539.237,321.995 539.063,319.263 539.095,316.494C539.123,314.006 539.621,313.529 539.781,312.557C540.359,309.054 539.985,309.01 540.819,305.579C541.4,303.189 541.179,301.721 541.329,300.483C541.567,298.526 542.273,298.639 542.735,291.512C542.966,287.956 542.373,287.866 543.553,284.522C544.405,282.109 543.87,281.999 544.596,279.531C545.742,275.634 544.503,275.443 545.534,271.509C546.437,268.065 545.663,266.358 546.549,262.511C547.539,258.21 546.776,256.074 547.696,250.539C548.271,247.075 547.858,247.053 548.236,244.453C548.359,243.61 548.958,238.039 549.018,237.481C549.108,236.641 548.818,233.679 549.386,231.468C550.808,225.933 549.43,216.173 550.333,212.456C551.157,209.069 550.635,209.023 550.907,205.532C551.263,200.962 550.447,192.238 552.662,190.731C553.916,189.879 563.561,190.336 568.514,189.619C575.343,188.629 576.877,189.326 582.49,189.103C585.385,188.987 585.263,188.125 588.496,188.09C591.273,188.06 591.256,188.088 591.496,188.081C594.753,187.987 596.463,187.218 597.461,187.122C600.991,186.781 600.996,186.995 604.508,186.569C606.793,186.292 607.969,186.716 608.496,186.769C611.16,187.039 611.39,185.228 609.576,184.393C605.508,182.52 605.097,183.295 602.731,181.238C598.695,177.731 595.976,178.045 593.314,175.712C591.448,174.077 591.318,174.286 589.2,172.962C586.972,171.57 586.48,172.572 584.244,170.825C582.214,169.237 579.798,169.217 578.411,168.852C576.047,168.229 575.96,166.72 573.398,165.795C569.062,164.231 568.971,164.596 564.552,163.335C562.278,162.686 555.143,162.977 554.72,160.444C554.511,159.193 555.492,153.571 555.508,153.502C556.519,149.088 555.504,148.944 556.665,144.549C557.575,141.102 556.715,139.269 557.477,136.493C558.781,131.747 557.636,131.593 558.494,127.499C559.54,122.507 559.373,120.581 559.427,118.499C559.487,116.227 560.885,113.432 559.318,111.66C557.749,109.886 556.8,111.345 551.478,109.558C548.869,108.682 548.708,109.377 546.499,108.503C546.099,108.344 545.727,108.118 545.322,107.97C542.842,107.062 538.968,107.839 535.322,105.841C530.1,102.98 529.496,104.562 526.329,102.836C522.949,100.994 521.76,101.468 518.545,100.389C516.434,99.681 515.383,100.164 513.462,99.619C511.528,99.071 511.527,99.142 509.51,99.111C506.431,99.062 505.868,98.734 504.525,101.512C502.002,106.73 504.082,107.218 502.583,112.526C501.636,115.879 502.169,120.565 501.635,122.54C500.713,125.949 501.068,125.99 500.785,129.524C500.713,130.428 500.148,131.973 499.967,133.543C499.448,138.048 499.121,137.996 498.938,142.536C498.812,145.637 497.378,153.476 497.856,155.398C498.159,156.615 498.428,156.682 497.557,158.534C495.984,161.878 498.129,163.619 495.572,167.556C494.147,169.748 488.862,168.621 483.581,169.828C480.56,170.519 480.428,169.82 477.62,170.818C473.678,172.22 473.493,171.184 469.391,172.059C464.971,173.002 464.953,172.777 460.537,173.676C457.066,174.382 456.927,173.531 453.548,174.625C451.318,175.346 448.712,174.972 446.47,175.11C441.898,175.393 441.668,178.656 441.946,179.257C442.414,180.269 445.201,180.464 445.501,180.485C448.158,180.671 447.309,182.153 448.411,182.69C449.099,183.025 453.103,183.161 453.513,183.175C458.247,183.336 462.761,185.568 465.571,186.062C467.611,186.421 467.649,186.244 470.556,187.383C473.287,188.453 473.436,187.736 475.543,188.374C477.044,188.828 477,188.928 478.547,189.156C480.058,189.378 481.552,190.173 483.408,190.775C486.899,191.908 492.414,191.17 493.509,192.492C494.532,193.728 493.876,198.992 493.806,199.553C493.57,201.449 494.046,211.287 493.395,214.477C492.447,219.126 493.368,219.932 492.822,223.564C492.23,227.498 492.683,227.524 492.158,231.45C491.623,235.454 492.558,235.583 491.295,239.424C490.581,241.594 491.21,243.296 490.642,245.538C489.985,248.135 489.904,248.13 489.869,252.503C489.843,255.851 489.837,255.847 489.17,258.41C488.681,260.29 488.998,262.271 488.54,264.508C487.83,267.973 488.109,268.007 487.446,271.49C486.962,274.04 487.538,274.118 486.829,276.606C485.589,280.956 486.824,281.187 485.459,285.485C484.655,288.017 485.064,290.147 484.742,291.553C484.597,292.188 484.344,292.797 484.216,293.436C483.744,295.798 484.008,299.551 483.51,301.503C483.332,302.202 483.095,302.886 482.937,303.589C482.876,303.859 482.861,306.792 481.897,312.575C481.1,317.349 481.726,317.625 481.114,323.452C480.744,326.984 481.154,327.016 480.413,330.482C479.351,335.45 481.673,335.708 479.852,341.616C479.272,343.497 479.663,343.619 479.814,344.408C480.236,346.609 478.582,348.187 481.512,348.354C484.688,348.535 484.577,348.966 487.548,350.099ZM166.566,338.304C168.722,338.215 168.742,337.904 170.519,338.44C170.825,338.532 171.116,338.669 171.423,338.756C175.223,339.833 175.968,337.354 180.484,338.556C183.297,339.304 183.289,338.322 185.502,338.26C185.823,338.251 189.22,338.157 189.51,338.165C193.011,338.273 193.014,339.79 197.537,338.622C200.457,337.868 200.421,339.128 203.506,339.159C210.363,339.228 211.752,339.138 212.467,339.091C216.259,338.844 216.263,338.966 216.59,338.927C217.992,338.758 218.071,337.676 218.083,337.512C218.134,336.816 216.344,334.005 216.161,333.718C214.567,331.215 215.324,330.848 213.716,328.37C210.355,323.186 211.034,322.845 210.338,321.592C206.731,315.096 206.815,315.064 206.494,314.504C205.433,312.65 204.557,312.991 203.944,310.417C203.389,308.084 203.397,308.054 201.933,306.151C200.311,304.041 199.259,299.33 196.77,295.338C195.387,293.118 195.333,291.036 194.225,289.753C190.687,285.657 191.441,283.865 189.065,279.743C187.624,277.245 188.578,276.864 187.278,274.627C185.297,271.218 185.171,267.931 182.28,263.644C178.593,258.179 179.728,256.928 177.987,254.182C173.675,247.381 175.47,245.514 172.053,241.938C170.869,240.7 171.121,240.549 170.703,239.422C170.617,239.191 170.379,238.551 169.085,236.79C167.632,234.813 168.366,232.707 166.765,230.336C165.512,228.48 165.504,228.5 164.376,226.568C162.722,223.738 160.542,222.843 163.777,219.803C166.38,217.357 165.929,216.985 168.354,214.367C169.811,212.793 169.82,212.834 171.297,211.304C173.491,209.03 173.054,208.678 175.314,206.322C179.747,201.702 179.995,201.951 183.991,196.922C185.084,195.546 193.579,186.789 197.362,183.345C202.23,178.915 202.02,178.383 207.263,173.256C211.938,168.685 211.696,168.475 212.995,166.937C213.451,166.397 218.77,162.027 222.622,157.602C224.283,155.694 228.659,152.773 230.825,149.712C232.443,147.425 233.486,147.435 236.798,143.759C241.32,138.738 241.916,139.284 245.98,133.888C247.451,131.935 249.82,130.494 250.666,129.671C254.423,126.021 254.473,126.084 254.784,125.752C254.973,125.55 256.874,123.525 254.643,122.293C248.783,119.057 245.154,118.549 240.565,117.277C237.9,116.538 237.604,117.297 235.393,115.638C234.396,114.89 233.211,114.36 232.809,114.075C230.961,112.761 231.022,112.588 228.406,111.952C225.32,111.202 225.621,110.275 222.456,109.841C222.053,109.786 220.326,109.549 217.629,108.219C215.115,106.98 213.435,107.071 212.429,106.898C210.87,106.63 210.988,106.276 209.438,105.96C203.632,104.777 203.426,103.708 201.283,105.141C197.206,107.867 197.101,108.645 196.067,110.207C195.096,111.675 194.953,111.526 193.597,112.625C192.896,113.193 192.826,113.25 185.885,120.856C183.716,123.232 184.105,123.577 181.592,125.619C180.294,126.673 178.466,128.817 178.141,129.138C167.975,139.212 168.069,139.301 167.177,140.169C165.359,141.939 165.86,142.407 163.807,143.924C162.763,144.695 162.815,144.744 160.213,147.2C155.316,151.822 156.087,152.53 151.174,157.153C148.256,159.899 148.017,159.659 146.078,162.176C144.813,163.819 142.46,165.571 141.657,166.619C140.377,168.288 140.865,169.145 136.717,172.755C134.14,174.999 134.326,175.64 132.516,177.515C131.273,178.803 131.397,178.891 130.196,180.198C128.603,181.93 127.497,180.706 128.084,178.427C128.248,177.79 128.44,177.16 128.6,176.522C129.197,174.133 128.459,173.411 128.855,170.56C129.239,167.794 128.66,167.714 129.417,165.467C130.191,163.165 129.958,163.126 130.073,156.49C130.149,152.165 131.03,152.257 131.111,147.491C131.197,142.459 131.353,142.026 129.675,141.134C128.684,140.607 128.656,140.701 127.673,140.163C124.909,138.651 124.654,139.756 121.559,139.2C119.534,138.836 119.546,138.788 117.499,138.797C113.501,138.814 113.462,139.18 109.592,138.168C107.271,137.561 101.534,137.822 98.493,137.726C97.794,137.704 94.062,136.766 83.5,136.539C81.29,136.492 79.949,135.86 77.443,136.167C74.915,136.477 72.606,136.219 72.316,142.495C72.018,148.969 71.477,149.608 71.279,150.45C70.864,152.218 70.918,157.488 70.894,158.518C70.815,161.802 70.025,161.707 69.906,164.526C69.779,167.532 69.86,167.525 69.262,170.454C68.867,172.385 69.133,176.282 68.375,179.467C67.887,181.518 68.183,181.556 67.115,190.446C66.692,193.969 66.375,193.911 66.167,197.465C65.937,201.401 65.005,201.257 64.923,204.517C64.847,207.518 65.047,207.533 64.292,210.439C63.394,213.89 64.349,214.028 63.408,217.473C62.454,220.966 63.26,221.103 62.193,225.42C62.016,226.134 61.811,226.965 60.966,234.537C60.688,237.037 60.332,236.959 60.077,239.46C59.614,244.009 59.031,243.928 58.917,247.519C58.803,251.08 58.364,251.01 57.97,254.542C57.639,257.512 57.848,257.522 57.195,260.434C56.837,262.032 57.045,263.883 56.512,266.502C56.001,269.016 56.216,269.035 55.836,271.568C54.871,277.996 55.592,278.095 54.643,281.543C53.188,286.831 54.609,287.047 53.598,290.531C52.919,292.871 52.985,292.876 52.924,295.521C52.909,296.16 52.786,301.451 52.515,303.502C51.295,312.73 52.058,317.835 51.714,321.519C51.3,325.943 50.627,325.936 51.508,332.499C52.209,337.724 50.912,342.31 55.474,342.183C57.988,342.113 58,342.038 60.422,342.723C60.795,342.783 61.146,342.948 61.519,343.008C62.489,343.165 67.081,342.596 69.531,343.422C71.938,344.234 71.978,343.915 74.505,343.95C75.069,343.958 80.752,344.038 81.55,344.118C85.177,344.482 86.046,344.673 86.43,344.758C89.752,345.49 89.834,344.229 95.568,345.006C99.541,345.544 99.542,345.273 101.485,345.176C106.933,344.905 109.588,345.339 110.456,344.451C111.761,343.116 110.846,339.891 110.484,337.502C110.022,334.454 110.341,323.696 110.376,322.496C110.451,319.978 110.851,320.022 110.855,317.494C110.863,313.472 110.931,313.492 111.272,309.479C111.854,302.626 111.328,301.432 112.161,298.408C114.05,291.557 112.346,291.042 113.319,287.446C114.109,284.526 114.034,284.517 114.157,281.482C114.261,278.919 114.67,278.873 115.06,275.456C115.745,269.466 116.117,269.524 116.428,263.497C116.45,263.063 116.785,256.58 119.193,258.82C119.413,259.025 119.955,260.532 120.01,260.685C121.279,264.212 121.599,264.179 122.351,265.581C123.311,267.37 122.736,267.602 123.769,269.342C125.841,272.83 125.164,273.156 127.219,276.653C128.923,279.555 129.193,281.291 129.771,282.361C130.655,283.997 135.846,295.192 135.903,295.309C137.131,297.842 137.029,297.876 137.905,299.253C139.241,301.355 138.725,301.584 139.743,303.368C143.028,309.12 142.975,309.145 143.29,309.627C144.902,312.093 144.422,312.345 146.006,314.836C147.662,317.441 147.795,318.851 148.855,320.226C150.254,322.043 149.625,322.35 150.733,324.375C151.28,325.375 151.273,325.356 151.739,326.398C151.884,326.721 152.622,328.374 153.844,330.29C157.922,336.688 158.411,338.26 159.362,338.718C160.869,339.444 160.922,338.866 163.399,338.159C164.396,337.875 166.286,338.265 166.566,338.304ZM936.49,72.975C933.368,72.772 933.442,72.445 930.596,71.273C929.593,70.86 929.102,71.076 926.7,70.05C924.193,68.979 924.156,69.144 921.512,68.46C919.707,67.993 919.075,68.763 915.588,67.295C912.647,66.056 912.497,66.583 909.469,65.584C907.042,64.783 906.966,65.16 904.529,64.415C902.063,63.661 902.042,64.363 900.172,66.145C897.647,68.552 899.893,70.94 898.449,76.486C897.811,78.939 898.5,79.326 898.132,82.449C897.668,86.391 898.051,95.747 897.472,99.496C896.408,106.388 897.236,106.698 896.514,112.501C894.674,127.275 895.039,127.307 894.737,128.564C893.442,133.947 893.549,133.985 893.308,134.401C892.407,135.949 892.247,136.075 890.451,135.884C888.263,135.65 887.464,135.924 886.43,136.082C879.962,137.067 879.826,135.979 873.518,137.57C871.326,138.123 868.084,137.942 866.448,138.284C864.463,138.7 864.458,138.555 862.501,138.562C861.087,138.566 859.818,139.495 859.536,139.59C857.19,140.375 857.024,138.317 853.474,139.426C850.023,140.505 846.029,139.511 842.435,140.195C835.51,141.513 834.892,140.712 833.845,142.677C832.26,145.654 835.655,145.822 836.618,146.319C837.569,146.81 837.36,147.933 840.406,148.824C844.283,149.96 844.24,150.074 844.58,150.162C848.485,151.166 848.447,151.272 852.587,153.329C854.857,154.456 855.102,153.666 857.399,154.708C866.313,158.751 867.606,157.743 869.203,158.889C871.102,160.251 871.22,160.002 873.436,160.695C877.797,162.059 878.005,160.631 882.458,161.661C885.826,162.44 888.81,161.221 888.378,164.48C888.041,167.018 888.194,167.036 887.422,169.472C886.864,171.23 886.956,172.667 886.692,173.558C886.486,174.253 886.156,174.911 885.986,175.616C885.834,176.243 885.834,176.898 885.732,177.536C885.33,180.057 885.052,179.982 884.658,182.522C884.338,184.579 882.188,192.018 881.936,193.56C881.587,195.687 881.353,195.85 881.197,196.42C880.516,198.913 881.225,199.021 880.529,201.508C878.773,207.783 878.71,210.311 878.426,212.491C878.242,213.906 877.548,215.185 877.45,215.482C876.686,217.805 878.212,221.151 876.082,225.297C874.504,228.369 875.638,228.611 875.172,231.434C874.677,234.426 875.178,234.507 874.184,237.383C873.021,240.747 873.602,240.876 872.809,243.601C872.721,243.905 872.613,244.203 872.528,244.508C871.663,247.638 872.786,248.277 871.938,250.672C871.73,251.261 871.438,251.819 871.234,252.41C870.986,253.128 870.899,254.205 870.539,255.511C869.481,259.355 870.666,259.524 869.818,262.592C869.146,265.025 869.103,265.009 868.887,267.537C868.668,270.086 867.915,269.946 867.838,272.504C867.722,276.354 867.435,276.313 867.247,278.48C867.069,280.539 867.035,280.516 866.579,282.518C866.205,284.162 866.651,284.326 865.826,286.629C864.245,291.043 865.643,291.319 864.611,294.541C863.985,296.495 864.051,296.49 863.806,298.544C863.766,298.876 863.688,299.203 863.607,299.527C862.624,303.44 862.916,303.484 862.184,307.444C861.429,311.53 862.01,311.629 860.805,315.599C859.628,319.475 861.071,322.007 859.786,324.628C858.585,327.078 859.816,329.142 859.516,331.501C859.155,334.332 858.899,334.308 859.072,339.525C859.211,343.709 860.437,343.857 862.288,344.9C865.375,346.639 865.564,346.122 867.348,346.859C869.858,347.896 869.922,347.64 872.582,348.201C874.241,348.551 876.431,350.264 880.452,350.871C882.438,351.171 882.429,351.178 886.379,352.805C888.391,353.634 888.331,353.906 890.496,353.975C894.71,354.109 895.32,355.427 899.557,356.094C902.568,356.567 902.498,356.866 905.541,357.171C907.993,357.416 911.163,359.233 911.132,355.531C911.12,353.998 911.144,354.005 911.572,352.523C912.331,349.9 911.639,349.013 912.605,345.532C913.237,343.259 913.01,333.352 913.104,332.461C913.323,330.394 913.943,330.497 914.141,326.478C914.393,321.369 914.402,321.385 915.285,316.456C915.999,312.474 916.299,312.532 916.581,308.505C916.784,305.591 917.794,304.393 917.872,301.501C917.976,297.644 918.9,294.605 919.016,293.465C919.269,290.987 919.197,290.992 919.796,288.568C920.412,286.077 919.868,285.992 920.565,283.52C921.8,279.14 921.087,279.035 921.765,274.547C922.708,268.312 923.113,267.062 923.317,266.433C924.3,263.405 923.857,262.592 924.155,260.44C924.495,257.989 924.628,258.024 924.901,255.55C925.017,254.497 925.02,254.522 925.13,253.458C925.137,253.39 927.285,242.653 927.372,241.49C927.603,238.431 927.602,238.439 928.405,235.473C928.724,234.292 928.566,232.474 929.305,230.419C931.042,225.59 931.086,222.832 931.124,222.455C931.354,220.184 932.012,220.038 932.134,217.478C932.355,212.82 932.864,212.914 934.006,208.38C934.958,204.6 934.71,204.565 934.841,203.551C934.929,202.868 935.864,200.569 936.062,199.439C936.506,196.9 936.736,196.97 937.157,194.438C937.358,193.228 937.789,192.058 938.073,190.421C938.597,187.395 938.714,187.445 939.454,184.489C940.111,181.863 940.764,182.034 940.904,179.519C941.115,175.722 941.215,175.538 942.785,170.604C943.717,167.678 942.58,167.446 943.769,164.617C945.163,161.299 945.78,161.185 948.506,161.444C949.345,161.524 949.325,161.465 951.491,161.32C952.337,161.263 955.311,161.513 958.493,161.351C965.085,161.015 973.327,161.403 976.489,161.276C980.054,161.133 980.626,161.778 983.506,161.588C989.277,161.207 990.95,162.346 997.5,162.391C1000.892,162.415 1000.892,160.931 1001.412,159.469C1002.411,156.666 1007.005,153.187 1003.463,151.569C1001.394,150.623 999.393,150.921 998.493,150.901C994.31,150.807 992.496,148.046 992.226,147.779C990.472,146.037 986.653,144.296 984.444,143.736C981.517,142.993 981.112,141.877 980.161,140.795C977.521,137.789 975.742,139.858 971.805,137.076C966.442,133.284 964.642,136.167 960.696,134.117C957.382,132.395 957.22,132.901 953.493,132.863C948.553,132.813 948.882,130.539 949.845,123.551C950.544,118.48 950.122,118.428 951.26,113.432C952.057,109.933 951.421,105.291 951.767,102.545C952.211,99.017 951.823,98.99 952.384,95.483C953.709,87.202 952.454,87.048 953.444,83.483C953.53,83.173 953.655,82.873 953.728,82.56C955.136,76.507 948.081,76.505 944.583,75.291C942.535,74.58 941.559,75.116 939.837,74.002C938.328,73.026 938.256,73.221 936.49,72.975ZM468.527,347.76C468.79,347.547 469.251,347.735 469.514,347.522C469.772,347.313 470.057,347.082 470.687,343.54C471,341.777 470.133,341.757 470.621,339.534C471.325,336.324 470.657,335.575 470.995,334.646C471.071,334.438 472.797,331.702 472.256,329.573C471.887,328.123 471.74,328.129 471.927,327.657C472.255,326.829 475.026,323.846 474.894,320.482C474.817,318.502 474.61,318.514 474.808,316.542C475.127,313.358 474.326,311.241 475.434,308.472C476.104,306.796 476.036,306.749 475.672,305.437C474.878,302.573 477.896,301.969 477.629,299.482C477.601,299.227 477.052,298.031 477.125,296.467C477.191,295.026 477.286,295.02 477.109,294.6C476.943,294.207 476.541,293.934 476.413,293.527C476.113,292.573 476.28,292.455 477.2,292.044C477.996,291.688 479.076,291.942 478.838,289.461C478.676,287.778 478.121,286.379 478.115,285.478C478.085,280.876 478.7,279.169 478.886,278.652C479.439,277.117 479.386,277.122 479.715,275.545C479.942,274.46 480.175,274.548 480.425,273.479C480.499,273.16 480.414,272.821 480.448,272.495C480.611,270.918 481.208,271.324 482.636,270.645C483.243,270.356 483.193,268.685 483.188,268.509C482.982,261.695 483.545,261.542 481.949,258.286C480.814,255.97 481.242,255.01 480.735,253.416C480.28,251.987 480.306,251.993 480.204,250.514C480.069,248.548 477.843,248.133 476.795,247.189C474.901,245.482 474.69,245.831 472.42,244.645C468.114,242.395 467.403,242.796 463.38,240.726C459.486,238.722 459.185,239.577 457.703,239.002C455.247,238.049 453.637,237.011 453.306,236.798C452.169,236.064 450.298,235.858 446.701,234.1C441.623,231.618 441.199,232.523 439.139,230.99C436.526,229.044 436.27,229.583 432.548,228.37C429.465,227.366 429.293,227.933 426.45,226.593C421.806,224.405 421.581,225.27 413.506,225.658C411.508,225.754 411.518,225.597 409.551,225.826C408.876,225.904 408.201,226.092 407.524,226.036C404.799,225.813 406.821,221.489 407.081,219.459C407.133,219.049 407.266,218.014 408.343,214.457C409.014,212.242 411.39,208.459 409.542,207.443C409.321,207.321 409.29,207.405 406.623,206.258C405.07,205.589 402.303,205.348 399.445,204.706C397.501,204.269 397.508,204.321 395.528,204.176C395.203,204.153 395.215,204.092 391.538,203.334C391.149,203.254 385.257,201.248 384.526,201.204C383.856,201.165 383.185,201.267 382.515,201.252C382.188,201.245 382.203,201.155 378.49,200.567C374.695,199.966 373.307,198.027 370.469,198.136C366.531,198.287 366.565,197.948 363.575,197.202C362.836,197.018 359.899,197.016 358.468,196.602C357.589,196.347 355.325,194.865 352.713,200.595C351.934,202.303 351.713,204.464 351.693,204.547C351.327,206.063 348.348,215.22 348.305,215.463C347.858,217.984 347.799,217.948 347.205,220.427C347.035,221.133 346.937,223.213 346.577,224.523C345.157,229.697 345.335,232.319 344.17,236.397C343.298,239.452 343.727,239.55 342.676,242.562C341.889,244.817 342.374,244.919 341.533,247.512C340.6,250.389 341.221,250.527 340.292,253.419C339.872,254.726 339.372,259.103 338.385,262.462C336.938,267.385 337.908,267.58 336.442,272.481C335.71,274.929 336.052,275 335.328,277.442C334.905,278.866 335.022,280.907 334.57,282.521C333.882,284.979 333.994,284.988 333.776,287.525C333.687,288.566 332.822,291.568 332.705,293.514C332.376,299.041 331.687,298.946 331.349,304.492C330.952,310.995 330.253,313.754 333.349,314.923C337.752,316.586 337.969,315.644 340.522,316.412C340.826,316.504 341.108,316.658 341.409,316.761C343.773,317.569 345.898,316.702 348.233,317.984C352.479,320.314 359.756,319.458 362.557,320.351C367.647,321.974 368.042,319.846 370.649,321.201C372.569,322.199 373.066,321.337 374.451,321.651C375.291,321.842 375.516,322.337 377.488,322.275C385.216,322.036 385.285,324.021 387.257,323.061C388.575,322.419 387.768,319.609 388.163,317.432C389.64,309.304 388.769,307.408 389.232,305.44C389.381,304.808 389.629,304.203 389.785,303.573C390.201,301.881 389.91,299.525 390.532,297.511C391.289,295.057 390.888,294.983 391.501,292.5C392.697,287.659 392.205,287.143 393.474,282.492C394.277,279.554 393.625,279.436 394.568,276.525C395.581,273.394 394.125,270.575 399.536,271.253C405.532,272.003 405.63,271.734 406.355,271.276C408.484,269.931 408.244,269.618 410.408,268.346C413.518,266.518 413.236,266.136 416.217,264.093C417.237,263.394 417.516,262.8 419.539,261.556C420.753,260.81 421.46,259.941 425.644,257.81C425.851,257.705 427.736,256.745 428.533,257.465C429.813,258.622 428.487,262.988 428.348,263.447C427.892,264.945 428.18,266.644 427.642,268.545C426.809,271.491 427.28,271.554 426.741,274.553C426.554,275.598 425.52,277.478 424.849,283.547C424.564,286.125 424.545,286.113 423.815,288.595C422.944,291.558 423.84,291.735 422.772,294.613C421.359,298.42 422.21,300.929 421.718,303.54C420.972,307.499 421.229,307.519 420.837,311.539C420.525,314.743 419.92,314.669 419.74,320.507C419.648,323.514 419.674,323.5 419.669,326.5C419.666,328.042 418.701,329.166 419.136,333.545C419.727,339.508 418.552,339.497 418.884,345.46C419.099,349.334 417.737,350.411 420.556,351.32C422.328,351.891 425.1,353.645 425.191,353.806C425.323,354.041 425.376,354.331 425.35,354.599C425.292,355.192 424.949,355.744 424.944,356.34C424.942,356.524 425.152,356.701 425.334,356.732C425.746,356.802 426.221,356.828 426.584,356.62C426.701,356.553 426.436,356.424 427.156,355.028C427.531,354.301 427.676,354.428 428.501,354.422C429.472,354.414 429.461,354.415 430.415,354.181C432.127,353.76 432.122,354.45 433.467,354.305C433.792,354.27 434.102,354.149 434.424,354.097C436.949,353.688 437.198,355.929 440.516,356.135C443.364,356.312 444.499,355.694 447.403,356.734C450.463,357.83 450.319,356.114 453.48,355.405C456.779,354.666 457.905,355.435 457.721,353.476C457.618,352.387 456.943,352.583 456.977,351.485C457.033,349.68 457.883,350.317 459.592,349.733C460.286,349.495 460.232,349.425 460.845,348.998C462.12,348.109 461.73,347.834 462.143,346.33C462.711,344.258 464.041,345.72 464.152,345.843C464.766,346.518 464.396,347.87 466.527,347.89C466.687,347.891 466.675,347.88 468.527,347.76Z" style="fill:white;fill-opacity:1;"/>
        <path d="M241.021,253.428C242.513,249.112 242.478,248.914 242.408,248.511C242.22,247.433 240.221,247.117 241.769,243.62C243.585,239.517 243.658,239.571 245.424,235.465C245.815,234.555 247.354,232.507 248.031,230.353C248.102,230.127 248.777,227.977 248.808,227.494C248.829,227.158 248.712,226.826 248.712,226.489C248.713,225.386 248.963,225.465 249.52,224.513C251.533,221.079 252.267,221.109 253.123,220.179C254.708,218.456 254.638,217.718 258.543,218.05C261.001,218.26 271.068,218.003 272.534,218.257C274.146,218.536 274.151,218.878 276.468,218.363C281.306,217.288 282.442,220.099 283.254,221.625C283.999,223.026 284.035,224.524 284.375,225.547C285.345,228.467 285.605,228.893 285.118,238.47C284.918,242.417 284.757,242.385 284.41,243.467C283.127,247.464 285.003,248.174 283.077,253.348C282.137,255.87 282.266,255.89 281.724,258.544C281.658,258.868 281.453,258.808 280.673,262.533C280.289,264.37 279.647,264.973 279.353,266.474C279.09,267.821 279.29,267.863 278.215,270.375C275.942,275.686 276.924,276.08 274.7,280.603C272.38,285.32 273.102,286.062 270.414,287.296C268.427,288.209 268.195,287.313 265.467,288.423C262.566,289.604 262.612,289.904 259.479,289.896C256.506,289.888 255.206,291.175 251.981,288.036C249.157,285.288 248.762,283.897 248.638,283.461C247.893,280.842 247.639,280.97 246.305,278.616C245.194,276.655 245.422,276.564 244.475,274.513C243.31,271.988 244.792,271.955 244.735,270.488C244.728,270.307 243.944,268.281 243.975,267.544C243.983,267.332 244.463,266.336 244.029,264.654C242.799,259.886 244.516,259.42 244.488,256.501C244.477,255.274 243.584,255.126 243.533,255.048C242.696,254.508 241.859,253.968 241.021,253.428Z" style="fill:white;fill-opacity:1;"/>
        <path d="M634.023,259.458C632.775,265.001 632.564,264.933 631.444,270.49C630.958,272.9 630.465,273.501 630.335,274.479C630.228,275.29 630.341,276.654 629.646,278.559C628.77,280.958 629.274,281.073 628.541,283.514C627.803,285.968 628.188,286.045 627.433,288.477C626.274,292.215 626.266,298.971 624.349,300.279C622.267,301.7 619.997,298.903 617.221,296.904C612.734,293.672 614.598,291.621 615.107,287.455C615.147,287.126 615.143,286.794 615.18,286.465C615.306,285.352 615.739,284.06 615.782,283.521C615.87,282.414 615.392,279.685 618.195,274.348C619.447,271.964 618.721,271.689 620.292,268.401C622.141,264.53 622.274,264.607 623.837,260.622C625.458,256.494 627.54,255.362 628.491,252.497C629.713,248.82 630.881,249.544 632.592,246.558C634.24,243.681 634.094,243.6 636.224,241.057C639.896,236.674 637.821,243.33 637.751,243.554C636.695,246.942 636.734,246.943 636.104,250.424C636.028,250.841 635.797,250.784 634.847,255.572C634.817,255.725 634.728,255.696 634.274,257.433C634.233,257.591 634.255,257.583 634.023,259.458Z" style="fill:white;fill-opacity:1;"/>
    </g>
</svg>
