<?xml version="1.0" encoding="UTF-8" standalone="no"?><!DOCTYPE svg PUBLIC "-//W3C//DTD SVG 1.1//EN" "http://www.w3.org/Graphics/SVG/1.1/DTD/svg11.dtd"><svg width="100%" height="100%" viewBox="0 0 189 424" version="1.1" xmlns="http://www.w3.org/2000/svg" xmlns:xlink="http://www.w3.org/1999/xlink" xml:space="preserve" xmlns:serif="http://www.serif.com/" style="fill-rule:evenodd;clip-rule:evenodd;stroke-linejoin:round;stroke-miterlimit:2;"><g><path d="M167.394,423.599l-6.996,0c-0.387,-2.386 -0.49,-2.249 -0.746,-4.603c-0.236,-2.164 -5.528,1.936 -8.255,1.737c-41.633,-3.029 -142.251,5.504 -148.405,-2.03c-8.359,-10.233 25.413,-6.599 37.511,-6.459c0.287,0.034 9.299,1.11 3.241,-1.594c-0.524,-0.063 -1.047,-0.125 -1.571,-0.188l-0.853,-0.273c-4.852,-17.429 1.523,-44.372 0.418,-67.094c-0.052,-1.064 -0.516,-1.339 -13.264,-1.194c-2.329,0.096 -4.658,0.191 -6.987,0.287c-1.308,-0.19 -2.635,-0.228 -3.943,-0.418c-5.148,-0.746 -2.895,2.897 -5.012,42.369c-0.174,2.65 -0.348,5.3 -0.522,7.95l-0.148,1.081c-0.565,1.243 -1.131,2.485 -1.696,3.728c-2.64,2.415 -5.113,5.657 -10.165,-0.771l-0,-40.961c2.094,-5.872 1.333,-5.982 7.17,-88.929l0.459,-6.985c4.542,-72.958 7.75,-72.744 5.777,-145.856c-0.247,-9.168 1.453,-47.505 -2.778,-91.928c-0.542,-5.695 1.006,-6.294 -3.681,-12.232c-6.621,-8.388 58.706,-8.897 75.476,-7.449c50.491,4.358 100.074,0.078 85.746,11.4c-3.677,2.905 -70.828,-3.765 -55.646,1.076c2.829,0.902 22.833,-1.495 23.157,7.198c0.831,22.251 -0.745,24.064 2.719,24.16c14.494,0.4 27.408,-4.438 22.89,7.771c-1.345,3.634 -51.67,4.744 -16.829,5.57c2.148,0.051 26.62,0.632 26.808,-1.552c3.509,-40.701 -1.146,-52.524 9.853,-45.544c6.33,4.017 1.685,21.75 2.153,51.585c-0.777,9.677 -0.324,16.713 -0.231,18.163c2.702,4.465 4.617,3.707 4.378,8.818c-0.589,0.589 -0.526,0.419 -1.01,1.011c-0.266,0.326 -0.303,-0.018 -0.715,0.356c-0.802,0.73 -0.656,0.589 -1.39,1.247c-0.918,0.48 -1.836,0.961 -2.754,1.441c-2.228,8.56 -0.401,66.889 -2.829,90.89c-0.155,4.503 -0.356,4.248 -0.555,8.937c-0.483,34.44 -4.596,36.052 1.239,40.939c2.403,2.013 -4.805,45.62 -4.003,57.971c-0.005,1.998 -0.009,3.996 -0.014,5.994c0.763,22.764 0.138,22.999 2.155,25.722c1.89,1.122 1.803,1.043 3.561,2.5c1.833,1.9 1.774,2.016 1.254,4.689c-3.227,1.773 -3.732,0.858 -5.901,4.025c0.664,0.226 1.329,0.452 1.993,0.678c0.473,0.036 0.288,-0.079 5.932,0.203c-1.12,6.694 -1.194,6.47 -2.557,13.216c-0.505,3.644 -2.704,19.505 -3.196,45.874c0.563,8.039 3.7,11.321 -4.273,12.278c-3.431,1.28 -2.951,4.519 -3.024,4.687c-0.821,5.728 -0.527,5.795 -3.942,10.51Zm-52.434,-56.414c0.043,19.986 0.586,19.834 0.785,39.934c0.024,2.446 -0.98,2.99 -30.29,4.224c-13.627,0.573 -10.243,-5.588 -10.184,-19.213c0.022,-5.068 1.596,-4.168 4.068,-5.225c12.016,-5.137 3.967,-43.138 8.966,-48.005c2.779,0.774 3.596,3.175 6.134,-0.667c13.32,-0.955 16.544,-0.975 17.985,-0.984c2.689,-0.017 2.377,21.109 2.35,22.954c-1.271,2.822 -0.999,2.811 -0.229,5.927l0.416,1.055Zm44.436,-142.103c-3.02,-3.907 -4.991,-0.474 -5.982,-0.104c-23.253,0.309 -23.076,0.917 -25.042,0.529c-2.923,-0.576 -2.299,-1.817 -1.825,-37.184c0.082,-6.143 3.215,-3.197 12.87,-3.879c3.59,0.504 3.621,0.956 7.003,-0.581c9.119,0.386 8.878,0.546 17.936,0.759c2.771,0.065 2.433,1.486 0.642,34.635c-0.448,8.284 -5.164,5.75 -5.603,5.825Zm-31.979,100.114c1.846,-4.119 1.349,-4.548 -1.207,-5.992c-0.071,-21.178 -1.242,-34.05 2.203,-34.038c34.02,0.123 34.136,1.447 34.2,2.017c0.055,0.491 0.992,34.743 0.575,35.925c-0.24,0.679 -0.247,1.685 -35.771,2.088Zm19.012,-231.621c20.588,-0.162 22.955,-2.468 23.027,1.833c0.047,2.818 0.577,34.423 -1.978,35.18c-0.569,0.168 -35.086,-1.023 -36.033,-1.269c-2.558,-0.664 -1.551,-1.784 1.728,-32.983c0.175,-1.667 7.311,-2.114 13.257,-2.76Zm-69.973,-46.004c-0.597,-0.402 -6.478,-4.365 -8.996,0.126c-4.295,0.284 -7.565,1.086 -7.591,-2.25c-0.143,-18.196 2.537,-32.763 -6.44,-33.512c-1.911,-0.159 -1.858,1.097 -23.964,0.637c-29.316,-0.61 56.631,-7.01 58.648,1.016c0.65,2.587 1.238,32.568 -2.546,33.321c-0.717,0.143 -0.675,0.049 -9.111,0.662Zm33.975,188.971c3.221,0.417 4.791,-0.642 4.53,2.753c-1.302,16.914 -0.518,16.708 -0.837,33.889c-0.034,1.813 -25.342,2.611 -24.959,-0.942c1.24,-11.49 0.722,-28.502 0.646,-30.979c-0.181,-5.94 3.108,-3.198 20.619,-4.721Zm-35.988,48.92c3.094,1.263 3.511,2.269 1.116,41.748c-0.07,1.156 -21.175,5.32 -21.185,-0.017c-0.024,-12.109 0.029,-11.963 0.058,-23.981l1.033,-0.29c0.218,-0.66 1.261,-3.828 -0.524,-8.674c0.032,-8.354 2.228,-7.954 7.511,-8.171c0.484,-0.02 3.032,-0.124 6.02,-0.596c0.057,0.075 2.807,4.077 5.972,-0.019Zm-30.447,-25.208c-1.231,9.901 2.587,14.639 -7.524,14.907c-15.622,0.414 -16.839,0.148 -16.865,-2.919c-0.283,-33.579 1.075,-34.976 3.852,-34.684c8.99,0.946 21.486,-0.69 21.463,2.719c-0.011,1.6 -0.045,6.614 -0.926,19.976Zm66.42,-86.154c-1.367,-0.673 -5.21,-2.564 -18.985,-1.495c-0.564,0.044 -0.715,1.072 -1.28,1.116c-1.822,-2.747 -0.157,-11.13 0.597,-30.312c0.164,-4.183 26.195,-4.495 26.339,-0.031c0.07,2.16 -0.352,2.118 -1.42,26.982c-0.164,3.817 -1.553,2.896 -5.251,3.74Zm-36.918,52.427c-0.484,-0.088 -4.075,-3.005 -7.03,0.471c-2.64,-0.26 -5.28,-0.521 -7.919,-0.781c4.554,-2.35 4.76,-5.664 -0.432,-5.925c-1.107,-7.163 -0.344,-29.35 -0.256,-31.9c0.07,-2.042 19.429,-5.102 19.468,-0.064c0.022,2.876 0.192,24.581 0.04,35.955c-0.021,1.581 -0.692,1.106 -3.871,2.245Zm-4.047,-95.452c-10.308,0.863 -11.346,0.044 -11.002,-2.696c2.308,-18.362 -2.847,-30.394 3.066,-30.727c18.124,-1.022 21.436,-2.34 20.84,3.741c-2.446,24.949 -0.361,28.305 -7.901,29.026c-1.674,0.16 -3.329,0.495 -5.004,0.655Zm-22.941,-45.628c-2.183,-0.474 -2.091,-0.167 -4.045,0.644c-14.953,-0.799 -17.217,-0.826 -17.273,-1.59c-0.13,-1.759 0.114,-1.745 -0.062,-22.052c-0.105,-12.05 -5.481,-17.989 5.334,-17.544c1.073,0.044 72.551,5.621 13.024,3.246c-10.536,-0.42 -20.921,-3.269 -16.07,6.349c2.043,4.051 16.59,4.656 18.084,4.718c0.49,0.02 2.065,0.081 2.111,2.215c0.016,0.741 -0.997,23.447 -1.102,24.013Zm76.928,-22.004c-1.182,16.469 -1.003,16.499 -1.54,18.14c-0.587,1.796 -0.87,2.662 -23.459,2.749c-3.727,0.014 -1.547,-7.501 -0.191,-18.912c1.345,-11.323 6.187,-7.172 15.196,-7.716c3.137,2.124 3.246,1.266 6.953,1.587c0.41,0.036 0.536,0.046 3.042,4.153Zm-76.742,94.946c-5.423,3.426 -0.768,12.045 -0.275,12.958c0.627,6.08 -1.981,5.063 -7.975,5.547c-12.168,0.983 -12.347,0.313 -12.607,-0.663c-0.356,-1.334 1.171,-32.109 1.174,-32.124c2.44,0.968 2.447,1.039 4.557,-0.187c1.113,0.028 13.628,0.341 13.91,0.408c3.261,0.77 1.359,2.263 1.215,14.061Zm62.727,129.09c-1.541,-0.003 -30.869,-0.069 -19.1,-2.525c1.993,-0.416 38.195,0.099 19.1,2.525Zm-32.946,-145.891c9.083,4.043 -13.747,3.53 -14.977,3.502c-26.279,-0.591 13.75,-3.415 14.977,-3.502Zm-6.022,200.6c-0.453,0.007 -30.687,-0.813 -5.124,-2.405c0.452,-0.028 30.445,0.436 5.124,2.405Zm39.961,-168.088c-15.359,0.097 -15.285,0.691 -20.265,-0.379c0.564,-0.044 0.715,-1.072 1.28,-1.116c13.775,-1.069 17.618,0.822 18.985,1.495Zm13.022,-110.658c-2.506,-4.106 -2.631,-4.117 -3.042,-4.153c-3.707,-0.321 -3.816,0.537 -6.953,-1.587c1.968,-0.054 10.635,-4.186 9.994,5.739Zm-76.742,94.946c-0.083,4.966 -0.25,11.921 -0.275,12.958c-0.493,-0.912 -5.149,-9.532 0.275,-12.958Zm29.76,-110.816l-8.996,0.126c2.518,-4.491 8.399,-0.528 8.996,-0.126Zm88.942,31.662c3.401,0.383 4.086,-0.232 4.12,1.182c0.077,3.189 -10.518,0.893 -4.12,-1.182Zm-7.538,329.847c1.36,-7.106 4.46,3.699 1.554,3.664c-0.836,-0.01 -1.493,-3.351 -1.554,-3.664Zm-99.744,-188.789c5.193,0.262 4.986,3.575 0.432,5.925c-0.144,-1.975 -0.288,-3.95 -0.432,-5.925Zm69.301,104.905c-1.148,-1.341 -0.707,-1.489 -1.207,-5.992c2.556,1.444 3.053,1.872 1.207,5.992Zm-72.478,-30.948c1.786,4.846 0.742,8.014 0.524,8.674l-1.033,0.29c0.17,-2.988 0.339,-5.976 0.509,-8.964Zm110.461,-150.921c-4.336,-2.149 3.57,-3.119 2.696,-1.008c-0.088,0.213 -0,0 -2.696,1.008Zm-70.963,194.906c-2.538,3.841 -3.354,1.44 -6.134,0.667c3.866,-1.05 3.747,-0.556 6.134,-0.667Zm-20.941,-111.706c-3.686,0.422 -3.479,0.101 -7.03,0.471c2.955,-3.475 6.545,-0.559 7.03,-0.471Zm0.945,58.936c-3.165,4.096 -5.915,0.094 -5.972,0.019l5.972,-0.019Zm84.953,-60.38l-5.982,-0.104c0.991,-0.37 2.962,-3.802 5.982,0.104Zm-127.825,-81.163c-2.11,1.226 -2.117,1.155 -4.557,0.187c0.716,-1.561 1.064,-0.737 4.557,-0.187Zm114.85,39.943c-3.382,1.537 -3.414,1.085 -7.003,0.581l0.995,-0.101c1.002,-0.236 2.005,-0.472 3.007,-0.708l3.001,0.227Zm16.023,152.938c-0.105,-0.165 -2.614,-4.112 0.775,-2.312c1.745,0.926 0.992,1.589 -0.775,2.312Zm-115.934,-251.354c-1.991,0.701 -1.882,0.526 -4.045,0.644c1.954,-0.81 1.862,-1.117 4.045,-0.644Zm-19.176,7.006c-0.914,1.535 -0.772,1.52 -0.914,1.535c-1.5,0.158 -1.165,-3.532 0.914,-1.535Z" style="fill-opacity:1;"/><path d="M109.424,287.478c-1.541,-0.003 -30.869,-0.069 -19.1,-2.525c1.993,-0.416 38.195,0.099 19.1,2.525Z" style="fill-opacity:0.14;"/><path d="M76.478,141.587c9.083,4.043 -13.747,3.53 -14.977,3.502c-26.279,-0.591 13.75,-3.415 14.977,-3.502Z" style="fill-opacity:0.11;"/><path d="M70.456,342.188c-0.453,0.007 -30.687,-0.813 -5.124,-2.405c0.452,-0.028 30.445,0.436 5.124,2.405Z" style="fill-opacity:0.18;"/><path d="M182.37,259.26c-0.52,-0.708 -1.04,-1.416 -1.56,-2.124c0.102,-6.19 -0.873,-10.13 0.316,-12.077c4.164,-1.145 2.767,1.823 1.245,14.201Z" style="fill-opacity:0.11;"/><path d="M184.993,68.462c-0.399,10.859 1.522,12.455 -1.949,13.151c-0.093,-1.45 -0.546,-8.485 0.231,-18.163l0.82,1.083c0.299,1.31 0.598,2.619 0.897,3.929Z" style="fill-opacity:0.45;"/><path d="M110.416,174.1c-15.359,0.097 -15.285,0.691 -20.265,-0.379c0.564,-0.044 0.715,-1.072 1.28,-1.116c13.775,-1.069 17.618,0.822 18.985,1.495Z" style="fill-opacity:0.05;"/><path d="M172.391,423.599l-4.997,0c3.415,-4.715 3.121,-4.783 3.942,-10.51c1.323,4.039 2.158,5.6 2.404,6.06l-1.349,4.451Z" style="fill-opacity:0.87;"/><path d="M184.386,337.034c3.269,0.751 2.598,11.319 -2.557,13.216c1.363,-6.746 1.438,-6.522 2.557,-13.216Z" style="fill-opacity:0.67;"/><path d="M181.118,399.154c-0.17,2.658 -0.34,5.317 -0.509,7.975c-0.155,1.614 -0.25,1.43 -1.258,2.582c-1.341,-0.27 -2.681,-0.54 -4.022,-0.811c-0.323,-0.166 -0.646,-0.332 -0.969,-0.498c7.973,-0.957 4.836,-4.239 4.273,-12.278c1.489,1.485 1.543,1.178 2.486,3.03Z" style="fill-opacity:0.38;"/><path d="M123.439,63.442c-2.506,-4.106 -2.631,-4.117 -3.042,-4.153c-3.707,-0.321 -3.816,0.537 -6.953,-1.587c1.968,-0.054 10.635,-4.186 9.994,5.739Z" style="fill-opacity:0.04;"/><path d="M46.697,158.388c-0.083,4.966 -0.25,11.921 -0.275,12.958c-0.493,-0.912 -5.149,-9.532 0.275,-12.958Z" style="fill-opacity:0.06;"/><path d="M175.328,408.9c-2.022,2.411 -1.554,9.476 -1.588,10.248c-0.246,-0.46 -1.081,-2.021 -2.404,-6.06c0.073,-0.168 -0.407,-3.407 3.024,-4.687c0.323,0.166 0.646,0.332 0.969,0.498Z" style="fill-opacity:0.44;"/><path d="M76.457,47.572l-8.996,0.126c2.518,-4.491 8.399,-0.528 8.996,-0.126Z" style="fill-opacity:0.1;"/><path d="M165.399,79.234c3.401,0.383 4.086,-0.232 4.12,1.182c0.077,3.189 -10.518,0.893 -4.12,-1.182Z" style="fill-opacity:0.17;"/><path d="M157.861,409.081c1.36,-7.106 4.46,3.699 1.554,3.664c-0.836,-0.01 -1.493,-3.351 -1.554,-3.664Z" style="fill-opacity:0.11;"/><path d="M178.725,185.377c0.496,0.426 4.314,6.157 -0.555,8.937c0.199,-4.689 0.4,-4.434 0.555,-8.937Z" style="fill-opacity:0.19;"/><path d="M181.557,242.179c-0.003,-0.423 -0.143,-17.886 2.348,-4.737c0.649,3.425 1.124,4.647 -2.348,4.737Z" style="fill-opacity:0.09;"/><path d="M12.532,384.139c0.011,0.038 5.181,4.921 -0.522,7.95c0.174,-2.65 0.348,-5.3 0.522,-7.95Z" style="fill-opacity:0.16;"/><path d="M58.117,220.292c5.193,0.262 4.986,3.575 0.432,5.925c-0.144,-1.975 -0.288,-3.95 -0.432,-5.925Z" style="fill-opacity:0.06;"/><path d="M28.475,341.901c-2.929,5.417 -5.877,0.709 -6.987,0.287c2.329,-0.096 4.658,-0.191 6.987,-0.287Z" style="fill-opacity:0.12;"/><path d="M183.388,328.179c3.36,2.171 1.217,3.074 -1.026,3.949c0.52,-2.673 0.579,-2.789 -1.254,-4.689c0.76,0.246 1.52,0.493 2.28,0.739Z" style="fill-opacity:0.34;"/><path d="M7.63,259.25l-0.459,6.985c-2.357,-3.715 -3.293,-4.769 0.459,-6.985Z" style="fill-opacity:0.21;"/><path d="M127.418,325.196c-1.148,-1.341 -0.707,-1.489 -1.207,-5.992c2.556,1.444 3.053,1.872 1.207,5.992Z" style="fill-opacity:0.11;"/><path d="M54.94,294.249c1.786,4.846 0.742,8.014 0.524,8.674l-1.033,0.29c0.17,-2.988 0.339,-5.976 0.509,-8.964Z" style="fill-opacity:0.34;"/><path d="M175.406,293.224c1.546,1.83 4.06,3.205 -0.014,5.994c0.005,-1.998 0.009,-3.996 0.014,-5.994Z" style="fill-opacity:0.16;"/><path d="M165.401,143.328c-4.336,-2.149 3.57,-3.119 2.696,-1.008c-0.088,0.213 -0,0 -2.696,1.008Z" style="fill-opacity:0.3;"/><path d="M43.745,410.65c6.059,2.704 -2.954,1.629 -3.241,1.594c0.094,-0.15 -0.158,-0.206 0.816,-2.055l0.853,0.273c0.524,0.063 1.047,0.125 1.571,0.188Z" style="fill-opacity:0.55;"/><path d="M94.439,338.233c-2.538,3.841 -3.354,1.44 -6.134,0.667c3.866,-1.05 3.747,-0.556 6.134,-0.667Z" style="fill-opacity:0.14;"/><path d="M73.498,226.527c-3.686,0.422 -3.479,0.101 -7.03,0.471c2.955,-3.475 6.545,-0.559 7.03,-0.471Z" style="fill-opacity:0.24;"/><path d="M74.443,285.462c-3.165,4.096 -5.915,0.094 -5.972,0.019l5.972,-0.019Z" style="fill-opacity:0.23;"/><path d="M183.388,328.179c-0.76,-0.246 -1.52,-0.493 -2.28,-0.739c-1.758,-1.457 -1.671,-1.378 -3.561,-2.5c5.63,-0.924 4.676,1.89 5.841,3.239Z" style="fill-opacity:0.17;"/><path d="M159.397,225.082l-5.982,-0.104c0.991,-0.37 2.962,-3.802 5.982,0.104Z" style="fill-opacity:0.19;"/><path d="M11.862,393.17c1.722,2.654 1.472,3.956 -1.696,3.728c0.565,-1.243 1.131,-2.485 1.696,-3.728Z" style="fill-opacity:0.19;"/><path d="M31.571,143.92c-2.11,1.226 -2.117,1.155 -4.557,0.187c0.716,-1.561 1.064,-0.737 4.557,-0.187Z" style="fill-opacity:0.17;"/><path d="M185.338,93.334c-1.212,2.219 -1.508,2.228 -3.784,1.152c0.918,-0.48 1.836,-0.961 2.754,-1.441l1.03,0.289Z" style="fill-opacity:0.21;"/><path d="M146.421,183.863c-3.382,1.537 -3.414,1.085 -7.003,0.581l0.995,-0.101c1.002,-0.236 2.005,-0.472 3.007,-0.708l3.001,0.227Z" style="fill-opacity:0.35;"/><path d="M187.422,90.431c-0.06,2.142 0.063,2.426 -2.084,2.904l-1.03,-0.289c0.733,-0.658 0.587,-0.517 1.39,-1.247c0.412,-0.374 0.448,-0.031 0.715,-0.356c0.484,-0.592 0.421,-0.422 1.01,-1.011Z" style="fill-opacity:0.56;"/><path d="M162.444,336.801c-0.105,-0.165 -2.614,-4.112 0.775,-2.312c1.745,0.926 0.992,1.589 -0.775,2.312Z" style="fill-opacity:0.38;"/><path d="M42.798,108.314c1.595,-2.976 2.32,0.366 1.554,0.784c-0.122,0.067 0,0 -1.554,-0.784Z" style="fill-opacity:0.43;"/><path d="M46.511,85.446c-1.991,0.701 -1.882,0.526 -4.045,0.644c1.954,-0.81 1.862,-1.117 4.045,-0.644Z" style="fill-opacity:0.23;"/><path d="M27.334,92.452c-0.914,1.535 -0.772,1.52 -0.914,1.535c-1.5,0.158 -1.165,-3.532 0.914,-1.535Z" style="fill-opacity:0.62;"/><path d="M181.118,399.154c-0.17,2.658 -0.34,5.317 -0.509,7.975c0.17,-2.658 0.34,-5.317 0.509,-7.975Z" style="fill-opacity:0.15;"/><path d="M115,361.124l-0.04,6.061l-0.416,-1.055c-0.055,-2.658 -0.33,-2.481 0.455,-5.006Z" style="fill-opacity:0.67;"/><path d="M115,361.124c-0.785,2.524 -0.51,2.348 -0.455,5.006c-0.769,-3.115 -1.042,-3.105 0.229,-5.927l0.226,0.921Z" style="fill-opacity:0.45;"/><path d="M179.35,409.711c-1.341,-0.27 -2.681,-0.54 -4.022,-0.811c1.341,0.27 2.681,0.54 4.022,0.811Z" style="fill-opacity:0.2;"/><path d="M184.993,68.462c-0.299,-1.31 -0.598,-2.619 -0.897,-3.929c0.299,1.31 0.598,2.619 0.897,3.929Z" style="fill-opacity:0.18;"/><path d="M178.454,336.831c-0.664,-0.226 -1.329,-0.452 -1.993,-0.678c1.131,0.233 0.983,0.085 1.993,0.678Z" style="fill-opacity:0.67;"/><path d="M143.42,183.635c-1.002,0.236 -2.005,0.472 -3.007,0.708c1.002,-0.236 2.005,-0.472 3.007,-0.708Z" style="fill-opacity:0.61;"/></g></svg>