<?xml version="1.0" encoding="UTF-8" standalone="no"?><!DOCTYPE svg PUBLIC "-//W3C//DTD SVG 1.1//EN" "http://www.w3.org/Graphics/SVG/1.1/DTD/svg11.dtd"><svg width="100%" height="100%" viewBox="0 0 95 423" version="1.1" xmlns="http://www.w3.org/2000/svg" xmlns:xlink="http://www.w3.org/1999/xlink" xml:space="preserve" xmlns:serif="http://www.serif.com/" style="fill-rule:evenodd;clip-rule:evenodd;stroke-linejoin:round;stroke-miterlimit:2;"><g><path d="M93.774,85.334l-0.049,2.55l-0.121,0.464c-0.076,0.141 -0.152,0.282 -0.227,0.423c-0.393,1.275 -0.014,1.553 -0.438,2.485c-0.139,0.141 -0.278,0.283 -0.418,0.424c-0.076,0.107 -0.152,0.214 -0.229,0.321c-0.308,0.203 -0.293,-0.065 -0.598,0.136c-0.037,0.024 0,-0 -0.421,0.485c-0.662,0.302 -0.621,0.367 -1.03,1.481c-0.024,0.19 -0.111,0.178 -0.209,12.413c-0.013,1.104 -0.026,2.208 -0.04,3.311l0.014,2.482c-0.209,1.563 -0.071,6.853 -0.055,7.448c-0.014,0.662 0.003,0.572 -0.066,8.276c-0.137,20.575 -0.109,20.482 -0.238,31.467c0.001,0.826 0.001,1.653 0.002,2.479c-0.09,11.757 -0.081,11.719 -0.08,14.902c-0.177,0.809 -0.348,1.516 -0.379,1.647c-0.017,2.071 -0.034,4.142 -0.051,6.213c-0.105,0.631 -0.094,0.565 -0.339,8.281c-0.007,3.725 -0.015,7.45 -0.022,11.175c-0.12,1.257 -0.156,1.19 -0.174,2.505c-0.282,1.031 -0.183,8.012 -0.183,8.255c-0.119,0.609 -0.129,0.586 0.004,1.243c-0.197,6.639 -0.355,6.545 -0.335,13.253c-0.143,1.447 -0.109,1.41 0.004,2.896c0.226,2.542 1.736,1.204 1.76,2.877c0.069,4.805 -0.219,4.722 -0.383,9.559l-0.16,1.053c-0.562,2.229 -0.171,2.301 -0.211,4.742c-0.027,0.161 -0.017,0.145 -0.281,2.047l-0.045,5.374c-0.067,0.135 -0.133,0.269 -0.2,0.404c-0.49,3.237 0.012,3.361 -0.449,6.604c-0.132,0.926 -0.003,8.045 0.009,8.744c0.039,1.072 0.027,0.986 0.002,2.001c-0.073,0.37 -0.66,0.591 -0.089,5.85l-0.137,1.204c-0.164,1.164 -0.093,1.134 -0.462,2.179c-0.005,0.127 -0.026,0.059 -0.104,1.575c-0.296,1.2 -0.204,1.175 -0.201,2.485c0.109,0.691 0.218,1.382 0.327,2.072l0.018,2.076c-0.364,2.243 -0.332,2.245 0.003,4.543l-0,0.416c-0.069,0.649 -0.072,0.577 -0.007,1.237c-0.009,4.205 -0.107,4.129 0.078,8.279l0.114,0.473c-0.017,1.258 0.006,1.177 0.087,2.426l0.001,0.829c-0.047,0.422 -0.094,0.844 -0.14,1.266l-0.067,0.804c-0.063,1.695 -0.109,1.637 0.015,3.306l0.109,0.466c-0.02,0.851 -0.005,0.795 0.075,1.607c-0.095,1.292 -0.185,1.239 0.003,2.483l0.046,0.827c0.051,0.613 0.049,0.518 -0.009,1.215c0.055,0.15 0.11,0.3 0.165,0.449c0.269,0.178 0.537,0.356 0.806,0.535c0.066,0.05 0.576,0.434 0.781,0.836l0.085,0.238c0.41,0.897 0.366,0.88 0.814,1.677c1.292,2.453 0.364,4.021 0.234,4.241c-1.254,1.731 -1.223,1.655 -2.518,3.271c-6.447,0.049 1.125,1.521 1.242,1.528l1.035,0.053l0.818,0.194l0.221,0.225c0.738,1.758 0.329,1.935 0.064,4.176c-0.088,1.93 -0.151,1.862 -0.24,3.747c-0.584,1.874 -0.032,2.269 -0.633,4.118c-0.107,2.39 -0.125,2.314 -0.131,2.516l-0.149,0.723c-0.437,2.619 -0.178,2.615 -0.226,5.392c-0.191,0.622 -0.184,0.534 -0.29,1.292c-0.02,6.528 0.044,6.559 -0.067,7.025c-0.212,0.887 -0.289,0.796 -0.296,1.67c-0.04,5.192 0.01,5.116 -0.048,10.36c-0.155,1.537 -0.157,1.526 -0.167,1.66c-0.064,0.875 0.004,0.812 -0.057,1.64c-0.169,4.087 -0.087,4.062 -0.09,13.247c-0.131,0.818 -0.125,0.781 0.104,10.738c0.066,0.282 0.131,0.563 0.197,0.845c-0.495,1.319 -0.511,1.261 -1.279,1.64l-0.622,0.212c-0.145,-0.024 -1.764,-0.293 -1.789,0.651c-0.04,1.516 -0.253,1.354 -0.374,2.91c-0.24,3.081 -0.421,2.989 -0.412,3.257c0.154,4.519 -0.329,4.297 -1.729,7.819c-1.581,0.37 -1.544,0.432 -3.124,0.159c-1.211,-0.21 -0.555,-1.357 -0.577,-3.815c0.517,-1.64 0.065,-1.59 -0.051,-1.919c-0.535,0.491 -0.453,0.574 -0.86,1.39l-0.547,0.598c-1.553,0.749 -1.484,1.119 -3.109,1.089c-3.522,-0.159 -3.482,-0.16 -7.02,-0.352c-0.414,-0.005 -0.828,-0.011 -1.242,-0.016c-2.068,-0.048 -2.014,-0.346 -4.126,-0.3l-0.408,0.009c-0.182,-0.013 -0.974,-0.07 -2.27,0.309c-1.577,-0.191 -1.537,-0.469 -3.096,-0.037c-0.608,-0.037 -1.216,-0.074 -1.824,-0.111c-1.13,-0.433 -1.109,-0.195 -2.282,-0.056l-0.434,0.204c-0.897,0.115 -1.793,0.231 -2.69,0.346l-0.61,0.398c-5.724,0.269 -9.671,0.26 -11.956,0.306c-0.738,-0.028 -0.723,-0.223 -1.452,0.202l-1.234,0.106c-4.348,0.099 -4.303,-0.194 -8.664,0.451l-1.041,0.02c-0.097,-0.002 -0.063,0.059 -1.217,0.051l-0.217,-0.004c-0.345,0.078 -0.69,0.156 -1.035,0.235l-0.206,0.018l-0.827,-0.022l-0.617,0.011l-0.207,0.006l-0.808,-0.158c-3.216,-0.382 -3.183,-0.114 -6.41,-0.317c-0.273,-0.037 -0.546,-0.075 -0.818,-0.112c-2.351,-0.067 -4.235,-0.596 -5.573,-0.76c-0.274,-0.134 -0.548,-0.269 -0.822,-0.403c-2.124,-0.091 -2.193,0.631 -4.126,-1.204c-0.075,-0.125 -0.15,-0.249 -0.225,-0.374c-0.924,-2.915 -0.217,-7.066 2.686,-7.592c0.234,-0.195 0.951,-0.43 1.035,-0.457c0.139,-0.044 0.277,-0.088 0.416,-0.133c0.203,0.115 0.407,0.229 0.61,0.344c1.726,0.689 1.719,0.19 5.165,0.386c0.496,0.508 0.444,0.68 1.023,0.591c0.678,0.016 25.302,0.593 8.456,-0.966c-0.1,-0.036 -0.2,-0.073 -0.3,-0.109c-0.145,-1.909 -0.369,-1.742 -0.469,-3.685c-0.247,-1.13 -0.208,-1.139 -0.23,-1.236c-0.043,-1.234 -0.133,-6.543 -0.143,-7.112c-0.12,-0.856 -0.119,-0.776 -0.25,-1.57c0.023,-1.532 0.046,-3.064 0.069,-4.596c0.17,-0.96 1.025,-24.072 1.056,-35.569l0.135,-2.885c0.024,-2.526 0.441,-12.796 -0.476,-12.68c-6.26,0.789 -6.259,0.248 -6.802,0.321c-0.415,-0.012 -0.83,-0.023 -1.245,-0.035l-0.411,-0.119c-1.04,0.501 -1.023,0.59 -2.087,0.234c-1.34,-0.332 -2.191,-1.075 -2.421,-0.831c-0.66,0.697 -0.445,7.808 -0.447,8.145c-0.191,1.216 -0.131,1.164 -0.187,2.482l-0.003,0.415c-0.051,8.29 -0.038,8.209 -0.046,16.558c-0.197,1.454 -0.153,1.393 -0.003,2.896c-0.041,0.932 -0.142,0.82 -0.274,1.726c-0.134,0.916 -0.045,0.893 -0.066,11.932c-0.061,0.553 -0.123,1.106 -0.184,1.659c-0.14,1.055 -0.203,1.044 0.003,2.061c-0.031,0.541 -0.062,1.082 -0.093,1.622c-0.039,1.26 -0.077,2.521 -0.116,3.781c-0.166,0.4 -0.37,0.266 -0.566,1.518c-0.057,0.302 -0.113,0.603 -0.17,0.905c-0.074,0.144 -0.073,0.116 -0.993,1.628c-0.077,0.104 -0.155,0.208 -0.232,0.312c-0.323,0.132 -0.31,0.108 -0.567,0.603l-0.16,0.179c-1.1,-1.861 -0.862,0.26 -0.885,0.389c-0.334,-0.223 -0.669,-0.445 -1.003,-0.668c-0.054,-0.121 -0.438,-0.977 -0.63,-1.584c-0.07,-0.136 -0.141,-0.272 -0.211,-0.407c-0.124,-1.179 -0.073,-1.1 -0.094,-2.476c-0.107,-1.155 -0.002,-1.188 -0.372,-2.067c-0.003,-1.223 -0.04,-14.702 0.076,-15.281c0.399,-2 0.294,-2.038 0.301,-21.144c0.618,-1.708 0.298,-1.854 0.293,-5.383c0.055,-4.997 0.045,-4.902 0.036,-9.938c0.287,-0.509 0.227,-0.526 0.32,-1.239c0.025,-2.345 0.05,-4.69 0.074,-7.035c0.474,-3.663 0.318,-3.622 0.377,-7.462c0.039,-0.081 -0.005,-0.108 0.329,-1.242c0.002,-1.268 -0.081,-7.658 0.168,-8.591c0.581,-2.181 0.17,-2.296 0.184,-10.025l0.271,-1.277l0.094,-4.931c0.086,-0.684 0.172,-1.368 0.258,-2.052c0.009,-0.797 0.078,-7.056 0.133,-9.958l0.11,-1.216c0.045,-4.801 0.072,-4.721 0.108,-9.541c0.087,-0.403 0.175,-0.806 0.262,-1.208c0.003,-0.273 0.069,-0.21 0.105,-9.968l0.006,-0.416c0.334,-1.441 0.199,-1.437 0.29,-3.711c0.06,-11.222 0.349,-11.153 0.39,-22.361c0.089,-0.534 0.178,-1.068 0.267,-1.602c0.21,-11.14 1.103,-12.279 1.142,-22.404c0.014,-3.536 -0.059,-3.523 0.089,-4.882c0.079,-0.291 0.159,-0.583 0.238,-0.874c0.027,-2.779 0.049,-2.707 0.075,-5.427c0.143,-0.61 0.147,-0.532 0.113,-1.154c0.06,-0.162 0.12,-0.323 0.18,-0.485c0.008,-0.995 0.085,-10.972 0.076,-12.44c0.116,-0.597 -0.004,-0.579 0.114,-1.188c0.008,-0.042 0,-0 0.161,-0.456c0.044,-6.032 0.044,-5.946 0.056,-12.004c0.064,-0.682 0.128,-1.364 0.191,-2.046c0.195,-24.502 0.734,-38.357 0.263,-40.688c-0.021,-0.118 0.036,-0.125 -0.177,-1.533c-0.135,-23.442 -0.286,-23.381 -0.279,-46.79c0.069,-0.412 0.139,-0.825 0.208,-1.237c-0.002,-1.69 -0.162,-1.652 -0.227,-21.12c-0.19,-0.881 -0.294,-1.505 -0.316,-1.638c-0.024,-6.652 -0.023,-6.569 -0.068,-13.265c-0.054,-0.178 -0.108,-0.356 -0.162,-0.535c0.009,-0.638 -0.007,-0.546 -0.134,-1.109c-0.049,-6.273 -0.047,-6.174 -0.083,-12.455c-0.075,-0.299 -0.149,-0.597 -0.224,-0.896c-0.216,-2.819 -0.048,-8.443 -0.171,-9.352c-0.349,-2.573 -0.27,-2.542 -0.327,-5.863c-0.013,-1.982 0.006,-1.903 0.004,-2.069c0.027,-2.173 -0.897,-4.245 -1.03,-4.542l-0.349,-0.58c-2.66,-7.357 4.501,-6.167 6.758,-6.713c0.272,-0.133 0.545,-0.266 0.817,-0.398c1.168,-0.096 2.336,-0.192 3.503,-0.289l0.615,-0.372c2.347,-0.925 4.812,-2.011 21.264,-1.351c1.758,0.85 1.741,0.465 3.705,0.593c0.548,0.172 1.096,0.345 1.644,0.517c2.592,0.198 2.561,0.148 5.168,0.211c0.35,0.108 0.699,0.215 1.049,0.323c4.944,0.767 4.905,0.831 9.879,1.124c0.835,0.281 0.816,0.282 1.653,-0.004c2.919,-0.009 2.874,-0.341 5.792,0.117l0.598,0.245c0.838,0.064 0.809,0.086 1.656,0.011c0.274,-0.021 0.549,-0.042 0.823,-0.063c2.684,0.415 2.666,0.013 5.364,0.405c0.276,0.129 0.551,0.258 0.827,0.387c4.431,0.374 4.489,-0.605 8.658,2.254c0.206,0.371 0.166,0.394 0.43,0.609c0.838,1.394 0.489,2.251 0.552,2.969c0.018,0.58 0.023,0.513 -0.047,1.052c-0.316,0.599 -0.632,1.197 -0.948,1.796c-0.338,0.112 -0.676,0.225 -1.014,0.337c-4.026,0.021 -3.987,0.021 -8.044,-0.003c-0.216,-0.176 -0.431,-0.352 -0.647,-0.529c-0.284,-0.041 -0.274,-0.165 -8.431,-0.201c-0.497,-0.247 -0.891,-0.442 -6.395,-0.667c-1.167,-0.016 -2.333,-0.031 -3.5,-0.047c-0.948,0.024 -0.944,-0.007 -1.024,0.026c-2.327,0.98 0.557,0.822 0.616,0.819c0.149,0.032 1.152,0.25 1.819,0.865c3.022,2.781 7.582,-3.352 9.996,3.897c0.71,2.133 0.585,2.26 0.682,19.56c-0,0.543 -0,1.086 -0,1.63c-0.034,1.929 -0.084,1.856 0.037,3.781c0.074,1.069 0.078,1.017 0.29,1.993c0.842,1.002 0.897,0.449 6.762,0.366c0.42,-0.079 0.839,-0.158 1.259,-0.237c0.576,-0.804 0.631,-0.389 3.714,-0.23c0.179,0.086 0.358,0.172 0.536,0.258c1.34,4.063 0.126,8.089 -0.053,8.683c-0.146,0.485 -0.381,1.264 -3.395,1.955c-0.354,0.31 -0.314,0.358 -0.616,0.439c-0.298,0.048 -0.621,0.101 -3.738,0.194c-1.511,0.717 -1.528,-0.148 -3.074,0.495c-0.109,0.011 -2.975,0.305 -1.246,1.097c1.179,0.428 1.158,0.158 2.077,0.029c0.643,0.143 0.608,0.169 1.24,0.521l1.231,0.017c0.623,-0.056 1.245,-0.111 1.868,-0.167c0.546,-0.158 1.093,-0.317 1.639,-0.475c4.505,-0.076 4.485,-0.467 6.217,0.191c0.397,0.081 0.795,0.162 1.192,0.242c2.196,1.066 1.725,-1.406 1.809,-5.891c0.232,-2.334 0.214,-2.285 0.237,-2.482c0.079,-5.832 0.087,-5.734 0.097,-11.585c0.074,-0.798 0.148,-1.596 0.223,-2.394c0.179,-1.715 0.086,-1.644 0.061,-3.406l-0.004,-0.399c0.194,-9.382 -0.061,-9.289 0.073,-18.634c0.015,-1.048 1.983,-4.047 3.274,-2.799c3.161,3.055 2.508,6.567 2.51,19.768c-0.115,1.058 -0.172,1.014 -0.001,2.07c-0.079,4.387 -0.208,4.306 -0.331,8.706l-0.004,0.394c-0.022,8.488 -0.065,8.424 -0.068,8.706c-0.049,0.549 -0.098,1.098 -0.147,1.647c-0.049,5.605 -0.165,5.559 0.025,11.109l-0.033,0.901l0.008,1.657c0.074,1.535 0.049,1.494 0.058,1.623c-0.405,0.682 -0.711,12.516 -0.165,15.346c0.501,1.64 1.684,2.159 2.533,3.234Zm-36.142,315.468c0.028,7.459 0.424,7.95 -0.222,8.486c-0.395,0.328 -0.389,0.033 -5.341,0.054l-0.204,-0.326c-0.547,-0.188 -0.534,-0.298 -1.017,0.193c-0.194,0.158 -0.388,0.316 -0.581,0.474l-0.052,0.25c-2.603,0.082 -2.574,0.085 -5.173,0.206c-0.113,-0.04 -4.042,-1.451 -1.42,0.325l-0.217,0.182c-1.914,-0.005 -4.932,0.233 -5.268,-0.493c-0.618,-1.335 -1.252,-23.012 -0.084,-23.231c1.302,-0.244 1.176,-0.919 2.414,-1.596c0.535,0.077 0.469,-0.213 0.643,-1.19c0.103,0.054 1.004,1.317 0.601,-0.725l-0.016,-0.841l0.198,-0.083c0.137,-0.572 0.147,-0.549 0.02,-1.196c0.418,-1.075 0.362,-1.068 0.447,-2.441c0.309,-0.89 0.202,-0.924 0.275,-2.058c0.119,-4.627 0.065,-4.616 0.128,-4.996c0.772,-4.673 -0.193,-7.802 0.408,-22.347c0.421,-1.515 0.217,-1.593 0.185,-5.765l-0.002,-2.482c0.018,-2.319 0.015,-2.304 0.019,-2.505c0.005,-0.244 0.058,-0.137 0.062,-0.33c0.203,-0.107 0.407,-0.214 0.61,-0.321c1.508,0.181 1.828,1.98 2.661,-0.563l2.475,-0.069c0.554,-0.016 0.507,-0.039 1.029,-0.432c1.266,-0.16 4.557,-0.331 4.953,-0.352c0.135,-0.031 1.534,-0.347 1.693,0.39c0.158,0.733 0.052,0.735 0.121,9.983c-0.22,1.684 -0.614,2.542 0.232,2.479c0.231,2.398 0.008,3.748 -0.015,4.14c-0.913,-0.172 -0.776,2.98 0.01,2.894c0.086,1.24 0.092,1.163 -0,2.484c-0.368,-0.063 -0.49,-0.158 -0.501,0.769c0.009,0.167 0.018,0.335 0.027,0.502c-0.132,5.772 0.256,5.769 0.489,5.767c0.117,1.194 0.082,2.781 0.085,12.418c0,0.687 0.001,1.374 0.001,2.061c0.004,7.083 -0.001,7.005 0.044,14.094c-0.128,1.508 -0.164,1.444 0.019,2.868l-0.012,1.261c-0.261,1.269 -0.389,1.696 0.276,2.062Zm25.296,-211.517c-0.72,0.022 -0.284,1.705 -0.218,2.491c-0.2,3.918 0.142,14.691 -0.244,17.051c-0.064,0.251 -0.128,0.503 -0.192,0.754c0.014,6.216 0.049,6.177 -0.092,10.34c-0.473,-0.025 -0.37,0.331 -0.246,1.232c-0.027,0.975 -0.053,1.95 -0.08,2.926c-0.561,-0.451 -0.558,-0.202 -1.11,0.394c-0.206,0.008 -0.412,0.017 -0.618,0.025c-0.333,-0.203 -0.296,-0.196 -0.621,-0c-3.119,-0.525 -7.153,-0.309 -9.075,-0.014c-0.014,-0.015 -0.992,-0.906 -0.187,0.093c-1.991,0.701 -6.798,0.242 -6.983,0.137c-0.37,-0.207 -0.178,-38.364 -0.106,-39.605c0.2,-0.449 0.23,-0.367 0.261,-0.782c0.083,-0.192 0.058,-0.522 5.987,-0.682c1.043,0.374 1.199,1.177 1.857,-0.422c0.889,-0.003 1.779,-0.006 2.668,-0.009c0.492,1.06 0.56,0.719 1.242,0.451c1.997,0.057 3.995,0.113 5.992,0.17c0.169,0.589 0.344,1.41 1.447,0.46c0.833,1.066 0.363,1.518 0.317,4.99Zm-1.432,124.562c-0.776,0.218 -0.483,6.107 -0.457,6.641c0.022,0.443 0.097,0.439 0.117,0.438c0.208,-0.01 0.051,-0.447 0.281,-0.458c0.057,1.402 0.149,1.392 -0.199,2.574c-0.289,1.196 -2.111,0.379 -4.4,0.903l-0.212,-0.017c-0.333,-0.287 -0.321,-0.264 -0.626,-0.004l-0.209,-0l-0.205,-0.005c-1.227,-4.449 -1.842,-1.636 -4.119,0.469c-1.65,0.015 -3.3,0.031 -4.95,0.046c-0.757,-0.374 -0.765,-0.834 -1.447,-0.019l-0.198,0.128c-0.212,-0.001 -0.424,-0.002 -0.637,-0.004c-0.198,-0.045 -0.397,-0.089 -0.595,-0.134c-0.328,-0.03 -0.292,0.006 -0.623,-0.184l0.17,-0.406c0.084,-1.674 0.112,-1.622 0.069,-3.311c-0.033,-0.752 -0.066,-0.669 -0.351,-1.2c-0.028,-2.784 -0.318,-31.657 0.105,-34.801c0.257,0.957 0.39,0.393 1.443,-0.111c3.863,0.175 3.842,0.059 4.533,-0.011c1.055,0.539 1.035,0.532 2.068,0.039c6.457,1.035 9.196,-1.025 9.921,1.267c-0.064,0.16 -1.052,2.644 0.15,2.539c0.318,23.59 0.394,23.571 0.372,25.621Zm2.894,-211.076c-0.143,0.273 -0.869,1.659 -0.238,4.934c-0.039,0.891 -0.072,0.803 -0.074,1.707c-0.047,17.897 0.379,20.249 -0.853,20.764l-0.239,-0.345c-0.302,-0.745 -0.346,-0.344 -0.794,-0.085l-0.825,-0.012c-3.917,-0.115 -3.888,-0.114 -7.83,-0.236c-0.517,-1.245 -0.633,-0.631 -1.445,-0.375c-5.904,-0.254 -7.783,0.808 -7.061,-4.031c0.072,-0.13 0.14,0.526 0.212,0.396c0,0 -0.067,-1.046 -0.073,-1.137c0.096,-5.039 0.082,-4.977 0.136,-9.958c0.507,-0.338 0.427,-0.595 0.248,-1.648c0.064,-2.295 0.073,-2.339 0.108,-2.53c0.632,-3.38 -0.042,-3.573 0.421,-7.032c0.01,0.037 0.361,1.315 0.263,0.031c-0.111,-1.45 0.167,-1.443 -0.032,-2.91c0.055,-4.53 -0.675,-5.643 0.609,-6.237c0.054,-0.025 1.707,-0.16 1.855,-0.172c0.686,0.307 0.969,0.961 1.046,-0.418c1.519,-0.18 1.51,-0.17 1.641,-0.194c0.456,-0.085 0.406,-0.229 0.837,-0.309l0.193,0.189c0.454,0.309 0.463,0.663 0.816,0.087l0.011,-0.501c3.924,-0.321 5.709,-0.05 8.254,-0.119c0.727,-0.02 0.654,-1.028 2.275,-0.702c0.877,0.177 0.549,7.477 0.539,10.84Zm-40.281,-89.002c0.053,7.542 0.073,7.442 -0.035,14.938c-0.805,0.149 -0.993,2.14 -0.025,2.06c0.126,1.889 0.04,1.846 0.031,3.32c-0.039,0.072 -0.438,-0.291 -0.446,0.826c-0,0.031 -0.001,0.152 0.048,0.377c0.034,0.157 0.097,0.285 0.131,0.442c-0.041,1.245 -0.099,6.901 -0.105,7.501c-0.085,0.264 -0.169,0.529 -0.254,0.793c-0.136,2.213 -0.364,2.205 -1.5,2.324l-0.193,-0.116c-0.258,-0.272 -0.263,-0.352 -0.516,-0.004l-0.099,0.427c-1.103,0.043 -2.206,0.087 -3.309,0.13c-0.697,-0.977 -3.922,-1.231 -4.327,0.187c-0.247,0.047 -2.2,0.419 -3.096,0.486c-1.135,0.085 -0.504,-1.476 -0.548,-31.179c-0.002,-1.488 -1.204,-4.271 -2.554,-5.314c-0.73,-0.428 -0.708,-0.545 -1.438,-0.109c-0.485,-0.493 -0.597,-0.453 -0.756,0.649c-0.399,0.666 -1.16,1.938 -6.465,0.994c0.236,-0.378 0.308,-0.668 0.007,-0.676c-0.292,-0.007 -0.226,0.214 -0.414,0.789c-0.449,-0.048 -0.403,-0.089 -0.84,-0.412c-1.91,-1.412 -5.207,-0.747 -3.496,-1.716c2.584,-1.464 8.348,-1.524 9.077,-1.532c0.532,1.179 1.725,0.251 1.865,0.143c0.616,0.009 1.231,0.018 1.847,0.028c1.114,0.477 1.719,0.081 1.861,-0.011c3.728,0.253 3.693,0.127 7.425,0.083c0.446,0.547 0.425,0.933 1.035,0.409c3.072,0.214 3.038,0.739 3.304,0.748c2.159,0.076 2.961,-1.947 3.499,2.203c-0.14,0.559 -0.329,0.978 0.288,1.21Zm-5.842,287.698c-0.129,0.197 -0.707,-0.165 -0.332,2.061c-0.006,12.145 0.092,12.149 -0.08,14.089c-0.404,-0.315 -0.499,0.122 -0.237,0.805c-0.009,0.286 -0.018,0.572 -0.027,0.858c0.607,2.479 0.008,2.568 0.013,5.369c-0.215,1.471 -0.465,1.57 0.009,2.839c-0.179,0.193 -10.14,2.279 -10.441,1.244c-0.104,-0.355 -0.036,-0.398 -0.067,-17.747l-0.002,-1.657c0.012,-2.483 0.025,-4.967 0.037,-7.45c0.739,-0.421 0.364,-1.065 0.33,-8.687l-0.005,-3.735c-0.001,-0.549 -0.002,-1.098 -0.004,-1.647c0.144,-4.383 1.268,-2.154 5.436,-2.757l0.198,0.144c0.374,0.382 0.398,0.439 0.724,-0.068l0.097,-0.361l0.831,-0.02c0.318,1.116 0.442,0.869 1.03,0.47c0.392,0.374 0.391,0.421 0.728,-0.049l0.091,-0.407c0.141,0.004 1.663,0.041 1.693,0.968c0.259,7.925 0.02,7.84 -0.021,15.737Zm18.961,-60.847c-0.74,-0.11 -0.498,0.648 -0.245,2.063c-0.113,15.005 -0.046,14.903 -0.051,29.808c-0.001,1.948 -0.456,1.389 -2.592,1.124c-1.23,-0.754 -1.23,-0.54 -2.472,0.018l-0.414,-0.012c-1.152,-1.164 -3.758,-1.125 -4.121,0.216c-2.2,-0.051 -3.488,0.687 -2.771,-3.508c0.14,-0.261 1.287,-2.406 -0.012,-4.792c-0.148,-3.41 -0.073,-3.357 -0.031,-12.928c0.265,0.236 0.309,0.548 0.458,-0.038c0.018,-0.071 0.194,-0.909 -0.462,-0.352c0,-1.653 0.001,-3.305 0.001,-4.958c0.71,-0.021 0.354,-0.695 0.218,-2.089c0.042,-0.625 0.394,-5.889 -0.097,-7.88c0.298,-0.552 0.336,-0.512 6.817,-0.845l0.587,-0.144c0.568,-0.327 0.547,-0.201 2.3,-0.363c0.739,0.332 0.716,0.439 1.447,-0.005c0.838,-0.102 1.898,-0.156 1.44,4.686Zm-34.672,-1.248c-0.614,-0.001 -0.49,0.503 -0.263,1.649c-0.004,1.659 -0.394,20.166 -0.431,21.919c-0.548,0.133 -0.345,0.528 -0.263,0.889c-0.052,9.115 -0.033,9.1 -0.09,9.882c-0.067,0.926 -1.982,0.634 -2.025,0.636c-0.404,-0.349 -0.53,-1.255 -1.038,0.186c-3.415,-0.055 -3.384,0.101 -6.807,0.015c-0.062,-0.177 -0.499,-1.724 -1.611,-0.173c-0.182,-0.481 -0.189,-0.427 -0.262,-1.055c0.001,-0.966 0.002,-1.932 0.003,-2.899c0.005,-2.352 0.147,-2.316 0.39,-29.39l0.186,-0.085c0.264,-0.467 0.151,-0.541 0.031,-1.154l-0.092,-0.384c0.13,-3.016 0.564,-2.711 1.562,-2.528c0.407,0.338 0.387,0.28 0.826,0.32c8.897,0.247 10.056,-0.613 9.882,2.171Zm35.744,-98.528c0.046,4.359 0.107,4.328 -0.016,5.84c-0.251,0.55 -0.386,0.476 -0.236,1.218c-0.095,3.075 0.027,6.187 -0.217,8.265c-0.236,0.508 -0.168,0.527 -0.168,1.257c-0.012,11.285 0.359,15.195 -1.278,15.584c-0.348,-0.081 -0.307,0.008 -0.608,0.365l-1.024,0.046l-0.205,-0.421c-4.789,-0.137 -4.759,-0.036 -9.555,-0.084c-0.154,-0.441 -0.231,-0.653 -0.362,-0.15c-0.32,-2.538 -0.352,-2.505 -0.083,-5.067c0.587,0.176 0.402,-0.443 0.243,-1.579c0.009,-9.029 -0.079,-9.021 0.092,-11.576c0.796,-1.33 0.042,-1.263 -0.009,-1.258c-0.052,-1.619 -0.118,-1.569 0.015,-2.027c0.605,-2.08 -0.09,-8.597 0.533,-10.049c0.072,-0.27 0.144,-0.541 0.216,-0.811c0.495,-0.914 4.053,-0.593 8.914,-0.517l0.611,0.002l2.488,-0.007c0.173,0.949 0.14,1.274 0.648,0.97Zm-19.77,59.636l0.003,1.224c-0.005,1.857 -0.056,20.107 0.005,23.218c0.002,0.086 0.125,0.754 -1.523,0.802c-0.931,-1.139 -0.925,-0.172 -1.189,0.116l-0.047,0.365c-0.468,-0.008 -0.467,0.226 -0.869,-0.356c-0.297,-1.088 -0.561,-0.808 -0.777,0.358c-4.387,1.062 -4.949,-0.214 -5.226,-0.844c0.656,-0.918 0.588,-5.396 -0.058,-5.453c-0.028,-1.704 -0.133,-1.629 0.058,-3.369c0.089,-0.528 0.178,-1.056 0.267,-1.583c0.011,-0.197 0.128,-2.392 0.118,-2.461c-0.242,-1.677 -0.192,0.358 -0.337,2.053c-0.068,-1.69 -0.09,-1.604 -0.081,-3.365c0.875,-1.692 0.363,-2.028 0.272,-4.504c-0.025,-1.109 -0.049,-2.219 -0.074,-3.328c0.114,-1.455 0.46,-1.815 -0.193,-2.43c-0.012,-0.699 -0.023,-1.398 -0.035,-2.097c0.659,-1.255 0.409,-1.463 0.299,-3.321c0.169,-1.768 0.129,-2.286 0.114,-2.483c-0.038,-0.28 -0.076,-0.561 -0.114,-0.841l0.003,-0.405c0.002,-1.721 0.367,-2.332 -0.304,-2.518c-0.002,-1.702 -0.341,-2.064 0.522,-3.358c0.638,0.522 0.647,0.642 1.264,-0.083c0.331,-0.037 7.877,-1.802 7.91,0.147c0.033,2 0.014,1.98 -0.008,14.516Zm2.79,-101.421c-0.619,-0.053 -0.489,0.49 -0.261,1.644c-0.011,5.437 -0.353,5.322 -0.464,10.761c-0.034,0.007 -1.174,0.618 0.004,0.861c-0.007,0.233 -0.382,7.107 -0.45,7.484c-0.347,0.654 -0.199,0.708 -0.18,1.6c-0.011,5.315 0.239,5.432 -0.236,7.088c-0.605,2.106 -0.901,1.058 -2.924,1.236l-0.204,0.019c-0.552,-0.443 -0.565,-0.324 -1.031,0.472l-0.207,0.009c-0.665,-0.553 -0.762,-0.927 -1.239,0.154c-3.355,0.299 -5.021,2.722 -4.931,-3.998l0.134,-0.154c0.468,-0.884 0.33,-1.013 0.178,-2.323c-0.019,-1.94 -0.038,-3.88 -0.058,-5.82c0.164,-2.758 0.471,-3.061 -0.098,-3.655l-0.131,-0.062c-0.102,-2.114 -0.068,-2.031 -0.006,-4.144c1.123,0.177 0.435,-1.086 0.28,-3.709c-0.144,-3.756 -0.335,-3.679 -0.32,-7.459c0.214,-0.092 0.143,-0.178 0.293,-1.13c0.109,-0.173 0.217,-0.346 0.326,-0.518l0.412,-0.004c0.218,0.124 0.207,0.22 0.356,-0.13l0.046,-0.353c0.315,-0.021 3.104,-0.203 3.936,-0.302c0.179,0.173 1.853,1.782 2.471,-0.59c0.33,-0.004 3.917,-0.042 4.126,0.124c0.285,0.227 0.188,2.666 0.179,2.898Zm-18.084,58.815c-0.157,0.357 -0.859,2.734 0.017,3.675c-0.005,0.704 -0.01,1.407 -0.014,2.111c-0.544,0.599 -0.262,0.953 -0.251,6.595c0.248,2.827 1.2,4.426 -0.83,5.269c-0.363,-0.262 -0.909,-1.335 -2.04,-0.218c-0.058,0.169 -0.116,0.337 -0.174,0.506l-0.044,0.281c-1.798,0.103 -1.753,0.186 -3.525,0.213c-0.383,-0.188 -1.399,-1.247 -1.438,0.46c-0.275,0.004 -0.551,0.009 -0.826,0.013c0.479,-2.642 -0.582,0.031 -0.613,0.109c-0.352,-0.11 -0.301,-0.127 -0.589,-0.469c-0.009,-0.813 -0.018,-1.626 -0.026,-2.439c0.013,-5.417 0.007,-5.358 0.07,-10.734c0.553,-0.163 0.301,-0.564 0.285,-1.681l0.004,-1.247c0.002,-0.687 0.003,-1.374 0.005,-2.061c-0.011,-11.46 -0.117,-13.016 0.172,-14.612c0.078,-1.09 0.139,-1.026 0.108,-2.159c0.122,0.065 0.161,0.085 1.431,1.343c0.366,0.422 0.341,0.38 0.798,0.312c0.533,0.1 0.477,0.198 1.04,0.304c0.1,0.019 0.092,0.012 1.249,0.16c0.012,0.265 0.024,0.531 0.036,0.796c0.192,-0.105 0.384,-0.211 0.576,-0.316c0.205,-0.068 0.41,-0.135 0.615,-0.203c0.278,0.032 0.556,0.063 0.834,0.095c0.276,0.313 0.378,0.302 0.394,-0.362c2.315,-0.161 2.802,-1.204 2.832,0.581c0.09,5.428 -0.067,12.584 -0.092,13.678Zm38.51,-99.363c0.09,0.824 0.062,0.745 0.057,1.66c-0.562,0.264 -0.507,0.587 -0.286,1.624c-0.046,2.499 -0.118,8.028 -0.127,8.726c-0.198,0.226 -0.37,0.213 -0.261,2.88c-0.006,0.712 -0.062,7.158 -0.525,8.835c-0.351,-0.041 -0.463,-0.233 -0.451,0.441c-0.337,0.174 -0.399,0.206 -4.349,0.391c-0.309,-0.261 -0.295,-0.307 -0.635,-0.018c-0.131,0.042 -0.262,0.084 -0.393,0.127c-0.346,-0.029 -0.692,-0.057 -1.038,-0.086c-1.302,-0.156 -1.431,-0.512 -1.653,0.448c-1.037,0.184 -3.594,0.147 -3.725,0.205c-1.047,0.459 -0.431,-0.953 -0.425,-3.722c0.488,-0.408 0.42,-0.59 0.292,-1.624c0.034,-1.673 0.069,-3.346 0.103,-5.02c0.089,-0.264 0.179,-0.529 0.268,-0.793c0.023,-3.391 -0.329,-3.414 0.171,-6.639c0.125,0.508 0.173,0.126 0.192,-0.414c0.164,-6.14 -0.011,-6.243 0.39,-7.544c0.171,0.103 0.817,0.98 1.895,0.089c0.277,-0.342 0.24,-0.337 0.412,-0.883c1.17,-0.029 2.339,-0.059 3.509,-0.088c1.601,0.563 2.461,0.163 2.669,0.066c1.133,-0.032 1.29,1.187 2.051,-0.463l0.032,-0.174c0.843,-0.055 0.882,-0.576 1.562,0.398c-0.231,1.089 -0.322,1.559 0.264,1.578Zm-38.11,9.112c-0.959,-0.064 -0.424,0.939 -0.261,2.875c-0.017,4.176 -0.031,4.089 0.006,8.285c-0.136,1.896 -0.24,1.839 0.001,3.721c-0.071,1.888 0.196,2.084 -0.383,3.044c-0.443,-0.598 -0.41,-0.607 -0.64,-0.791c-0.272,0.074 -0.545,0.148 -0.817,0.222c-1.063,0.08 -1.036,-0.038 -2.075,-0.073c-0.314,-0.096 -0.282,-0.077 -0.606,0.094l-0.416,0.115c-0.858,-0.131 -0.824,-0.234 -1.629,-0.675c-1.4,-0.767 -3.845,0.995 -3.927,0.914c-0.36,-0.352 -0.336,-7.19 -0.333,-7.818c0.116,-0.116 0.85,-0.269 0.011,-1.247c-0.017,-5.378 -0.033,-10.756 -0.05,-16.134c-0.031,-0.943 0.107,-1.033 -0.29,-1.621c-0.165,-2.47 -0.087,-2.413 -0.104,-6.671l0.087,-0.426c0.124,-0.394 0.249,-0.789 0.373,-1.183c1.846,5.72 1.928,6.243 6.074,7.638c1.135,2.097 4.176,1.773 4.537,0.583c0.32,0.299 0.815,1.112 0.441,9.148Zm15.493,73.593c0.12,1.12 0.086,1.043 0.019,2.201c-0.092,0.255 -0.184,0.51 -0.276,0.765c-0.566,0.22 -0.522,0.12 -1.658,0.131c-0.634,-0.156 -0.602,-0.053 -1.229,0.024c-0.459,-0.025 -5.665,-0.303 -5.738,-0.347c-2.839,-1.726 2.612,-2.126 2.856,-2.144c0.134,0.056 0.267,0.112 0.401,0.168c0.206,0.117 0.413,0.235 0.619,0.352c0.557,-0.555 0.076,-0.693 0.016,-0.885c1.094,-0.086 2.189,-0.172 3.283,-0.258c0.349,0.382 0.343,0.132 0.612,-0.419c0.283,-0 0.567,-0.001 0.85,-0.001c-0.012,0.066 -0.146,0.825 -0.146,0.825c0.156,0.525 0.125,-0.132 0.391,-0.412Zm16.449,145.371l-0.221,-0.264c-0.447,-0.503 -0.513,-0.521 -0.804,0.373c-4.408,-1.432 -4.422,-0.316 -8.862,-0.807c-0.41,-0.349 -0.386,-0.431 -0.844,-0.126c-1.297,-1.811 2.123,-0.911 4.959,-1.201c6.55,-0.669 6.844,0.08 6.739,1.145c-0.102,1.033 -0.883,0.895 -0.967,0.88Zm-20.213,54.659l-0.206,0.01c-0.321,-0.242 -0.309,-0.228 -0.622,0.001l-0.208,-0.015c-2.383,-0.112 -2.344,-0.104 -4.742,-0.141c-0.417,-0.217 -0.391,-0.24 -0.824,0.082l-0.377,-0.124l-0.023,-0.667c0.071,-0.103 0.141,-0.207 0.212,-0.31c0.672,0.183 0.973,0.948 1.026,-0.362c3.954,-0.179 8.155,-2.089 7.923,0.269c-0.225,2.29 -0.707,1.075 -2.159,1.258Zm-17.323,-296.151c-0.678,0.433 -0.815,0.176 -1.051,1.504c-0.71,-0.214 -2.756,-1.896 -3.768,1.05c-0.435,1.267 -0.57,1.085 -0.641,2.605c-0.124,0.394 -0.249,0.789 -0.373,1.183c0.051,-0.928 0.142,-1.272 -0.336,-1.216c-0.12,-6.856 1.134,-5.714 1.623,-5.759c0.308,0.862 0.38,0.756 0.837,0.175c3.339,0.308 3.343,0.22 3.709,0.457Zm5.363,2.315c-0.514,-0.445 -0.482,-0.734 -1.041,-0.364c-3.747,-0.062 -4.945,-0.346 -5.372,-0.447c0.236,-1.328 0.373,-1.071 1.051,-1.504c3.66,0.403 7.273,-0.273 5.363,2.315Zm56.462,359.251l0.034,2.003c-0.037,2.996 0.147,3.233 -0.21,3.52c-0.76,0.611 -0.896,-2.071 -0.908,-2.305c-0.147,-2.896 -0.143,-4.87 1.083,-3.219Zm3.776,-327.829c1.145,-0.009 0.926,2.148 -0.213,2.177c-2.542,0.065 -1.81,-2.175 -1.656,-2.267c0.063,-0.038 0.061,0.008 0.823,0.103c0.208,0.097 0.417,0.194 0.625,0.291c0.14,-0.101 0.281,-0.202 0.421,-0.304Zm-28.889,94.586c-1.02,0.017 -7.708,0.235 -9.731,-0.063l-0.029,-0.441c4.796,0.048 4.766,-0.054 9.555,0.084l0.205,0.421Zm-31.559,-114.943c-0.361,1.19 -3.403,1.514 -4.537,-0.583c2.251,1.035 2.228,0.613 4.537,0.583Zm60.554,82.514l-0.112,1.119c-2.262,0.033 -2.213,-1.055 -2.072,-1.258c0.041,-0.058 1.419,-0.7 2.184,0.139Zm-8.162,182.929c-2.077,-0.046 -2.079,-0.517 -4.119,0.469c2.276,-2.105 2.892,-4.918 4.119,-0.469Zm-37.752,-277.13c-2.196,0.048 -2.157,0.121 -4.327,0.187c0.405,-1.418 3.63,-1.164 4.327,-0.187Zm13.62,226.832c-0.33,0.008 -0.318,0.06 -4.121,0.216c0.363,-1.342 2.969,-1.38 4.121,-0.216Zm5.753,85.379c-0.088,1.596 -0.09,1.586 -0.095,1.724c-0.014,0.42 0.056,0.341 0.041,0.774c-0.005,0.164 -0.269,1.955 0.016,4.143l0.053,0.396c-0.233,0.002 -0.621,0.005 -0.489,-5.767c-0.009,-0.167 -0.018,-0.335 -0.027,-0.502c0.011,-0.927 0.133,-0.832 0.501,-0.769Zm-34.209,-273.45c-2.31,-0.297 -2.333,0.898 -4.555,-0.433l0.416,-0.115c0.202,-0.031 0.404,-0.063 0.606,-0.094c1.039,0.035 1.013,0.153 2.075,0.073c0.272,-0.074 0.545,-0.148 0.817,-0.222c0.23,0.184 0.197,0.193 0.64,0.791Zm5.907,139.813c0.007,-0.436 -0.035,-0.426 -0.058,-5.453c0.645,0.057 0.714,4.535 0.058,5.453Zm52.591,88.484c-0.212,2.12 -0.101,2.076 -0.058,6.621c-0.23,0.012 -0.073,0.448 -0.281,0.458c-0.02,0.001 -0.095,0.005 -0.117,-0.438c-0.027,-0.534 -0.319,-6.422 0.457,-6.641Zm-44.482,-217.81c-0.617,2.372 -2.291,0.762 -2.471,0.59c1.583,-0.905 1.663,-0.487 2.471,-0.59Zm47.376,6.734c-0.018,3.265 -0.146,3.16 -0.238,4.934c-0.632,-3.276 0.094,-4.661 0.238,-4.934Zm-56.922,190.42c0.034,7.622 0.409,8.266 -0.33,8.687c0.202,-1.457 0.232,-1.372 0.19,-2.899l0.011,-2.478c0.009,-0.501 0.012,-0.444 0.129,-3.31Zm17.168,-55.899c0.491,1.991 0.139,7.255 0.097,7.88c-0.048,-5.077 -0.17,-6.491 -0.218,-7.048c-0.006,-0.068 0,0 0.121,-0.832Zm2.073,100.192c-0.833,2.543 -1.153,0.745 -2.661,0.563c1.303,-0.745 1.287,-0.464 2.661,-0.563Zm10.488,16.138c0.003,0.965 0.006,1.929 0.01,2.894c-0.786,0.086 -0.922,-3.065 -0.01,-2.894Zm-2.858,-80.007c-0.824,0.006 -1.648,0.012 -2.472,0.018c1.242,-0.558 1.242,-0.771 2.472,-0.018Zm-9.79,-8.078c1.299,2.386 0.152,4.53 0.012,4.792c0.004,-0.383 0.039,-3.628 -0.012,-4.792Zm18.707,54.966c-0.023,1.104 -0.046,2.207 -0.069,3.311l-0.17,0.406c-0.009,-0.442 -0.056,-0.353 -0.065,-0.811c-0.006,-0.328 -0.004,-0.304 -0.048,-4.106c0.285,0.531 0.318,0.448 0.351,1.2Zm17.704,15.133c-1.132,-1.128 0.294,-2.191 0.561,-1.028c0.211,0.919 -0.102,0.694 -0.561,1.028Zm-57.722,-171.975c-0.091,5.026 -0.198,6.077 -0.251,6.595c-0.011,-5.642 -0.293,-5.996 0.251,-6.595Zm6.258,-57.137c0.156,2.623 0.843,3.886 -0.28,3.709l0.015,-0.815c0.055,-0.689 0.111,-1.379 0.166,-2.068l0.099,-0.825Zm51.629,181.702c-1.202,0.105 -0.213,-2.38 -0.15,-2.539c0.035,0.192 0.136,0.74 0.15,2.539Zm-14.81,-187.92c0.199,1.467 -0.078,1.46 0.032,2.91c0.098,1.284 -0.253,0.006 -0.263,-0.031c-0.072,-1.558 -0.24,-1.657 0.231,-2.879Zm-15.069,-42.228c-1.078,0.891 -1.724,0.014 -1.895,-0.089c0.729,-0.602 0.714,-0.25 1.484,-0.317c0.137,0.135 0.274,0.271 0.411,0.406Zm-26.396,-48.979c-0.139,0.108 -1.332,1.036 -1.865,-0.143c1.664,0.103 1.65,0.082 1.865,0.143Zm4.297,182.677l-0.003,0.405c0.038,0.28 0.076,0.561 0.114,0.841c0.015,0.197 0.055,0.715 -0.114,2.483c-0.208,-1.203 -0.454,-1.735 -0.087,-4.141l0.09,0.412Zm53.466,-7.481c-1.103,0.95 -1.278,0.129 -1.447,-0.46c0.726,0.109 0.753,-0.324 1.447,0.46Zm-59.377,-26.42c0.006,1.225 0.011,2.45 0.017,3.675c-0.877,-0.941 -0.174,-3.318 -0.017,-3.675Zm-1.079,17.651l-1.025,0.175c-0.5,-0.299 -0.467,-0.36 -1.015,-0.393c1.131,-1.117 1.677,-0.044 2.04,0.218Zm0.118,-68.188c-1.009,2.186 -0.768,-0.305 -0.744,-0.42c0.296,-1.449 0.717,0.308 0.744,0.42Zm21.799,-78.631l-0.045,0.408c-0.095,0.634 -0.078,0.57 -0.02,1.246l0.039,0.407c-0.968,0.08 -0.78,-1.912 0.025,-2.06Zm-32.434,245.841c-0.537,-0.058 -1.074,-0.115 -1.611,-0.173c1.111,-1.551 1.548,-0.004 1.611,0.173Zm4.733,-98.241c-0.437,0.296 -0.409,0.207 -1.438,0.46c0.039,-1.707 1.055,-0.648 1.438,-0.46Zm54.889,6.916c-0.658,1.599 -0.814,0.795 -1.857,0.422l0.617,-0.128c0.207,-0.098 0.414,-0.195 0.621,-0.293l0.618,-0.001Zm-33.66,141.426c0.183,1.49 0.369,1.498 0.009,2.839c-0.473,-1.268 -0.224,-1.367 -0.009,-2.839Zm-8.458,-117.968c0.09,2.476 0.603,2.811 -0.272,4.504c0.015,-0.362 0.032,-0.264 0.272,-4.504Zm0.028,8.277l-0.138,0.417l-0.081,-0.825c0.145,-1.694 0.095,-3.73 0.337,-2.053c0.01,0.069 -0.107,2.264 -0.118,2.461Zm0.18,-100.519c0.568,0.593 0.262,0.897 0.098,3.655l-0.025,-0.822c-0.054,-1.258 -0.04,-1.216 -0.072,-2.833Zm27.86,235.044c-0.846,0.063 -0.452,-0.795 -0.232,-2.479c0.226,2.323 0.209,2.282 0.232,2.479Zm-28.07,-153.978c0.11,1.858 0.36,2.066 -0.299,3.321c0.136,-1.665 0.135,-1.604 0.299,-3.321Zm28.085,45.115c-0.082,0.688 -0.163,1.375 -0.245,2.063c-0.253,-1.415 -0.495,-2.173 0.245,-2.063Zm0.609,-183.447c-0.208,0.097 -1.069,0.498 -2.669,-0.066l1.038,-0.154c1.079,0.553 1.103,0.215 1.631,0.22Zm-44.488,34.854c-0.124,0.704 -0.095,1.125 -0.408,0.664c-0.266,-0.391 0.038,-2.756 0.408,-0.664Zm10.286,-24.403c-0.051,0.159 -0.103,0.317 -0.154,0.476c-0.028,0.663 -0.057,1.327 -0.085,1.99l-0.022,0.409c-0.163,-1.936 -0.698,-2.939 0.261,-2.875Zm58.224,156.454c-0.423,0.975 -0.488,0.61 -1.11,0.394c0.552,-0.596 0.549,-0.845 1.11,-0.394Zm-44.845,1.646l-0.629,0.31c-0.187,-0.065 -0.373,-0.129 -0.56,-0.194c0.264,-0.288 0.258,-1.255 1.189,-0.116Zm16.723,-142.633c-0.132,0.035 -1.543,0.414 -1.653,0.448c0.222,-0.96 0.351,-0.604 1.653,-0.448Zm3.896,317.71c-0.665,-0.366 -0.537,-0.793 -0.276,-2.062c0.192,1.183 0.192,1.175 0.208,1.278c0.063,0.425 0.007,0.373 0.068,0.784Zm-22.725,-174.952c-0.259,0.119 -0.518,0.238 -0.777,0.358c0.216,-1.166 0.48,-1.445 0.777,-0.358Zm-22.029,-51.869c0.009,0.813 0.018,1.626 0.026,2.439c-0.281,-1.254 -0.452,-1.32 -0.026,-2.439Zm56.945,-80.502c-0.077,1.379 -0.359,0.725 -1.046,0.418c0.526,-0.268 0.484,-0.277 1.046,-0.418Zm-50.341,180.868c-0.346,0.062 -0.692,0.124 -1.038,0.186c0.508,-1.441 0.633,-0.535 1.038,-0.186Zm41.905,-203.825c-0.087,0.96 -0.174,1.92 -0.261,2.88c-0.109,-2.667 0.063,-2.654 0.261,-2.88Zm-16.514,82.761c0.05,-0.004 0.805,-0.071 0.009,1.258c-0.003,-0.419 -0.006,-0.839 -0.009,-1.258Zm38.054,36.001c-0.131,1.252 -0.087,1.184 -0.218,2.491c-0.066,-0.786 -0.503,-2.469 0.218,-2.491Zm-9.393,-59.785c-0.482,-0.125 -0.964,-0.25 -1.445,-0.375c0.812,-0.256 0.929,-0.87 1.445,0.375Zm-39.398,11.982c0.06,0.192 0.541,0.33 -0.016,0.885c-0.206,-0.117 -0.413,-0.235 -0.619,-0.352c-0.134,-0.056 -0.267,-0.112 -0.401,-0.168c0.345,-0.122 0.691,-0.243 1.036,-0.365Zm-13.006,34.219c-0.283,0.058 -0.567,0.116 -0.85,0.174c-0.113,-0.02 -0.227,-0.041 -0.34,-0.061c0.058,-0.169 0.116,-0.337 0.174,-0.506c0.548,0.033 0.516,0.094 1.015,0.393Zm7.746,25.222c0.652,0.615 0.306,0.975 0.193,2.43c-0.193,-1.931 -0.193,-1.918 -0.209,-2.086c-0.022,-0.234 0.033,-0.16 0.016,-0.345Zm23.192,208.419l-0.825,0.133c-0.132,-0.089 -0.264,-0.177 -0.395,-0.266c0.482,-0.491 0.47,-0.381 1.017,-0.193l0.204,0.326Zm-37.962,-232.56l-0.613,0.109c0.031,-0.077 1.092,-2.751 0.613,-0.109Zm21.257,-46.547c-0.622,0.172 -0.58,0.122 -1.239,0.154c0.477,-1.081 0.574,-0.707 1.239,-0.154Zm-4.738,55.584c-0.616,0.725 -0.625,0.605 -1.264,0.083c0.658,-0.226 0.618,-0.224 1.264,-0.083Zm27.672,-44.973c-0.508,0.304 -0.475,-0.021 -0.648,-0.97c0.396,0.299 0.374,0.295 0.648,0.97Zm16.873,42.822c-0.682,0.268 -0.75,0.609 -1.242,-0.451c0.619,0.296 0.601,0.153 1.242,0.451Zm-49.301,-172.806c-0.252,0.216 -0.504,0.433 -0.756,0.649c0.159,-1.102 0.271,-1.142 0.756,-0.649Zm15.24,373.276c-0.174,0.976 -0.108,1.267 -0.643,1.19c0.194,-0.883 0.279,-0.64 0.643,-1.19Zm-2.846,-82.669c-0.027,0.115 -0.011,0.021 -0.091,0.787c0,0 -0.222,1.172 -0.242,1.274c-0.375,-2.226 0.203,-1.864 0.332,-2.061Zm-8.758,-177.554c0.151,1.31 0.289,1.439 -0.178,2.323c0.002,-0.154 0.023,-0.104 0.101,-1.909l0.077,-0.414Zm-6.103,-76.502c-0.981,-0.395 -0.96,-0.32 -1.041,-0.364c0.56,-0.37 0.527,-0.08 1.041,0.364Zm24.822,30.987c0.128,1.035 0.196,1.216 -0.292,1.624c0.276,-1.509 0.264,-1.499 0.292,-1.624Zm-12.451,206.819c-0.588,0.399 -0.712,0.646 -1.03,-0.47l0.416,0.104c0.205,0.122 0.41,0.244 0.614,0.365Zm19.581,1.106c-0.132,0.082 -0.263,0.165 -0.395,0.247l-0.41,0.126c0.291,-0.895 0.358,-0.877 0.804,-0.373Zm-18.339,-276.716c-0.61,0.524 -0.589,0.137 -1.035,-0.409c1.035,0.409 1.031,0.407 1.035,0.409Zm7.716,235.564c0.136,1.395 0.492,2.068 -0.218,2.089c0.024,-0.164 -0.001,-0.132 0.218,-2.089Zm-30.401,-200.533c-0.457,0.581 -0.529,0.687 -0.837,-0.175c0.279,0.058 0.558,0.117 0.837,0.175Zm26.987,54.421c-0.181,0.823 -0.199,0.733 -0.261,1.644c-0.228,-1.154 -0.358,-1.696 0.261,-1.644Zm20.426,-40.548c-0.586,-0.019 -0.494,-0.49 -0.264,-1.578l0.264,1.578Zm-49.18,17.779c0.839,0.978 0.105,1.131 -0.011,1.247c0.004,-0.416 0.007,-0.831 0.011,-1.247Zm24.038,53.462c-0.206,0.133 -0.412,0.266 -0.618,0.4l-0.413,0.072c0.466,-0.795 0.479,-0.915 1.031,-0.472Zm-17.952,-117.25l-0.407,0.114c0.188,-0.576 0.122,-0.796 0.414,-0.789c0.301,0.007 0.229,0.297 -0.007,0.676Zm33.006,44.693c-0.172,0.546 -0.135,0.541 -0.412,0.883c-0.137,-0.135 -0.274,-0.271 -0.411,-0.406c0.274,-0.159 0.548,-0.318 0.823,-0.477Zm10.144,2.977l-0.286,1.624c-0.221,-1.038 -0.276,-1.36 0.286,-1.624Zm-17.011,105.946c0.16,1.136 0.345,1.755 -0.243,1.579l0.243,-1.579Zm-6.938,151.499l-0.237,0.805c-0.262,-0.684 -0.167,-1.12 0.237,-0.805Zm27.701,-204.87c0.178,1.053 0.259,1.31 -0.248,1.648c0.241,-1.534 0.222,-1.52 0.248,-1.648Zm-42.999,126.625c-0.033,0.122 -0.01,0.121 -0.263,1.649c-0.227,-1.146 -0.351,-1.65 0.263,-1.649Zm59.629,-19.451c-0.129,0.488 -0.12,0.448 -0.129,0.488c-0.074,0.36 -0.029,0.315 -0.117,0.743c-0.124,-0.9 -0.227,-1.256 0.246,-1.232Zm-37.67,32.297c0.656,-0.557 0.48,0.282 0.462,0.352c-0.149,0.586 -0.193,0.274 -0.458,0.038l-0.004,-0.39Zm0.479,-79.304l0.029,0.441c-0.13,-0.197 -0.261,-0.394 -0.391,-0.591c0.131,-0.504 0.208,-0.291 0.362,0.15Zm-0.885,-159.146c-0.617,-0.232 -0.428,-0.652 -0.288,-1.21c0.096,0.403 0.192,0.807 0.288,1.21Zm-22.247,249.172c-0.088,0.296 -0.176,0.593 -0.263,0.889c-0.081,-0.361 -0.284,-0.756 0.263,-0.889Zm17.266,-121.724c-0.266,0.28 -0.235,0.937 -0.391,0.412c0,0 0.134,-0.759 0.146,-0.825c0.082,0.138 0.164,0.276 0.245,0.414Zm-18.634,2.4c-0.016,0.664 -0.117,0.675 -0.394,0.362c0.131,-0.121 0.263,-0.241 0.394,-0.362Z" style="fill-opacity:1;"/><path d="M89.002,407.919c-1.269,0.843 -1.284,0.452 -2.085,0.601c-0.729,0.135 -0.671,13.439 -1.201,13.512c-2.302,0.316 -2.273,0.196 -2.47,0.225c1.4,-3.522 1.883,-3.3 1.729,-7.819c-0.009,-0.268 0.172,-0.176 0.412,-3.257c0.121,-1.557 0.335,-1.394 0.374,-2.91c0.025,-0.945 1.644,-0.675 1.789,-0.651c0.484,0.1 0.968,0.2 1.452,0.3Z" style="fill-opacity:0.92;"/><path d="M92.082,336.36c0.147,0.086 0.61,0.358 0.683,3.593c0.083,3.65 0.757,5.259 -1.081,5.49c-0.031,0.004 -0.138,0.017 -0.355,0.326c-0.008,-0.408 -0.015,-0.817 -0.023,-1.225c0.09,-1.885 0.152,-1.817 0.24,-3.747c0.265,-2.241 0.674,-2.418 -0.064,-4.176c0.2,-0.087 0.4,-0.174 0.6,-0.261Z" style="fill-opacity:0.93;"/><path d="M91.909,67.621c-0.309,7.818 -0.293,7.738 -0.331,7.895c-0.152,-4.167 -0.073,-4.115 -0.176,-8.345l0.004,-0.417c-0.01,-0.129 0.015,-0.088 -0.058,-1.623c0.093,-0.86 0.093,-0.813 -0.008,-1.657l0.033,-0.901c0.644,0.742 0.42,1.017 0.387,2.503c0.011,1.367 0.017,1.274 0.15,2.545Z" style="fill-opacity:0.31;"/><path d="M90.747,250.935c-0.771,5.876 -0.323,-6.773 0.11,-6.772c0.752,0.002 0.303,0.838 -0.11,6.772Z" style="fill-opacity:0.33;"/><path d="M91.406,66.754l-0.004,0.417c-0.047,0.927 -0.449,8.904 0.108,11.64c-0.113,1.675 -0.162,1.597 -0.268,3.288c-0.546,-2.83 -0.24,-14.664 0.165,-15.346Z" style="fill-opacity:0.85;"/><path d="M90.009,112.723c0.264,2.029 0.415,14.387 -0.121,15.31c0.069,-7.704 0.052,-7.614 0.066,-8.276c0.018,-2.345 0.036,-4.69 0.054,-7.034Z" style="fill-opacity:0.05;"/><path d="M89.761,404.152c-0.092,1.27 -0.211,1.263 0.108,2.441c-0.054,0.906 0.047,1.157 -0.456,1.301c-0.607,-0.465 -0.593,-0.354 -1.242,-0.488c0.769,-0.379 0.784,-0.321 1.279,-1.64l-0.116,-1.23c0.105,-2.081 0.192,-5.699 0.204,-6.195c0.16,5.405 0.211,5.346 0.222,5.811Z" style="fill-opacity:0.65;"/><path d="M91.368,237.727c-0.015,0.25 -0.518,8.682 -0.64,2.877c-0.005,-0.252 -0.243,-16.572 0.64,-2.877Z" style="fill-opacity:0.19;"/><path d="M65.481,12.531c-4.094,-0.019 -4.075,-0.25 -4.78,0.24c-0.31,-0.134 -0.273,-0.126 -0.573,0.03c-0.8,-0.426 -0.98,-0.804 -1.042,-0.937c5.504,0.225 5.898,0.42 6.395,0.667Z" style="fill-opacity:0.1;"/><path d="M57.206,359c-0.088,1.596 -0.09,1.586 -0.095,1.724c-0.014,0.42 0.056,0.341 0.041,0.774c-0.005,0.164 -0.269,1.955 0.016,4.143l0.053,0.396c-0.233,0.002 -0.621,0.005 -0.489,-5.767c-0.009,-0.167 -0.018,-0.335 -0.027,-0.502c0.011,-0.927 0.133,-0.832 0.501,-0.769Z" style="fill-opacity:0.16;"/><path d="M90.634,327.159c0.035,0.061 0.368,0.648 0.44,0.747c2.212,3.02 -0.136,3.534 -0.389,3.444c0.13,-0.22 1.058,-1.788 -0.234,-4.241l0.183,0.049Z" style="fill-opacity:0.73;"/><path d="M89.538,397.912l0.002,0.428c-0.012,0.496 -0.1,4.114 -0.204,6.195l-0.081,0.386c-0.229,-9.957 -0.235,-9.92 -0.104,-10.738c0.025,0.195 0.164,1.265 0.289,2.451c0.033,0.426 0.066,0.851 0.098,1.277Z" style="fill-opacity:0.71;"/><path d="M91.402,67.171c0.103,4.23 0.024,4.179 0.176,8.345c0.008,1.05 0.166,1.003 -0.068,3.295c-0.556,-2.736 -0.154,-10.714 -0.108,-11.64Z" style="fill-opacity:0.72;"/><path d="M90.4,335.986c-0.507,-0.008 -0.475,0.019 -0.992,0.162c-0.116,-0.007 -7.689,-1.479 -1.242,-1.528c1.054,1.044 1.108,0.528 2.234,1.365Z" style="fill-opacity:0.52;"/><path d="M89.143,184.741c0.294,2.399 0.014,2.749 0.03,3.728c0.04,2.511 0.531,2.848 -0.369,4.553c0.245,-7.716 0.234,-7.651 0.339,-8.281Z" style="fill-opacity:0.41;"/><path d="M22.997,85.55c-2.31,-0.297 -2.333,0.898 -4.555,-0.433l0.416,-0.115c0.202,-0.031 0.404,-0.063 0.606,-0.094c1.039,0.035 1.013,0.153 2.075,0.073c0.272,-0.074 0.545,-0.148 0.817,-0.222c0.23,0.184 0.197,0.193 0.64,0.791Z" style="fill-opacity:0.37;"/><path d="M28.904,225.363c0.007,-0.436 -0.035,-0.426 -0.058,-5.453c0.645,0.057 0.714,4.535 0.058,5.453Z" style="fill-opacity:0.33;"/><path d="M81.496,313.847c-0.212,2.12 -0.101,2.076 -0.058,6.621c-0.23,0.012 -0.073,0.448 -0.281,0.458c-0.02,0.001 -0.095,0.005 -0.117,-0.438c-0.027,-0.534 -0.319,-6.422 0.457,-6.641Z" style="fill-opacity:0.47;"/><path d="M59.913,419.408c-0.491,0.532 -0.457,0.638 -1.037,0.515c-0.846,-0.013 -0.814,-0.131 -1.641,-0.161c-0.139,-0.13 -0.278,-0.261 -0.418,-0.391c1.559,-0.432 1.518,-0.154 3.096,0.037Z" style="fill-opacity:0.26;"/><path d="M90.148,254.276c0.142,-1.434 0.657,-0.551 0.585,0.852c-0.292,5.734 -0.582,-0.736 -0.585,-0.852Z" style="fill-opacity:0.38;"/><path d="M0.707,350.307c0.005,3.529 0.325,3.675 -0.293,5.383c-0.031,-3.122 -0.191,-4.74 0.293,-5.383Z" style="fill-opacity:0.79;"/><path d="M84.389,102.771c-0.018,3.265 -0.146,3.16 -0.238,4.934c-0.632,-3.276 0.094,-4.661 0.238,-4.934Z" style="fill-opacity:0.5;"/><path d="M27.468,293.191c0.034,7.622 0.409,8.266 -0.33,8.687c0.202,-1.457 0.232,-1.372 0.19,-2.899l0.011,-2.478c0.009,-0.501 0.012,-0.444 0.129,-3.31Z" style="fill-opacity:0.44;"/><path d="M92.475,92.676c-1.13,0.747 -1.062,1.014 -2.23,1.427c0.41,-1.113 0.369,-1.179 1.03,-1.481c0.404,-0.193 1.104,0.025 1.199,0.054Z" style="fill-opacity:0.42;"/><path d="M87.68,308.143l-0.114,-0.473c0.351,-0.012 0.5,-0.34 0.518,0.428c0.126,5.435 -0.306,5.393 -0.524,5.371l0.067,-0.804c0.047,-0.422 0.094,-0.844 0.14,-1.266l-0.001,-0.829c-0.029,-0.809 -0.058,-1.618 -0.087,-2.426Z" style="fill-opacity:0.33;"/><path d="M44.635,237.292c0.491,1.991 0.139,7.255 0.097,7.88c-0.048,-5.077 -0.17,-6.491 -0.218,-7.048c-0.006,-0.068 0,0 0.121,-0.832Z" style="fill-opacity:0.47;"/><path d="M46.708,337.484c-0.833,2.543 -1.153,0.745 -2.661,0.563c1.303,-0.745 1.287,-0.464 2.661,-0.563Z" style="fill-opacity:0.06;"/><path d="M57.196,353.622c0.003,0.965 0.006,1.929 0.01,2.894c-0.786,0.086 -0.922,-3.065 -0.01,-2.894Z" style="fill-opacity:0.15;"/><path d="M54.339,273.615c-0.824,0.006 -1.648,0.012 -2.472,0.018c1.242,-0.558 1.242,-0.771 2.472,-0.018Z" style="fill-opacity:0.18;"/><path d="M44.548,265.537c1.299,2.386 0.152,4.53 0.012,4.792c0.004,-0.383 0.039,-3.628 -0.012,-4.792Z" style="fill-opacity:0.46;"/><path d="M63.255,320.503c-0.023,1.104 -0.046,2.207 -0.069,3.311l-0.17,0.406c-0.009,-0.442 -0.056,-0.353 -0.065,-0.811c-0.006,-0.328 -0.004,-0.304 -0.048,-4.106c0.285,0.531 0.318,0.448 0.351,1.2Z" style="fill-opacity:0.36;"/><path d="M91.306,344.544c0.008,0.408 0.015,0.817 0.023,1.225c0.124,2.861 -0.238,3.166 -0.656,2.893c0.601,-1.849 0.049,-2.244 0.633,-4.118Z" style="fill-opacity:0.46;"/><path d="M87.492,293.196c0.252,2.306 0.143,2.269 0.003,4.543c-0.335,-2.297 -0.367,-2.3 -0.003,-4.543Z" style="fill-opacity:0.38;"/><path d="M87.684,317.241l-0.109,-0.466c0.834,-0.044 0.396,0.886 0.234,5.384l-0.046,-0.827c-0.001,-0.828 -0.002,-1.655 -0.003,-2.483c-0.025,-0.536 -0.05,-1.071 -0.075,-1.607Z" style="fill-opacity:0.35;"/><path d="M23.237,163.661c-0.091,5.026 -0.198,6.077 -0.251,6.595c-0.011,-5.642 -0.293,-5.996 0.251,-6.595Z" style="fill-opacity:0.58;"/><path d="M59.886,56.71c-0.76,1.65 -0.917,0.431 -2.051,0.463c-0.529,-0.005 -0.552,0.333 -1.631,-0.22c0.548,-0.041 1.096,-0.082 1.644,-0.123c0.679,-0.04 1.359,-0.08 2.038,-0.12Z" style="fill-opacity:0.38;"/><path d="M29.495,106.524c0.156,2.623 0.843,3.886 -0.28,3.709l0.015,-0.815c0.055,-0.689 0.111,-1.379 0.166,-2.068l0.099,-0.825Z" style="fill-opacity:0.31;"/><path d="M56.817,419.371c-0.947,0.677 -1.004,1.016 -1.824,-0.111c0.608,0.037 1.216,0.074 1.824,0.111Z" style="fill-opacity:0.18;"/><path d="M11.844,341.102l-0.262,0.511c-0.989,0.581 -1.108,1.189 -1.825,-0.277c1.064,0.355 1.046,0.267 2.087,-0.234Z" style="fill-opacity:0.22;"/><path d="M89.465,377.638c0.314,2.463 0.653,3.384 -0.224,3.299c0.061,-0.828 -0.007,-0.765 0.057,-1.64c0.01,-0.134 0.012,-0.123 0.167,-1.66Z" style="fill-opacity:0.35;"/><path d="M81.124,288.226c-1.202,0.105 -0.213,-2.38 -0.15,-2.539c0.035,0.192 0.136,0.74 0.15,2.539Z" style="fill-opacity:0.19;"/><path d="M66.314,100.306c0.199,1.467 -0.078,1.46 0.032,2.91c0.098,1.284 -0.253,0.006 -0.263,-0.031c-0.072,-1.558 -0.24,-1.657 0.231,-2.879Z" style="fill-opacity:0.41;"/><path d="M43.358,343.684c0.031,4.172 0.236,4.25 -0.185,5.765c0.016,-3.698 0.148,-5.309 0.185,-5.765Z" style="fill-opacity:0.53;"/><path d="M51.245,58.078c-1.078,0.891 -1.724,0.014 -1.895,-0.089c0.729,-0.602 0.714,-0.25 1.484,-0.317c0.137,0.135 0.274,0.271 0.411,0.406Z" style="fill-opacity:0.16;"/><path d="M24.849,9.099c-0.139,0.108 -1.332,1.036 -1.865,-0.143c1.664,0.103 1.65,0.082 1.865,0.143Z" style="fill-opacity:0.16;"/><path d="M29.145,191.776l-0.003,0.405c0.038,0.28 0.076,0.561 0.114,0.841c0.015,0.197 0.055,0.715 -0.114,2.483c-0.208,-1.203 -0.454,-1.735 -0.087,-4.141l0.09,0.412Z" style="fill-opacity:0.34;"/><path d="M82.611,184.295c-1.103,0.95 -1.278,0.129 -1.447,-0.46c0.726,0.109 0.753,-0.324 1.447,0.46Z" style="fill-opacity:0.27;"/><path d="M23.234,157.875c0.006,1.225 0.011,2.45 0.017,3.675c-0.877,-0.941 -0.174,-3.318 -0.017,-3.675Z" style="fill-opacity:0.52;"/><path d="M6.31,384.659c-0.088,4.34 0.046,4.419 -0.274,5.343c0.031,-0.541 0.062,-1.082 0.093,-1.622l-0.003,-2.061c0.061,-0.553 0.123,-1.106 0.184,-1.659Z" style="fill-opacity:0.62;"/><path d="M22.156,175.526l-1.025,0.175c-0.5,-0.299 -0.467,-0.36 -1.015,-0.393c1.131,-1.117 1.677,-0.044 2.04,0.218Z" style="fill-opacity:0.14;"/><path d="M44.073,28.707l-0.045,0.408c-0.095,0.634 -0.078,0.57 -0.02,1.246l0.039,0.407c-0.968,0.08 -0.78,-1.912 0.025,-2.06Z" style="fill-opacity:0.2;"/><path d="M11.639,274.549c-0.537,-0.058 -1.074,-0.115 -1.611,-0.173c1.111,-1.551 1.548,-0.004 1.611,0.173Z" style="fill-opacity:0.19;"/><path d="M16.372,176.308c-0.437,0.296 -0.409,0.207 -1.438,0.46c0.039,-1.707 1.055,-0.648 1.438,-0.46Z" style="fill-opacity:0.34;"/><path d="M72.473,55.816c-0.482,0.485 -0.489,0.605 -3.074,0.495c1.546,-0.643 1.562,0.222 3.074,-0.495Z" style="fill-opacity:0.57;"/><path d="M55.587,11.817c-0.136,0.282 -0.272,0.564 -0.407,0.846c-0.059,0.003 -2.944,0.161 -0.616,-0.819c0.08,-0.034 0.076,-0.002 1.024,-0.026Z" style="fill-opacity:0.89;"/><path d="M62.175,-0.007c0.049,0.014 1.008,0.299 -0.022,1.234c-0.045,0.041 -0.938,-0.095 0.022,-1.234Z" style="fill-opacity:0.33;"/><path d="M3.232,398.928c-0.462,0.368 -0.428,0.295 -0.885,0.389c0.022,-0.129 -0.215,-2.25 0.885,-0.389Z" style="fill-opacity:0.94;"/><path d="M71.261,183.224c-0.658,1.599 -0.814,0.795 -1.857,0.422l0.617,-0.128c0.207,-0.098 0.414,-0.195 0.621,-0.293l0.618,-0.001Z" style="fill-opacity:0.42;"/><path d="M37.601,324.649c0.183,1.49 0.369,1.498 0.009,2.839c-0.473,-1.268 -0.224,-1.367 -0.009,-2.839Z" style="fill-opacity:0.23;"/><path d="M90.01,112.309l-0.001,0.414c-0.018,2.345 -0.036,4.69 -0.054,7.034c-0.016,-0.595 -0.154,-5.885 0.055,-7.448Z" style="fill-opacity:0.58;"/><path d="M29.144,206.681c0.09,2.476 0.603,2.811 -0.272,4.504c0.015,-0.362 0.032,-0.264 0.272,-4.504Z" style="fill-opacity:0.52;"/><path d="M29.171,214.958l-0.138,0.417l-0.081,-0.825c0.145,-1.694 0.095,-3.73 0.337,-2.053c0.01,0.069 -0.107,2.264 -0.118,2.461Z" style="fill-opacity:0.46;"/><path d="M93.774,85.334c0.564,1.176 0.222,1.341 0.003,3.805l-0.051,-1.255l0.049,-2.55Z" style="fill-opacity:0.39;"/><path d="M93.7,89.936c-0.046,0.432 -0.092,0.864 -0.138,1.296l-0.209,0.017c-0.002,-0.198 0.008,-0.161 0.024,-2.478c0.076,-0.141 0.152,-0.282 0.227,-0.423c-0.011,0.855 -0.011,0.807 0.095,1.588Z" style="fill-opacity:0.67;"/><path d="M28.362,340.392l0.023,0.667c-0.79,-0.028 -1.468,0.68 -1.02,-0.6c0.046,-0.131 0.087,-0.249 0.998,-0.067Z" style="fill-opacity:0.96;"/><path d="M13.46,341.432c-0.012,0.005 -0.998,1.688 -1.616,-0.33l0.411,0.119c0.402,0.071 0.803,0.141 1.205,0.212Z" style="fill-opacity:0.2;"/><path d="M29.352,114.439c0.568,0.593 0.262,0.897 0.098,3.655l-0.025,-0.822c-0.054,-1.258 -0.04,-1.216 -0.072,-2.833Z" style="fill-opacity:0.41;"/><path d="M45.043,410.138l-0.4,0.165l-1.021,0.16c-2.622,-1.776 1.308,-0.365 1.42,-0.325Z" style="fill-opacity:0.31;"/><path d="M57.212,349.483c-0.846,0.063 -0.452,-0.795 -0.232,-2.479c0.226,2.323 0.209,2.282 0.232,2.479Z" style="fill-opacity:0.36;"/><path d="M5.184,396.206c0.104,1.269 -0.034,1.428 -0.993,1.628c0.919,-1.513 0.919,-1.485 0.993,-1.628Z" style="fill-opacity:0.29;"/><path d="M3.833,260.498c-0.091,2.275 0.044,2.271 -0.29,3.711c0.004,-1.119 0.008,-2.239 0.012,-3.358c0.093,-0.118 0.185,-0.236 0.278,-0.354Z" style="fill-opacity:0.73;"/><path d="M85.664,49.392c-0.022,0.197 -0.004,0.148 -0.237,2.482c-0.226,-1.72 -0.625,-2.62 0.237,-2.482Z" style="fill-opacity:0.3;"/><path d="M29.142,195.505c0.11,1.858 0.36,2.066 -0.299,3.321c0.136,-1.665 0.135,-1.604 0.299,-3.321Z" style="fill-opacity:0.48;"/><path d="M71.053,284.42c-1.033,0.492 -1.013,0.499 -2.068,-0.039l0.207,-0.016l1.039,-0.021c0.439,-0.094 0.397,-0.087 0.823,0.077Z" style="fill-opacity:0.3;"/><path d="M64.452,284.391c-1.053,0.505 -1.186,1.068 -1.443,0.111c0.205,-0.051 0.41,-0.103 0.615,-0.154l0.622,0.029l0.206,0.014Z" style="fill-opacity:0.22;"/><path d="M57.227,240.62c-0.082,0.688 -0.163,1.375 -0.245,2.063c-0.253,-1.415 -0.495,-2.173 0.245,-2.063Z" style="fill-opacity:0.27;"/><path d="M57.835,57.173c-0.208,0.097 -1.069,0.498 -2.669,-0.066l1.038,-0.154c1.079,0.553 1.103,0.215 1.631,0.22Z" style="fill-opacity:0.29;"/><path d="M76.025,44.517c-0.42,0.079 -0.839,0.158 -1.259,0.237c0.597,-1.54 1.018,-0.358 1.259,-0.237Z" style="fill-opacity:0.17;"/><path d="M90.634,327.159l-0.183,-0.049c-0.448,-0.797 -0.404,-0.78 -0.814,-1.677c0.75,0.376 0.961,1.528 0.997,1.726Z" style="fill-opacity:0.3;"/><path d="M13.348,92.027c-0.124,0.704 -0.095,1.125 -0.408,0.664c-0.266,-0.391 0.038,-2.756 0.408,-0.664Z" style="fill-opacity:0.06;"/><path d="M23.634,67.624c-0.051,0.159 -0.103,0.317 -0.154,0.476c-0.028,0.663 -0.057,1.327 -0.085,1.99l-0.022,0.409c-0.163,-1.936 -0.698,-2.939 0.261,-2.875Z" style="fill-opacity:0.33;"/><path d="M89.413,407.894l-0.412,0.025c-0.484,-0.1 -0.968,-0.2 -1.452,-0.3l0.622,-0.212c0.649,0.134 0.634,0.023 1.242,0.488Z" style="fill-opacity:0.63;"/><path d="M81.858,224.078c-0.423,0.975 -0.488,0.61 -1.11,0.394c0.552,-0.596 0.549,-0.845 1.11,-0.394Z" style="fill-opacity:0.17;"/><path d="M37.013,225.725l-0.629,0.31c-0.187,-0.065 -0.373,-0.129 -0.56,-0.194c0.264,-0.288 0.258,-1.255 1.189,-0.116Z" style="fill-opacity:0.18;"/><path d="M5.236,14.628c-0.208,1.094 -0.279,1.097 -0.004,2.069c-0.643,-0.005 -0.835,-2.066 0.004,-2.069Z" style="fill-opacity:0.31;"/><path d="M66.516,324.433l-0.415,-0.012l-1.032,-0.007c0.682,-0.815 0.69,-0.355 1.447,0.019Z" style="fill-opacity:0.16;"/><path d="M3.555,260.851c-0.004,1.119 -0.008,2.239 -0.012,3.358l-0.006,0.416c-0.179,-1.988 -0.376,-1.977 0.018,-3.773Z" style="fill-opacity:0.35;"/><path d="M53.736,83.092c-0.132,0.035 -1.543,0.414 -1.653,0.448c0.222,-0.96 0.351,-0.604 1.653,-0.448Z" style="fill-opacity:0.37;"/><path d="M36.59,420.947c-1.508,0.038 -1.483,0.248 -2.255,-0.182l1.234,-0.106c0.341,0.096 0.681,0.192 1.022,0.287Z" style="fill-opacity:0.43;"/><path d="M4.835,393.266c-1.056,-1.251 0.288,-1.043 0.399,-0.729c0.231,0.652 -0.056,0.445 -0.399,0.729Z"/><path d="M90.198,107.354c-0.003,0.544 -0.006,1.089 -0.009,1.633c-0.064,0.28 -0.129,0.56 -0.193,0.84c0.013,-1.104 0.026,-2.208 0.04,-3.311c0.054,0.279 0.108,0.559 0.162,0.838Z" style="fill-opacity:0.39;"/><path d="M67.958,419.406c-0.619,0.519 -0.631,0.509 -1.242,-0.016c0.414,0.005 0.828,0.011 1.242,0.016Z" style="fill-opacity:0.27;"/><path d="M57.632,400.802c-0.665,-0.366 -0.537,-0.793 -0.276,-2.062c0.192,1.183 0.192,1.175 0.208,1.278c0.063,0.425 0.007,0.373 0.068,0.784Z" style="fill-opacity:0.23;"/><path d="M1.345,398.649c-0.454,-0.021 -0.567,0.207 -0.686,-0.726c0.019,-0.286 0.037,-0.572 0.056,-0.858c0.192,0.608 0.576,1.464 0.63,1.584Z" style="fill-opacity:0.31;"/><path d="M84.613,10.08c0.034,0.05 1.661,2.904 -0.047,1.052c0.071,-0.539 0.065,-0.472 0.047,-1.052Z" style="fill-opacity:0.28;"/><path d="M87.474,291.12c-0.109,-0.691 -0.218,-1.382 -0.327,-2.072c0.613,0.577 0.534,0.828 0.327,2.072Z" style="fill-opacity:0.23;"/><path d="M34.908,225.85c-0.259,0.119 -0.518,0.238 -0.777,0.358c0.216,-1.166 0.48,-1.445 0.777,-0.358Z" style="fill-opacity:0.21;"/><path d="M91.494,49.817c0.031,0.119 0.554,2.149 -0.147,1.647c0.049,-0.549 0.098,-1.098 0.147,-1.647Z" style="fill-opacity:0.22;"/><path d="M93.378,88.771c-0.017,2.317 -0.026,2.28 -0.024,2.478c-0.138,0.003 -0.276,0.005 -0.414,0.008c0.424,-0.933 0.044,-1.211 0.438,-2.485Z" style="fill-opacity:0.94;"/><path d="M12.879,173.981c0.009,0.813 0.018,1.626 0.026,2.439c-0.281,-1.254 -0.452,-1.32 -0.026,-2.439Z" style="fill-opacity:0.53;"/><path d="M93.562,91.232c-0.296,0.589 -0.262,0.646 -0.84,0.843c-0.143,-0.025 -0.286,-0.049 -0.428,-0.074c0.076,-0.107 0.152,-0.214 0.229,-0.321c0.139,-0.141 0.278,-0.283 0.418,-0.424c0.138,-0.003 0.276,-0.005 0.414,-0.008l0.209,-0.017Z" style="fill-opacity:0.35;"/><path d="M69.824,93.479c-0.077,1.379 -0.359,0.725 -1.046,0.418c0.526,-0.268 0.484,-0.277 1.046,-0.418Z" style="fill-opacity:0.27;"/><path d="M19.483,274.348c-0.346,0.062 -0.692,0.124 -1.038,0.186c0.508,-1.441 0.633,-0.535 1.038,-0.186Z" style="fill-opacity:0.18;"/><path d="M61.388,70.523c-0.087,0.96 -0.174,1.92 -0.261,2.88c-0.109,-2.667 0.063,-2.654 0.261,-2.88Z" style="fill-opacity:0.57;"/><path d="M44.874,153.284c0.05,-0.004 0.805,-0.071 0.009,1.258c-0.003,-0.419 -0.006,-0.839 -0.009,-1.258Z" style="fill-opacity:0.45;"/><path d="M82.928,189.285c-0.131,1.252 -0.087,1.184 -0.218,2.491c-0.066,-0.786 -0.503,-2.469 0.218,-2.491Z" style="fill-opacity:0.51;"/><path d="M73.535,129.499c-0.482,-0.125 -0.964,-0.25 -1.445,-0.375c0.812,-0.256 0.929,-0.87 1.445,0.375Z" style="fill-opacity:0.45;"/><path d="M34.137,141.481c0.06,0.192 0.541,0.33 -0.016,0.885c-0.206,-0.117 -0.413,-0.235 -0.619,-0.352c-0.134,-0.056 -0.267,-0.112 -0.401,-0.168c0.345,-0.122 0.691,-0.243 1.036,-0.365Z" style="fill-opacity:0.36;"/><path d="M92.722,92.075c-0.255,0.53 -0.222,0.565 -0.248,0.6c-0.095,-0.029 -0.796,-0.247 -1.199,-0.054c0.421,-0.485 0.384,-0.46 0.421,-0.485c0.305,-0.201 0.289,0.067 0.598,-0.136c0.143,0.025 0.286,0.049 0.428,0.074Z" style="fill-opacity:0.49;"/><path d="M21.131,175.7c-0.283,0.058 -0.567,0.116 -0.85,0.174c-0.113,-0.02 -0.227,-0.041 -0.34,-0.061c0.058,-0.169 0.116,-0.337 0.174,-0.506c0.548,0.033 0.516,0.094 1.015,0.393Z" style="fill-opacity:0.29;"/><path d="M20.778,353.615l-0.135,2.885l-0.085,-0.821l-0.064,-1.237l0.029,-0.792l0.256,-0.036Z" style="fill-opacity:0.44;"/><path d="M91.938,339.586c0.403,-1.845 0.094,-4.481 0.336,-2.495c0.275,2.252 -0.278,2.369 -0.336,2.495Z" style="fill-opacity:0.97;"/><path d="M42.106,1.165l0.058,0.328c-0.548,-0.172 -1.096,-0.345 -1.644,-0.517l0.413,-0.03l0.62,-0.001l0.553,0.22Z" style="fill-opacity:0.53;"/><path d="M28.877,200.923c0.652,0.615 0.306,0.975 0.193,2.43c-0.193,-1.931 -0.193,-1.918 -0.209,-2.086c-0.022,-0.234 0.033,-0.16 0.016,-0.345Z" style="fill-opacity:0.52;"/><path d="M6.333,46.905c-1.135,0.098 -0.354,-1.133 -0.296,-1.644c0.045,0.37 0.089,0.739 0.134,1.109c0.054,0.178 0.108,0.356 0.162,0.535Z" style="fill-opacity:0.26;"/><path d="M52.07,409.341l-0.825,0.133c-0.132,-0.089 -0.264,-0.177 -0.395,-0.266c0.482,-0.491 0.47,-0.381 1.017,-0.193l0.204,0.326Z" style="fill-opacity:0.2;"/><path d="M14.107,176.781l-0.613,0.109c0.031,-0.077 1.092,-2.751 0.613,-0.109Z" style="fill-opacity:0.13;"/><path d="M89.102,250.581c0.239,1.317 0.367,1.689 -0.281,2.047c0.264,-1.903 0.254,-1.886 0.281,-2.047Z" style="fill-opacity:0.34;"/><path d="M35.364,130.234c-0.622,0.172 -0.58,0.122 -1.239,0.154c0.477,-1.081 0.574,-0.707 1.239,-0.154Z" style="fill-opacity:0.26;"/><path d="M28.556,9.116c-0.142,0.093 -0.746,0.488 -1.861,0.011c0.148,-0.037 0.625,-0.158 1.861,-0.011Z" style="fill-opacity:0.36;"/><path d="M68.082,38.196c-0.05,0.128 -0.099,0.256 -0.149,0.384l-0.257,0.035c0,-0.543 0,-1.086 0,-1.63l0.262,0.039l0.087,0.783l0.056,0.389Z" style="fill-opacity:0.53;"/><path d="M6.329,201.31c-0.06,0.162 -0.12,0.323 -0.18,0.485l-0.113,1.154c-0.062,-0.559 -0.83,-1.719 0.294,-1.638Z" style="fill-opacity:0.29;"/><path d="M50.222,12.065c-0.707,-0.876 -0.006,-1.081 0.238,-0.837c0.034,0.034 0.495,0.561 -0.238,0.837Z"/><path d="M5.92,393.783c-0.108,1.124 0.034,1.539 -0.566,1.518c0.196,-1.251 0.4,-1.118 0.566,-1.518Z" style="fill-opacity:0.35;"/><path d="M72.702,57.975l-1.231,-0.017c0.623,-0.759 0.719,-1.068 1.231,0.017Z" style="fill-opacity:0.31;"/><path d="M27.308,10.969c-0.757,0.039 -0.752,0.046 -0.818,0.042c-0.336,-0.02 -0.302,-0.132 -0.62,-0.152c0.73,-0.435 0.707,-0.319 1.438,0.109Z" style="fill-opacity:0.42;"/><path d="M30.627,185.817c-0.616,0.725 -0.625,0.605 -1.264,0.083c0.658,-0.226 0.618,-0.224 1.264,-0.083Z" style="fill-opacity:0.22;"/><path d="M58.299,140.844c-0.508,0.304 -0.475,-0.021 -0.648,-0.97c0.396,0.299 0.374,0.295 0.648,0.97Z" style="fill-opacity:0.13;"/><path d="M89.552,325.195c-0.205,-0.402 -0.715,-0.786 -0.781,-0.836c0.221,-0.064 0.441,-0.127 0.662,-0.191c0.183,0.469 0.134,0.444 0.119,1.027Z" style="fill-opacity:0.3;"/><path d="M20.14,406.583c-0.515,0.077 -0.536,-0.393 -0.23,-1.236c0.021,0.096 -0.018,0.105 0.23,1.236Z" style="fill-opacity:0.21;"/><path d="M13.523,141.488c0.03,1.133 -0.03,1.069 -0.108,2.159c-0.206,-1.352 -0.195,-1.403 0.108,-2.159Z" style="fill-opacity:0.76;"/><path d="M83.618,57.765c-0.397,-0.081 -0.795,-0.162 -1.192,-0.242c0.688,-0.246 0.855,-1.031 1.192,0.242Z" style="fill-opacity:0.44;"/><path d="M55.787,235.934c-0.731,0.444 -0.708,0.337 -1.447,0.005l1.447,-0.005Z" style="fill-opacity:0.32;"/><path d="M75.172,183.666c-0.682,0.268 -0.75,0.609 -1.242,-0.451c0.619,0.296 0.601,0.153 1.242,0.451Z" style="fill-opacity:0.44;"/><path d="M41.712,383.411c0.403,2.042 -0.498,0.778 -0.601,0.725c0.063,-0.03 0.554,-0.664 0.601,-0.725Z" style="fill-opacity:0.22;"/><path d="M57.35,394.611l0.078,0.814l0.009,1.239l-0.069,0.815c-0.183,-1.424 -0.147,-1.36 -0.019,-2.868Z" style="fill-opacity:0.48;"/><path d="M88.344,273.802l0.089,0.748c0.05,0.779 0.038,0.807 -0.294,1.204c0.025,-1.015 0.037,-0.929 -0.002,-2.001l0.207,0.048Z" style="fill-opacity:0.62;"/><path d="M76.209,57.332c-0.546,0.158 -1.093,0.317 -1.639,0.475c0.138,-0.166 0.275,-0.332 0.413,-0.499l0.607,-0.029l0.619,0.052Z" style="fill-opacity:0.51;"/><path d="M89.433,324.167c-0.221,0.064 -0.441,0.127 -0.662,0.191c-0.269,-0.178 -0.537,-0.356 -0.806,-0.535l0.199,0.068c0.201,-0.108 0.403,-0.216 0.604,-0.324c0.222,0.2 0.444,0.399 0.665,0.599Z" style="fill-opacity:0.3;"/><path d="M59.918,56.536l-0.032,0.174c-0.679,0.04 -1.359,0.08 -2.038,0.12c0.69,-0.098 1.38,-0.196 2.07,-0.294Z" style="fill-opacity:0.63;"/><path d="M25.871,10.86c-0.252,0.216 -0.504,0.433 -0.756,0.649c0.159,-1.102 0.271,-1.142 0.756,-0.649Z" style="fill-opacity:0.23;"/><path d="M41.111,384.136c-0.174,0.976 -0.108,1.267 -0.643,1.19c0.194,-0.883 0.279,-0.64 0.643,-1.19Z" style="fill-opacity:0.19;"/><path d="M38.265,301.467c-0.027,0.115 -0.011,0.021 -0.091,0.787c0,0 -0.222,1.172 -0.242,1.274c-0.375,-2.226 0.203,-1.864 0.332,-2.061Z" style="fill-opacity:0.31;"/><path d="M23.379,78.785l0.014,1.654l0.004,1.655l-0.016,0.411c-0.241,-1.881 -0.137,-1.824 -0.001,-3.721Z" style="fill-opacity:0.39;"/><path d="M37.021,420.458c-0.144,0.163 -0.287,0.326 -0.431,0.489c-0.341,-0.096 -0.681,-0.192 -1.022,-0.287c0.729,-0.425 0.715,-0.23 1.452,-0.202Z" style="fill-opacity:0.69;"/><path d="M29.507,123.913c0.151,1.31 0.289,1.439 -0.178,2.323c0.002,-0.154 0.023,-0.104 0.101,-1.909l0.077,-0.414Z" style="fill-opacity:0.38;"/><path d="M88.781,204.197c-0.008,1.78 0.133,1.876 -0.174,2.505c0.018,-1.315 0.054,-1.248 0.174,-2.505Z" style="fill-opacity:0.58;"/><path d="M19.266,143.884c-0.205,0.068 -0.41,0.135 -0.615,0.203c-0.192,0.105 -0.384,0.211 -0.576,0.316c-0.012,-0.265 -0.024,-0.531 -0.036,-0.796l1.226,0.277Z" style="fill-opacity:0.37;"/><path d="M23.404,47.412c-0.981,-0.395 -0.96,-0.32 -1.041,-0.364c0.56,-0.37 0.527,-0.08 1.041,0.364Z" style="fill-opacity:0.27;"/><path d="M48.226,78.399c0.128,1.035 0.196,1.216 -0.292,1.624c0.276,-1.509 0.264,-1.499 0.292,-1.624Z" style="fill-opacity:0.26;"/><path d="M35.775,285.218c-0.588,0.399 -0.712,0.646 -1.03,-0.47l0.416,0.104c0.205,0.122 0.41,0.244 0.614,0.365Z" style="fill-opacity:0.23;"/><path d="M55.356,286.324c-0.132,0.082 -0.263,0.165 -0.395,0.247l-0.41,0.126c0.291,-0.895 0.358,-0.877 0.804,-0.373Z" style="fill-opacity:0.2;"/><path d="M0.41,394.181c-0.334,-0.807 -0.318,-0.73 -0.334,-0.807c-0.137,-0.647 0.09,-0.658 -0.037,-1.26c0.37,0.879 0.265,0.912 0.372,2.067Z" style="fill-opacity:0.38;"/><path d="M37.016,9.608c-0.61,0.524 -0.589,0.137 -1.035,-0.409c1.035,0.409 1.031,0.407 1.035,0.409Z" style="fill-opacity:0.27;"/><path d="M44.732,245.171c0.136,1.395 0.492,2.068 -0.218,2.089c0.024,-0.164 -0.001,-0.132 0.218,-2.089Z" style="fill-opacity:0.46;"/><path d="M91.909,67.621c-0.134,-1.272 -0.139,-1.178 -0.15,-2.545c0.272,1.211 0.182,1.171 0.15,2.545Z" style="fill-opacity:0.15;"/><path d="M14.332,44.639c-0.457,0.581 -0.529,0.687 -0.837,-0.175c0.279,0.058 0.558,0.117 0.837,0.175Z" style="fill-opacity:0.17;"/><path d="M41.318,99.06c-0.181,0.823 -0.199,0.733 -0.261,1.644c-0.228,-1.154 -0.358,-1.696 0.261,-1.644Z" style="fill-opacity:0.31;"/><path d="M6.654,368.105c-0.001,0.965 -0.002,1.93 -0.003,2.896c-0.149,-1.502 -0.194,-1.441 0.003,-2.896Z" style="fill-opacity:0.53;"/><path d="M12.208,51.438l-0.087,0.426l-0.039,-0.413c-0.061,-0.277 -0.122,-0.555 -0.183,-0.832l-0.027,-0.397c0.478,-0.056 0.387,0.288 0.336,1.216Z" style="fill-opacity:0.39;"/><path d="M85.303,397.484c0.177,-1.702 0.525,0.015 0.356,0.353c-0.206,0.412 -0.195,0.067 -0.356,-0.353Z"/><path d="M2.819,296.515c-0.025,0.105 -0.205,-0.032 -0.239,1.642c-0.306,-1.001 -0.413,-1.508 0.239,-1.642Z" style="fill-opacity:0.2;"/><path d="M59.912,3.146c-0.837,0.286 -0.818,0.285 -1.653,0.004l0.415,-0.058l0.824,0.005l0.414,0.049Z" style="fill-opacity:0.51;"/><path d="M62.591,419.09c-0.012,0.061 -0.88,2.857 -0.408,0.009l0.408,-0.009Z" style="fill-opacity:0.11;"/><path d="M15.55,1.734l-0.615,0.372c-0.328,-1.949 0.532,-0.454 0.615,-0.372Z" style="fill-opacity:0.18;"/><path d="M76.827,55.183c-0.029,0.941 -0.187,0.905 -0.616,0.439c0.302,-0.081 0.263,-0.129 0.616,-0.439Z" style="fill-opacity:0.19;"/><path d="M12.454,411.344c-0.579,0.09 -0.526,-0.083 -1.023,-0.591c0.341,0.197 0.682,0.394 1.023,0.591Z" style="fill-opacity:0.31;"/><path d="M88.05,281.604c0.019,0.091 1.056,5.049 -0.137,1.204l0.137,-1.204Z" style="fill-opacity:0.29;"/><path d="M61.744,58.512c-0.586,-0.019 -0.494,-0.49 -0.264,-1.578l0.264,1.578Z" style="fill-opacity:0.33;"/><path d="M37.905,381.732c0.341,-1.26 0.531,0.187 0.336,0.375c-0.028,0.027 0,0 -0.336,-0.375Z"/><path d="M36.593,284.761l-0.091,0.407c-0.679,0.036 -0.67,0.053 -0.728,0.049c-0.205,-0.122 -0.41,-0.244 -0.614,-0.365c0.478,-0.03 0.955,-0.06 1.433,-0.091Z" style="fill-opacity:0.46;"/><path d="M83.224,130.177c-0.619,-0.147 -1.239,-0.294 -1.858,-0.441l0.825,0.012l0.794,0.085l0.239,0.345Z" style="fill-opacity:0.53;"/><path d="M52.711,419.204c0.417,0.687 0.414,0.601 0.417,0.687c0.031,1.268 -0.264,-0.15 -0.851,-0.483l0.434,-0.204Z" style="fill-opacity:0.24;"/><path d="M89.761,404.152c0.036,0.814 0.072,1.627 0.108,2.441c-0.318,-1.178 -0.199,-1.171 -0.108,-2.441Z" style="fill-opacity:0.32;"/><path d="M12.565,76.291c0.839,0.978 0.105,1.131 -0.011,1.247c0.004,-0.416 0.007,-0.831 0.011,-1.247Z" style="fill-opacity:0.4;"/><path d="M44.078,34.087c-0.222,0.533 -0.199,0.792 -0.193,0.867c0.042,0.468 0.022,0.407 -0.075,0.779c-0.034,-0.157 -0.097,-0.285 -0.131,-0.442c-0.049,-0.225 -0.048,-0.346 -0.048,-0.377c0.008,-1.117 0.407,-0.754 0.446,-0.826Z" style="fill-opacity:0.25;"/><path d="M36.602,129.753c-0.206,0.133 -0.412,0.266 -0.618,0.4l-0.413,0.072c0.466,-0.795 0.479,-0.915 1.031,-0.472Z" style="fill-opacity:0.27;"/><path d="M29.145,191.776l-0.09,-0.412c-0.071,-0.702 -0.143,-1.403 -0.214,-2.105c0.672,0.185 0.306,0.797 0.304,2.518Z" style="fill-opacity:0.55;"/><path d="M18.65,12.503l-0.407,0.114c0.188,-0.576 0.122,-0.796 0.414,-0.789c0.301,0.007 0.229,0.297 -0.007,0.676Z" style="fill-opacity:0.19;"/><path d="M6.874,349.475c0.163,1.147 0.328,1.327 -0.175,2.072l0.003,-0.415c0.057,-0.552 0.114,-1.104 0.172,-1.657Z" style="fill-opacity:0.2;"/><path d="M51.657,57.195c-0.172,0.546 -0.135,0.541 -0.412,0.883c-0.137,-0.135 -0.274,-0.271 -0.411,-0.406c0.274,-0.159 0.548,-0.318 0.823,-0.477Z" style="fill-opacity:0.22;"/><path d="M61.801,60.172l-0.286,1.624c-0.221,-1.038 -0.276,-1.36 0.286,-1.624Z" style="fill-opacity:0.36;"/><path d="M37.212,144.313c-0.606,0.455 -0.592,0.24 -1.229,0.024c0.627,-0.076 0.595,-0.18 1.229,-0.024Z" style="fill-opacity:0.47;"/><path d="M70.231,57.436c-0.918,0.129 -0.898,0.399 -2.077,-0.029l2.077,0.029Z" style="fill-opacity:0.57;"/><path d="M44.79,166.118c0.16,1.136 0.345,1.755 -0.243,1.579l0.243,-1.579Z" style="fill-opacity:0.36;"/><path d="M85.984,35.413c-0.074,0.798 -0.148,1.596 -0.223,2.394c-0.024,-1.326 -0.058,-1.269 0.223,-2.394Z" style="fill-opacity:0.51;"/><path d="M90.166,357.292c0.192,0.849 0.186,1.078 -0.29,1.292c0.106,-0.758 0.1,-0.67 0.29,-1.292Z" style="fill-opacity:0.18;"/><path d="M89.74,159.929c0.056,0.893 0.072,0.801 0.022,1.599l-0.11,0.45c-0.001,-0.826 -0.001,-1.653 -0.002,-2.479l0.09,0.43Z" style="fill-opacity:0.43;"/><path d="M6.717,61.808c-0.559,-0.271 -0.531,-0.561 -0.316,-1.638c0.022,0.133 0.126,0.756 0.316,1.638Z" style="fill-opacity:0.27;"/><path d="M68.004,44.388c-0.212,-0.975 -0.217,-0.924 -0.29,-1.993c0.435,0.709 0.253,0.861 0.29,1.993Z" style="fill-opacity:0.58;"/><path d="M40.593,111.465l0.004,0.861c-1.178,-0.243 -0.038,-0.854 -0.004,-0.861Z" style="fill-opacity:0.2;"/><path d="M37.852,317.617l-0.237,0.805c-0.262,-0.684 -0.167,-1.12 0.237,-0.805Z" style="fill-opacity:0.15;"/><path d="M31.242,250.97c0.174,-0.34 0.151,-0.658 0.337,-0.295c0.141,0.276 -0.136,1.791 -0.337,0.295Z"/><path d="M65.553,112.747c0.178,1.053 0.259,1.31 -0.248,1.648c0.241,-1.534 0.222,-1.52 0.248,-1.648Z" style="fill-opacity:0.47;"/><path d="M22.554,239.372c-0.033,0.122 -0.01,0.121 -0.263,1.649c-0.227,-1.146 -0.351,-1.65 0.263,-1.649Z" style="fill-opacity:0.38;"/><path d="M73.322,92.752l-0.011,0.501c-0.785,-0.04 -0.75,-0.087 -0.816,-0.087l-0.193,-0.189l1.02,-0.225Z" style="fill-opacity:0.43;"/><path d="M89.573,176.881c0.271,1.513 -0.146,1.234 -0.379,1.647c0.032,-0.131 0.202,-0.838 0.379,-1.647Z" style="fill-opacity:0.5;"/><path d="M79.494,416.68c0.116,0.329 0.568,0.279 0.051,1.919c-0.005,-1.789 -0.05,-1.765 -0.051,-1.919Z" style="fill-opacity:0.56;"/><path d="M9.77,270.422c-0.001,0.966 -0.002,1.932 -0.003,2.899c-0.159,-1.439 -0.125,-1.383 0.003,-2.899Z" style="fill-opacity:0.55;"/><path d="M5.038,382.163c-0.394,-0.817 0.309,-0.94 0.293,-0.367c-0,0 -0.27,0.338 -0.293,0.367Z"/><path d="M86.041,31.607l0.004,0.399c-0.273,0.223 -0.317,0.546 -0.469,-0.048c-0.018,-0.071 -0.193,-0.91 0.465,-0.351Z" style="fill-opacity:0.14;"/><path d="M82.183,219.921c-0.129,0.488 -0.12,0.448 -0.129,0.488c-0.074,0.36 -0.029,0.315 -0.117,0.743c-0.124,-0.9 -0.227,-1.256 0.246,-1.232Z" style="fill-opacity:0.32;"/><path d="M57.152,361.498c-0,3.825 0.017,3.812 0.016,4.143c-0.285,-2.188 -0.02,-3.979 -0.016,-4.143Z" style="fill-opacity:0.71;"/><path d="M88.093,229.453c0.001,0.965 0.003,1.931 0.004,2.896c-0.113,-1.486 -0.147,-1.45 -0.004,-2.896Z" style="fill-opacity:0.44;"/><path d="M44.513,252.218c0.656,-0.557 0.48,0.282 0.462,0.352c-0.149,0.586 -0.193,0.274 -0.458,0.038l-0.004,-0.39Z" style="fill-opacity:0.1;"/><path d="M29.352,114.439c0.032,1.617 0.018,1.575 0.072,2.833c-0.068,-0.965 -0.135,-1.93 -0.203,-2.895l0.131,0.062Z" style="fill-opacity:0.73;"/><path d="M74.56,13.261c-0.027,-0 -1.418,0.635 -0.647,-0.529c0.216,0.176 0.431,0.352 0.647,0.529Z" style="fill-opacity:0.36;"/><path d="M1.064,339.13c-0.093,0.713 -0.033,0.73 -0.32,1.239c-0.171,-0.875 -0.099,-0.973 0.32,-1.239Z" style="fill-opacity:0.24;"/><path d="M45.689,285.89c-0.281,-0.042 -0.563,-0.084 -0.844,-0.126c0.458,-0.305 0.434,-0.223 0.844,0.126Z" style="fill-opacity:0.46;"/><path d="M44.992,172.915l0.029,0.441c-0.13,-0.197 -0.261,-0.394 -0.391,-0.591c0.131,-0.504 0.208,-0.291 0.362,0.15Z" style="fill-opacity:0.22;"/><path d="M6.68,187.225c-0.161,0.456 -0.153,0.414 -0.161,0.456c-0.118,0.609 0.001,0.591 -0.114,1.188c-0.114,-1.024 -0.2,-1.171 0.275,-1.644Z" style="fill-opacity:0.44;"/><path d="M51.245,409.474l-0.195,0.086c-0.261,0.041 -0.521,0.082 -0.782,0.122c0.194,-0.158 0.388,-0.316 0.581,-0.474c0.132,0.089 0.264,0.177 0.395,0.266Z" style="fill-opacity:0.24;"/><path d="M44.108,13.769c-0.617,-0.232 -0.428,-0.652 -0.288,-1.21c0.096,0.403 0.192,0.807 0.288,1.21Z" style="fill-opacity:0.25;"/><path d="M79.866,406.663c0.301,0.962 0.208,0.966 0.034,2.003l-0.034,-2.003Z" style="fill-opacity:0.55;"/><path d="M43.437,338.368c-0.004,0.192 -0.057,0.086 -0.062,0.33c-0.004,0.2 -0.001,0.186 -0.019,2.505c-0.154,-1.478 -0.106,-1.418 0.082,-2.835Z" style="fill-opacity:0.49;"/><path d="M25.67,421.216c-0.422,1.054 -0.584,1.06 -1.041,0.02c0.529,0.299 0.517,0.196 1.041,-0.02Z" style="fill-opacity:0.38;"/><path d="M58.876,419.923c-0.86,0.086 -0.815,0.013 -1.641,-0.161c0.827,0.03 0.795,0.148 1.641,0.161Z" style="fill-opacity:0.07;"/><path d="M91.566,40.718c0.359,0.026 0.641,-0.353 0.454,0.35c0,0 -0.421,0.04 -0.458,0.044l0.004,-0.394Z" style="fill-opacity:0.13;"/><path d="M5.239,410.155c-0.084,0.027 -0.801,0.262 -1.035,0.457c0.112,-1.322 0.372,-0.621 1.035,-0.457Z" style="fill-opacity:0.45;"/><path d="M5.236,14.628c0.003,0.165 -0.017,0.087 -0.004,2.069c-0.275,-0.971 -0.204,-0.975 0.004,-2.069Z" style="fill-opacity:0.8;"/><path d="M42.637,376.793c-0.073,1.134 0.034,1.168 -0.275,2.058c0.012,-0.169 0.04,-0.11 0.275,-2.058Z" style="fill-opacity:0.62;"/><path d="M23.412,421.287c-0.676,0.695 -0.672,0.403 -1.458,0.248l0.206,-0.018c0.345,-0.078 0.69,-0.156 1.035,-0.235l0.217,0.004Z" style="fill-opacity:0.41;"/><path d="M84.061,7.111c-0.264,-0.214 -0.224,-0.238 -0.43,-0.609c0.38,-0.171 0.542,-0.175 0.43,0.609Z" style="fill-opacity:0.25;"/><path d="M78.634,418.07c-0.119,0.84 -0.179,0.952 -0.547,0.598l0.547,-0.598Z" style="fill-opacity:0.22;"/><path d="M29.601,339.72c-0.054,1.31 -0.354,0.546 -1.026,0.362c0.342,-0.121 0.684,-0.241 1.026,-0.362Z" style="fill-opacity:0.57;"/><path d="M70.433,224.483l-0.187,0.093c-0.805,-0.999 0.174,-0.108 0.187,-0.093Z" style="fill-opacity:0.19;"/><path d="M12.515,60.156c-0.097,-0.54 -0.193,-1.08 -0.29,-1.621c0.397,0.588 0.259,0.678 0.29,1.621Z" style="fill-opacity:0.64;"/><path d="M83.618,12.927c-0.383,0.77 -0.426,0.381 -1.014,0.337c0.338,-0.112 0.676,-0.225 1.014,-0.337Z" style="fill-opacity:0.52;"/><path d="M82.985,129.832l-0.794,-0.085c0.448,-0.259 0.492,-0.66 0.794,0.085Z" style="fill-opacity:0.18;"/><path d="M5.954,32.807c-0.542,-0.108 -0.339,-0.527 -0.224,-0.896c0.075,0.299 0.149,0.597 0.224,0.896Z" style="fill-opacity:0.14;"/><path d="M63.255,320.503c0.043,1.689 0.015,1.638 -0.069,3.311c0.023,-1.104 0.046,-2.207 0.069,-3.311Z" style="fill-opacity:0.13;"/><path d="M68.73,3.226c-0.673,-0.027 -0.662,-0.06 -0.719,-0.052c0.261,-0.736 0.306,-0.314 0.719,0.052Z" style="fill-opacity:0.18;"/><path d="M93.726,87.884l0.051,1.255l-0.077,0.797c-0.106,-0.781 -0.106,-0.733 -0.095,-1.588l0.121,-0.464Z" style="fill-opacity:0.46;"/><path d="M1.138,332.095c-0.179,-1.28 -0.229,-1.24 -0.158,-1.614c0.234,-1.228 0.028,0.285 0.158,1.614Z" style="fill-opacity:0.31;"/><path d="M13.084,421.057c-0.424,0.373 -0.418,0.348 -0.818,-0.112c0.273,0.037 0.546,0.075 0.818,0.112Z" style="fill-opacity:0.36;"/><path d="M3.062,285.342l-0.11,1.216c-0.163,-0.821 -0.329,-1.147 0.11,-1.216Z" style="fill-opacity:0.3;"/><path d="M6.126,386.319l0.003,2.061c-0.206,-1.018 -0.143,-1.007 -0.003,-2.061Z" style="fill-opacity:0.86;"/><path d="M6.889,348.65l-0.016,0.825c-0.057,0.552 -0.114,1.104 -0.172,1.657c0.057,-1.318 -0.003,-1.266 0.187,-2.482Z" style="fill-opacity:0.56;"/><path d="M33.914,284.767l-0.097,0.361c-0.685,0.039 -0.666,0.071 -0.724,0.068l-0.198,-0.144l1.019,-0.285Z" style="fill-opacity:0.43;"/><path d="M50.213,336.982c-0.523,0.393 -0.475,0.416 -1.029,0.432c0.343,-0.144 0.686,-0.288 1.029,-0.432Z" style="fill-opacity:0.52;"/><path d="M38.032,140.804c-0.27,0.551 -0.264,0.801 -0.612,0.419c0.566,-0.434 0.569,-0.362 0.612,-0.419Z" style="fill-opacity:0.33;"/><path d="M4.206,10.085c-0.317,0.25 -0.376,0.091 -0.349,-0.58l0.349,0.58Z" style="fill-opacity:0.15;"/><path d="M13.234,161.566c0.016,1.117 0.268,1.518 -0.285,1.681c0.095,-0.56 0.19,-1.121 0.285,-1.681Z" style="fill-opacity:0.48;"/><path d="M1.845,323.391c-0.335,1.134 -0.29,1.161 -0.329,1.242c-0.117,-0.832 0.017,-0.741 0.329,-1.242Z" style="fill-opacity:0.36;"/><path d="M73.311,93.253c-0.353,0.576 -0.362,0.222 -0.816,-0.087c0.065,-0 0.03,0.047 0.816,0.087Z" style="fill-opacity:0.11;"/><path d="M21.861,262.941c-0.088,0.296 -0.176,0.593 -0.263,0.889c-0.081,-0.361 -0.284,-0.756 0.263,-0.889Z" style="fill-opacity:0.28;"/><path d="M27.339,296.501l-0.011,2.478c-0.091,-1.266 -0.182,-1.247 0.011,-2.478Z" style="fill-opacity:0.78;"/><path d="M7.014,130.954c0.213,1.408 0.156,1.414 0.177,1.533c-0.035,-0.156 -0.221,0.174 -0.255,0.018c-0.025,-0.114 0.006,-0.115 0.078,-1.551Z" style="fill-opacity:0.48;"/><path d="M6.928,173.175c-0.064,0.682 -0.128,1.364 -0.191,2.046c-0.005,-1.106 0.006,-1.02 0.191,-2.046Z" style="fill-opacity:0.55;"/><path d="M5.96,208.375c-0.079,0.291 -0.159,0.583 -0.238,0.874c-0.07,-0.226 -0.415,-0.736 0.238,-0.874Z" style="fill-opacity:0.14;"/><path d="M11.432,2.395c-0.272,0.133 -0.545,0.266 -0.817,0.398l0.025,-0.508c0.195,0.026 0.39,0.053 0.586,0.079l0.207,0.03Z" style="fill-opacity:0.4;"/><path d="M41.951,46.351c-0.27,0.102 -0.539,0.205 -0.809,0.307l0.099,-0.427c0.092,0.004 0.051,-0.095 0.124,-0.092c0.032,0.001 0,-0 0.392,0.096l0.193,0.116Z" style="fill-opacity:0.36;"/><path d="M10.376,239.793l-0.031,1.154l-0.186,0.085l0.125,-1.623l0.092,0.384Z" style="fill-opacity:0.53;"/><path d="M4.49,236.535c-0.089,0.534 -0.178,1.068 -0.267,1.602c0.011,-0.924 0.008,-0.883 0.267,-1.602Z" style="fill-opacity:0.55;"/><path d="M19.768,398.235c-0.083,-0.523 -0.167,-1.046 -0.25,-1.57c0.131,0.793 0.131,0.714 0.25,1.57Z" style="fill-opacity:0.47;"/><path d="M39.127,141.217c-0.266,0.28 -0.235,0.937 -0.391,0.412c0,0 0.134,-0.759 0.146,-0.825c0.082,0.138 0.164,0.276 0.245,0.414Z" style="fill-opacity:0.15;"/><path d="M33.817,285.129c-0.326,0.507 -0.35,0.451 -0.724,0.068c0.058,0.002 0.039,-0.029 0.724,-0.068Z" style="fill-opacity:0.17;"/><path d="M91.898,29.942l-0.001,2.07c-0.17,-1.056 -0.114,-1.012 0.001,-2.07Z" style="fill-opacity:0.55;"/><path d="M68.73,3.226l0.052,0.23c-0.274,0.021 -0.549,0.042 -0.823,0.063l0.053,-0.345c0.057,-0.008 0.046,0.024 0.719,0.052Z" style="fill-opacity:0.51;"/><path d="M44.643,410.303c-0.412,0.114 -0.825,0.228 -1.237,0.342l0.217,-0.182l1.021,-0.16Z" style="fill-opacity:0.64;"/><path d="M66.101,324.421c-0.648,0.158 -0.602,0.155 -1.23,0.121l0.198,-0.128l1.032,0.007Z" style="fill-opacity:0.45;"/><path d="M90.4,335.986l0.043,0.215l-1.035,-0.053c0.517,-0.143 0.485,-0.17 0.992,-0.162Z" style="fill-opacity:0.5;"/><path d="M87.759,318.849c0.001,0.828 0.002,1.655 0.003,2.483c-0.188,-1.245 -0.099,-1.192 -0.003,-2.483Z" style="fill-opacity:0.67;"/><path d="M48.381,2.026c-0.35,-0.108 -0.699,-0.215 -1.049,-0.323c0.555,-0.096 0.53,-0.076 1.049,0.323Z" style="fill-opacity:0.45;"/><path d="M29.43,124.327c-0.078,1.806 -0.099,1.756 -0.101,1.909l-0.134,0.154c0.078,-0.688 0.157,-1.376 0.235,-2.063Z" style="fill-opacity:0.63;"/><path d="M55.802,83.069c-0.504,0.319 -0.476,0.192 -1.028,0.109c0.131,-0.042 0.262,-0.084 0.393,-0.127l0.635,0.018Z" style="fill-opacity:0.39;"/><path d="M35.364,341.247c-0.52,0.246 -0.504,0.375 -1.036,-0.004l0.208,0.015l0.622,-0.001l0.206,-0.01Z" style="fill-opacity:0.51;"/><path d="M2.819,296.515c-0.086,0.684 -0.172,1.368 -0.258,2.052l0.02,-0.41c0.034,-1.674 0.214,-1.537 0.239,-1.642Z" style="fill-opacity:0.63;"/><path d="M30.607,96.929l-0.046,0.353l-0.356,0.13l-0.412,0.004c0.271,-0.162 0.543,-0.325 0.814,-0.487Z" style="fill-opacity:0.59;"/><path d="M13.5,341.256l-0.04,0.176c-0.402,-0.071 -0.803,-0.141 -1.205,-0.212c0.415,0.012 0.83,0.023 1.245,0.035Z" style="fill-opacity:0.55;"/><path d="M76.838,323.946c-0.528,0.199 -0.512,0.308 -1.047,-0.022l0.209,0l0.626,0.004l0.212,0.017Z" style="fill-opacity:0.45;"/><path d="M36.502,285.168c-0.337,0.47 -0.336,0.424 -0.728,0.049c0.058,0.004 0.048,-0.013 0.728,-0.049Z" style="fill-opacity:0.17;"/><path d="M57.305,378.456c0.122,1.049 0.086,0.964 0.001,2.061c-0,-0.687 -0.001,-1.374 -0.001,-2.061Z" style="fill-opacity:0.47;"/><path d="M23.195,421.283c-0.345,0.078 -0.69,0.156 -1.035,0.235c0.345,-0.078 0.69,-0.156 1.035,-0.235Z" style="fill-opacity:0.63;"/><path d="M29.171,214.958c-0.089,0.528 -0.178,1.056 -0.267,1.583l0.129,-1.166l0.138,-0.417Z" style="fill-opacity:0.52;"/><path d="M15.751,143.142c-0.457,0.068 -0.431,0.11 -0.798,-0.312l0.798,0.312Z" style="fill-opacity:0.54;"/><path d="M87.68,308.143c0.029,0.809 0.058,1.618 0.087,2.426c-0.081,-1.25 -0.104,-1.169 -0.087,-2.426Z" style="fill-opacity:0.68;"/><path d="M40.147,119.81c-0.06,0.533 -0.12,1.066 -0.18,1.6c-0.019,-0.892 -0.166,-0.945 0.18,-1.6Z" style="fill-opacity:0.52;"/><path d="M20.494,143.616c-0.016,0.664 -0.117,0.675 -0.394,0.362c0.131,-0.121 0.263,-0.241 0.394,-0.362Z" style="fill-opacity:0.27;"/><path d="M29.396,107.349c-0.055,0.689 -0.111,1.379 -0.166,2.068c0.055,-0.689 0.111,-1.379 0.166,-2.068Z" style="fill-opacity:0.78;"/><path d="M11.225,2.364c-0.195,-0.026 -0.39,-0.053 -0.586,-0.079c0.255,-0.528 0.269,-0.27 0.586,0.079Z" style="fill-opacity:0.13;"/><path d="M92.082,336.36c-0.2,0.087 -0.4,0.174 -0.6,0.261l-0.221,-0.225c0.429,-0.096 0.396,-0.163 0.82,-0.036Z" style="fill-opacity:0.37;"/><path d="M51.049,409.56c-0.278,0.124 -0.556,0.248 -0.834,0.372l0.052,-0.25c0.261,-0.041 0.521,-0.082 0.782,-0.122Z" style="fill-opacity:0.5;"/><path d="M13.243,158.259c-0.002,0.687 -0.003,1.374 -0.005,2.061c-0.082,-1.073 -0.125,-0.993 0.005,-2.061Z" style="fill-opacity:0.5;"/><path d="M88.777,258.002c-0.032,1.054 0.01,1.062 -0.032,1.054c-0.029,-0.006 0,0 -0.168,-0.65c0.067,-0.135 0.133,-0.269 0.2,-0.404Z" style="fill-opacity:0.43;"/><path d="M29.467,97.934c-0.15,0.952 -0.079,1.038 -0.293,1.13c0.166,-0.559 0.11,-0.555 0.293,-1.13Z" style="fill-opacity:0.35;"/><path d="M3.959,398.146c-0.211,0.597 -0.225,0.526 -0.567,0.603c0.257,-0.495 0.244,-0.471 0.567,-0.603Z" style="fill-opacity:0.36;"/><path d="M20.302,421.532c-0.426,0.169 -0.399,0.076 -0.808,-0.158l0.808,0.158Z" style="fill-opacity:0.45;"/><path d="M57.83,156.167c-0.034,0.727 -0.039,0.625 -0.168,1.257c0,-0.73 -0.068,-0.749 0.168,-1.257Z" style="fill-opacity:0.56;"/><path d="M25.67,421.216c-0.524,0.216 -0.512,0.319 -1.041,0.02l1.041,-0.02Z" style="fill-opacity:0.69;"/><path d="M58.283,146.684c-0.009,0.027 -0.003,-0 -0.236,1.218c-0.15,-0.742 -0.015,-0.668 0.236,-1.218Z" style="fill-opacity:0.41;"/><path d="M41.894,382.487l-0.198,0.083c0.045,-0.373 0.091,-0.745 0.136,-1.118c0.021,0.345 0.041,0.69 0.062,1.035Z" style="fill-opacity:0.27;"/><path d="M2.467,303.498l-0.271,1.277c0.066,-0.379 -0.089,-0.824 -0.023,-1.202c0.008,-0.045 0,-0 0.294,-0.075Z" style="fill-opacity:0.55;"/><path d="M3.181,274.563c-0.004,0.413 -0.007,0.825 -0.011,1.238c-0.13,-0.657 -0.21,-0.679 0.011,-1.238Z" style="fill-opacity:0.29;"/><path d="M64.234,324.538l-0.82,0.237l0.225,-0.371c0.198,0.045 0.397,0.089 0.595,0.134Z" style="fill-opacity:0.44;"/><path d="M89.74,159.929c0.224,0.796 0.23,0.788 0.022,1.599c0.05,-0.798 0.034,-0.706 -0.022,-1.599Z" style="fill-opacity:0.16;"/><path d="M59.498,3.097l-0.824,-0.005c0.427,-0.322 0.418,-0.306 0.824,0.005Z" style="fill-opacity:0.22;"/><path d="M60.602,82.237c-0.15,0.147 -0.301,0.294 -0.451,0.441c-0.012,-0.674 0.1,-0.482 0.451,-0.441Z" style="fill-opacity:0.35;"/><path d="M3.432,274.592c-0.087,0.403 -0.175,0.806 -0.262,1.208c0.004,-0.413 0.007,-0.825 0.011,-1.238l0.251,0.029Z" style="fill-opacity:0.59;"/><path d="M74.928,4.045l-0.576,-0.173c0.322,-0.132 0.301,-0.136 0.576,0.173Z" style="fill-opacity:0.3;"/><path d="M48.96,65.533c-0.018,0.54 -0.067,0.922 -0.192,0.414c0.064,-0.138 0.128,-0.276 0.192,-0.414Z" style="fill-opacity:0.44;"/><path d="M23.479,68.1c0.018,1.057 -0.008,0.999 -0.085,1.99c0.028,-0.663 0.057,-1.327 0.085,-1.99Z" style="fill-opacity:0.66;"/><path d="M80.275,44.545c-0.179,-0.086 -0.358,-0.172 -0.536,-0.258c0.316,-0.169 0.336,-0.268 0.536,0.258Z" style="fill-opacity:0.43;"/><path d="M56.384,173.008l-0.608,0.365c0.301,-0.357 0.26,-0.446 0.608,-0.365Z" style="fill-opacity:0.43;"/><path d="M29.585,341.101l-0.824,0.082c0.433,-0.322 0.407,-0.299 0.824,-0.082Z" style="fill-opacity:0.43;"/><path d="M63.639,324.405l-0.225,0.371c-0.271,-0.191 -0.25,-0.136 -0.399,-0.555c0.331,0.191 0.295,0.154 0.623,0.184Z" style="fill-opacity:0.27;"/><path d="M74.928,4.045l0.045,0.204c-0.276,-0.129 -0.551,-0.258 -0.827,-0.387l0.206,0.011l0.576,0.173Z" style="fill-opacity:0.56;"/><path d="M43.705,43.234c-0.085,0.264 -0.169,0.529 -0.254,0.793c0.085,-0.264 0.169,-0.529 0.254,-0.793Z" style="fill-opacity:0.45;"/><path d="M20.493,354.443l0.064,1.237c-0.065,-0.545 -0.129,-1.09 -0.194,-1.635l0.129,0.398Z" style="fill-opacity:0.15;"/><path d="M12.672,237.201c-0.439,-0.04 -0.419,0.018 -0.826,-0.32c0.275,0.107 0.551,0.213 0.826,0.32Z" style="fill-opacity:0.51;"/><path d="M10.376,239.793c0.12,0.613 0.233,0.686 -0.031,1.154l0.031,-1.154Z" style="fill-opacity:0.17;"/><path d="M41.914,381.291c0.126,0.647 0.116,0.624 -0.02,1.196c-0.021,-0.345 -0.041,-0.69 -0.062,-1.035l0.082,-0.161Z" style="fill-opacity:0.23;"/><path d="M70.23,284.343l-1.039,0.021c0.534,-0.168 0.508,-0.245 1.039,-0.021Z" style="fill-opacity:0.5;"/><path d="M0.715,397.065c-0.019,0.286 -0.037,0.572 -0.056,0.858l-0.156,-1.266c0.07,0.136 0.141,0.272 0.211,0.407Z" style="fill-opacity:0.28;"/><path d="M6.944,82.928c-0.069,0.412 -0.139,0.825 -0.208,1.237c0.005,-1.196 0.149,-1.081 0.208,-1.237Z" style="fill-opacity:0.45;"/><path d="M90.198,107.354c0.103,0.859 0.098,0.782 -0.009,1.633c0.003,-0.544 0.006,-1.089 0.009,-1.633Z" style="fill-opacity:0.12;"/><path d="M55.802,83.069l-0.635,-0.018c0.34,-0.289 0.325,-0.243 0.635,0.018Z" style="fill-opacity:0.21;"/><path d="M36.384,226.035l-0.607,0.171l0.047,-0.365c0.187,0.065 0.373,0.129 0.56,0.194Z" style="fill-opacity:0.5;"/><path d="M76.625,323.928l-0.626,-0.004c0.305,-0.259 0.293,-0.282 0.626,0.004Z" style="fill-opacity:0.22;"/><path d="M88.424,214.957l0.004,1.243c-0.133,-0.657 -0.123,-0.633 -0.004,-1.243Z" style="fill-opacity:0.55;"/><path d="M27.1,309.328l0.002,1.657c-0.119,-0.855 -0.117,-0.814 -0.002,-1.657Z" style="fill-opacity:0.51;"/><path d="M90.542,351.178c-0.05,0.241 -0.1,0.482 -0.149,0.723l0.149,-0.723Z" style="fill-opacity:0.4;"/><path d="M20.91,410.378c-0.189,0.166 -0.217,0.318 -0.3,-0.109c0.1,0.036 0.2,0.073 0.3,0.109Z" style="fill-opacity:0.4;"/><path d="M27.459,287.809c0.001,0.549 0.002,1.098 0.004,1.647c-0.091,-0.831 -0.094,-0.787 -0.004,-1.647Z" style="fill-opacity:0.47;"/><path d="M49.587,419.754c-0.203,0.133 -0.407,0.265 -0.61,0.398l0.61,-0.398Z" style="fill-opacity:0.51;"/><path d="M41.758,46.235c-0.392,-0.096 -0.361,-0.095 -0.392,-0.096c-0.073,-0.003 -0.031,0.096 -0.124,0.092c0.253,-0.347 0.258,-0.268 0.516,0.004Z" style="fill-opacity:0.14;"/><path d="M65.169,124.353c0.006,0.091 0.073,1.137 0.073,1.137c-0.072,0.13 -0.14,-0.526 -0.212,-0.396l0.14,-0.741Z" style="fill-opacity:0.48;"/><path d="M6.692,420.185c-0.455,-0.049 -0.43,-0.013 -0.822,-0.403c0.274,0.134 0.548,0.269 0.822,0.403Z" style="fill-opacity:0.57;"/><path d="M23.393,80.439c0.134,0.873 0.128,0.826 0.004,1.655l-0.004,-1.655Z" style="fill-opacity:0.61;"/><path d="M1.744,418.578c-0.211,0.223 -0.302,0.115 -0.225,-0.374c0.075,0.125 0.15,0.249 0.225,0.374Z" style="fill-opacity:0.29;"/><path d="M83.747,140.99c0.077,0.681 0.101,0.651 -0.112,1.119l0.112,-1.119Z" style="fill-opacity:0.39;"/><path d="M92.94,91.256c-0.139,0.141 -0.278,0.283 -0.418,0.424c0.139,-0.141 0.278,-0.283 0.418,-0.424Z" style="fill-opacity:0.76;"/><path d="M6.265,410.367c-0.203,-0.115 -0.407,-0.229 -0.61,-0.344c0.203,0.115 0.407,0.229 0.61,0.344Z" style="fill-opacity:0.53;"/><path d="M41.749,0.702l-0.197,0.243l-0.62,0.001c0.272,-0.081 0.545,-0.163 0.817,-0.244Z" style="fill-opacity:0.29;"/><path d="M91.34,63.474c0.101,0.845 0.101,0.797 0.008,1.657l-0.008,-1.657Z" style="fill-opacity:0.76;"/><path d="M35.158,341.257l-0.622,0.001c0.313,-0.23 0.301,-0.243 0.622,-0.001Z" style="fill-opacity:0.27;"/><path d="M80.129,224.497l-0.621,-0c0.325,-0.196 0.288,-0.203 0.621,0Z" style="fill-opacity:0.44;"/><path d="M87.684,317.241c0.025,0.536 0.05,1.071 0.075,1.607c-0.08,-0.813 -0.095,-0.757 -0.075,-1.607Z" style="fill-opacity:0.7;"/><path d="M42.106,1.165l-0.553,-0.22l0.197,-0.243c0.119,0.154 0.238,0.309 0.356,0.463Z" style="fill-opacity:0.2;"/><path d="M22.357,84.758c-0.272,0.074 -0.545,0.148 -0.817,0.222c0.272,-0.074 0.545,-0.148 0.817,-0.222Z" style="fill-opacity:0.17;"/><path d="M88.767,323.568c-0.201,0.108 -0.403,0.216 -0.604,0.324c0.305,-0.256 0.268,-0.305 0.604,-0.324Z" style="fill-opacity:0.19;"/><path d="M89.538,397.912c-0.033,-0.426 -0.066,-0.851 -0.098,-1.277c0.033,0.426 0.066,0.851 0.098,1.277Z" style="fill-opacity:0.18;"/><path d="M66.302,3.508l-0.598,-0.245c0.332,-0.055 0.301,-0.01 0.598,0.245Z" style="fill-opacity:0.53;"/><path d="M87.452,284.988c0.029,0.889 -0.013,0.786 -0.104,1.575c0.078,-1.516 0.098,-1.448 0.104,-1.575Z" style="fill-opacity:0.53;"/><path d="M89.473,244.785c0.065,0.611 0.014,0.533 -0.16,1.053l0.16,-1.053Z" style="fill-opacity:0.5;"/><path d="M36.807,129.734c-0.274,0.139 -0.548,0.279 -0.822,0.418c0.206,-0.133 0.412,-0.266 0.618,-0.4l0.204,-0.019Z" style="fill-opacity:0.56;"/><path d="M18.651,144.087c-0.192,0.105 -0.384,0.211 -0.576,0.316c0.192,-0.105 0.384,-0.211 0.576,-0.316Z" style="fill-opacity:0.12;"/><path d="M34.121,142.366c-0.206,-0.117 -0.413,-0.235 -0.619,-0.352c0.206,0.117 0.413,0.235 0.619,0.352Z" style="fill-opacity:0.14;"/><path d="M48.597,72.586c-0.089,0.264 -0.179,0.529 -0.268,0.793c0.089,-0.264 0.179,-0.529 0.268,-0.793Z" style="fill-opacity:0.61;"/><path d="M76.003,420.261c0.032,-0.005 0.756,-0.108 0.378,0.232c0,0 -0.348,-0.214 -0.378,-0.232Z" style="fill-opacity:0.09;"/><path d="M75.59,57.28l-0.607,0.029c0.303,-0.204 0.267,-0.245 0.607,-0.029Z" style="fill-opacity:0.25;"/><path d="M21.127,421.514c-0.335,0.169 -0.298,0.167 -0.617,0.011l0.617,-0.011Z" style="fill-opacity:0.43;"/><path d="M44.028,29.115c-0.007,0.415 -0.013,0.831 -0.02,1.246c-0.058,-0.676 -0.075,-0.612 0.02,-1.246Z" style="fill-opacity:0.71;"/><path d="M6.149,201.794c0.034,0.622 0.029,0.543 -0.113,1.154l0.113,-1.154Z" style="fill-opacity:0.65;"/><path d="M39.146,143.417c-0.092,0.255 -0.184,0.51 -0.276,0.765c0.092,-0.255 0.184,-0.51 0.276,-0.765Z" style="fill-opacity:0.42;"/><path d="M81.238,323.042c-0.186,-0.815 -0.204,-0.753 -0.186,-0.815c0.194,-0.678 0.186,0.743 0.186,0.815Z" style="fill-opacity:0.19;"/><path d="M89.335,404.536l0.116,1.23c-0.066,-0.282 -0.131,-0.563 -0.197,-0.845l0.081,-0.386Z" style="fill-opacity:0.95;"/><path d="M82.467,208.827c-0.064,0.251 -0.128,0.503 -0.192,0.754c0.064,-0.251 0.128,-0.503 0.192,-0.754Z" style="fill-opacity:0.52;"/><path d="M88.163,323.892l-0.199,-0.068c-0.055,-0.15 -0.11,-0.3 -0.165,-0.449c0.061,0.043 0.019,0.001 0.364,0.518Z" style="fill-opacity:0.29;"/><path d="M83.641,78.833c-0.14,0.101 -0.281,0.202 -0.421,0.304l-0.21,-0.181l0.631,-0.122Z" style="fill-opacity:0.6;"/><path d="M55.38,336.928c0.035,0.007 0.786,0.151 0.403,0.372c-0.034,0.02 0,0 -0.403,-0.372Z" style="fill-opacity:0.11;"/><path d="M19.502,391.697c-0.128,-0.756 -0.142,-0.699 -0.128,-0.756c0.156,-0.647 0.13,0.692 0.128,0.756Z" style="fill-opacity:0.17;"/><path d="M55.576,286.588c-0.205,-0.006 -0.41,-0.011 -0.615,-0.017c0.132,-0.082 0.263,-0.165 0.395,-0.247l0.221,0.264Z" style="fill-opacity:0.62;"/><path d="M30.561,97.282c-0.148,0.35 -0.137,0.254 -0.356,0.13l0.356,-0.13Z" style="fill-opacity:0.25;"/><path d="M19.465,84.908c-0.202,0.031 -0.404,0.063 -0.606,0.094c0.324,-0.171 0.292,-0.19 0.606,-0.094Z" style="fill-opacity:0.08;"/><path d="M63.417,184.327c-0.03,0.415 -0.06,0.333 -0.261,0.782c0.087,-0.261 0.174,-0.521 0.261,-0.782Z" style="fill-opacity:0.6;"/><path d="M45.638,140.397c-0.072,0.27 -0.144,0.541 -0.216,0.811c0.072,-0.27 0.144,-0.541 0.216,-0.811Z" style="fill-opacity:0.44;"/><path d="M60.702,12.771l-0.573,0.03c0.3,-0.156 0.263,-0.164 0.573,-0.03Z" style="fill-opacity:0.2;"/><path d="M20.522,353.651l-0.029,0.792l-0.129,-0.398c0.053,-0.131 0.105,-0.262 0.158,-0.393Z" style="fill-opacity:0.05;"/><path d="M57.428,395.425c0.103,0.689 0.094,0.617 0.009,1.239l-0.009,-1.239Z" style="fill-opacity:0.75;"/><path d="M6.037,45.261c0.128,0.563 0.143,0.471 0.134,1.109c-0.045,-0.37 -0.089,-0.739 -0.134,-1.109Z" style="fill-opacity:0.67;"/><path d="M87.767,311.399c-0.047,0.422 -0.094,0.844 -0.14,1.266c0.047,-0.422 0.094,-0.844 0.14,-1.266Z" style="fill-opacity:0.7;"/><path d="M87.495,298.154l-0.007,1.237c-0.065,-0.66 -0.063,-0.588 0.007,-1.237Z" style="fill-opacity:0.45;"/><path d="M70.643,183.225c-0.207,0.098 -0.414,0.195 -0.621,0.293c0.207,-0.098 0.414,-0.195 0.621,-0.293Z" style="fill-opacity:0.73;"/><path d="M55.163,139.881l-0.611,-0.002c0.333,-0.125 0.297,-0.117 0.611,0.002Z" style="fill-opacity:0.44;"/><path d="M64.246,284.376l-0.622,-0.029c0.313,-0.115 0.277,-0.128 0.622,0.029Z" style="fill-opacity:0.5;"/><path d="M38.528,200.48c0.053,0.618 0.059,0.55 0.003,1.224l-0.003,-1.224Z" style="fill-opacity:0.44;"/><path d="M88.344,273.802c0.139,0.32 0.121,0.287 0.089,0.748l-0.089,-0.748Z" style="fill-opacity:0.28;"/><path d="M83.221,79.137c-0.208,-0.097 -0.417,-0.194 -0.625,-0.291l0.415,0.11l0.21,0.181Z" style="fill-opacity:0.63;"/><path d="M20.281,175.875l-0.384,0.22l0.044,-0.281c0.113,0.02 0.227,0.041 0.34,0.061Z" style="fill-opacity:0.56;"/><path d="M52.04,236.303l-0.587,0.144c0.316,-0.191 0.276,-0.195 0.587,-0.144Z" style="fill-opacity:0.58;"/><path d="M67.939,37.024c0.138,0.362 0.111,0.304 0.087,0.783l-0.087,-0.783Z" style="fill-opacity:0.15;"/><path d="M12.083,51.451c-0.061,-0.277 -0.122,-0.555 -0.183,-0.832c0.061,0.277 0.122,0.555 0.183,0.832Z" style="fill-opacity:0.67;"/></g></svg>