<?xml version="1.0" encoding="UTF-8" standalone="no"?>
<!DOCTYPE svg PUBLIC "-//W3C//DTD SVG 1.1//EN" "http://www.w3.org/Graphics/SVG/1.1/DTD/svg11.dtd">
<svg width="100%" height="100%" viewBox="0 0 1280 720" version="1.1" xmlns="http://www.w3.org/2000/svg" xmlns:xlink="http://www.w3.org/1999/xlink" xml:space="preserve" xmlns:serif="http://www.serif.com/" style="fill-rule:evenodd;clip-rule:evenodd;stroke-linejoin:round;stroke-miterlimit:2;">
    <g>
        <g>
            <g transform="matrix(1.017768,0,0,1.180918,20.074647,-23.899467)">
                <path d="M372.845,437.393C513.581,55.427 362.49,289.56 174.582,196.748C-105.794,58.263 174.968,133.357 175.393,111.579C177.319,12.882 223.123,10.18 353.316,70.101C581.307,175.034 401.327,441.276 497.764,360.179C713.282,178.943 1292.761,-3.364 1042.608,559.74C960.465,744.648 369.815,445.616 372.845,437.393Z"/>
            </g>
            <g transform="matrix(1,0,0,1,501,222)">
                <path d="M490.059,10.643C505.077,6.998 505.43,14.27 520.521,10.441C522.185,10.682 523.848,10.923 525.511,11.163C528.921,14.523 529.408,13.441 538.496,15.516C539.232,15.639 545.458,17.381 545.582,17.387C545.935,17.582 545.316,17.782 545.734,18.012C545.796,18.046 545.734,18.012 546.61,18.189C546.865,18.336 548.585,19.329 549.638,20.281C551.268,21.062 551.051,21.059 552.697,21.206C553.316,21.614 553.936,22.023 554.555,22.431C557.064,23.905 556.746,24.032 559.479,25.531C559.874,26.138 560.269,26.745 560.664,27.352C563.835,30.239 567.048,32.876 567.615,33.341C567.863,33.579 569.353,35.013 570.621,36.402C612.548,79.386 614.434,143.196 613.849,178.51C612.908,235.259 581.993,328.686 569.14,356.348C568.946,356.766 566.765,361.461 566.731,361.59C566.361,362.579 565.992,363.567 565.622,364.556C565.281,364.989 560.93,373.975 560.756,374.606C560.386,375.595 560.016,376.583 559.647,377.571C558.077,379.368 553.301,389.273 552.45,390.473C552.388,390.561 551.76,391.445 551.717,391.597C550.551,393.643 549.925,393.27 549.626,395.617C549.433,395.827 549.55,395.85 547.681,398.6C547.303,399.245 546.926,399.891 546.548,400.536C546.269,400.898 545.99,401.259 545.711,401.62C545.375,402.284 545.038,402.948 544.702,403.611L544.494,404.496C543.035,405.511 543.124,405.391 541.687,406.627C538.781,410.516 538.401,410.074 536.611,414.604L535.895,414.822C533.796,416.202 531.682,416.939 529.876,421.806C519.703,427.561 520.994,429.36 510.406,434.323C499.233,439.559 451.332,436.601 448.243,435.446C449.243,434.045 458.868,411.211 459.349,410.433C461.011,407.744 462.978,402.144 463.239,401.402C465.067,396.196 466.023,396.776 467.3,391.426C467.91,390.039 468.006,390.189 467.882,388.685C469.326,386.451 469.29,386.533 469.314,386.431C469.921,385.054 470.027,385.208 469.877,383.683C470.228,383.145 472.656,379.418 473.321,376.436C473.922,375.044 474.023,375.195 473.881,373.684C477.095,368.699 478.638,362.673 478.897,361.664C480.821,354.15 482.831,354.997 484.332,347.443C484.926,346.037 485.025,346.186 484.882,344.683C485.267,344.081 487.529,340.54 488.333,336.444C488.929,335.035 489.028,335.184 488.882,333.682C491.352,329.8 497.495,308.63 498.386,306.478C498.936,305.05 499.024,305.199 498.878,303.649C499.153,302.833 501.925,294.589 502.395,293.481C502.954,292.062 503.054,292.214 502.876,290.647C502.994,290.312 504.132,287.101 504.4,286.483C504.946,285.049 505.037,285.198 504.879,283.648C504.997,283.313 506.144,280.07 506.396,279.482C506.934,278.033 507.014,278.178 506.883,276.649C510.252,267.099 509.709,267.059 513.405,251.49C513.95,250.063 514.065,250.182 513.882,248.641C514.054,247.924 514.227,247.207 514.399,246.49C514.992,245.07 515.129,245.229 514.873,243.638C515.053,243.255 515.232,242.871 515.411,242.488C515.889,241.065 515.995,241.191 515.889,239.643C516.062,238.926 516.235,238.209 516.408,237.491C516.935,236.052 517.041,236.171 516.885,234.641C517.059,233.925 517.233,233.208 517.407,232.492C517.9,231.052 518.018,231.183 517.887,229.64C518.057,228.591 518.227,227.541 518.397,226.492C518.93,225.058 519.06,225.191 518.884,223.639C519.051,222.59 519.219,221.54 519.386,220.491C519.961,219.07 520.107,219.203 519.88,217.638C520.046,216.589 520.211,215.54 520.377,214.491C520.939,213.01 521.072,213.146 520.884,211.636C521.051,210.255 521.218,208.875 521.386,207.494C522.138,205.606 522.256,205.758 521.879,203.635C522.043,202.254 522.208,200.873 522.373,199.492C522.901,198.09 523.083,198.256 522.884,196.633C523.613,194.888 523.281,194.947 523.357,189.495C523.657,188.148 523.958,186.802 524.259,185.456C524.291,182.803 524.322,180.15 524.354,177.497C525.109,172.512 525.154,172.731 525.352,167.49C525.393,154.436 525.43,154.663 525.26,141.541C524.957,139.862 524.655,138.183 524.352,136.504C524.331,133.515 524.311,130.525 524.29,127.535C524.125,124.434 524.1,124.604 523.365,121.504C523.283,117.94 523.591,118.034 522.887,116.362C523.016,114.854 522.902,114.981 522.399,113.507L522.318,110.537C522.013,109.193 521.709,107.849 521.405,106.506L521.288,103.544C520.987,102.532 520.687,101.52 520.386,100.508C519.604,93.959 519.7,94.04 519.322,92.544C519.018,91.532 518.715,90.52 518.412,89.509C518.043,87.969 518.051,88.14 517.623,86.456C516.71,82.864 517.182,82.968 516.303,79.549C516.007,78.537 515.711,77.524 515.415,76.512L515.339,75.539C515.029,74.531 514.72,73.522 514.411,72.514L514.332,71.547C514.004,70.547 513.677,69.546 513.349,68.546C513.028,67.538 512.707,66.53 512.386,65.522C512.297,65.305 506.916,47.982 504.896,43.336C492.854,15.635 493.353,15.629 490.059,10.643ZM551.609,72.861C552.208,72.85 552.806,72.839 553.404,72.829C555.77,76.753 556.808,75.307 558.347,76.605C558.72,77.247 559.093,77.888 559.465,78.529C560.027,79.099 572.704,97.878 573.345,152.502C573.429,153.492 573.513,154.483 573.597,155.473C577.646,191.09 554.279,293.55 545.873,305.68L545.463,307.49C545.097,308.812 544.73,310.133 544.364,311.454C544.007,312.445 543.65,313.437 543.294,314.428C543.205,314.833 537.135,330.15 535.454,332.466C526.586,340.985 525.567,342.057 523.795,339.612C524.362,338.836 524.496,339.113 525.085,338.317C525.273,337.395 525.462,336.473 525.651,335.551L526.122,335.347L526.683,332.561C527.994,326.122 530.605,322.134 531.134,321.325C531.3,320.397 531.466,319.47 531.632,318.542C532.583,317.212 532.318,317.335 532.638,315.544C533.573,314.209 533.317,314.335 533.646,312.547L534.126,312.35C534.297,311.414 534.469,310.479 534.64,309.543C535.602,308.183 535.32,308.28 535.629,306.539C536.595,305.223 536.304,305.34 536.601,303.519C536.626,303.461 538.916,296.922 539.117,296.348L539.654,293.547C540.592,292.165 540.321,292.265 540.635,290.54C541.718,289.05 541.332,289.134 541.595,287.516C541.768,287.128 541.941,286.74 542.114,286.352C542.288,285.414 542.462,284.476 542.636,283.539C543.678,282.109 543.323,282.186 543.595,280.516C543.768,280.128 543.941,279.74 544.115,279.352C544.288,278.414 544.461,277.476 544.634,276.538C545.682,275.11 545.324,275.185 545.595,273.516C545.768,273.128 545.942,272.74 546.115,272.353C546.276,271.407 546.436,270.461 546.597,269.516C547.292,267.935 546.744,267.997 551.682,248.544C552.605,247.186 552.299,247.262 552.59,245.509C552.764,244.791 552.938,244.074 553.111,243.357C553.269,242.408 553.427,241.46 553.585,240.511C553.924,239.177 554.263,237.844 554.602,236.51L554.677,234.542C555.613,233.181 555.301,233.256 555.59,231.508L555.659,229.534C557.004,227.71 556.478,227.685 556.589,225.506L556.682,223.539C557.615,222.207 557.306,222.276 557.612,220.508L557.705,217.546C558.606,216.188 558.3,216.278 558.601,214.507L558.68,211.536C560.031,209.676 559.493,209.659 559.617,207.506L559.575,205.506C560.647,202.604 560.495,202.787 560.606,199.505L560.584,197.507C561.832,194.112 561.509,194.146 561.621,190.504L561.608,185.508C562.713,182.422 562.505,182.601 562.646,179.505L562.628,166.508C565.699,158.177 562.676,150.595 562.647,150.492L562.645,138.495C562.507,135.408 562.72,135.585 561.595,132.493L561.631,127.495C561.349,124.797 561.836,124.834 560.696,122.465L560.584,118.495C560.456,115.869 560.461,116.03 559.58,113.492L559.588,112.493C559.43,111.542 559.271,110.591 559.113,109.641C558.943,108.591 558.772,107.542 558.602,106.492C558.441,105.541 558.279,104.59 558.118,103.639C557.94,102.924 557.763,102.209 557.585,101.494C557.449,98.769 557.421,98.926 556.575,96.491C556.127,95.026 555.461,91.023 555.381,90.544C555.305,90.086 554.662,88.646 554.591,88.485C554.433,87.539 554.276,86.592 554.119,85.645C553.941,85.259 553.762,84.873 553.584,84.487C553.433,83.539 553.281,82.592 553.13,81.644C553.01,81.31 551.856,78.084 551.592,77.485C551.254,76.485 550.916,75.486 550.577,74.486L550.596,73.521C550.934,73.301 551.271,73.081 551.609,72.861ZM535.454,332.466C533.91,339.916 524.759,343.706 523.521,344.219C523.011,343.994 522.5,343.769 521.989,343.543L523.795,339.612C525.567,342.057 526.586,340.985 535.454,332.466ZM553.404,72.829C556.597,73.786 556.747,73.54 558.347,76.605C556.808,75.307 555.77,76.753 553.404,72.829ZM551.609,72.861C551.271,73.081 550.934,73.301 550.596,73.521C550.542,72.628 550.639,72.687 551.609,72.861Z" style="fill:white;fill-opacity:0.99;"/>
                <path d="M342.418,21.134C347.108,22.147 347.118,21.075 351.466,22.587C352.892,23.083 356.08,24.38 356.479,24.543C366.21,32.029 366.176,32.049 366.717,32.349C368.22,33.992 368.211,33.818 369.57,35.44C370.205,36.132 370.84,36.824 371.474,37.516C371.789,38.038 371.462,37.957 371.711,38.369C371.768,38.463 371.711,38.369 372.543,39.466C372.921,40.108 373.299,40.75 373.677,41.392C373.967,41.749 374.257,42.106 374.546,42.463C375.189,43.147 375.832,43.831 376.476,44.515L376.667,45.409C376.999,46.077 377.331,46.744 377.664,47.411C380.537,52.953 380.432,52.926 380.714,53.382C381.027,53.889 380.771,53.767 380.984,54.21C381.071,54.391 381.431,54.307 381.518,54.488C381.919,55.461 382.32,56.434 382.721,57.407C382.75,57.511 382.901,57.154 383.515,58.489C383.917,59.465 384.318,60.44 384.719,61.415C387.31,72.197 429.389,151.392 379.704,322.543C377.922,328.682 365.771,370.538 349.671,396.588C348.074,399.173 347.588,401.383 345.702,403.622C345.472,403.895 346.124,404.046 343.617,407.563C343.247,408.21 342.878,408.858 342.508,409.506C339.999,413.862 336.268,418.833 335.682,419.613C335.303,420.254 334.924,420.895 334.546,421.536C334.363,421.756 332.299,424.23 332.255,424.277C330.956,425.684 330.944,425.629 330.844,425.758C329.297,427.146 329.517,427.088 328.83,428.848C328.45,429.145 328.07,429.443 327.689,429.74C326.729,430.668 326.001,431.644 325.868,431.821C320.655,433.989 314.44,438.253 313.499,438.898C312.193,438.613 310.886,438.328 309.579,438.043C309.449,436.96 308.353,437.405 304.213,425.508L304.294,421.499C304.857,415.967 304.971,416.094 304.933,410.61C324.031,299.193 339.504,283.999 337.1,175.526C336.855,164.442 329.623,105.041 328.143,89.558C327.964,88.543 327.785,87.529 327.606,86.515C327.55,85.397 327.761,85.6 327.136,72.537L327.067,63.498L327.138,58.489L327.259,54.5L327.421,50.498C328.359,45.306 328.384,45.396 328.447,44.491C328.688,42.812 328.93,41.133 329.172,39.453C331.846,34.487 331.783,27.066 339.264,24.049C339.406,23.992 339.264,24.049 339.398,22.132L342.418,21.134ZM362.43,90.563C362.743,90.895 363.056,91.226 363.37,91.557C364.24,92.938 368.366,108.371 369.443,121.508C371.634,148.259 373.341,148.083 373.425,194.499C373.536,255.3 350.071,344.339 343.506,354.504L342.893,354.879C340.845,356.248 340.462,355.74 339.577,353.502C376.792,205.494 366.461,180.891 359.37,106.487C359.179,105.47 358.988,104.454 358.797,103.437C357.956,94.229 358.361,94.283 358.236,93.496L358.724,91.573C360.269,90.238 360.208,90.292 362.43,90.563ZM339.577,353.502C340.462,355.74 340.845,356.248 342.893,354.879L342.664,356.608C337.362,367.435 339.522,353.848 339.577,353.502ZM358.151,89.374C359.259,85.846 361.556,85.949 362.461,89.536L362.43,90.563C360.208,90.292 360.269,90.238 358.724,91.573L358.151,89.374Z" style="fill:white;fill-opacity:0.99;"/>
                <path d="M440.514,2.137C441.526,2.462 442.538,2.788 443.549,3.113C449.587,5.62 455.562,6.909 456.633,7.14L457.56,7.209C459.618,10.233 464.136,11.912 464.793,12.157C465.11,12.505 465.428,12.854 465.745,13.203C466.521,14.165 466.431,14.155 467.66,14.356C468.642,15.311 468.551,15.251 468.642,15.311C469.051,15.58 468.994,15.136 469.515,15.479C469.769,17.973 470.603,17.297 470.677,17.381C472.528,19.195 472.345,19.344 472.525,19.476C473.795,21.305 473.687,21.203 475.448,22.534C477.451,25.234 477.287,25.309 477.512,25.489C477.894,26.127 478.276,26.765 478.658,27.403C483.151,33.197 482.384,33.554 486.496,39.503C486.868,40.149 487.239,40.796 487.611,41.442C491.442,46.942 502.009,75.621 503.124,78.647C502.919,80.127 502.966,79.973 503.587,81.49C507.898,99.317 507.422,99.295 509.62,117.492L509.905,122.539L509.828,129.467C509.831,130.826 509.834,132.185 509.838,133.543L509.63,141.503C509.364,142.86 509.097,144.216 508.83,145.573L508.637,147.516C508.068,148.996 507.978,148.853 508.128,150.356C506.796,154.237 506.819,154.205 506.697,154.537C505.372,156.966 505.548,156.79 504.871,159.665C502.61,162.936 502.634,162.867 501.776,166.64C501.479,166.993 501.182,167.345 500.885,167.697C495.369,174.91 501.465,174.978 504.54,183.489C504.955,184.465 505.37,185.441 505.785,186.417L506.167,186.627C505.924,188.263 506.158,188.071 506.69,189.486C506.844,190.201 506.998,190.915 507.152,191.629C506.714,193.713 506.827,193.586 507.683,195.494C507.582,211.356 507.228,211.171 507.391,212.524C507.187,213.865 506.982,215.207 506.778,216.548C505.966,222.577 505.634,228.465 505.575,229.505C505.311,230.523 505.048,231.541 504.784,232.559C504.499,235.479 504.388,236.612 497.547,268.505C497.257,269.519 496.968,270.534 496.678,271.548L496.56,272.509C496.259,273.521 495.957,274.532 495.656,275.544C493.209,282.897 493.858,282.912 493.594,283.515C493.282,284.525 492.97,285.535 492.658,286.545C491.346,290.264 491.716,290.213 491.582,290.514C491.262,291.522 490.941,292.529 490.621,293.537C490.494,294.45 487.594,301.795 486.203,306.395C472.575,351.46 453.736,384.556 450.576,391.527C450.222,392.188 449.868,392.849 449.514,393.51C447.457,396.211 444.991,400.909 444.64,401.577C444.265,402.221 443.89,402.866 443.515,403.511C441.483,406.182 439.946,409.094 439.677,409.604C439.298,410.246 438.918,410.887 438.539,411.529C438.251,411.889 437.963,412.248 437.676,412.607C437.296,413.247 436.916,413.887 436.535,414.527C435.672,415.605 435.73,415.511 435.672,415.605C435.345,416.131 435.715,416.059 435.458,416.473C434.872,417.19 434.286,417.907 433.7,418.624L433.5,419.5C432.856,420.185 432.211,420.87 431.567,421.555C427.187,424.143 426.83,426.051 426.681,427.708C426.366,428.029 426.051,428.351 425.735,428.673C424.883,429.799 424.751,429.601 424.641,430.619C423.838,430.896 419.934,432.24 416.833,437.817C407.535,443 408.172,444.647 397.5,446.006C383.963,441.304 386.849,437.72 385.253,423.48C385.588,421.474 385.924,419.468 386.259,417.462L386.305,416.481C387.032,412.986 387.137,413.17 387.348,409.482C388.018,406.938 388.181,407.131 388.345,404.472C388.663,403.131 388.982,401.79 389.301,400.449C390.009,398.355 389.967,398.527 390.009,398.355C390.361,396.926 390.003,396.998 390.375,395.486C390.885,394.032 390.997,394.167 390.885,392.64C401.035,353.964 418.963,306.062 429.345,249.462C443.482,246.923 443.215,246.677 457.5,245.474C459.006,245.347 458.646,245.927 459.823,247.564C445.237,315.343 440.086,313.854 429.621,356.513C428.075,360.112 426.746,360.035 428.34,363.586C429.715,366.651 432.3,362.776 432.49,362.49C433.638,360.93 434.047,361.25 434.4,359.408C434.703,359.072 435.006,358.736 435.309,358.399C435.704,357.432 436.099,356.464 436.494,355.496C441.513,349.169 468.393,271.22 470.42,237.498C470.696,235.837 470.972,234.176 471.248,232.516L471.184,229.481L470.9,228.414C470.984,225.889 470.738,226.071 470.223,223.568L469.788,223.386C471.931,213.383 462.456,215.731 457.175,214.529C461.054,200.016 461.121,161.101 461.129,156.443C464.291,156.087 464.252,156.217 466.466,154.136C472.796,158.024 475.035,151.606 476.126,149.316C476.518,148.028 476.911,146.74 477.304,145.452C477.888,143.336 477.62,143.525 478.211,141.501L478.225,138.463C478.21,132.632 478.095,89.261 466.467,66.525C466.27,66.228 465.252,64.698 464.439,62.559C463.173,61.499 463.208,61.675 461.501,61.504C457.332,64.534 460.068,69.401 460.603,71.492C461.019,73.574 460.863,73.567 465.11,97.644C464.968,99.164 465.065,99.045 465.56,100.496C465.745,101.877 465.93,103.257 466.115,104.638C466.013,106.707 466.095,106.58 466.568,108.497C466.748,110.21 466.929,111.922 467.11,113.635C466.991,115.239 467.131,115.08 467.571,116.496C467.751,118.209 467.931,119.923 468.111,121.636C467.977,123.24 468.127,123.075 468.612,124.496L468.649,125.504C461.725,129.392 438.329,130.806 437.152,130.564C436.461,126.813 436.445,126.84 436.406,126.513C431.297,83.051 429.072,83.536 422.883,40.371C423.042,38.776 422.865,38.914 422.38,37.507C421.831,30.983 421.888,31.024 421.794,30.467C421.858,29.672 422.241,24.874 422.813,20.546C425.292,7.453 430.077,9.878 431.363,5.5C431.417,5.315 431.363,5.5 429.432,4.056C430.399,3.793 431.367,3.53 432.335,3.267C436.029,4.795 436.019,5.608 439.5,3.902C440.109,3.604 439.905,2.436 440.514,2.137Z" style="fill:white;fill-opacity:0.99;"/>
                <path d="M310.92,44.308C312.329,48.984 311.782,48.995 313.107,53.641C313.013,55.176 313.121,55.055 313.578,56.494C329.182,156.724 317.974,169.678 321.564,246.499C321.594,247.13 321.594,291.425 313.942,331.614C313.148,335.783 307.002,375.57 290.956,423.793C272.658,417.173 271.905,418.949 271.097,417.491C270.928,417.187 271.445,416.768 271.276,416.464C274.555,404.815 298.422,320.03 297.55,267.497C297.491,263.959 297.082,264.121 296.609,260.703C290.845,274.612 303.836,294.9 263.887,415.726C249.153,412.026 248.434,413.33 245.1,409.451C288.693,269.696 272.998,180.136 247.478,72.505C258.371,65.056 272.229,60.283 274.497,59.502C293.337,125.809 295.299,173.433 295.714,183.488C299.087,265.373 300.359,125.534 285.311,55.517C287.583,50.942 307.037,43.473 310.92,44.308Z" style="fill:white;fill-opacity:1;"/>
                <path d="M174.331,113.28C174.705,113.468 174.106,115.116 176.432,114.333C186.826,110.836 187.231,112.461 195.824,119.264C196.124,119.63 196.424,119.997 196.723,120.364C198.223,122.359 197.903,122.325 199.535,124.474C199.91,125.121 200.285,125.768 200.66,126.416C202.356,129.781 202.242,129.585 204.143,132.675C203.996,134.13 204.1,133.986 204.734,135.407C206.645,142.622 221.56,174.342 221.58,227.503C221.097,229.421 221.016,229.292 221.137,231.361C219.761,235.242 219.792,235.205 219.665,235.536C219.355,236.225 219.045,236.914 218.735,237.603C218.416,238.286 218.097,238.969 217.778,239.652L216.754,240.645C215.927,242.079 215.83,241.951 215.669,243.669C215.272,243.946 208.911,248.385 217.602,249.392C217.961,249.67 218.321,249.949 218.68,250.227C218.985,252.222 219.253,252.03 220.772,253.3C221.345,253.702 221.917,254.104 222.489,254.507L222.696,255.394C223.043,256.399 223.39,257.403 223.737,258.408C224.605,262.017 232.179,274.794 226.021,327.454C225.422,332.583 220.589,373.919 208.687,389.632C208.287,390.249 207.887,390.866 207.487,391.483C205.735,392.73 205.824,392.653 205.738,392.749C204.99,392.8 197.75,393.293 196.43,393.778C195.751,393.471 195.071,393.163 194.392,392.856C190.097,389.423 178.286,386.569 164.789,379.564C180.145,291.948 162.559,253.376 142.339,135.504C157.008,124.588 169.376,119.548 171.332,115.053C171.582,114.93 171.438,114.848 174.331,113.28ZM181.594,172.809C182.105,173.154 186.192,175.281 186.477,175.517C193.039,187.023 195.946,223.242 196.284,227.457C195.324,228.895 195.634,228.785 195.282,230.414C195.165,230.591 195.061,230.402 193.313,232.183C192.141,232.26 190.969,232.338 189.797,232.416C179.749,177.051 177.891,175.884 181.594,172.809ZM197.499,277.866C199.102,277.899 198.984,277.685 200.416,278.577C200.729,278.905 201.042,279.233 201.355,279.56C204.247,286.924 204.755,336.369 198.456,342.453C197.342,343.218 195.726,344.097 195.482,344.229C194.242,343.572 193.68,343.861 193.914,342.508C196.632,326.793 196.252,290.989 194.901,278.562C195.767,278.33 196.633,278.098 197.499,277.866ZM181.594,172.809C182.625,172.586 183.656,172.363 184.687,172.139C186.018,173.81 185.785,173.709 186.477,175.517C186.192,175.281 182.105,173.154 181.594,172.809ZM198.45,276.798L197.499,277.866C196.633,278.098 195.767,278.33 194.901,278.562C195.515,276.031 195.993,275.585 198.45,276.798ZM189.797,232.416C190.969,232.338 192.141,232.26 193.313,232.183C191.245,237.124 190.304,233.083 189.797,232.416ZM198.45,276.798C199.036,276.829 199.622,276.86 200.208,276.891L200.416,278.577C198.984,277.685 199.102,277.899 197.499,277.866L198.45,276.798Z" style="fill:white;fill-opacity:0.99;"/>
                <path d="M133.744,142.467C134.018,147.159 134.258,147.075 139.103,173.647C139.01,175.177 139.061,174.938 139.541,176.497C140.485,184.565 141.664,187.229 142.103,189.647C142.008,191.188 142.1,191.065 142.541,192.497C147.251,232.889 180.086,336.354 147.605,368.608C146.608,369 145.611,369.391 144.614,369.783C143.936,370.123 143.258,370.462 142.581,370.802C141.847,370.82 142.099,370.608 141.516,370.622C141.274,370.628 141.516,370.622 138.499,370.845C137.875,370.948 137.251,371.052 136.627,371.155C94.487,356.704 97.088,295.679 84.594,258.468C83.81,256.132 74.844,207.667 73.338,181.48C97.455,165.304 97.278,164.805 99.954,164.352C110.059,249.135 117.358,247.801 128.918,332.418C128.994,332.976 131.558,351.742 134.622,336.535C139.341,313.112 110.168,201.146 107.016,160.584C107.747,156.931 130.048,142.32 133.744,142.467Z" style="fill:white;fill-opacity:0.99;"/>
                <path d="M237.838,78.312C238.167,80.662 238.818,82.955 238.931,83.352C240.064,87.341 240.274,87.207 240.358,87.551C285.79,274.245 248.337,369.604 237.837,407.701C232.04,406.955 221.133,403.628 218.542,400.51C236.249,335.374 251.429,266.714 211.349,93.507C214.245,89.445 235.628,79.355 237.838,78.312Z" style="fill:white;fill-opacity:0.99;"/>
                <path d="M68.857,185.457C68.421,193.367 64.765,259.57 66.763,284.459C66.985,287.227 81.998,311.27 83.418,313.545C88.697,321.998 97.685,344.646 97.025,348.413C96.617,350.744 95.17,349.321 69.673,337.138C67.19,335.951 67.838,335.375 49.85,309.034C40.789,295.766 50.292,313.375 55.584,328.482C56.34,330.642 54.035,330.115 35.411,321.689C28.913,318.749 -6.46,317.587 4.421,226.477C4.724,226.098 5.027,225.718 5.329,225.339C7.456,224.52 7.301,224.631 9.376,223.296C10.649,222.027 10.795,222.472 28.318,211.212C31.778,208.988 31.317,211.542 31.841,212.52L31.896,216.442L32.119,220.393C32.04,221.743 31.96,223.093 31.881,224.444C32.119,225.461 32.357,226.479 32.595,227.497C32.676,232.479 32.757,237.462 32.838,242.444C33.093,243.795 33.349,245.146 33.604,246.496C33.665,248.477 33.726,250.458 33.786,252.439C34.052,253.458 34.317,254.477 34.583,255.496C34.694,259.116 34.395,259.008 35.092,260.65C35.002,262.191 35.053,261.956 35.475,263.502C37.311,275.738 38.09,290.727 39.316,278.475L39.211,277.456C38.983,271.29 37.875,241.299 43.32,200.44C49.337,199.472 61.344,187.105 68.857,185.457Z" style="fill:white;fill-opacity:1;"/>
            </g>
        </g>
    </g>
</svg>
