<?xml version="1.0" encoding="UTF-8" standalone="no"?>
<!DOCTYPE svg PUBLIC "-//W3C//DTD SVG 1.1//EN" "http://www.w3.org/Graphics/SVG/1.1/DTD/svg11.dtd">
<svg width="100%" height="100%" viewBox="0 0 1280 720" version="1.1" xmlns="http://www.w3.org/2000/svg" xmlns:xlink="http://www.w3.org/1999/xlink" xml:space="preserve" xmlns:serif="http://www.serif.com/" style="fill-rule:evenodd;clip-rule:evenodd;stroke-linejoin:round;stroke-miterlimit:2;">
    <g>
        <g>
            <g transform="matrix(0.829522,0,0,0.829522,-129.086497,167.56593)">
                <g transform="matrix(288,0,0,288,1616.712736,517.090926)">
                </g>
                <text x="211.273px" y="517.091px" style="font-family:'BadeenDisplay-Regular', 'Badeen Display';font-size:288px;fill:white;">KUBIKO 3D</text>
            </g>
            <g transform="matrix(1,0,0,0.992911,12.272734,55.556226)">
                <path d="M372.845,437.393C513.581,55.427 362.49,289.56 174.582,196.748C-105.794,58.263 174.968,133.357 175.393,111.579C177.319,12.882 223.123,10.18 353.316,70.101C581.307,175.034 401.327,441.276 497.764,360.179C713.282,178.943 1292.761,-3.364 1042.608,559.74C960.465,744.648 369.815,445.616 372.845,437.393Z"/>
                <clipPath id="_clip1">
                    <path d="M372.845,437.393C513.581,55.427 362.49,289.56 174.582,196.748C-105.794,58.263 174.968,133.357 175.393,111.579C177.319,12.882 223.123,10.18 353.316,70.101C581.307,175.034 401.327,441.276 497.764,360.179C713.282,178.943 1292.761,-3.364 1042.608,559.74C960.465,744.648 369.815,445.616 372.845,437.393Z"/>
                </clipPath>
                <g clip-path="url(#_clip1)">
                    <g transform="matrix(0.829522,0,0,0.835445,-141.359232,112.8094)">
                        <g transform="matrix(288,0,0,288,1616.712736,517.090926)">
                        </g>
                        <text x="211.273px" y="517.091px" style="font-family:'BadeenDisplay-Regular', 'Badeen Display';font-size:288px;fill:rgb(255,0,0);">KUBIKO 3D</text>
                    </g>
                </g>
            </g>
        </g>
    </g>
</svg>
