<?xml version="1.0" encoding="UTF-8" standalone="no"?><!DOCTYPE svg PUBLIC "-//W3C//DTD SVG 1.1//EN" "http://www.w3.org/Graphics/SVG/1.1/DTD/svg11.dtd"><svg width="100%" height="100%" viewBox="0 0 1202 490" version="1.1" xmlns="http://www.w3.org/2000/svg" xmlns:xlink="http://www.w3.org/1999/xlink" xml:space="preserve" xmlns:serif="http://www.serif.com/" style="fill-rule:evenodd;clip-rule:evenodd;stroke-linejoin:round;stroke-miterlimit:2;"><g><path d="M822.907,116.973c0.116,-0.553 -0.124,-0.545 -0.008,-1.097c0.023,-0.107 0.14,-0.054 0.506,-1.276c0.281,-0.937 0.251,-2.008 0.246,-2.184c-0.035,-1.245 -0.36,-1.173 -0.476,-2.398l0.186,-2.224c-0.552,-3.194 -0.53,-3.178 -0.596,-3.45c-0.462,-1.902 -0.672,-1.975 -0.788,-2.365c-0.162,-0.544 -0.302,-2.927 -0.427,-3.361c-0.537,-1.851 -4.589,-3.657 -4.814,-6.882c-0.167,-2.388 -0.074,-2.38 -0.631,-4.705c-0.224,-0.937 -0.448,-2.491 -1.116,-3.532c-2.171,-3.381 -5.813,-3.381 -7.018,-3.801c-0.171,-0.059 -0.205,-0.312 -0.361,-0.405c-0.277,-0.165 -0.632,-0.172 -0.903,-0.346c-0.169,-0.109 -0.188,-0.396 -0.373,-0.473c-0.19,-0.08 -0.423,0.132 -0.616,0.058c-0.158,-0.06 -0.136,-0.364 -0.299,-0.409c-0.726,-0.199 -1.496,-0.169 -2.239,-0.287c-0.286,-0.045 -1.177,-0.187 -3.452,-1.085c-12.131,-4.79 -12.595,-3.458 -20.672,-6.928c-6.397,-2.748 -8.462,-2.298 -11.413,-3.618c-3.867,-1.73 -3.975,-1.357 -8.089,-2.394c-5.353,-1.349 -6.359,-0.717 -11.66,-2.872c-2.466,-1.002 -2.958,-0.865 -4.454,-1.498c-0.455,-0.192 -0.889,-0.434 -1.351,-0.607c-0.826,-0.31 -6.597,-1.336 -6.767,-1.355c-1.677,-0.188 -10.506,0.161 -11.377,0.298c-2.975,0.468 -2.984,0.506 -5.933,-0.108c-2.829,-0.589 -2.886,0.546 -5.732,-0.07c-3.423,-0.74 -3.444,-0.554 -6.875,-1.259c-4.079,-0.839 -4.114,-0.557 -4.464,-0.644c-0.429,-0.107 -0.827,-0.327 -1.26,-0.417c-0.471,-0.098 -3.132,-0.041 -3.432,-0.067c-8.842,-0.756 -9.303,-2.054 -10.369,-2.456c-5.833,-2.199 -9.712,-0.935 -10.227,-0.87c-5.068,0.638 -6.719,-3.04 -9.77,0.329c-2.568,2.836 -2.061,4.936 -2.56,8.526c-1.178,8.476 -0.972,8.476 -1.116,9.204c-2.256,11.403 -1.85,11.469 -2.105,12.446c-0.752,2.888 -0.734,2.874 -0.927,5.854c-0.163,2.518 -0.587,2.909 -0.738,5.777c-0.446,8.468 -0.745,8.439 -0.771,9.175c-0.042,1.185 0.323,1.127 0.348,2.301c0.016,0.763 -0.147,1.519 -0.197,2.281c-0.025,0.378 0.041,0.763 -0.026,1.136c-0.077,0.425 -0.327,0.807 -0.402,1.233c-0.494,2.802 -0.079,2.848 -0.685,5.632c-1.377,6.321 -0.197,6.473 -1.603,12.77c-0.254,1.136 0.003,2.466 -0.653,4.402c-1.528,4.511 -0.029,6.006 -0.679,9.352c-0.314,1.616 -2.045,1.905 -2.606,0.202c-1.526,-4.635 -0.485,-6.35 -2.379,-9.217c-1.621,-2.452 -0.331,-5.419 -0.771,-8.239c-0.491,-3.156 -0.335,-3.215 -1.831,-6.041c-0.755,-1.426 -0.314,-1.575 -1.023,-3.016c-1.466,-2.977 -4.93,-2.876 -2.145,-7.211c0.759,-1.181 0.528,-1.358 -0.447,-2.361c-1.671,-1.719 -1.975,-2.794 -2.017,-2.858c-0.613,-0.942 -1.983,-1.313 -3.119,-2.347c-2.123,-1.934 -2.066,-1.969 -4.148,-3.97c-2.743,-2.636 -0.699,-3.775 -0.573,-5.468c0.059,-0.786 -0.16,-0.717 -0.694,-1.288c-0.207,-0.221 -0.326,-0.517 -0.539,-0.732c-0.554,-0.556 -0.756,-0.237 -1.33,-0.763c-0.222,-0.204 -0.276,-0.547 -0.485,-0.765c-0.177,-0.185 -0.505,-0.203 -0.646,-0.417c-0.327,-0.496 -0.38,-1.14 -0.709,-1.635c-0.161,-0.242 -0.508,-0.295 -0.713,-0.501c-0.201,-0.202 -0.311,-0.478 -0.487,-0.703c-0.923,-1.179 -0.827,-1.236 -0.919,-1.327c-2.269,-2.23 -4.747,0.04 -9.036,-2.614c-1.426,-0.883 -1.928,-0.373 -2.542,-1.925c-0.349,-0.881 -0.471,-3.239 -2.283,-3.279c-2.218,-0.048 -2.062,0.575 -2.245,0.547c-1.137,-0.17 -0.879,-0.557 -1.628,-1.431c-1.912,-2.231 -2.312,-1.625 -5.229,-2.062c-1.555,-0.233 -2.221,-1 -5.79,-1.092c-1.722,-0.044 -1.709,0.052 -3.438,-0.005c-1.407,-0.046 -2.201,-0.633 -4.622,-0.77c-6.937,-0.393 -11.629,-1.808 -14.954,-1.892c-4.048,-0.102 -4.011,-0.291 -8.098,-1.277c-4.065,-0.98 -4.193,0.296 -7.913,-0.548c-4.567,-1.037 -4.564,-1.018 -9.256,-1.116c-3.204,-0.067 -3.317,-1.095 -6.903,-0.86c-2.513,0.165 -4.581,0.615 -4.639,0.621c-2.391,0.258 -2.393,-0.487 -6.802,-0.091c-5.398,0.485 -6.164,1.258 -7.003,1.599c-2.229,0.905 -4.726,1.042 -6.683,1.761c-2.59,0.951 -2.49,1.17 -2.717,1.244c-0.211,0.069 -0.45,-0.064 -0.667,-0.017c-0.483,0.107 -0.929,0.344 -1.406,0.475c-4.49,1.227 -4.536,1.113 -5.486,1.661c-8.315,4.8 -8.027,6.607 -8.378,7.611c-0.967,2.772 -2.453,2.55 -3.097,5.822c-0.053,0.27 -0.44,2.238 -0.32,3.428c0.014,0.143 0.125,1.238 1.163,1.363c2.186,0.263 3.75,-3.036 5.851,-2.847c1.101,0.099 1.087,0.276 1.483,1.292c1.193,3.063 0.058,5.433 -0.039,5.958c-0.105,0.568 -0.13,6.093 -0.097,7.999c0.049,2.897 0.891,2.84 0.536,5.716c-0.148,1.196 -0.287,1.156 -0.441,2.358c-0.169,1.314 0.128,15.169 -0.72,24.087c-0.276,2.907 -0.107,2.887 0.069,5.795c0.341,5.642 -0.422,5.941 -0.107,9.198c0.035,0.36 0.218,2.256 -0.096,4.516c-0.928,6.666 0.643,9.129 0.188,12.658c-0.298,2.308 -0.432,2.285 -0.384,4.625c0.372,17.991 -0.077,17.975 0.094,19.528c0.316,2.879 0.307,2.859 0.231,5.771c-0.039,1.483 0.329,14.116 0.524,16.076c0.223,2.246 -0.327,3.33 -0.263,4.62c0.287,5.76 0.338,5.743 0.142,11.496c-0.118,3.461 0.466,3.465 -0.106,6.874c-0.477,2.845 0.222,2.869 -0.171,5.736c-0.396,2.893 -0.348,2.881 -0.086,5.805c0.494,5.505 0.755,6.427 -1.298,8.724c-0.447,0.5 -2.19,2.451 -3.927,7.412c-1.903,5.435 3.241,3.385 4.444,5.661c1.54,2.914 0.117,6.355 3.439,5.862c0.916,-0.136 5.193,-3.053 5.9,-0.226c0.288,1.15 0.013,1.176 0.324,2.317c0.054,0.198 0.551,2.017 1.714,1.905c1.209,-0.116 1.418,-1.569 1.444,-1.748c0.103,-0.717 0.02,-1.453 0.114,-2.171c0.043,-0.329 0.639,-1.307 0.798,-1.399c1.023,-0.589 7.844,0.188 9.105,-0.242c0.47,-0.16 0.877,-0.472 1.342,-0.644c1.733,-0.639 3.979,0.358 6.866,0.081c2.279,-0.219 2.261,-0.241 4.56,-0.312c8.174,-0.253 8.15,-0.001 9.191,0.099c2.56,0.248 5.777,-0.939 5.801,-0.944c0.495,-0.099 1.945,0.106 3.677,-0.854c1.607,-0.891 5.01,-1.564 5.424,-1.422c0.806,0.277 1.459,0.927 2.279,1.157c0.812,0.227 0.776,-0.07 2.205,-0.638c1.949,-0.775 2.068,-0.49 3.802,-1.662c2.643,-1.787 6.291,0.841 8.611,-1.851c0.975,-1.13 0.597,-1.319 0.694,-1.398c0.266,-0.217 1.858,-0.259 2.021,-0.264c3.403,-0.09 2.622,-1.941 4.502,-2.677c0.258,-0.101 0.803,-0.314 3.467,-0.134l1.103,-0.902c0.242,-0.929 -0.438,-2.168 2.368,-2.528c0.887,-0.114 1.155,0.308 3.299,-1.163c0.785,-0.538 2.644,-1.393 3.537,-2.129c1.621,-1.335 1.466,-1.755 3.563,-1.955c1.883,-0.179 1.98,-0.155 3.218,-1.565c1.402,-1.596 3.39,-1.552 5.534,-4.708c2.336,-3.439 2.194,-3.578 2.922,-3.933c0.507,-0.247 1.951,-0.269 3.685,-2.283c1.596,-1.852 1.521,-1.897 3.192,-3.694c1.672,-1.798 1.244,-2.197 3.237,-3.625c0.975,-0.699 0.879,-0.803 2.951,-4.828c1.259,-2.446 0.579,-4 2.167,-7.489c1.2,-2.635 1.037,-2.723 2.8,-5.014c1.909,-2.482 0.685,-3.022 2.151,-5.78c1.449,-2.724 0.856,-4.522 2.869,-6.483c0.118,-0.115 2.12,-1.574 2.33,-2.438c0.438,-1.802 0.164,-1.824 0.534,-3.645c0.373,-1.836 0.478,-1.908 -0.385,-3.586c-1.543,-2.999 0.98,-6.615 0.93,-7.827c-0.005,-0.128 -0.985,-2.816 -0.842,-3.139c0.362,-0.818 2.589,0.027 2.881,-3.764c0.532,-6.901 -0.046,-7.607 3.247,-10.694c0.21,-0.197 2.131,-1.997 3.544,-0.635c1.262,1.217 -0.79,12.047 -0.824,12.513c-0.291,4.061 0.388,4.756 -0.97,12.679c-1.145,6.677 -0.119,6.766 -0.796,10.205c-0.426,2.163 -0.626,2.122 -0.641,4.671c-0.017,2.829 -0.68,4.006 -0.472,6.925c0.13,1.822 0.26,1.828 -0.202,3.577c-1.087,4.118 -0.796,6.886 -0.979,7.831c-0.557,2.879 -0.69,2.859 -0.619,5.802c0.016,0.644 -0.147,0.624 -0.387,8.039c-0.046,1.422 -0.511,2.629 -0.571,4.617c-0.052,1.746 -0.489,16.336 -0.301,21.829c0.082,2.407 -0.694,3.212 -0.732,3.487c-0.108,0.786 1.175,2.723 0.763,6.86c-0.184,1.85 -0.75,1.81 -0.78,3.444c-0.032,1.76 0.094,1.754 -0.21,3.494c-0.493,2.823 0.161,4.915 0.035,8.025c-0.385,9.565 -0.512,10.528 -0.631,11.437c-0.152,1.157 -0.196,1.132 -0.11,2.323c0.221,3.09 -0.486,6.545 -0.511,8.061c-0.094,5.824 0.094,5.852 -0.823,9.299c-0.418,1.571 0.039,5.644 -1.359,20.602c-0.376,4.028 -0.684,3.978 -0.852,8.042c-0.088,2.136 -0.602,3.521 -0.643,4.574c-0.08,2.044 0.295,2.109 -0.661,4.745c-0.82,2.261 -0.395,3.49 -0.779,5.534c-0.078,0.417 -0.933,2.529 0.138,3.774c1.877,2.179 6.232,-2.157 8.368,0.835c1.395,1.954 0.658,2.181 0.791,3.516c0.201,2.015 1.213,3.853 -3.14,3.752c-5.954,-0.138 -6.231,0.669 -6.895,0.88c-3.146,0.999 -3.287,-0.371 -25.29,0.336c-6.896,0.222 -6.906,0.114 -8.154,0.475c-5.377,1.556 -6.936,-0.013 -24.031,0.592c-8.784,0.311 -8.819,0.055 -10.455,0.556c-2.108,0.645 -2.124,0.731 -12.548,0.679c-38.518,-0.192 -38.497,-0.144 -77.001,0.081c-10.083,0.059 -11.031,-0.167 -12.751,0.39c-3.263,1.057 -3.348,0.763 -29.785,0.57c-70.341,-0.513 -75.142,1.25 -80.301,-0.639c-2.233,-0.818 -2.36,-0.307 -4.576,-1.184c-0.383,-0.152 -7.885,-2.59 -8.282,-2.661c-0.924,-0.166 -4.915,0.263 -6.68,-0.748c-0.133,-0.076 -0.179,-0.278 -0.324,-0.329c-1.565,-0.553 -1.734,0.224 -4.283,-0.801c-1.684,-0.678 -1.708,-0.53 -3.429,-1.187c-2.232,-0.852 -2.378,-0.281 -4.609,-1.144c-1.695,-0.656 -1.714,-0.529 -3.432,-1.171c-2.232,-0.834 -2.357,-0.335 -4.615,-1.138c-3.597,-1.279 -5.668,0.488 -8.054,-1.051c-0.141,-0.091 -0.199,-0.284 -0.345,-0.366c-0.249,-0.14 -1.744,-0.983 -3.31,-1.329c-1.404,-0.31 -1.472,0.018 -3.234,-0.674c-1.703,-0.668 -1.74,-0.514 -3.451,-1.151c-2.227,-0.828 -2.357,-0.316 -4.585,-1.176c-3.468,-1.338 -5.454,-1.622 -5.943,-1.692c-1.218,-0.174 -3.048,-0.969 -3.457,-1.022c-0.759,-0.099 -1.531,-0.063 -2.296,-0.063c-2.268,0.001 -2.323,0.268 -4.428,-0.591c-1.685,-0.688 -1.728,-0.524 -3.426,-1.191c-2.225,-0.875 -2.381,-0.261 -4.608,-1.146c-1.696,-0.674 -1.725,-0.529 -3.43,-1.18c-2.234,-0.852 -2.383,-0.281 -4.606,-1.151c-0.27,-0.106 -0.299,-0.013 -3.434,-1.166c-2.246,-0.826 -2.372,-0.316 -4.634,-1.11c-0.702,-0.246 -2.499,-0.876 -9.293,-0.413c-2.969,0.202 -2.829,1.118 -5.794,1.053c-0.544,-0.012 -5.201,-0.354 -8.143,0.552c-5.201,1.601 -5.841,-0.451 -10.364,1.134c-4.924,1.726 -6.813,-0.484 -11.487,1.163c-4.348,1.532 -4.543,0.009 -9.013,0.66c-0.347,0.051 -0.706,0.081 -1.032,0.21c-0.454,0.179 -0.831,0.525 -1.285,0.705c-1.574,0.624 -8.31,-0.322 -10.215,0.443c-0.453,0.182 -0.82,0.542 -1.272,0.725c-1.589,0.645 -7.281,-0.349 -9.064,0.377c-0.012,0.005 -0.471,0.511 -1.27,0.789c-2.352,0.819 -2.431,-0.137 -10.372,0.169c-5.443,0.21 -11.187,-0.677 -12.316,1.192c-0.154,0.255 -0.138,0.582 -0.255,0.856c-0.502,1.179 -3.459,3.468 -3.462,3.471c-0.209,0.238 -0.279,0.572 -0.464,0.829c-0.121,0.168 -0.334,0.259 -0.445,0.433c-0.176,0.275 -0.184,0.649 -0.402,0.891c-0.187,0.208 -0.53,0.205 -0.746,0.383c-0.214,0.176 -0.319,0.456 -0.513,0.653c-0.173,0.176 -0.457,0.245 -0.582,0.458c-0.331,0.565 -0.46,1.229 -0.75,1.816c-0.084,0.169 -0.283,0.264 -0.361,0.437c-0.141,0.312 -0.149,0.672 -0.281,0.989c-0.302,0.728 -1.557,1.987 -2.368,2.339c-1.596,0.693 -1.748,0.517 -2.778,1.912c-0.519,0.703 -1.762,3.941 -2.28,4.503c-0.218,0.237 -0.361,0.087 -2.902,2.791c-1.402,1.492 -1.386,1.486 -2.869,2.899c-0.132,0.126 -1.274,1.213 -1.433,1.766c-0.098,0.341 -0.031,0.713 -0.115,1.057c-0.378,1.552 -2.073,1.908 -2.526,2.318c-0.226,0.205 -0.318,0.52 -0.5,0.765c-0.88,1.191 -0.463,1.412 -1.131,2.262c-0.154,0.196 -0.416,0.281 -0.59,0.46c-0.826,0.847 -1.464,2.482 -5.939,2.749c-1.266,0.076 -1.27,0.063 -2.435,-0.457c-0.739,-0.33 -0.625,-0.522 -0.378,-1.279c0.871,-2.67 6.796,-12.346 8.113,-15.208c0.958,-2.082 0.794,-2.149 2.068,-4.032c3.258,-4.816 6.454,-12.079 9.512,-16.656c0.156,-0.233 9.675,-18.371 10.968,-20.311c0.951,-1.426 1.018,-1.376 1.872,-3.67c1.071,-2.876 2.706,-3.673 5.992,-10.232c1.745,-3.484 2.315,-3.182 3.585,-6.849c0.657,-1.896 2.381,-3.642 2.96,-4.821c0.986,-2.007 0.917,-2.029 1.655,-3.174c0.085,-0.132 3.529,-6.346 4.682,-7.974c1.864,-2.633 5.847,-10.25 6.763,-11.574c0.378,-0.546 3.63,-5.244 4.496,-6.975c1.696,-3.393 4.5,-6.655 4.617,-6.72c1.712,-0.956 3.286,1.203 3.74,1.617c2.726,2.482 2.445,2.739 5.127,5.28c2.565,2.429 5.478,6.725 7.403,8.707c2.602,2.678 5.13,4.679 7.312,7.506c2.035,2.636 2.053,2.602 4.14,5.198c2.305,2.869 2.209,2.919 4.702,5.604c3.585,3.861 7.301,8.995 8.933,10.596c2.448,2.403 3.413,4.85 7.357,10.041c1.797,2.365 1.511,3.04 2.931,2.863c1.001,-0.125 1.332,-2.09 2.149,-2.613c2.04,-1.308 2.121,-1.135 2.289,-1.259c0.141,-0.105 0.175,-0.323 0.324,-0.416c2.474,-1.555 6.334,2.36 8.872,1.373c0.574,-0.223 2.367,-1.577 3.572,-1.872c3.201,-0.783 3.165,-0.831 3.448,-0.856c0.366,-0.033 0.729,0.092 1.088,0.17c1.123,0.246 1.112,0.483 2.225,0.215c1.237,-0.297 1.194,-0.405 2.454,-0.541c3.454,-0.372 2.95,-1.938 5.748,-2.267c2.635,-0.31 2.446,-0.816 4.741,-2.151c3.976,-2.313 5.601,0.643 10.36,-2.234c2.116,-1.28 1.929,-1.851 4.414,-1.964c2.57,-0.116 3.987,-1.311 5.763,-1.364c0.114,-0.003 1.607,0.396 3.492,-0.38c1.17,-0.482 1.116,-0.555 2.327,-0.863c1.314,-0.334 2.294,-0.006 2.267,-2.683c-0.036,-3.635 -0.388,-3.576 -1.489,-7.968c-0.14,-0.557 -1.165,-4.647 -2.426,-6.756c-2.587,-4.327 -1.326,-6.007 -5.92,-11.085c-1.859,-2.055 -2.785,-4.318 -5.544,-7.169c-0.176,-0.182 -1.649,-1.703 -2.298,-2.187c-1.118,-0.832 -1.337,-0.638 -1.746,-1.687c-0.65,-1.67 -0.437,-1.77 -1.522,-3.219c-2.834,-3.783 -3.262,-3.32 -4.15,-3.913c-1.05,-0.701 -1.968,-3.039 -2.901,-3.961c-0.194,-0.192 -0.478,-0.281 -0.657,-0.486c-0.181,-0.206 -0.193,-0.539 -0.399,-0.719c-0.223,-0.194 -0.603,-0.14 -0.818,-0.343c-0.213,-0.201 -0.165,-0.593 -0.381,-0.79c-0.214,-0.195 -0.626,-0.082 -0.814,-0.301c-0.018,-0.021 -0.21,-1.17 -1.238,-2.208c-0.163,-0.164 -2.335,-1.834 -2.539,-1.991c-0.837,-0.643 -1.29,-0.392 -1.888,-1.596c-0.54,-1.088 -1.588,-2.95 -5.698,-6.995c-0.008,-0.008 -0.466,-0.608 -1.216,-1.085c-1.63,-1.037 -1.321,-1.405 -1.672,-1.794c-0.487,-0.541 -1.286,-0.117 -1.742,-1.613c-0.103,-0.338 -0.084,-0.718 -0.245,-1.033c-0.087,-0.172 -0.395,-0.17 -0.46,-0.351c-0.06,-0.168 0.207,-0.344 0.15,-0.513c-0.04,-0.115 -0.901,-1.167 -0.982,-1.267c-0.055,-0.067 -1.101,-0.998 -1.162,-1.036c-1.243,-0.756 -1.474,-0.53 -1.91,-1.558c-0.788,-1.859 -0.86,-1.799 -2.404,-4.535c-1.088,-1.926 -4.21,-3.378 -4.565,-3.507c-0.323,-0.118 -0.694,-0.131 -0.98,-0.321c-0.19,-0.127 -0.197,-0.428 -0.37,-0.578c-0.202,-0.175 -0.545,-0.155 -0.716,-0.36c-0.18,-0.216 -0.292,-2.117 -2.696,-4.271c-6.24,-5.593 -5.888,-6.26 -7.225,-7.812c-2.288,-2.658 -7.418,-5.652 -5.866,-9.451c0.527,-1.291 1.918,-3.027 2.113,-3.27c1.34,-1.673 1.18,-1.758 5.877,-10.398c4.092,-7.527 5.241,-6.813 6.319,-9.49c3.23,-8.015 5.512,-10.368 6.22,-11.098c2.041,-2.103 1.649,-2.367 3.192,-4.862c2.444,-3.952 1.952,-4.221 4.562,-8.077c0.842,-1.243 1.521,-1.63 3.207,-5.879c0.296,-0.746 0.789,-1.601 3.272,-5.85c1.057,-1.808 1.192,-1.695 2.271,-3.484c0.662,-1.097 0.475,-1.168 1.16,-2.265c1.153,-1.845 1.235,-3.5 2.761,-5.476c0.329,-0.426 1.613,-2.089 3.512,-5.741c0.226,-0.435 0.093,-0.485 2.667,-5.514c1.921,-3.754 1.055,-4.239 3.822,-7.402c0.214,-0.245 1.014,-1.159 2.062,-3.508c0.735,-1.648 0.603,-1.716 1.725,-3.126c2.024,-2.546 1.871,-2.642 4.024,-5.086c1.531,-1.737 0.375,-3.802 0.215,-4.088c-1.971,-3.523 -3.826,-4.04 -6.391,-7.228c-1.527,-1.899 -2.692,-2.085 -3.739,-3.228c-0.175,-0.191 -0.108,-0.242 -2.052,-2.51c-0.741,-0.864 -2.256,-3.326 -2.965,-3.864c-1.65,-1.251 -1.68,-1.17 -3.319,-2.457c-2.448,-1.923 -2.121,-2.219 -3.25,-3.753c-0.196,-0.266 -0.262,-0.201 -2.709,-3.112c-0.079,-0.094 -0.654,-0.778 -1.057,-1.107c-0.349,-0.285 -2.183,-0.995 -2.911,-3.933c-0.568,-2.293 -1.109,-1.971 -3.19,-3.825c-4.535,-4.039 -3.799,-4.771 -7.373,-7.497c-5.995,-4.573 -6.675,-8.87 -10.246,-8.187c-0.365,0.07 -0.715,0.206 -1.079,0.285c-3.007,0.651 -3.476,-0.106 -5.451,2.258c-0.379,0.454 -3.26,4.205 -3.542,4.572c-1.845,2.402 -0.541,3.241 -4.362,9.318c-2.481,3.946 -1.86,4.294 -4.586,8.101c-2.323,3.245 -1.139,4.3 -3.563,7.895c-2.427,3.6 -2.432,4.983 -4.1,7.669c-1.505,2.425 -0.55,2.886 -2.469,5.604c-4.123,5.841 -3.692,6.122 -5.438,8.244c-0.733,0.891 -0.731,0.903 -6.821,12.71c-0.524,1.016 -4.584,5.92 -5.24,7.17c-0.993,1.892 -0.943,1.909 -2.206,3.629c-1.654,2.253 -1.103,3.334 -3.497,6.832c-1.504,2.197 -0.802,3.107 -4.431,7.28c-3.847,4.425 -3.473,6.162 -5.272,6.278c-1.253,0.08 -2.316,-1.719 -3.846,-3.173c-0.966,-0.918 -4.344,-4.515 -5.26,-6.222c-0.784,-1.461 -5.695,-7.628 -8.161,-11.42c-1.15,-1.769 -3.725,-3.279 -5.239,-6.035c-2.639,-4.804 -2.298,-5.102 -6.335,-8.811c-0.608,-0.559 -0.614,-0.526 -1.2,-1.095c-1.87,-1.815 -2.118,-2.239 -3.08,-4.859c-0.687,-1.87 -3.744,-4.693 -4.66,-5.772c-1.911,-2.25 -2.59,-1.641 -4.052,-4.216c-2.294,-4.041 -9.356,-12.136 -9.385,-12.175c-1.213,-1.643 -1.091,-1.74 -2.07,-2.531c-1.658,-1.34 -1.468,-1.503 -2.903,-3.063c-0.128,-0.14 -0.151,-0.519 -0.332,-0.462c-0.401,0.126 -0.558,0.652 -0.926,0.857c-0.11,0.061 -0.828,-0.179 -1.332,0.836c-0.132,0.266 -0.174,0.577 -0.342,0.822c-0.156,0.228 -0.436,0.348 -0.608,0.564c-0.399,0.498 -0.263,0.699 -1.254,0.975c-1.269,0.354 -1.345,0.152 -2.488,0.938c-1.542,1.061 -2.985,1.557 -4.205,2.777c-0.778,0.778 -0.631,0.987 -2.565,1.826c-1.629,0.706 -1.626,0.679 -1.895,0.855c-2.491,1.627 -2.968,0.761 -4.518,2.177c-2.068,1.89 -2.493,1 -4.953,1.928c-1.713,0.646 -1.672,0.745 -3.467,1.076c-2.814,0.518 -2.386,1.336 -5.526,3.839c-1.217,0.97 -4.82,1.837 -5.486,2.507c-0.382,0.384 -0.632,0.883 -0.992,1.288c-1.126,1.261 -3.849,1.755 -3.988,1.821c-0.463,0.22 -0.861,0.561 -1.315,0.799c-1.057,0.555 -1.502,0.232 -2.412,1.05c-1.735,1.559 -0.007,2.604 -1.816,4.091c-1.928,1.584 -3.227,-2.069 -6.283,0.38c-1.414,1.133 -1.391,1.209 -3.186,1.561c-2.6,0.509 -2.272,2.037 0.045,3.324c1.895,1.053 1.633,1.335 2.788,3.15c0.167,0.262 0.2,0.235 2.376,3.067c2.496,3.248 3.265,3.898 4.555,5.724c2.149,3.042 2.538,4.234 4.334,6.223c1.436,1.591 3.101,3.228 4.313,6.024c1.799,4.15 5.378,3.721 7.851,10.437c0.442,1.199 0.724,1.051 1.112,2.285c0.692,2.204 0.591,2.297 4.573,7.022c3.604,4.278 4.856,4.605 5.961,6.716c1.779,3.397 7.094,8.339 10.019,12.876c0.108,0.167 0.032,0.201 1.093,2.227c0.163,0.312 0.189,0.694 0.396,0.979c0.688,0.95 5.168,2.448 6.959,8.026c1.657,5.16 3.84,4.369 5.166,6.133c0.778,1.035 0.683,1.079 1.525,2.047c1.907,2.191 1.118,2.755 3.215,4.78c11.391,11.002 11.188,12.103 9.652,15.845c-1.015,2.472 -2.332,2.808 -4.397,6.998c-0.24,0.487 -2.014,4.087 -3.493,5.82c-1.349,1.581 -1.362,1.534 -2.669,3.137c-1.334,1.635 -0.744,1.938 -1.845,3.708c-0.693,1.115 -0.647,1.113 -1.349,2.226c-1.115,1.769 -1.395,1.553 -2.434,3.357c-0.163,0.282 -1.445,2.51 -1.74,3.68c-0.052,0.207 0.097,0.439 0.022,0.639c-0.064,0.171 -0.303,0.221 -0.401,0.375c-0.021,0.033 -1.776,3.753 -3.93,6.578c-2.086,2.737 -1.399,3.1 -2.325,4.623c-0.114,0.187 -0.314,0.309 -0.442,0.487c-0.181,0.251 -0.348,0.515 -0.483,0.793c-0.152,0.314 -0.202,0.674 -0.376,0.976c-0.09,0.156 -0.302,0.214 -0.395,0.368c-0.178,0.294 -0.251,0.641 -0.401,0.951c-0.478,0.987 -1.755,1.976 -2.013,2.466c-1.196,2.274 -1.079,2.316 -2.321,4.571c-2.731,4.96 -3.299,4.63 -4.228,7.036c-0.179,0.464 -1.839,4.763 -2.472,5.711c-0.257,0.385 -0.26,0.378 -3.262,4.77c-0.635,0.929 -2.319,4.738 -3.238,6.297c-0.247,0.419 -1.858,3.518 -3.389,5.756c-0.26,0.38 -0.116,0.45 -2.737,5.063c-0.518,0.911 -1.756,4.727 -4.063,7.622c-1.823,2.287 -3.176,7.524 -6.002,11.301c-0.59,0.789 -0.536,0.809 -3.426,5.893c-1.034,1.818 -0.66,2.631 -1.154,3.481c-0.228,0.392 -0.569,0.14 -3.274,4.631c-3.987,6.619 -4,8.495 -8.305,15.437c-1.36,2.193 -1.17,2.28 -2.521,4.492c-1.536,2.515 -2.107,2.753 -2.814,4.288c-1.884,4.091 -2.91,3.364 -5.424,7.099c-4.561,6.774 -3.236,7.339 -3.414,9.116c-0.274,2.733 -1.29,3.293 1.256,5.336c2.056,1.649 2.651,2.278 4.338,2.338c1.914,0.069 2.131,0.007 3.082,1.674c1.653,2.898 2.416,2.097 5.061,4.12c0.327,0.25 2.695,1.845 2.798,1.955c0.449,0.481 0.904,1.656 2.788,1.984c1.34,0.233 1.513,-0.112 2.443,0.887c1.284,1.379 0.13,1.489 -1.212,2.813c-2.065,0.139 -2.077,-0.056 -3.632,0.414c-1.698,0.512 -1.656,0.935 -3.381,0.582c-2.82,-0.576 -0.236,-4.799 -2.382,-7.023c-1.051,-1.089 -1.886,-0.669 -2.151,-0.683c-1.759,-0.092 -1.724,-0.228 -3.475,-0.307c-10.292,-0.464 -11.526,0.764 -13.849,-0.159c-1.855,-0.737 -1.289,-3.84 -1.555,-4.576c-0.024,-0.068 -0.484,-0.361 -0.755,-1.296c-0.581,-2.006 0.362,-4.116 -0.681,-7.085c-1.662,-4.73 -1.709,-5.097 -1.769,-5.56c-0.116,-0.897 0.069,-0.932 -0.525,-2.495c-0.166,-0.437 -1.742,-4.584 -1.846,-5.547c-0.041,-0.382 0.019,-0.77 -0.008,-1.153c-0.116,-1.608 -0.919,-1.45 -1.149,-3.449c-0.118,-1.022 0.051,-1.052 -0.49,-2.473c-1.461,-3.838 0.156,-4.15 -1.122,-8.044c-1.686,-5.135 -1.682,-5.111 -1.746,-5.574c-0.13,-0.949 0.037,-0.973 -0.532,-2.495c-0.164,-0.437 -1.717,-4.591 -1.831,-5.544c-0.089,-0.738 0.186,-0.774 -0.494,-2.497c-0.687,-1.741 -1.864,-5.163 -1.883,-5.547c-0.2,-3.965 0.47,-12.31 0.009,-24.157c-0.187,-4.808 -0.07,-4.82 0.657,-6.811c1.13,-3.097 0.565,-16.999 0.505,-18.477c-0.141,-3.468 -0.483,-3.529 0.65,-6.811c0.303,-0.879 0.685,-1.984 0.693,-11.599c0.008,-9.304 -0.941,-9.412 0.461,-13.689c1.049,-3.202 0.573,-17.003 0.522,-18.482c-0.176,-5.113 0.101,-5.102 0.629,-6.808c1.019,-3.291 0.586,-17.002 0.539,-18.48c-0.156,-4.949 0.063,-4.94 0.609,-6.811c0.836,-2.863 0.536,-18.057 0.505,-19.628c-0.095,-4.826 0.715,-4.726 0.949,-6.95c0.173,-1.642 0.472,-38.624 0.118,-43.611c-0.21,-2.956 -0.263,-3.101 0.711,-5.662c0.33,-0.869 0.66,-1.737 0.693,-11.601c0.03,-9.014 -1.122,-9.263 0.463,-13.688c1.449,-4.047 -0.125,-22.16 0.791,-24.286c0.434,-1.006 1.993,-1.412 2.123,-1.491c0.181,-0.111 0.278,-0.326 0.449,-0.453c0.254,-0.188 0.577,-0.277 0.815,-0.485c0.193,-0.169 0.271,-0.442 0.454,-0.622c0.203,-0.198 0.488,-0.297 0.69,-0.495c0.121,-0.118 0.275,-0.639 1.249,-1.069c1.911,-0.845 1.874,-0.92 3.301,-2.433c0.06,-0.063 0.376,-0.681 1.274,-1.062c2.125,-0.901 3.533,-1.294 5.655,-3.503c0.227,-0.236 0.235,-0.592 1.271,-1.039c2.886,-1.245 2.457,-1.833 3.835,-2.968c0.117,-0.096 0.182,0.077 1.703,-0.833c0.683,-0.408 0.599,-0.51 1.36,-0.798c2.22,-0.841 2.609,-1.832 3.811,-3.035c2.592,-2.594 2.736,-2.658 3.038,-2.792c0.373,-0.166 3.837,-1.71 4.543,-2.314c0.099,-0.084 0.055,-0.092 1.114,-1.179c0.154,-0.158 0.279,-0.626 1.264,-1.059c1.175,-0.517 1.214,-0.434 2.176,-1.269c0.126,-0.109 0.301,-0.597 1.279,-1.02c1.139,-0.492 1.203,-0.422 1.958,-1.426c0.244,-0.325 0.164,-0.852 1.428,-1.128c0.338,-0.074 0.707,0.026 1.036,-0.084c0.214,-0.072 1.557,-1.493 2.504,-1.908c2.448,-1.073 2.352,-1.513 3.839,-3.03c1.387,-1.413 1.703,-1.535 1.888,-1.606c0.961,-0.369 1.443,-0.003 2.529,-0.747c3.076,-2.108 3.951,-4.36 5.498,-5.033c1.179,-0.513 1.235,-0.403 2.188,-1.244c0.056,-0.049 0.356,-0.651 1.256,-1.061c1.164,-0.529 1.222,-0.41 2.202,-1.235c0.23,-0.194 0.155,-0.535 1.276,-1.012c1.172,-0.499 1.207,-0.428 2.176,-1.277c0.198,-0.174 0.217,-0.549 1.273,-1.021c0.661,-0.296 0.748,-0.17 1.383,-0.898c1.201,-1.376 0.671,-2.158 2.023,-2.647c1.027,-0.371 1.089,0.022 2.137,-0.305c0.118,-0.037 0.01,-0.232 1.36,-0.742c2.712,-1.024 1.701,-2.116 2.64,-3.075c0.074,-0.076 2.236,-1.116 2.932,-1.712c0.187,-0.16 0.275,-0.421 0.472,-0.57c1.451,-1.1 1.88,-0.084 3.379,-1.143c2.016,-1.424 1.922,-1.825 4.382,-1.857c29.435,-0.386 33.372,0.647 152.879,-0.042c48.55,-0.28 48.598,0.171 50.674,-0.457c2.622,-0.793 2.651,-0.68 13.696,-0.686l547.12,-2.182c26.438,-0.094 26.412,-0.158 56.322,-0.158c3.825,0 4.327,0.124 5.855,-0.425c2.474,-0.888 2.524,-0.761 13.685,-0.757c46.372,0.016 61.176,0.572 160.914,0.091c7.543,-0.036 34.389,-0.054 34.605,-0.009c2.323,0.486 0.832,3.752 1.358,7.22c0.297,1.959 1.26,1.81 1.155,4.67c-0.071,1.92 -0.472,4.417 0.499,7.011c1.397,3.73 0.091,3.901 0.657,7.85c0.31,2.162 1.271,1.973 1.156,4.687c-0.019,0.443 -0.197,4.636 0.165,5.54c0.142,0.356 1.168,0.791 1.033,3.661c-0.047,1.008 -0.209,4.452 -0.088,12.608c0.058,3.92 0.932,3.819 1.125,5.729c0.134,1.323 -0.484,4.849 0.549,8.182c1.393,4.498 -0.065,5.393 0.853,7.752c0.178,0.457 0.508,0.846 0.683,1.304c0.59,1.54 -0.234,7.084 0.502,9.04c0.171,0.456 0.497,0.844 0.664,1.301c0.536,1.46 -0.232,6.228 0.448,7.894c0.186,0.456 0.541,0.831 0.725,1.288c0.571,1.418 -0.258,7.279 0.447,9.066c0.179,0.454 0.537,0.825 0.713,1.28c0.53,1.369 -0.228,5.379 0.352,6.758c0.064,0.152 0.266,0.206 0.356,0.344c1.537,2.362 0.379,2.639 0.67,11.305c0.104,3.1 -0.484,6.326 0.478,9.341c1.425,4.463 -0.408,4.777 1.136,9.21c1.308,3.757 0.082,3.912 0.676,7.853c0.297,1.972 1.215,1.807 1.124,4.669c-0.014,0.444 -0.15,4.703 0.201,5.555c0.163,0.396 1.093,1.169 0.999,3.643c-0.021,0.536 -0.218,5.687 0.186,6.702c0.25,0.628 1.053,1.009 0.94,3.652c-0.023,0.537 -0.233,5.49 0.216,6.719c0.165,0.452 0.507,0.828 0.667,1.282c0.169,0.477 0.258,2.93 0.399,3.292c0.058,0.15 0.269,0.193 0.354,0.33c1.286,2.068 0.148,8.108 0.841,10.005c0.541,1.479 0.816,1.405 0.901,3.631c0.104,2.728 0.858,2.571 1.09,4.587c0.237,2.062 0.228,2.064 0.261,2.147c0.528,1.333 0.906,1.244 0.941,3.614c0.04,2.708 0.934,2.523 1.153,4.581c0.04,0.378 -0.008,0.761 0.028,1.14c0.144,1.514 1.051,1.697 1.2,3.453c0.099,1.154 -0.144,1.137 -0.057,2.284c0.107,1.405 1.084,1.782 1.169,3.472c0.019,0.367 -0.056,0.365 0.041,4.596c0.053,2.33 -0.107,2.342 0.211,3.279c0.156,0.461 0.459,0.863 0.615,1.323c0.213,0.63 0.277,2.891 0.436,3.307c0.175,0.458 0.524,0.836 0.703,1.293c0.289,0.738 0.242,3.834 0.472,4.434c0.529,1.384 0.864,1.303 0.923,3.616c0.07,2.726 0.92,2.536 1.138,4.584c0.04,0.377 -0.004,0.76 0.035,1.138c0.188,1.843 1.011,1.611 1.171,3.456c0.099,1.144 -0.131,1.121 -0.027,2.283c0.129,1.451 1.007,1.618 1.174,3.469c0.017,0.183 -0.058,0.171 0.001,2.3c0.047,1.707 0.347,2.164 -1.313,2.652c-0.351,0.103 -0.733,0.076 -1.079,0.191c-0.346,0.115 -0.628,0.477 -2.463,0.869c-1.801,0.384 -1.661,0.756 -3.441,1.166c-1.783,0.41 -1.664,0.765 -3.456,1.136c-1.791,0.37 -1.639,0.813 -3.438,1.199c-1.798,0.386 -1.66,0.801 -3.45,1.149c-0.344,0.067 -0.708,0.053 -1.037,0.175c-0.335,0.124 -0.122,0.582 -2.408,1.032c-0.349,0.069 -0.722,0.036 -1.053,0.166c-0.454,0.178 -0.808,0.564 -1.262,0.741c-0.844,0.33 -4.696,0.075 -5.64,0.392c-0.341,0.114 -0.572,0.493 -2.398,0.885c-1.802,0.386 -1.657,0.817 -3.45,1.177c-1.794,0.36 -1.651,0.778 -3.441,1.154c-1.814,0.381 -1.65,0.847 -3.449,1.195c-0.351,0.068 -0.727,0.034 -1.06,0.165c-0.212,0.084 -0.704,0.675 -2.377,1.009c-0.348,0.07 -0.722,0.04 -1.052,0.172c-0.456,0.181 -0.811,0.568 -1.267,0.75c-0.629,0.253 -3.035,0.226 -3.34,0.33c-0.166,0.056 -0.169,0.41 -1.289,0.745c-1.487,0.445 -4.47,0.089 -5.569,0.489c-0.192,0.07 -1.331,0.484 -2.34,1.022c-0.156,0.083 -0.279,0.447 -1.296,0.759c-0.825,0.253 -2.855,0.325 -3.278,0.488c-0.46,0.177 -0.854,0.496 -1.302,0.703c-2.201,1.022 -2.155,1.203 -4.576,1.42c-2.056,0.184 -3.807,2.236 -5.752,2.334c-2.318,0.116 -2.299,-0.195 -4.595,0.009c-1.362,0.121 -1.534,0.544 -3.431,1.031c-1.546,0.397 -1.464,0.594 -2.364,0.884c-0.693,0.223 -1.44,0.248 -2.13,0.479c-0.21,0.07 -0.707,0.554 -2.405,0.953c-1.796,0.422 -1.664,0.771 -3.452,1.15c-1.801,0.382 -1.652,0.816 -3.444,1.186c-1.806,0.372 -1.654,0.81 -3.447,1.159c-0.344,0.067 -0.71,0.049 -1.038,0.171c-0.04,0.015 -0.413,0.499 -1.284,0.761c-1.119,0.336 -4.694,0.109 -5.613,0.423c-0.235,0.08 -0.743,0.539 -2.422,0.884c-2.685,0.552 -2.443,1.103 -4.638,2.056c-1.189,0.516 -1.097,0.671 -2.288,1.172c-1.947,0.819 -1.718,1.136 -2.612,1.903c-0.011,0.01 -2.7,1.502 -3.111,1.619c-1.497,0.424 -2.439,-0.17 -3.685,0.655c-0.278,0.184 -0.609,0.293 -0.862,0.51c-0.194,0.166 -0.15,0.542 -1.229,1.047c-0.314,0.147 -0.668,0.205 -0.967,0.379c-0.159,0.092 -0.221,0.304 -0.377,0.402c-0.888,0.558 -0.995,0.276 -1.915,0.779c-0.533,0.292 -0.427,0.456 -1.305,0.81c-0.328,0.133 -0.687,0.191 -1.001,0.354c-0.15,0.078 -0.216,0.27 -0.361,0.355c-0.922,0.537 -1.013,0.275 -1.924,0.779c-0.136,0.075 -0.338,0.475 -1.336,0.773c-1.055,0.315 -2.994,0.028 -4.496,1.268c-0.251,0.207 -0.141,0.487 -1.263,0.995c-0.315,0.143 -0.667,0.202 -0.968,0.372c-0.159,0.09 -0.226,0.297 -0.382,0.392c-0.897,0.542 -0.999,0.268 -1.919,0.765c-0.654,0.354 -0.55,0.487 -1.32,0.793c-0.188,0.075 -1.405,0.559 -2.19,1.272c-0.062,0.056 -0.322,0.641 -1.211,1.098c-2.174,1.12 -2.164,1.23 -4.601,1.363c-1.517,0.083 -3.278,1.434 -4.647,2.002c-0.726,0.301 -0.682,0.339 -1.362,0.738c-1.148,0.674 -1.281,0.389 -2.313,1.189c-0.251,0.195 -0.555,0.32 -0.791,0.533c-0.127,0.115 -0.275,0.59 -1.241,1.054c-4.425,2.123 -4.36,2.3 -5.725,2.515c-0.348,0.055 -0.718,0.006 -1.051,0.124c-0.378,0.134 -0.212,0.413 -1.313,0.741c-1.944,0.579 -1.964,0.38 -2.126,0.441c-1.969,0.742 -4.472,2.873 -4.762,3.013c-1.896,0.92 -3.926,2.132 -4.591,2.331c-1.066,0.319 -1.111,0.019 -2.135,0.396c-0.113,0.042 0.003,0.246 -1.313,0.743c-1.216,0.459 -1.113,0.649 -2.311,1.122c-0.323,0.127 -0.673,0.191 -0.977,0.357c-0.159,0.087 -0.228,0.291 -0.383,0.385c-0.914,0.55 -1.004,0.287 -1.935,0.763c-0.15,0.077 -0.217,0.269 -0.367,0.346c-0.602,0.307 -1.283,0.452 -1.865,0.795c-0.208,0.122 -0.286,0.389 -0.448,0.566c-0.877,0.957 -0.499,1.189 -1.335,2.173c-0.162,0.19 -0.431,0.267 -0.596,0.454c-0.615,0.697 -1.211,1.998 -1.295,2.183c-0.514,1.122 -0.795,1.007 -1.011,1.259c-0.678,0.793 -4.171,7.864 -4.662,9.122c-0.075,0.192 -0.164,0.146 -1.153,2.304c-0.083,0.182 -0.275,0.599 -1.596,1.921c-0.181,0.181 -0.454,0.258 -0.623,0.451c-0.215,0.246 -0.32,0.571 -0.506,0.839c-1.065,1.531 -0.295,1.828 -1.15,3.475c-0.079,0.151 -0.266,0.228 -0.342,0.38c-0.157,0.315 -0.201,0.677 -0.346,0.998c-0.322,0.716 -1.891,2.291 -1.991,2.464c-0.171,0.294 -0.224,0.643 -0.367,0.952c-0.35,0.752 -1.771,2.168 -1.952,2.481c-0.17,0.295 -0.236,0.64 -0.382,0.947c-0.351,0.74 -1.975,2.12 -1.777,3.325c0.024,0.147 2.37,4.931 3.049,5.762c0.35,0.428 0.5,0.304 0.985,1.263c1.287,2.546 1.991,1.873 3.111,2.748c0.615,0.481 0.401,0.8 2.671,1.816c2.135,0.956 2.543,1.606 4.656,2.095c1.791,0.414 1.669,0.674 3.387,1.359c1.211,0.483 1.103,0.66 2.299,1.149c0.754,0.308 0.709,0.344 1.364,0.818c0.922,0.667 1.238,0.615 1.264,2.627c0.003,0.262 0.036,2.712 0.228,3.272c0.158,0.462 0.454,0.871 0.608,1.335c0.219,0.658 0.304,3.169 0.4,3.451c1.144,3.376 2.09,3.739 0.753,4.643c-1.08,0.731 -2.137,-1.08 -2.24,-1.258c-2.001,-3.43 -3.116,-2.325 -5.394,-4.886c-1.113,-1.251 -0.9,-1.409 -2.068,-2.627c-2.88,-3.004 -9.173,-5.724 -9.906,-5.848c-1.649,-0.278 -6.296,2.31 -10.328,2.92c-2.351,0.356 -2.268,0.645 -4.61,1.116c-0.367,0.074 -0.736,0.142 -1.094,0.252c-2.272,0.7 -2.243,0.754 -4.586,1.237c-2.415,0.497 -2.55,1.143 -3.76,0.202c-1.307,-1.017 -0.897,-1.353 -0.024,-2.767c0.564,-0.914 1.079,-3.395 1.588,-4.411c0.48,-0.959 1.061,-1.213 1.186,-3.504c0.147,-2.694 0.962,-2.321 2.04,-3.538c0.412,-0.465 2.167,-3.227 1.861,-4.489c-0.106,-0.437 -0.553,-0.738 -0.67,-1.172c-0.04,-0.15 -0.33,-1.223 0.51,-1.869c0.772,-0.593 2.12,0.174 1.973,-2.736c-0.094,-1.861 -0.447,-2.251 1.213,-3.095c1.524,-0.775 1.902,-0.503 2.036,-1.514c0.131,-0.991 -1.524,-2.786 -0.965,-5.712c0.388,-2.031 1.63,-2.031 5.736,-4.425c1.814,-1.058 1.229,-1.508 1.378,-3.615c0.105,-1.486 1.163,-2.39 1.404,-2.724c0.81,-2.013 0.796,-2.011 0.904,-4.164c0.077,-1.524 0.768,-1.064 2.309,-1.833c1.016,-0.507 1.193,-0.542 1.086,-1.663c-0.038,-0.397 -0.361,-0.719 -0.458,-1.106c-0.711,-2.839 2.154,-2.588 2.352,-2.678c1.803,-0.818 0.675,-1.887 2.796,-3.88c1.483,-1.394 1.514,-1.328 2.88,-2.856c1.158,-1.296 3.039,-2.428 4.154,-5.393c0.851,-2.265 0.349,-5.879 0.834,-7.007c0.063,-0.147 0.391,-0.073 0.42,-0.23c0.054,-0.291 -0.266,-0.57 -0.217,-0.862c0.077,-0.464 0.401,-0.851 0.576,-1.288c0.788,-1.972 0.891,-1.945 2.646,-3.116c1.732,-1.156 3.26,-0.62 4.484,-3.725c0.196,-0.498 0.354,-0.898 3.152,-5.902c0.681,-1.219 1.382,-1.675 1.469,-2.119c0.128,-0.656 -0.876,-5.329 0.215,-6.729c0.041,-0.052 2.332,-1.722 3.137,-3.67c0.135,-0.327 0.244,-0.664 0.377,-0.992c1.51,-3.712 2.62,-3.267 2.582,-4.763c-0.032,-1.259 -0.876,-1.058 -0.76,-2.312c0.047,-0.508 0.384,-0.75 0.443,-0.792c0.122,-0.087 0.134,-0.035 1.816,-0.47c0.079,-0.332 0.329,-0.606 0.407,-0.938c0.09,-0.378 0.039,-0.776 0.09,-1.161c0.046,-0.343 0.092,-0.69 0.203,-1.018c0.157,-0.464 0.44,-0.88 0.594,-1.345c0.284,-0.856 0.243,-3.083 0.337,-3.345c0.064,-0.179 0.292,-0.246 0.417,-0.39c1.253,-1.455 1.548,-1.072 2.674,-2.03c0.627,-0.534 0.542,-0.611 1.208,-1.083c3.516,-2.49 3.957,-3.304 4.169,-3.696c0.326,-0.602 -0.089,-1.417 1.109,-2.435c2.232,-1.896 3.517,-0.973 3.618,-3.132c0.042,-0.896 -0.512,-1.79 1.625,-3.079c2.989,-1.804 3.563,-1.571 4.326,-4.961c0.51,-2.264 2.567,-3.184 1.953,-4.39c-0.266,-0.522 -3.176,-0.69 -2.943,-2.479c0.117,-0.899 2.38,-2.496 3.14,-3.592c0.117,-0.169 0.093,-0.181 1.322,-2.203c0.435,-0.716 0.523,-0.614 1.127,-1.18c0.202,-0.19 0.306,-0.469 0.509,-0.659c0.195,-0.183 0.48,-0.254 0.668,-0.444c0.204,-0.206 0.267,-0.531 0.487,-0.721c0.245,-0.211 0.37,-0.044 3.212,-2.444c0.644,-0.544 1.495,-1.023 2.216,-2.487c1.061,-2.154 1.667,-1.72 2.866,-3.786c1.52,-2.619 1.396,-2.673 3.207,-5.122c1.619,-2.19 1.156,-3.285 3.028,-3.544c1.629,-0.225 2.148,0.27 2.58,-1.3c0.28,-1.019 -1.452,-4.531 8.862,-4.483c1.569,0.007 5.474,0.472 7.932,-0.538c1.887,-0.776 2.004,-1.135 3.773,-0.155c1.876,1.04 2,0.517 10.133,0.611c4.436,0.051 4.364,-0.458 5.828,-1.069c1.247,-0.52 5.054,-0.463 10.284,-1.266c3.528,-0.542 3.519,0.257 5.745,0.177c6.157,-0.223 6.255,-0.315 6.645,-0.681c0.188,-0.177 0.144,-0.506 0.294,-0.716c0.144,-0.203 0.446,-0.27 0.563,-0.489c0.162,-0.303 0.133,-0.676 0.233,-1.005c0.303,-0.996 0.396,-1.061 1.438,-1.139c0.404,-0.03 0.801,0.187 1.205,0.157c0.308,0.346 0.452,0.118 0.766,0.471c0.047,0.052 0.222,0.249 0.363,0.797c0.09,0.349 0.028,0.725 0.118,1.074c0.781,1.197 0.676,1.472 2.095,1.625c2.633,0.284 7.114,-0.492 9.169,0.031c1.103,0.281 1.882,1.045 4.556,0.288c4.313,-1.222 4.778,0.812 8.181,0.528c0.381,-0.032 0.754,-0.122 1.135,-0.158c3.643,-0.344 3.854,1.039 7.139,-0.557c3.067,-1.49 3.5,-0.347 6.4,-2.149c1.637,-1.017 1.798,-0.525 3.641,-1.05c3.495,-0.996 4.504,-0.796 5.149,-2.916c0.644,-2.118 -0.139,-2.05 -1.433,-4.842c-0.545,-1.176 -0.459,-1.199 -1.031,-2.349c-0.907,-1.825 -0.786,-1.875 -1.708,-3.152c-2.047,-2.832 -0.582,-3.306 -1.443,-5.74c-0.065,-0.184 -0.499,-1.41 -0.962,-2.247c-0.149,-0.269 -0.608,-0.199 -0.99,-2.479c-0.43,-2.56 -0.51,-2.534 -1.787,-4.809c-1.084,-1.931 -1.299,-7.23 -1.325,-7.868c-0.007,-0.182 -0.072,-1.764 -0.309,-2.254c-0.074,-0.153 -0.368,-0.124 -0.424,-0.285c-0.076,-0.219 0.161,-0.471 0.084,-0.69c-0.059,-0.168 -0.357,-0.149 -0.437,-0.308c-0.991,-1.967 0.995,-5.836 -0.447,-7.786c-0.177,-0.239 -0.456,-0.199 -0.943,-1.303c-1.06,-2.401 -0.945,-2.463 -1.507,-3.095c-0.179,-0.201 -0.45,-0.301 -0.636,-0.496c-2.204,-2.3 -0.294,-3.702 -1.655,-5.281c-0.125,-0.146 -0.3,0.063 -1.81,-1.581c-0.847,-0.922 -0.662,-1.059 -1.543,-1.955c-0.183,-0.186 -0.446,-0.283 -0.618,-0.478c-0.205,-0.234 -0.298,-0.551 -0.497,-0.79c-0.118,-0.141 -0.398,-0.155 -0.438,-0.335c-0.064,-0.29 0.204,-0.581 0.17,-0.876c-0.05,-0.432 -0.341,-0.808 -0.415,-1.237c-0.193,-1.108 0.779,-1.707 -1.808,-4.096c-3.513,-3.243 -3.992,-2.465 -8.761,-2.496c-10.344,-0.069 -10.323,-0.084 -20.679,0.025c-1.105,0.012 -5.996,-0.181 -6.901,-0.159c-0.183,0.004 -1.939,0.047 -2.275,-0.192c-1.285,-0.917 -0.824,-1.99 -0.752,-2.158c0.762,-1.775 4.968,-4.526 5.5,-5.756c0.118,-0.274 0.14,-0.723 0.948,-2.405c1.083,-2.254 2.606,-2.57 3.528,-4.554c0.897,-1.929 1.178,-1.734 1.792,-2.645c0.532,-0.789 2.847,-6.989 3.1,-7.601c1.873,-4.533 0.768,-5.274 3.184,-6.927c2.03,-1.39 -0.078,-2.795 3.56,-6.825c3.906,-4.326 3.098,-9.333 3.642,-10.42c0.073,-0.146 0.329,-0.104 0.434,-0.229c1.28,-1.525 1.482,-4.087 1.511,-4.462c0.224,-2.852 -0.144,-2.866 0.52,-6.805c0.526,-3.123 -0.901,-3.171 -0.271,-4.629c0.534,-1.237 2.497,-1.022 2.119,-8.113c-0.108,-2.029 -0.41,-2.408 -0.826,-5.76c-0.349,-2.817 -0.405,-2.929 -2.574,-4.765c-1.599,-1.354 -1.82,-1.016 -3.451,-2.315c-0.711,-0.567 -1.142,-1.398 -4.806,-3.134c-0.365,-0.173 -1.764,-0.836 -4.245,-2.736c-0.574,-0.439 -0.506,-0.538 -1.407,-0.891c-0.327,-0.128 -0.683,-0.19 -0.992,-0.359c-0.143,-0.078 -0.186,-0.284 -0.329,-0.361c-0.055,-0.03 -4.24,-1.137 -7.505,-5.287c-0.677,-0.86 -0.583,-1.218 -2.594,-2.207c-3.241,-1.594 -3.469,-2.374 -5.943,-4.257c-1.165,-0.886 -2,-1.234 -2.188,-1.313c-2.662,-1.109 -2.641,-2.163 -4.682,-3.3c-3.228,-1.798 -2.741,-2.489 -4.593,-3.448c-0.248,-0.129 -2.701,-1.4 -3.09,-1.63c-0.689,-0.408 -1.7,-1.305 -1.839,-1.428c-0.113,-0.1 -0.122,-0.039 -1.582,-1.037c-1.499,-1.024 -2.757,-0.465 -3.705,-0.845c-0.166,-0.066 -0.194,-0.333 -0.361,-0.396c-0.158,-0.059 -0.36,0.165 -0.5,0.072c-0.154,-0.103 0.185,-0.349 -1.409,-1.837c-2.313,-2.158 -6.774,-0.804 -18.496,0.084c-1.722,0.13 -6.924,1.424 -13.813,2.088c-3.696,0.356 -4.993,0.268 -10.166,1.944c-3.701,1.199 -5.633,0.719 -9.269,2.029c-2.952,1.064 -3.176,0.299 -6.011,1.613c-3.978,1.845 -4.016,1.709 -7.982,3.574c-2.362,1.111 -5.79,1.62 -10.095,3.96c-2.743,1.491 -3,1.056 -11.415,6.98c-1.529,1.076 -4.713,3.722 -5.115,4.056c-1.246,1.035 -1.459,1.14 -1.058,2.706c0.36,1.408 3.107,-1.417 5.636,0.302c0.104,0.07 0.06,0.096 1.232,0.968c1.25,0.93 2.606,1.273 3.78,1.893c0.195,0.178 0.504,0.194 0.699,0.372c0.229,0.209 0.322,0.537 0.539,0.757c0.311,0.316 0.413,0.162 0.689,0.49c0.25,0.297 0.049,0.388 0.303,0.691c8.776,1.37 8.163,3.199 12.641,4.629c1.732,0.553 1.606,0.815 3.312,1.419c1.848,0.654 6.929,3.157 7.759,3.75c3.619,2.584 4.142,1.228 6.078,2.069c0.144,0.063 0.097,0.369 0.251,0.399c0.26,0.051 0.516,-0.275 0.769,-0.199c0.184,0.055 0.103,0.409 0.266,0.51c0.319,0.198 0.405,-0.05 4.457,1.466c2.037,0.762 2.475,2.311 4.671,3.291c4.285,1.912 4.602,1.424 5.562,1.7c0.5,0.144 2.584,1.295 3.685,1.55c1.917,0.445 1.923,0.422 2.139,0.527c0.347,0.169 0.206,0.4 1.29,0.747c2.505,0.802 4.545,-0.616 5.54,0.262c1.191,1.05 -0.14,2.61 -1.222,6.631c-1.015,3.772 -2.103,3.484 -3.134,6.988c-0.371,1.263 -1.668,2.748 -2.152,3.546c-0.107,0.176 -0.041,0.207 -1.207,2.27c-0.965,1.708 -2.029,2.561 -2.62,4.451c-0.111,0.355 -0.112,0.75 -0.283,1.081c-0.224,0.434 -0.634,0.75 -0.88,1.172c-0.159,0.272 -0.18,0.608 -0.321,0.89c-0.114,0.227 -0.424,0.376 -0.698,1.493c-0.735,2.993 -0.66,3.063 -2.602,5.479c-2.634,3.277 -2.598,3.304 -4.251,7.18c-1.304,3.057 -2.963,3.935 -4.027,6.02c-1.411,2.763 -1.673,2.616 -2.869,5.474c-0.592,1.416 -1.605,2.377 -1.754,2.651c-0.33,0.609 0.031,1.147 -4.648,6.921c-2.615,3.227 -4.561,2.807 -8.46,3.435c-9.468,1.525 -11.466,-0.706 -20.755,-0.629c-6.06,0.05 -6.042,0.539 -10.349,0.201c-5.195,-0.408 -4.364,4.815 -6.89,4.782c-0.786,-0.01 -1.547,-0.319 -2.332,-0.355c-4.094,-0.185 -1.037,4.342 -0.825,4.655c2.824,4.182 1.505,5.673 4.066,9.524c1.911,2.873 0.738,4.05 2.704,6.6c0.152,0.198 0.356,0.352 0.518,0.541c2.127,2.486 1.132,3.382 2.59,5.471c1.463,2.096 1.021,2.357 2.626,4.358c1.893,2.359 0.407,3.071 2.3,5.76c3.845,5.462 3.641,6.725 2.164,9.323c-0.635,1.117 -0.828,0.983 -1.366,2.167c-2.073,4.557 -3.347,3.714 -4.312,5.91c-0.705,1.604 -0.099,1.921 -2.747,5.425c-1.268,1.678 -0.856,1.925 -2.189,3.521c-1.715,2.052 -1.805,1.953 -2.98,3.798c-1.377,2.162 -1.468,2.1 -2.459,4.481c-0.806,1.935 -1.883,2 -3.265,4.686c-0.257,0.5 -0.011,1.126 -2.836,4.225c-1.109,1.217 -1.164,1.132 -2.203,2.395c-1.416,1.723 -0.921,2.038 -3.18,4.817c-1.134,1.395 -2.428,5.282 -7.39,11.083c-4.966,5.806 -3.466,6.74 -4.565,8.112c-0.449,0.561 -0.803,0.255 -2.308,2.34c-0.613,0.849 -1.104,2.15 -2.147,3.505c-0.181,0.236 -0.169,0.238 -3.596,5.638c-1.263,1.991 -7.129,12.615 -7.407,13.074c-4.472,7.37 -5.648,11.557 -6.53,13.403c-0.564,1.179 -0.358,1.251 -0.949,2.402c-0.08,0.156 -0.273,0.231 -0.364,0.381c-1.252,2.06 -2.336,4.131 -2.527,4.497c-0.603,1.153 -0.804,1.014 -1.325,2.191c-0.74,1.672 -0.683,1.674 -1.525,3.282c-2.778,5.303 -3.381,8.423 -5.59,11.53c-2.803,3.942 -1.349,4.587 -2.65,6.703c-0.091,0.148 -0.193,0.035 -1.344,1.711c-0.923,1.344 -1.426,2.943 -1.511,3.214c-1.365,4.336 -3.238,5.978 -3.641,6.811c-0.09,0.185 -0.047,0.2 -1.036,2.357c-1.3,2.833 -1.571,2.683 -2.632,5.629c-0.842,2.34 -1.597,3.051 -2.265,4.591c-1.636,3.771 -1.34,3.921 -2.962,6.006c-0.973,1.252 -1.5,3.321 -2.817,5.367c-1.957,3.04 -1.034,3.507 -3.326,6.994c-1.245,1.894 -0.621,2.489 -2.448,5.691c-0.1,0.175 -1.219,2.137 -1.251,2.184c-1.624,2.431 -0.325,3.269 -1.182,4.633c-0.113,0.18 -0.374,0.218 -0.512,0.38c-0.534,0.628 -0.452,0.68 -1.05,1.257c-2.574,2.485 -1.983,3.308 -2.942,5.361c-0.86,1.843 -1.058,3.489 -2.461,5.538c-2.032,2.97 -3.626,7.787 -3.86,8.496c-1.621,4.9 -2.59,4.449 -4.433,9.261c-1.509,3.939 -4.747,9.596 -5.74,11.559c-1.529,3.022 -1.511,3.006 -3.38,5.816c-1.779,2.675 -1.046,3.026 -2.978,6.545c-0.224,0.408 -1.631,2.18 1.411,2.443c0.275,0.024 0.273,-0.106 3.447,0.094c5.332,0.337 4.233,4.156 4.321,4.55c0.033,0.148 0.297,1.322 1.421,1.249c0.757,-0.05 0.944,-0.859 4.64,-0.39c4.084,0.518 4.653,-0.47 6.675,0.565c1.385,0.71 1.31,0.809 2.698,1.491c3.909,1.922 7.201,1.942 10.31,3.568c1.666,0.871 4.056,1.382 5.738,2.262c3.923,2.052 4.343,1.069 8.143,3.372c2.649,1.606 2.968,0.906 5.64,2.483c1.952,1.152 3.288,1.139 7.708,3c5.792,2.44 7.529,1.705 7.902,2.235c0.258,0.367 -1.357,0.412 -1.099,0.779l0.19,1.027c-0.319,0.079 -0.595,0.291 -0.915,0.371c-1.744,0.434 -2.197,-0.315 -4.882,0.535c-2.276,0.721 -2.375,0.313 -4.612,1.143c-0.524,0.194 -0.467,0.58 -5.589,0.709c-3.545,0.089 -3.871,-0.641 -5.777,-1.454c-1.64,-0.7 -1.919,-1.458 -4.64,-2.089c-1.755,-0.407 -2.115,-0.839 -2.391,-0.936c-0.291,-0.102 -2.815,-0.261 -3.3,-0.444c-0.46,-0.174 -0.837,-0.531 -1.301,-0.693c-0.338,-0.119 -0.714,-0.076 -1.067,-0.137c-1.838,-0.319 -1.696,-0.658 -3.412,-1.408c-1.784,-0.78 -1.711,-1.489 -4.625,-2.104c-2.16,-0.456 -2.007,-0.813 -2.393,-1.026c-0.312,-0.172 -0.673,-0.236 -1.002,-0.373c-1.003,-0.416 -2.986,-1.845 -4.645,-2.014c-1.137,-0.116 -1.127,0.08 -2.271,-0.015c-2.612,-0.217 -2.167,-1.602 -5.788,-2.283c-2.18,-0.41 -2.146,-0.897 -2.393,-1.033c-0.314,-0.173 -0.679,-0.231 -1.009,-0.37c-1.189,-0.499 -1.067,-0.699 -2.269,-1.212c-2.049,-0.875 -2.148,-1.477 -4.656,-2.043c-1.829,-0.413 -2.081,-0.794 -2.417,-0.909c-0.351,-0.121 -2.358,-0.206 -3.275,-0.487c-1.174,-0.36 -1.107,-0.656 -1.306,-0.724c-0.334,-0.114 -0.702,-0.082 -1.051,-0.14c-0.168,-0.028 -1.383,-0.231 -2.042,-0.622c-0.106,-0.062 -1.009,-0.597 -1.239,-0.904c-0.497,-0.664 -0.514,-2.455 0.98,-3.426c0.239,-0.155 0.519,-0.247 0.739,-0.428c0.205,-0.168 0.302,-0.449 0.518,-0.603c0.659,-0.474 0.719,-0.35 1.356,-0.873c1.969,-1.614 1.225,-2.196 2.939,-4.055c1.866,-2.023 1.919,-1.957 2.021,-2.171c0.824,-1.715 -0.145,-4.255 -0.277,-4.6c-1.262,-3.308 0.176,-3.619 -1.148,-6.904c-0.852,-2.112 -0.582,-2.167 -0.568,-4.439c0.013,-2.165 -0.536,-2.369 -0.589,-2.458c-0.919,-1.548 -0.588,-5.513 -0.645,-11.335c-0.016,-1.654 -0.229,-1.6 -0.804,-3.466c-0.214,-0.695 -0.273,-1.433 -0.507,-2.121c-0.1,-0.294 -0.54,-0.633 -0.915,-2.42c-0.377,-1.8 -0.746,-1.667 -1.163,-3.439c-0.422,-1.795 -0.802,-1.658 -1.156,-3.454c-0.356,-1.803 -0.796,-1.642 -1.187,-3.438c-0.283,-1.302 -0.478,-1.213 -0.931,-2.328c-0.423,-1.041 -0.018,-1.121 -0.4,-2.154c-0.055,-0.148 -0.26,-0.193 -0.342,-0.328c-1.195,-1.964 -0.63,-2.114 -0.626,-4.414c0.004,-2.392 -0.613,-2.249 -1.12,-4.575c-0.392,-1.797 -0.751,-1.664 -1.137,-3.45c-0.391,-1.805 -0.804,-1.659 -1.165,-3.451c-0.363,-1.801 -0.809,-1.652 -1.18,-3.438c-0.272,-1.309 -0.466,-1.223 -0.917,-2.331c-0.42,-1.031 -0.029,-1.115 -0.41,-2.161c-0.027,-0.074 -0.45,-0.338 -0.769,-1.272c-0.666,-1.95 -0.372,-2.011 -0.437,-2.176c-0.054,-0.139 -0.759,-0.825 -0.916,-2.406c-0.167,-1.676 0.04,-1.682 -0.048,-1.796c-0.105,-0.137 -0.338,0.177 -0.502,0.125c-0.166,-0.053 -0.17,-0.39 -0.344,-0.393c-0.427,-0.009 -0.829,0.209 -1.229,0.358c-0.354,0.132 -0.667,0.363 -1.025,0.483c-1.306,0.44 -1.427,-0.086 -3.625,0.763c-2.228,0.861 -2.361,0.321 -4.583,1.173c-2.241,0.859 -2.384,0.275 -4.604,1.149c-1.567,0.617 -1.573,0.526 -3.24,0.681c-0.736,0.068 -0.715,0.121 -1.347,0.499c-1.517,0.906 -3.674,0.599 -4.269,0.814c-0.147,0.053 -0.187,0.26 -0.321,0.34c-2.257,1.353 -5.686,-0.048 -9.19,1.126c-1.734,0.581 -1.763,0.429 -3.481,1.103c-2.755,1.081 -2.955,0.202 -5.719,1.194c-1.738,0.624 -1.777,0.446 -3.466,1.14c-2.732,1.122 -2.956,0.15 -5.722,1.177c-2.264,0.84 -2.742,0.703 -3.137,0.827c-0.148,0.046 -0.189,0.256 -0.321,0.336c-1.489,0.908 -3.703,0.582 -4.272,0.794c-0.153,0.057 -0.194,0.272 -0.331,0.36c-2.364,1.521 -5.68,-0.178 -9.211,1.075c-2.246,0.797 -2.361,0.344 -4.587,1.176c-2.235,0.835 -2.362,0.329 -4.598,1.14c-2.248,0.815 -2.378,0.303 -4.603,1.152c-2.229,0.85 -2.358,0.33 -4.58,1.186c-2.804,1.08 -2.896,0.733 -3.138,0.828c-0.143,0.057 -0.18,0.261 -0.311,0.343c-1.952,1.233 -2.116,0.624 -4.417,0.616c-0.785,-0.003 -1.571,0.107 -2.354,0.057c-1.914,-0.123 -3.674,-2.52 -4.759,-3.601c-2.614,-2.605 -3.088,-1.507 -5.5,-0.996c-2.458,0.521 -2.399,0.646 -4.784,1.385c-4.003,1.241 -3.897,1.536 -7.995,2.335c-2.873,0.56 -2.777,1.07 -5.688,1.114c-3.513,0.054 -3.35,1.252 -6.884,1.171c-4.621,-0.105 -4.677,0.421 -9.111,-0.824c-2.531,-0.711 -7.327,0.349 -10.272,-1.2c-2.92,-1.536 -1.383,-2.879 -1.185,-3.051c0.935,-0.817 4.117,0.304 4.374,0.359c3.802,0.817 3.903,-0.423 7.117,0.264c0.358,0.077 0.71,0.178 1.07,0.245c2.005,0.372 9.568,0.426 10.447,-0.852c0.169,-0.245 0.221,-0.558 0.385,-0.807c0.149,-0.225 0.397,-0.374 0.546,-0.599l1.559,-1.702c3.569,-1.091 4.49,-0.315 5.748,-3.822c1.343,-3.744 1.144,-3.807 1.013,-7.008c-0.107,-2.613 1.552,-4.033 1.002,-6.904c-0.034,-0.178 -0.149,-0.147 -0.555,-2.202c-0.381,-1.929 -0.097,-2.648 -0.387,-3.622c-0.101,-0.34 -0.339,-0.628 -0.454,-0.964c-0.587,-1.712 -0.157,-1.732 0.426,-3.448c-0.006,-0.43 -0.259,-0.832 -0.264,-1.262c-0.009,-0.735 0.184,-1.04 0.233,-1.118c0.469,-0.738 0.763,-0.451 1.231,-1.185c-0.2,-1.718 -0.215,-1.691 -0.675,-3.361c-0.066,-0.46 -0.615,-0.757 -0.682,-1.217c-0.097,-0.675 0.295,-0.937 0.365,-0.983c0.465,-0.31 0.543,0.378 1.013,0.065c1.457,-1.698 2.282,-1.959 0.878,-3.691c-0.144,-0.178 -0.445,-0.156 -0.611,-0.314c-0.723,-0.692 -1.095,-2.994 -1.14,-3.267c-0.053,-0.328 0.09,-0.674 0.009,-0.997c-0.103,-0.412 -0.501,-0.73 -0.546,-1.153c-0.102,-0.962 0.996,-1.126 1.122,-1.145c1.24,-0.185 1.173,0.37 2.402,0.348c1.444,-0.026 2.551,-1.861 2.302,-2.671c-0.254,-0.829 -0.882,-1.5 -1.206,-2.304c-0.327,-0.81 -0.114,-0.815 0.073,-2.253c0.051,-0.394 0.079,-0.796 0.041,-1.191c-0.093,-0.955 -0.884,-1.421 0.67,-2.579c0.211,-0.157 2.416,-1.801 2.562,-2.052c0.659,-1.132 -0.659,-3.447 -0.671,-3.489c-0.107,-0.377 -0.025,-0.791 -0.128,-1.169c-0.244,-0.896 -0.4,-0.785 -1.118,-1.395c-0.355,-0.301 -0.864,-0.525 -1.007,-0.968c-0.463,-1.433 1.609,-2.062 1.823,-2.128c0.678,-0.206 1.383,-0.324 2.048,-0.569c0.099,-0.036 0.849,-0.761 0.936,-0.921c0.627,-1.146 1.266,-16.541 0.977,-19.252c-0.158,-1.485 0.099,-2.105 0.106,-2.307c0.031,-0.895 -0.082,-0.875 -0.326,-2.29c-0.278,-1.613 0.084,-1.672 0.386,-2.396c1.266,-3.038 0.616,-3.165 1.142,-6.818c0.73,-5.071 0.407,-5.428 0.503,-7.973c0.01,-0.253 0.124,-3.28 2.244,-2.232c0.385,0.19 1.216,1.963 1.301,2.145c0.588,1.254 1.529,2.059 1.986,2.559c2.644,2.886 2.137,3.57 5.429,8.248c5.746,8.167 5.766,10.63 8.158,13.725c2.348,3.038 5.99,9.029 6.48,9.834c2.625,4.318 3.139,5.347 3.38,5.829c1.574,3.152 2.012,2.956 5.46,3.66c2.559,0.523 5.394,5.037 6.821,3.283c0.697,-0.856 -0.547,-2.257 -0.68,-2.406c-2.884,-3.245 -0.728,-3.53 -0.442,-3.559c0.458,-0.047 5.323,2.039 8.108,1.406c0.793,-0.18 1.532,-0.589 2.338,-0.693c0.783,-0.101 2.274,0.934 4.555,1.028c4.789,0.197 5.368,-0.003 5.807,-0.155c0.786,-0.272 1.502,-0.737 2.304,-0.959c1.044,-0.288 1.806,1.001 4.529,1.122c1.239,0.055 1.215,0.082 2.402,0.403c0.611,0.165 2.859,0.773 7.913,0.223c1.437,-0.157 2.431,-1.872 0.672,-3.99c-1.749,-2.106 -1.467,-2.281 -1.611,-5.003c-0.103,-1.935 -0.758,-2.015 -1.206,-2.425c-2.036,-1.862 -1.529,-2.894 -2.021,-5.726c-0.237,-1.364 -0.828,-1.973 -0.509,-3.383c0.371,-1.641 2.71,-1.147 3.285,-1.525c0.795,-0.524 0.421,-1.747 0.376,-1.895c-0.141,-0.462 -0.523,-0.818 -0.705,-1.265c-0.423,-1.036 -0.142,-1.101 -0.533,-2.162c-0.867,-2.355 -2.323,-1.198 -3.415,-3.468c-1.118,-2.325 -1.358,-2.188 -2.381,-4.556c-0.532,-1.232 -2.671,-2.574 -3.071,-3.604c-0.103,-0.265 -0.84,-2.165 -1.121,-3.368c-0.56,-2.398 1.154,-3.9 -1.008,-9.295c-0.85,-2.122 -0.559,-4.137 -1.737,-5.523c-1.976,-2.327 -4.345,-0.976 -4.63,-5.801c-0.183,-3.097 -2.293,-7.059 -3.513,-7.773c-1.543,-0.902 -1.887,-0.687 -2.426,-2.512c-1.252,-4.233 -1.5,-4.126 -2.712,-6.074c-1.013,-1.629 -0.221,-1.989 -2.401,-5.671c-3.547,-5.988 -3.496,-6.009 -6.064,-12.469c-0.313,-0.788 -1.95,-2.345 -0.949,-3.22c0.727,-0.636 3.68,0.678 6.496,-0.641c2.818,-1.32 3.045,-0.683 5.85,-2.061c4.144,-2.035 4.284,-1.709 8.309,-3.979c1.168,-0.659 1.009,-0.832 1.937,-1.82c1.311,-1.396 1.938,1.145 3.427,-0.037c0.664,-0.528 0.257,-0.684 0.04,-2.061c-0.025,-0.158 -0.245,-1.555 0.34,-1.97c1.177,-0.834 1.863,0.651 4.519,0.192c2.326,-0.401 2.537,-0.163 4.067,-1.986c2.123,-2.527 2.68,-1.938 4.837,-4.421c2.273,-2.617 2.554,-2.261 5.626,-3.826c3.344,-1.704 2.665,-5.426 4.398,-7.857c1.027,-1.441 0.843,-1.516 1.281,-3.231c0.652,-2.553 2.158,-1.255 3.787,-3.356c0.951,-1.225 1.689,-1.337 1.897,-1.564c1.369,-1.491 -0.71,-4.856 -0.678,-6.434c0.036,-1.781 0.829,-1.268 2.433,-2.03c1.251,-1.274 1.256,-1.259 1.592,-1.651c0.675,-1.188 0.564,-1.26 1.551,-2.221c2.428,-2.366 1.75,-3.368 1.928,-4.506c0.053,-0.339 0.873,-2.725 0.997,-2.924c0.145,-0.234 0.512,-0.24 0.7,-0.442c0.212,-0.229 0.282,-0.558 0.462,-0.814c2.383,-3.389 1.082,-3.85 0.479,-6.057c-0.378,-1.385 0.318,-2.983 -0.419,-3.813c-0.865,-0.974 -1.064,-0.697 -1.493,-1.045c-0.974,-0.791 -0.84,-1.008 -0.244,-2.105c0.753,-1.385 2.664,-1.406 3.181,-2.439c0.45,-0.899 0.034,-3.228 0.03,-3.24c-0.053,-0.149 -0.27,-0.18 -0.36,-0.31c-0.197,-0.284 -0.235,-0.678 -0.488,-0.913c-0.237,-0.221 -0.622,-0.206 -0.897,-0.379c-0.204,-0.128 -0.318,-0.368 -0.515,-0.507c-0.767,-0.54 -0.999,-0.433 -1.058,-1.374c-0.024,-0.389 0.228,-0.763 0.204,-1.152c0.087,-0.584 0.214,-0.535 0.3,-1.109c0.015,-0.101 0.095,-0.64 0.054,-1.27c-0.024,-0.377 -0.185,-0.736 -0.209,-1.113Zm-348.483,-9.157c-1.242,-0.678 -1.222,-0.704 -1.341,-0.732c-1.962,-0.464 -1.963,-0.313 -2.126,-0.369c-0.767,-0.265 -2.047,-1.674 -0.506,-2.747c1.038,-0.722 1.163,-0.453 1.638,-0.779c0.402,-0.276 0.625,-0.767 1.027,-1.043c-1.159,-1.115 -1.106,-1.131 -2.278,-2.24c-2.539,-2.405 -3.194,-1.338 -4.444,-1.229c-1.112,0.097 -4.187,-1.228 -4.535,-1.378c-4.381,-1.888 -10.037,-3.496 -11.663,-3.858c-2.359,-0.527 -2.255,-0.792 -4.543,-1.599c-2.185,-0.771 -7.795,-4.645 -8.001,-4.724c-1.559,-0.596 -1.721,0.494 -8.115,-0.835c-3.016,-0.627 -2.933,-0.833 -4.458,-1.586c-6.531,-3.226 -6.652,-2.96 -10.398,-3.468c-1.914,-0.259 -5.739,-2.592 -11.494,-2.005c-3.014,0.307 -3.3,-0.475 -6.917,-0.395c-2.214,0.049 -10.849,0.107 -15.96,1.782c-5.95,1.95 -6.094,1.423 -8.073,2.197c-0.793,0.31 -1.545,0.72 -2.341,1.025c-0.345,0.132 -8.058,1.583 -10.392,0.941c-2.293,-0.63 -2.251,-0.699 -4.604,-1.138c-7.565,-1.414 -7.412,-1.995 -8.069,-2.11c-1.176,-0.206 -3.747,1 -4.738,3.222c-1.493,3.348 -0.424,3.714 -2.174,6.954c-1.557,2.883 -0.715,3.196 -2.017,5.901c-1.819,3.783 -0.991,4.02 -2.148,8.036c-1.215,4.217 -1.738,10.422 -1.815,11.337c-0.133,1.577 -0.262,1.541 -0.807,3.498c-1.605,5.763 -2.432,10.512 -2.593,11.436c-0.293,1.684 -0.97,2.004 -1.17,4.621c-0.235,3.067 -0.449,3.016 -0.919,4.611c-1.368,4.639 -0.491,7.278 -2.002,12.72c-0.816,2.938 -0.733,2.955 -0.821,3.204c-1.202,3.39 -0.881,3.451 -1.06,7.037c-0.122,2.442 -1.354,4.457 -1.648,6.952c-0.089,0.756 -0.141,1.515 -0.234,2.27c-0.256,2.071 -0.882,2.897 -1.049,4.606c-0.625,6.425 -1.539,6.32 -1.488,11.489c0.004,0.367 0.03,3.056 0.014,4.593c0.093,1.897 0.546,1.975 -0.197,3.297c-0.251,0.447 -0.692,0.767 -0.943,1.213c-0.139,1.522 -0.518,4.346 -0.568,4.724c-0,0.002 -0.239,4.169 -0.298,4.567c-0.61,4.158 -0.539,4.162 -0.611,4.52c-0.022,0.108 -0.912,2.418 -1.077,4.638c-0.391,5.271 -1.351,5.713 -1.537,9.242c-0.289,5.472 -1.637,5.397 -1.043,7.979c0.513,2.228 0.995,2.33 -0.126,4.763c-2.336,5.071 -0.522,5.775 -1.955,12.447c-0.398,1.855 -0.488,1.847 -0.542,11.579c-0.01,1.859 -0.815,4.018 -0.319,6.936c0.785,4.615 0.059,4.617 -0.175,9.141c-0.263,5.063 -1.891,8.128 1.6,9.192c2.475,0.754 2.44,0.792 4.782,1.878c1.24,0.488 1.247,0.431 2.365,1.117c1.475,0.906 1.572,0.577 4.273,0.944c1.685,0.229 5.563,1.919 6.799,2.344c1.728,0.594 1.708,0.577 3.422,1.157c0.469,0.159 0.502,0.028 5.908,1.849c3.763,1.267 7.221,1.709 9.029,2.624c2.297,1.163 2.325,1.058 4.855,1.558c4.275,0.845 5.574,1.832 6.937,2.201c1.594,0.431 1.781,-0.141 6.952,2.386c3.138,1.533 5.239,1.254 6.715,1.613c1.373,0.334 5.101,2.805 6.857,-1.289c1.293,-3.015 1.34,-5.221 1.158,-9.167c-0.133,-2.874 0.188,-15.897 0.215,-16.074c0.191,-1.227 0.467,-1.137 0.697,-2.341c0.378,-1.977 0.34,-9.363 0.706,-12.576c0.362,-3.176 0.095,-3.188 0.144,-3.461c0.046,-0.252 0.913,-2.059 1.031,-4.598c0.343,-7.363 1.8,-7.23 1.406,-10.337c-0.052,-0.407 -0.218,-0.797 -0.247,-1.206c-0.087,-1.224 0.218,-1.154 0.719,-2.271c0.973,-2.168 0.81,-5.335 2.318,-5.635c2.307,-0.459 1.918,1.286 7.867,2.727c6.411,1.553 10.065,4.405 17.383,5.22c1.058,0.118 5.245,-0.421 5.928,4.556c0.633,4.607 0.901,4.564 1.133,9.209c0.013,0.268 0.106,2.129 0.376,3.333c0.643,2.871 0.511,2.875 1.112,5.762c0.836,4.016 0.293,4.065 0.922,8.098c1.48,9.488 1.277,9.509 1.413,10.332c1.218,7.351 0.969,7.382 1.148,8.004c0.126,0.44 0.375,0.839 0.492,1.282c0.222,0.843 0.219,8.124 0.472,10.272c0.076,0.645 0.894,7.588 0.987,8.06c0.159,0.801 0.375,1.591 0.517,2.395c0.112,0.632 0.371,5.219 0.709,6.771c0.506,2.327 0.486,2.317 0.709,4.68c0.036,0.381 0.089,0.761 0.166,1.136c0.093,0.459 0.973,4.778 1.243,5.718c0.656,2.287 0.606,2.281 0.979,4.64c0.478,3.018 1.064,4.014 1.524,7.971c0.34,2.922 0.718,2.868 0.774,5.81c0.15,7.816 -0.93,9.695 2.402,9.566c1.79,-0.069 1.85,-0.663 6.909,0.635c1.325,0.206 6.537,1.017 16.159,4.466c3.78,1.355 4.014,0.449 7.762,1.879c3.321,1.267 3.437,0.737 7.156,1.525c2.521,0.534 4.458,0.257 4.526,0.258c2.296,0.052 2.293,0.222 4.566,-0.144c0.809,-0.13 0.827,-0.057 1.498,-0.546c0.497,-0.363 0.514,-0.32 1.72,-0.944c1.994,-1.031 1.585,-3.048 1.88,-3.884c1.495,-4.234 2.462,-4.728 2.868,-4.935c0.287,-0.147 0.625,-0.188 0.9,-0.356c1.62,-0.986 1.64,-1.551 0.286,-2.862c-0.176,-0.17 -0.479,-0.173 -0.641,-0.356c-0.096,-0.108 -0.968,-2.086 -1.049,-2.269c-1.227,-2.784 0.765,-3.249 1.181,-4.235c0.317,-0.75 0.182,-0.819 -0.453,-1.335c-0.102,-0.083 -1.127,-0.916 -1.244,-1.077c-0.187,-0.256 -2.217,-5.023 -1.79,-6.784c0.567,-2.343 0.813,-2.244 2.454,-3.998c1.691,-2.443 2.295,-2.383 1.904,-5.339c-0.537,-4.058 -0.878,-3.952 -1.596,-5.628c-1.42,-3.31 -0.418,-3.554 0.185,-4.661c2.679,-4.922 0.189,-5.888 -0.865,-7.168c-1.653,-2.008 -2.001,-6.965 -1.438,-10.084c0.418,-2.319 0.47,-2.323 0.023,-4.613c-0.332,-1.699 -0.058,-1.841 -0.068,-2.286c-0.004,-0.148 -0.033,-1.389 -0.889,-1.627c-0.437,-0.122 -0.908,-0.018 -1.361,0.003c-0.385,0.018 -0.766,0.103 -1.151,0.112c-2.063,0.052 -3.609,-1.762 -1.181,-3.096c7.392,-4.061 3.527,-10.719 5.061,-13.648c0.074,-0.141 0.309,-0.141 0.385,-0.281c1.061,-1.958 -0.628,-4.087 -0.722,-5.597c-0.142,-2.286 0.11,-2.275 0.077,-2.469c-0.159,-0.917 -0.505,-0.614 -1.391,-0.898c-0.805,-0.258 -0.731,-0.378 -1.492,-0.73c-0.299,-0.139 -0.641,-0.164 -0.948,-0.287c-2.26,-0.906 -1.076,-2.333 -0.94,-2.498c0.247,-0.297 0.295,-0.187 2.053,-0.482c1.271,-0.214 1.07,-0.552 1.612,-1.73c0.084,-0.183 0.311,-0.289 0.364,-0.484c0.044,-0.163 -0.16,-0.341 -0.096,-0.497c0.076,-0.188 0.342,-0.232 0.46,-0.397c0.201,-0.279 0.259,-0.65 0.48,-0.913c0.104,-0.124 0.381,-0.043 0.447,-0.192c0.351,-0.796 -0.002,-1.985 -0.051,-2.149c-0.128,-0.432 -0.418,-0.807 -0.531,-1.244c-0.145,-0.558 0.077,-2.684 -0.011,-3.453c-0.043,-0.376 -0.191,-0.737 -0.226,-1.114c-0.128,-1.399 0.682,-3.125 -0.208,-6.825c-2.009,-8.355 0.403,-8.967 -2.337,-13.714c-1.352,-2.343 0.324,-4.681 -1.217,-9.215c-0.877,-2.581 -0.433,-2.632 -0.254,-4.691c0.492,-5.648 -1.551,-9.108 -1.639,-17.287c-0.042,-3.912 -1.017,-4.752 -0.744,-6.885c0.154,-1.206 0.138,-1.195 -0.157,-2.391c-0.506,-2.048 -0.174,-2.979 -0.136,-3.355c0.335,-3.353 -1.071,-3.274 -1.089,-12.657c-0.008,-4.029 -0.363,-3.99 -0.486,-8.037c-0.148,-4.846 -1.49,-6.561 -1.654,-9.223c-0.462,-7.496 -1.132,-7.412 -1.484,-14.924c-0.134,-2.861 -1.106,-4.227 -1.2,-6.895c-0.165,-4.654 0.042,-4.654 -0.79,-9.23c-0.936,-5.151 -0.024,-5.256 -1.112,-10.367c-0.897,-4.216 -0.238,-4.264 -0.57,-6.807c-0.566,-4.325 -0.494,-4.329 -0.566,-4.701c-0.073,-0.373 -0.309,-0.7 -0.382,-1.073Zm-60.64,90.778c0.305,3.488 0.584,3.441 0.828,6.919c0.022,0.316 0.682,6.733 -0.076,7.972c-1.532,2.505 -4.555,-0.653 -9.064,0.085c-2.108,0.345 -2.732,0.811 -5.738,0.738c-4.079,-0.099 -6.941,0.563 -7.413,-3.012c-0.204,-1.55 1.11,-7.628 3.029,-19.544c0.843,-5.239 0.542,-5.279 1.877,-10.424c2.177,-8.391 1.452,-9.596 1.533,-10.286c0.065,-0.554 0.271,-0.503 1.232,-6.869c0.403,-2.67 2.474,-10.202 2.991,-13.863c0.279,-1.977 0.141,-1.993 0.587,-3.272c1.356,-3.897 0.587,-4.571 1.875,-4.836c2.049,-0.422 2.397,2.103 2.434,2.372c0.065,0.472 0.06,2.827 0.405,4.512c1.011,4.941 -0.145,5.092 0.779,8.104c0.711,2.316 0.709,2.3 0.708,2.32c-0.031,0.769 -0.422,1.496 -0.447,2.265c-0.008,0.261 0.217,0.198 0.862,4.637c0.598,4.111 1.147,5.059 1.176,9.215c0.003,0.417 -0.107,4.377 0.304,5.656c0.092,0.287 0.758,1.015 0.673,3.54c-0.28,8.302 0.059,8.592 1.015,11.543c0.056,0.173 0.032,0.165 0.432,2.23Zm413.401,65.538c0.046,0.394 -0.167,0.789 -0.121,1.183c0.142,1.208 1.084,1.535 1.236,1.588c0.38,0.132 0.82,-0.004 1.201,0.128c0.389,-0.25 0.845,-0.387 1.234,-0.637c1.609,-1.035 1.73,-1.76 3.317,-0.708c0.187,0.124 0.147,0.886 2.417,0.994c5.02,0.238 5.889,-1.028 8.355,0.344c2.979,1.659 5.277,2.168 5.317,2.185c3.807,1.587 4.015,0.586 6.939,1.24c2.31,0.516 3.928,2.291 7.023,2.803c3.176,0.525 3.685,-0.132 5.564,2.483c1.805,2.511 2.781,0.141 6.904,1.484c2.447,0.798 2.534,0.51 4.877,1.603c6.422,2.996 6.609,2.484 13.67,2.771c2.919,0.119 2.847,-0.678 5.759,-0.637c4.046,0.056 3.891,-0.701 6.933,-1.698c0.409,-0.134 2.454,-0.375 3.278,-0.597c4.311,-1.163 4.61,0.271 6.924,-0.922c0.464,-0.239 0.871,-0.577 1.328,-0.831c0.298,-0.166 0.605,-0.326 0.932,-0.426c1.329,-0.406 1.417,-0.322 1.522,-0.602c0.703,-1.868 -0.477,-2.757 -0.814,-3.059c-1.565,-1.402 -1.834,-1.037 -3.304,-2.555c-0.852,-0.88 -0.859,-0.857 -1.878,-1.521c-2.819,-1.839 -2.161,-4.011 -5.679,-4.847c-0.176,-0.042 -6.669,-0.657 -10.222,-4.513c-3.097,-3.361 -3.735,-3.336 -3.619,-7.897c0.094,-3.714 -2.427,-3.138 -1.907,-4.545c0.308,-0.832 2.942,-2.443 2.754,-4.62c-0.128,-1.486 -1.793,-2.126 -2.308,-3.37c-0.825,-1.996 -0.169,-2.161 1.769,-3.071c1.511,-0.71 1.024,-1.121 0.957,-2.784c-0.053,-1.305 1.615,-3.216 0.683,-4.291c-0.308,-0.355 -2.215,-1.274 -2.733,-2.684c-0.063,-0.172 -0.458,-1.247 0.816,-2.146c0.255,-0.18 1.417,-0.017 2.461,-1.038c0.669,-0.654 1.598,-2.257 1.854,-3.697c1.059,-5.966 0.307,-6.578 0.743,-7.8c0.166,-0.465 0.492,-0.864 0.637,-1.335c0.254,-0.824 -0.424,-4.004 0.573,-5.367c0.48,-0.656 0.561,-0.571 1.024,-1.239c1.004,-1.447 0.543,-1.621 1.533,-6.108c0.579,-2.624 0.289,-5.899 1.73,-7.786c1.129,-1.478 1.345,-1.302 3.197,-1.263c5.244,0.11 5.173,0.576 6.917,0.791c1.726,0.214 1.732,-0.055 3.446,0.22c1.659,0.266 1.687,0.819 4.595,1.047c2.632,0.206 2.673,0.446 3.358,0.075c0.081,-0.044 0.953,-1.219 1.033,-1.327c0.839,-1.131 1.081,-0.912 2.413,-0.468c1.77,0.59 1.826,0.389 3.529,-0.407c3.668,-1.714 7.333,-0.288 8.915,-2.547c0.447,-0.638 0.373,-2.527 0.66,-2.832c0.7,-0.744 0.864,-0.315 4.249,-0.232l2.512,-1.427c-1.771,-1.266 -1.649,-1.434 -3.642,-2.269c-3.135,-1.314 -2.487,-2.251 -5.824,-4.456c-1.917,-1.267 -2.018,-2.168 -4.683,-3.102c-1.963,-0.688 -2.254,-0.236 -6.622,-4.02c-2.208,-1.913 -2.553,-1.326 -5.043,-2.828c-3.228,-1.947 -4.606,-0.45 -7.242,-4.237c-1.038,-1.491 -0.973,-1.666 -2.727,-2.198c-0.342,-0.104 -0.729,-0.077 -1.044,-0.245c-0.175,-0.093 -0.188,-0.359 -0.336,-0.49c-0.33,-0.292 -1.114,-0.291 -0.953,-2.451c0.078,-1.045 1.35,-5.145 1.387,-5.676c0.169,-2.405 -0.114,-2.47 0.824,-4.685c1.423,-3.361 0.975,-3.488 2.044,-6.968c0.957,-3.114 -0.083,-4.167 0.889,-7.007c2.429,-7.097 2.909,-7.059 2.926,-14.746c0.014,-6.556 -0.409,-6.712 0.422,-7.802c0.073,-0.096 0.175,0.025 1.065,-1.06c3.408,-4.152 0.877,-5.659 4.071,-8.506c0.99,-0.883 1.117,-0.629 2.317,-1.232c0.03,-0.015 1.373,-1.11 3.54,-1.069c6.455,0.12 7.49,0.781 10.407,-0.913c1.645,-0.954 1.715,-1.127 3.541,-0.549c1.643,0.52 1.637,0.876 3.281,0.417c1.58,-0.441 2.315,-2.592 5.712,-3.553c3.475,-0.983 2.783,-2.031 2.501,-5.633c-0.376,-4.791 -2.824,-3.18 -6.188,-6.61c-2.608,-2.659 -3.832,-3.079 -5.168,-4.119c-0.292,-0.228 -0.222,-0.272 -0.498,-0.485c-0.096,-0.074 -0.091,-0.064 -1.234,-0.869c-2.179,-0.803 -2.258,-0.636 -4.174,-1.948c-0.839,-0.575 -3.03,-1.791 -4.206,-2.614c-2.68,-1.876 -2.656,-1.884 -5.211,-3.927c-1.754,-1.401 -2.144,-0.992 -4.361,-2.599c-1.922,-1.393 -2.223,-0.681 -3.512,-1.232c-0.225,-0.096 -1.997,-1.302 -5.922,-2.961c-6.561,-2.774 -8.448,-1.85 -10.278,-1.765c-0.764,0.035 -1.529,0.055 -2.294,0.086c-7.725,0.314 -7.53,1.537 -11.43,1.892c-3.046,0.277 -5.201,-2.269 -9.356,-3.464c-1.175,-0.338 -1.596,-0.047 -3.529,-1.16c-0.961,-0.554 -12.573,-5.535 -14.808,-5.914c-0.653,-0.111 -3.18,-0.108 -4.298,-0.777c-0.104,-0.062 -0.064,-0.117 -1.254,-0.845c-5.335,-3.262 -5.765,0.108 -8.546,5.8c-2.3,4.707 1.699,8.491 -3.307,14.961c-3.201,4.138 -4.384,5.12 -2.484,6.398c1.474,0.991 2.529,0.335 2.876,2.944c0.074,0.559 0.161,8.227 -0.517,10.276c-1.32,3.984 -1.384,3.958 -1.836,8.152c-0.275,2.55 -1.294,4.903 -1.19,8.03c0.083,2.478 0.237,2.559 -1.018,4.725c-1.885,3.253 -1.091,3.885 -2.136,9.138c-0.854,4.296 -1.045,4.259 -1.144,6.837c-0.025,0.654 -0.094,0.643 -1.298,8.08c-0.495,3.054 -1.305,2.839 -1.637,5.677c-0.45,3.844 -1.061,3.684 -1.907,6.959c-1.26,4.88 -1.096,4.91 -1.243,8.014c-0.113,2.382 -0.74,2.256 -1.002,4.633c-0.426,3.874 -0.153,4.393 -0.882,6.978c-1.035,3.67 -1.644,8.329 -1.739,9.061c-0.684,5.239 -1.249,5.127 -1.9,10.389c-0.345,2.791 -1.149,3.315 -1.327,5.725c-0.218,2.957 -0.152,2.948 -0.765,5.843c-0.605,2.86 -0.496,8.367 -0.482,9.095c0.047,2.404 -0.662,2.261 -1.018,4.618c-0.322,2.129 -0.536,2.051 -0.962,3.508c-0.17,0.582 -0.389,4.098 -0.68,5.609c-0.658,3.41 -0.058,3.515 -0.885,5.762c-1.767,4.804 -0.666,4.995 -1.413,9.183c-0.272,1.525 -1.234,2.885 -0.854,11.551c0.128,2.915 -0.712,2.822 -0.794,5.746c-0.191,6.784 -0.597,8.793 1.888,9.602c2.001,0.651 2.258,0.232 3.697,1.789c1.087,1.175 0.688,1.362 0.916,2.402Zm-255.362,-75.787c-0.478,-1.865 -0.891,-1.889 -0.23,-3.717c0.123,-0.341 0.336,-0.647 0.453,-0.99c0.661,-1.93 -0.464,-3.408 -0.526,-3.594c-0.652,-1.96 1.049,-2.176 0.039,-7.989c-0.451,-2.596 -1.164,-3.621 -1.994,-7.858c-0.351,-1.788 0.222,-1.85 -0.321,-3.602c-0.583,-1.883 -1.088,-2.339 0.629,-3.32c3.056,-1.746 0.425,-6.827 1.858,-12.776c1.146,-4.761 -0.309,-5.044 0.371,-16.001c0.504,-8.131 -1.815,-7.737 -3.351,-8.216c-2.372,-0.739 -1.435,-2.46 -0.867,-2.857c0.25,-0.174 0.602,-0.18 0.831,-0.38c0.395,-0.344 0.776,-0.74 0.999,-1.215c0.069,-0.147 0.318,-3.61 -0.126,-4.472c-0.134,-0.259 -4.404,-2.782 -1.319,-5.082c1.827,-1.362 2.611,-2.243 0.521,-3.186c-0.251,-0.113 -0.557,-0.113 -0.779,-0.275c-1.663,-1.21 -0.169,-2.486 -0.009,-2.622c0.407,-0.348 0.94,-0.53 1.342,-0.883c0.429,-0.377 0.472,-1.511 1.608,-1.899c1.821,-0.624 2.566,0.12 4.825,2.143c2.896,2.593 3.987,2.734 4.186,2.883c1.17,0.878 3.967,5.066 4.677,6.586c0.429,0.918 5.775,10.242 6.393,11.119c1.465,2.078 0.387,3.062 1.032,5.973c0.672,3.034 1.634,3.442 1.79,3.628c2.001,2.397 0.969,2.815 2.279,10.276c0.368,2.099 0.434,16.81 0.328,18.379c-0.426,6.319 -0.235,6.318 -0.29,6.865c-0.318,3.153 -0.187,3.16 -0.223,3.433c-0.104,0.792 -0.895,1.792 -0.847,4.629c0.059,3.522 -0.323,3.469 -0.965,6.932c-1.054,5.693 -3.859,11.855 -4.407,14.978c-0.577,3.287 -0.647,3.264 -1.616,5.629c-1.712,4.18 -2.643,8.193 -3.711,10.202c-3.817,7.183 -3.221,9.413 -6.226,13.082c-1.591,1.942 -1.417,2.053 -2.981,4c-1.931,2.403 -3.556,1.377 -4.035,-0.844c-0.827,-3.838 0.512,-4.794 0.521,-4.807c1.272,-1.89 0.592,-3.41 0.388,-4.329c-0.91,-4.088 0.152,-5.995 -0.052,-6.903c-0.379,-1.683 -1.388,-1.564 -0.819,-4.568c0.547,-2.886 -0.697,-2.875 -0.347,-5.808c0.245,-2.058 -0.369,-2.451 -0.232,-3.492c0.155,-1.177 0.738,-1.056 1.201,-5.708c0.04,-1.688 0.056,-1.66 0.001,-3.344Zm163.821,-83.969c0.104,-2.938 0.01,-2.926 0.544,-5.834c0.204,-1.112 0.248,-1.078 0.357,-2.223c0.278,-2.927 0.557,-2.868 0.847,-5.78c0.12,-1.204 -0.622,-4.817 4.889,-5.411c0.364,-0.039 3.017,-0.325 4.564,-0.304c0.865,0.012 0.859,0.082 1.498,0.652c1.378,1.229 1.441,1.518 3.212,1.035c6.468,-1.764 5.972,0.915 8.213,2.521c1.287,0.923 2.512,-0.309 4.568,2.514c2.024,2.78 1.734,4.141 1.758,4.785c0.086,2.285 0.258,2.24 0.708,4.496c0.689,3.457 -0.02,3.541 0.824,6.96c1.015,4.113 0.388,4.158 -0.976,8.172c-0.597,1.757 -0.106,1.944 -1.184,3.468c-1.246,1.76 -3.565,7.206 -3.839,7.849c-0.444,1.043 -5.706,8.986 -6.902,10.262c-0.581,0.62 -3.59,3.829 -6.915,8.059c-1.258,1.6 -1.265,1.578 -2.8,2.923c-1.947,1.706 -1.558,2.131 -4.818,4.485c-3.632,2.622 -3.463,2.804 -6.838,5.746c-2.826,2.463 -2.349,2.879 -2.626,3.041c-0.444,0.259 -1.961,0.127 -2.112,-0.049c-0.772,-0.905 0.727,-8.351 0.937,-13.705c0.13,-3.329 0.744,-4.022 0.862,-5.775c0.193,-2.869 0.21,-2.842 0.62,-5.679c0.998,-6.908 0.413,-7.476 1.474,-10.573c0.883,-2.577 0.515,-4.686 0.969,-8.974c0.058,-0.553 0.589,-5.568 0.936,-6.886c0.752,-2.854 0.95,-2.802 1.232,-5.773Zm246.969,344.007c2.443,-0.979 2.493,-0.816 4.76,-2.133c2.538,-1.475 3.961,-2.009 4.551,-2.318c2.72,-1.426 2.679,-1.505 5.613,-2.351c1.929,-0.556 1.77,-0.877 3.329,-1.589c3.87,-1.768 4.009,0.446 4.378,1.243c0.367,0.79 0.956,1.238 0.958,1.243c0.889,1.752 -1.476,3.167 -1.838,3.341c-3.011,1.447 -3.027,1.399 -3.284,1.533c-0.155,0.081 -0.226,0.277 -0.378,0.365c-1.461,0.845 -2.204,0.23 -4.591,1.112c-1.919,0.709 -5.238,2.551 -5.574,2.69c-0.267,0.11 -1.75,0.721 -3.274,1.508c-0.466,0.241 -0.344,0.419 -1.306,0.825c-1.196,0.506 -1.08,0.69 -2.297,1.159c-2.221,0.857 -2.144,0.998 -2.34,1.061c-1.905,0.61 -1.941,0.402 -2.102,0.463c-0.154,0.059 -0.215,0.26 -0.359,0.341c-0.908,0.51 -1.007,0.241 -1.926,0.754c-0.304,0.17 -1.666,1.603 -2.467,1.965c-0.315,0.143 -0.671,0.194 -0.973,0.362c-0.16,0.089 -0.228,0.298 -0.385,0.394c-0.9,0.55 -1.003,0.275 -1.918,0.76c-0.159,0.085 -0.233,0.285 -0.387,0.378c-1.121,0.679 -1.271,0.369 -2.307,1.192c-1.206,0.959 -1.136,1.012 -1.24,1.094c-1.277,1.009 -3.488,0.266 -5.272,1.777c-1.226,1.038 -1.332,0.856 -2.642,1.778c-0.696,0.49 -0.648,0.516 -1.301,1.046c-0.694,0.562 -3.44,1.62 -4.453,2.402c-0.66,0.509 -0.591,0.559 -1.25,1.076c-1.617,1.269 -6.368,0.975 -6.767,0.411c-0.944,-1.336 0.951,-2.447 1.145,-2.561c1.501,-0.88 4.051,-2.172 4.542,-2.444c4.783,-2.647 6.039,-1.919 8.357,-4.181c2.229,-2.176 2.942,-2.884 1.485,-4.075c-0.909,-0.742 -2.332,-0.289 -3.962,-0.438c-0.201,-0.018 -2.158,-0.197 -2.144,-1.337c0.017,-1.387 0.642,-0.973 1.918,-1.511c2.294,-0.968 3.173,-2.536 4.858,-3.135c2.639,-0.938 3.228,0.39 3.754,0.807c3.073,2.437 7.852,-0.883 17.091,-5.008Zm-921.51,-37.239c0.529,-0.405 0.612,-0.225 1.134,-0.624c0.785,-0.601 0.618,-0.757 0.698,-0.778c0.385,-0.104 2.032,0.601 2.201,0.674c0.452,0.193 0.883,0.434 1.341,0.611c2.175,0.844 3.284,-0.128 4.746,1.038c0.667,0.532 0.603,0.581 1.241,1.138c0.531,0.464 0.568,0.372 3.089,1.562c0.366,0.172 1.611,0.76 4.214,2.786c0.421,0.328 2.832,3.169 4.05,3.7c1.758,0.766 3.505,-0.515 4.532,2.609c1.047,3.185 2.016,2.253 4.47,2.43c2.763,0.2 2.303,2.64 5.897,2.918c0.174,0.013 1.917,0.148 2.139,0.453c0.828,1.137 -0.003,1.16 -0.665,2.395c-0.526,0.981 -0.331,1.046 -0.826,2.032c-0.345,0.688 -0.254,0.696 -0.503,1.439c-0.092,0.273 -0.802,2.389 -3.539,0.647c-0.661,-0.421 -0.638,-0.435 -1.356,-0.761c-1.15,-0.522 -0.988,-0.764 -1.27,-1.006c-0.466,-0.4 -1.082,-0.929 -6.809,-3.534c-0.966,-0.439 -1.144,-0.939 -1.259,-1.04c-0.236,-0.206 -0.547,-0.309 -0.791,-0.505c-1.128,-0.904 -1.16,-0.858 -1.251,-0.945c-0.307,-0.296 -0.913,-2.16 -4.801,-3.01c-0.155,-0.034 -1.339,-0.293 -1.851,-0.725c-0.567,-0.479 -0.507,-1.667 -6.114,-4.163c-1.099,-0.489 -1.035,-0.823 -1.262,-1.023c-0.235,-0.206 -0.547,-0.307 -0.793,-0.5c-0.165,-0.13 -0.254,-0.345 -0.429,-0.46c-0.277,-0.182 -0.633,-0.221 -0.902,-0.414c-0.197,-0.141 -0.272,-0.411 -0.461,-0.563c-0.406,-0.327 -1.302,-0.401 -1.903,-1.657c-0.088,-0.183 -0.768,-1.603 -1.283,-2.186c-0.167,-0.189 -0.433,-0.271 -0.601,-0.46l-1.084,-2.077Z" style="fill:#fff;fill-opacity:0.99;"/></g></svg>